%TF.GenerationSoftware,KiCad,Pcbnew,(5.1.10)-1*%
%TF.CreationDate,2021-07-26T19:48:55+02:00*%
%TF.ProjectId,RobotskaRuka,526f626f-7473-46b6-9152-756b612e6b69,rev?*%
%TF.SameCoordinates,Original*%
%TF.FileFunction,Legend,Bot*%
%TF.FilePolarity,Positive*%
%FSLAX46Y46*%
G04 Gerber Fmt 4.6, Leading zero omitted, Abs format (unit mm)*
G04 Created by KiCad (PCBNEW (5.1.10)-1) date 2021-07-26 19:48:55*
%MOMM*%
%LPD*%
G01*
G04 APERTURE LIST*
%ADD10C,0.150000*%
%ADD11C,0.010000*%
G04 APERTURE END LIST*
D10*
X172738095Y-68285714D02*
X172738095Y-69142857D01*
X172785714Y-69238095D01*
X172880952Y-69285714D01*
X172928571Y-69285714D01*
X172738095Y-67952380D02*
X172785714Y-68000000D01*
X172738095Y-68047619D01*
X172690476Y-68000000D01*
X172738095Y-67952380D01*
X172738095Y-68047619D01*
X172119047Y-68952380D02*
X172214285Y-68904761D01*
X172261904Y-68857142D01*
X172309523Y-68761904D01*
X172309523Y-68476190D01*
X172261904Y-68380952D01*
X172214285Y-68333333D01*
X172119047Y-68285714D01*
X171976190Y-68285714D01*
X171880952Y-68333333D01*
X171833333Y-68380952D01*
X171785714Y-68476190D01*
X171785714Y-68761904D01*
X171833333Y-68857142D01*
X171880952Y-68904761D01*
X171976190Y-68952380D01*
X172119047Y-68952380D01*
X171404761Y-68904761D02*
X171309523Y-68952380D01*
X171119047Y-68952380D01*
X171023809Y-68904761D01*
X170976190Y-68809523D01*
X170976190Y-68761904D01*
X171023809Y-68666666D01*
X171119047Y-68619047D01*
X171261904Y-68619047D01*
X171357142Y-68571428D01*
X171404761Y-68476190D01*
X171404761Y-68428571D01*
X171357142Y-68333333D01*
X171261904Y-68285714D01*
X171119047Y-68285714D01*
X171023809Y-68333333D01*
X170547619Y-68952380D02*
X170547619Y-68285714D01*
X170547619Y-67952380D02*
X170595238Y-68000000D01*
X170547619Y-68047619D01*
X170500000Y-68000000D01*
X170547619Y-67952380D01*
X170547619Y-68047619D01*
X170071428Y-68285714D02*
X170071428Y-69285714D01*
X170071428Y-68333333D02*
X169976190Y-68285714D01*
X169785714Y-68285714D01*
X169690476Y-68333333D01*
X169642857Y-68380952D01*
X169595238Y-68476190D01*
X169595238Y-68761904D01*
X169642857Y-68857142D01*
X169690476Y-68904761D01*
X169785714Y-68952380D01*
X169976190Y-68952380D01*
X170071428Y-68904761D01*
X169166666Y-68857142D02*
X169119047Y-68904761D01*
X169166666Y-68952380D01*
X169214285Y-68904761D01*
X169166666Y-68857142D01*
X169166666Y-68952380D01*
X168690476Y-68952380D02*
X168690476Y-67952380D01*
X168595238Y-68571428D02*
X168309523Y-68952380D01*
X168309523Y-68285714D02*
X168690476Y-68666666D01*
X167738095Y-68952380D02*
X167833333Y-68904761D01*
X167880952Y-68857142D01*
X167928571Y-68761904D01*
X167928571Y-68476190D01*
X167880952Y-68380952D01*
X167833333Y-68333333D01*
X167738095Y-68285714D01*
X167595238Y-68285714D01*
X167500000Y-68333333D01*
X167452380Y-68380952D01*
X167404761Y-68476190D01*
X167404761Y-68761904D01*
X167452380Y-68857142D01*
X167500000Y-68904761D01*
X167595238Y-68952380D01*
X167738095Y-68952380D01*
X166976190Y-68952380D02*
X166976190Y-68285714D01*
X166976190Y-68476190D02*
X166928571Y-68380952D01*
X166880952Y-68333333D01*
X166785714Y-68285714D01*
X166690476Y-68285714D01*
X165928571Y-68952380D02*
X165928571Y-67952380D01*
X165928571Y-68904761D02*
X166023809Y-68952380D01*
X166214285Y-68952380D01*
X166309523Y-68904761D01*
X166357142Y-68857142D01*
X166404761Y-68761904D01*
X166404761Y-68476190D01*
X166357142Y-68380952D01*
X166309523Y-68333333D01*
X166214285Y-68285714D01*
X166023809Y-68285714D01*
X165928571Y-68333333D01*
X165071428Y-68904761D02*
X165166666Y-68952380D01*
X165357142Y-68952380D01*
X165452380Y-68904761D01*
X165500000Y-68809523D01*
X165500000Y-68428571D01*
X165452380Y-68333333D01*
X165357142Y-68285714D01*
X165166666Y-68285714D01*
X165071428Y-68333333D01*
X165023809Y-68428571D01*
X165023809Y-68523809D01*
X165500000Y-68619047D01*
X164595238Y-68952380D02*
X164595238Y-67952380D01*
X164500000Y-68571428D02*
X164214285Y-68952380D01*
X164214285Y-68285714D02*
X164595238Y-68666666D01*
X163166666Y-68476190D02*
X163214285Y-68428571D01*
X163309523Y-68380952D01*
X163404761Y-68380952D01*
X163500000Y-68428571D01*
X163547619Y-68476190D01*
X163595238Y-68571428D01*
X163595238Y-68666666D01*
X163547619Y-68761904D01*
X163500000Y-68809523D01*
X163404761Y-68857142D01*
X163309523Y-68857142D01*
X163214285Y-68809523D01*
X163166666Y-68761904D01*
X163166666Y-68380952D02*
X163166666Y-68761904D01*
X163119047Y-68809523D01*
X163071428Y-68809523D01*
X162976190Y-68761904D01*
X162928571Y-68666666D01*
X162928571Y-68428571D01*
X163023809Y-68285714D01*
X163166666Y-68190476D01*
X163357142Y-68142857D01*
X163547619Y-68190476D01*
X163690476Y-68285714D01*
X163785714Y-68428571D01*
X163833333Y-68619047D01*
X163785714Y-68809523D01*
X163690476Y-68952380D01*
X163547619Y-69047619D01*
X163357142Y-69095238D01*
X163166666Y-69047619D01*
X163023809Y-68952380D01*
X162071428Y-68285714D02*
X162071428Y-69095238D01*
X162119047Y-69190476D01*
X162166666Y-69238095D01*
X162261904Y-69285714D01*
X162404761Y-69285714D01*
X162500000Y-69238095D01*
X162071428Y-68904761D02*
X162166666Y-68952380D01*
X162357142Y-68952380D01*
X162452380Y-68904761D01*
X162500000Y-68857142D01*
X162547619Y-68761904D01*
X162547619Y-68476190D01*
X162500000Y-68380952D01*
X162452380Y-68333333D01*
X162357142Y-68285714D01*
X162166666Y-68285714D01*
X162071428Y-68333333D01*
X161595238Y-68952380D02*
X161595238Y-68285714D01*
X161595238Y-68380952D02*
X161547619Y-68333333D01*
X161452380Y-68285714D01*
X161309523Y-68285714D01*
X161214285Y-68333333D01*
X161166666Y-68428571D01*
X161166666Y-68952380D01*
X161166666Y-68428571D02*
X161119047Y-68333333D01*
X161023809Y-68285714D01*
X160880952Y-68285714D01*
X160785714Y-68333333D01*
X160738095Y-68428571D01*
X160738095Y-68952380D01*
X159833333Y-68952380D02*
X159833333Y-68428571D01*
X159880952Y-68333333D01*
X159976190Y-68285714D01*
X160166666Y-68285714D01*
X160261904Y-68333333D01*
X159833333Y-68904761D02*
X159928571Y-68952380D01*
X160166666Y-68952380D01*
X160261904Y-68904761D01*
X160309523Y-68809523D01*
X160309523Y-68714285D01*
X160261904Y-68619047D01*
X160166666Y-68571428D01*
X159928571Y-68571428D01*
X159833333Y-68523809D01*
X159357142Y-68952380D02*
X159357142Y-68285714D01*
X159357142Y-67952380D02*
X159404761Y-68000000D01*
X159357142Y-68047619D01*
X159309523Y-68000000D01*
X159357142Y-67952380D01*
X159357142Y-68047619D01*
X158738095Y-68952380D02*
X158833333Y-68904761D01*
X158880952Y-68809523D01*
X158880952Y-67952380D01*
X158357142Y-68857142D02*
X158309523Y-68904761D01*
X158357142Y-68952380D01*
X158404761Y-68904761D01*
X158357142Y-68857142D01*
X158357142Y-68952380D01*
X157452380Y-68904761D02*
X157547619Y-68952380D01*
X157738095Y-68952380D01*
X157833333Y-68904761D01*
X157880952Y-68857142D01*
X157928571Y-68761904D01*
X157928571Y-68476190D01*
X157880952Y-68380952D01*
X157833333Y-68333333D01*
X157738095Y-68285714D01*
X157547619Y-68285714D01*
X157452380Y-68333333D01*
X156880952Y-68952380D02*
X156976190Y-68904761D01*
X157023809Y-68857142D01*
X157071428Y-68761904D01*
X157071428Y-68476190D01*
X157023809Y-68380952D01*
X156976190Y-68333333D01*
X156880952Y-68285714D01*
X156738095Y-68285714D01*
X156642857Y-68333333D01*
X156595238Y-68380952D01*
X156547619Y-68476190D01*
X156547619Y-68761904D01*
X156595238Y-68857142D01*
X156642857Y-68904761D01*
X156738095Y-68952380D01*
X156880952Y-68952380D01*
X156119047Y-68952380D02*
X156119047Y-68285714D01*
X156119047Y-68380952D02*
X156071428Y-68333333D01*
X155976190Y-68285714D01*
X155833333Y-68285714D01*
X155738095Y-68333333D01*
X155690476Y-68428571D01*
X155690476Y-68952380D01*
X155690476Y-68428571D02*
X155642857Y-68333333D01*
X155547619Y-68285714D01*
X155404761Y-68285714D01*
X155309523Y-68333333D01*
X155261904Y-68428571D01*
X155261904Y-68952380D01*
D11*
%TO.C,G\u002A\u002A\u002A*%
G36*
X129463427Y-138628607D02*
G01*
X128916383Y-138737332D01*
X128405804Y-138939495D01*
X127936685Y-139233218D01*
X127590627Y-139536854D01*
X127424426Y-139711233D01*
X127277097Y-139878024D01*
X127169847Y-140012643D01*
X127135228Y-140064761D01*
X127043456Y-140226000D01*
X127912800Y-140226000D01*
X127912800Y-140581600D01*
X127608000Y-140581600D01*
X127447415Y-140587365D01*
X127337320Y-140602353D01*
X127304084Y-140619700D01*
X127335946Y-140672346D01*
X127420511Y-140781258D01*
X127542500Y-140927192D01*
X127608884Y-141003626D01*
X127772411Y-141200978D01*
X127869372Y-141348488D01*
X127909996Y-141462829D01*
X127912800Y-141498926D01*
X127912800Y-141648400D01*
X126627742Y-141648400D01*
X126659886Y-142042100D01*
X126753842Y-142591602D01*
X126938361Y-143107096D01*
X127205406Y-143579074D01*
X127546940Y-143998030D01*
X127954924Y-144354457D01*
X128421321Y-144638850D01*
X128938093Y-144841702D01*
X129053774Y-144873436D01*
X129385354Y-144930031D01*
X129767638Y-144951310D01*
X130162172Y-144938263D01*
X130530507Y-144891881D01*
X130788930Y-144828729D01*
X131224203Y-144657063D01*
X131608342Y-144434370D01*
X131972606Y-144141082D01*
X132130121Y-143989192D01*
X132496450Y-143557817D01*
X132766373Y-143097207D01*
X132941933Y-142601979D01*
X133025170Y-142066749D01*
X133027583Y-141623000D01*
X132953577Y-141058107D01*
X132791947Y-140542645D01*
X132623012Y-140226000D01*
X130960800Y-140226000D01*
X130960800Y-140403800D01*
X130954649Y-140517639D01*
X130916666Y-140568229D01*
X130817560Y-140581202D01*
X130757600Y-140581600D01*
X130554400Y-140581600D01*
X130554400Y-141648400D01*
X130100755Y-141648400D01*
X130086278Y-141127700D01*
X130071800Y-140607000D01*
X129881300Y-140591233D01*
X129756424Y-140573457D01*
X129702998Y-140528298D01*
X129690911Y-140425645D01*
X129690800Y-140400733D01*
X129690800Y-140276321D01*
X129538400Y-140276321D01*
X129519626Y-140347035D01*
X129464297Y-140507885D01*
X129373907Y-140754799D01*
X129249950Y-141083707D01*
X129093918Y-141490537D01*
X129077091Y-141534100D01*
X129033204Y-141605232D01*
X128953304Y-141639159D01*
X128806177Y-141648319D01*
X128790358Y-141648354D01*
X128547800Y-141648309D01*
X128439243Y-141356254D01*
X128368034Y-141165032D01*
X128278527Y-140925167D01*
X128188075Y-140683154D01*
X128172799Y-140642327D01*
X128014911Y-140220454D01*
X128252159Y-140235927D01*
X128489408Y-140251400D01*
X128599829Y-140613862D01*
X128675395Y-140860229D01*
X128729336Y-141012383D01*
X128771461Y-141072724D01*
X128811579Y-141043653D01*
X128859498Y-140927572D01*
X128925027Y-140726882D01*
X128934967Y-140695900D01*
X129085939Y-140226000D01*
X129312170Y-140226000D01*
X129447679Y-140236093D01*
X129528468Y-140261602D01*
X129538400Y-140276321D01*
X129690800Y-140276321D01*
X129690800Y-140226000D01*
X130960800Y-140226000D01*
X132623012Y-140226000D01*
X132539656Y-140069762D01*
X132193665Y-139632605D01*
X132104063Y-139539937D01*
X131670145Y-139170984D01*
X131198862Y-138896110D01*
X130686109Y-138713472D01*
X130127779Y-138621229D01*
X130041942Y-138615198D01*
X129463427Y-138628607D01*
G37*
X129463427Y-138628607D02*
X128916383Y-138737332D01*
X128405804Y-138939495D01*
X127936685Y-139233218D01*
X127590627Y-139536854D01*
X127424426Y-139711233D01*
X127277097Y-139878024D01*
X127169847Y-140012643D01*
X127135228Y-140064761D01*
X127043456Y-140226000D01*
X127912800Y-140226000D01*
X127912800Y-140581600D01*
X127608000Y-140581600D01*
X127447415Y-140587365D01*
X127337320Y-140602353D01*
X127304084Y-140619700D01*
X127335946Y-140672346D01*
X127420511Y-140781258D01*
X127542500Y-140927192D01*
X127608884Y-141003626D01*
X127772411Y-141200978D01*
X127869372Y-141348488D01*
X127909996Y-141462829D01*
X127912800Y-141498926D01*
X127912800Y-141648400D01*
X126627742Y-141648400D01*
X126659886Y-142042100D01*
X126753842Y-142591602D01*
X126938361Y-143107096D01*
X127205406Y-143579074D01*
X127546940Y-143998030D01*
X127954924Y-144354457D01*
X128421321Y-144638850D01*
X128938093Y-144841702D01*
X129053774Y-144873436D01*
X129385354Y-144930031D01*
X129767638Y-144951310D01*
X130162172Y-144938263D01*
X130530507Y-144891881D01*
X130788930Y-144828729D01*
X131224203Y-144657063D01*
X131608342Y-144434370D01*
X131972606Y-144141082D01*
X132130121Y-143989192D01*
X132496450Y-143557817D01*
X132766373Y-143097207D01*
X132941933Y-142601979D01*
X133025170Y-142066749D01*
X133027583Y-141623000D01*
X132953577Y-141058107D01*
X132791947Y-140542645D01*
X132623012Y-140226000D01*
X130960800Y-140226000D01*
X130960800Y-140403800D01*
X130954649Y-140517639D01*
X130916666Y-140568229D01*
X130817560Y-140581202D01*
X130757600Y-140581600D01*
X130554400Y-140581600D01*
X130554400Y-141648400D01*
X130100755Y-141648400D01*
X130086278Y-141127700D01*
X130071800Y-140607000D01*
X129881300Y-140591233D01*
X129756424Y-140573457D01*
X129702998Y-140528298D01*
X129690911Y-140425645D01*
X129690800Y-140400733D01*
X129690800Y-140276321D01*
X129538400Y-140276321D01*
X129519626Y-140347035D01*
X129464297Y-140507885D01*
X129373907Y-140754799D01*
X129249950Y-141083707D01*
X129093918Y-141490537D01*
X129077091Y-141534100D01*
X129033204Y-141605232D01*
X128953304Y-141639159D01*
X128806177Y-141648319D01*
X128790358Y-141648354D01*
X128547800Y-141648309D01*
X128439243Y-141356254D01*
X128368034Y-141165032D01*
X128278527Y-140925167D01*
X128188075Y-140683154D01*
X128172799Y-140642327D01*
X128014911Y-140220454D01*
X128252159Y-140235927D01*
X128489408Y-140251400D01*
X128599829Y-140613862D01*
X128675395Y-140860229D01*
X128729336Y-141012383D01*
X128771461Y-141072724D01*
X128811579Y-141043653D01*
X128859498Y-140927572D01*
X128925027Y-140726882D01*
X128934967Y-140695900D01*
X129085939Y-140226000D01*
X129312170Y-140226000D01*
X129447679Y-140236093D01*
X129528468Y-140261602D01*
X129538400Y-140276321D01*
X129690800Y-140276321D01*
X129690800Y-140226000D01*
X130960800Y-140226000D01*
X132623012Y-140226000D01*
X132539656Y-140069762D01*
X132193665Y-139632605D01*
X132104063Y-139539937D01*
X131670145Y-139170984D01*
X131198862Y-138896110D01*
X130686109Y-138713472D01*
X130127779Y-138621229D01*
X130041942Y-138615198D01*
X129463427Y-138628607D01*
G36*
X124858071Y-142430933D02*
G01*
X124705078Y-142506458D01*
X124596264Y-142630610D01*
X124560000Y-142771996D01*
X124603601Y-142952246D01*
X124718717Y-143083143D01*
X124881823Y-143151241D01*
X125069389Y-143143094D01*
X125154220Y-143111594D01*
X125273256Y-143004383D01*
X125327147Y-142850250D01*
X125327034Y-142848735D01*
X125197702Y-142848735D01*
X125173040Y-142911974D01*
X125078990Y-142993769D01*
X124942939Y-143021030D01*
X124811887Y-142988222D01*
X124773360Y-142959040D01*
X124722465Y-142860001D01*
X124712400Y-142791400D01*
X124753245Y-142652116D01*
X124871307Y-142575878D01*
X124977650Y-142562800D01*
X125113269Y-142604522D01*
X125192189Y-142709787D01*
X125197702Y-142848735D01*
X125327034Y-142848735D01*
X125314534Y-142681359D01*
X125234056Y-142529873D01*
X125180944Y-142480124D01*
X125026331Y-142417624D01*
X124858071Y-142430933D01*
G37*
X124858071Y-142430933D02*
X124705078Y-142506458D01*
X124596264Y-142630610D01*
X124560000Y-142771996D01*
X124603601Y-142952246D01*
X124718717Y-143083143D01*
X124881823Y-143151241D01*
X125069389Y-143143094D01*
X125154220Y-143111594D01*
X125273256Y-143004383D01*
X125327147Y-142850250D01*
X125327034Y-142848735D01*
X125197702Y-142848735D01*
X125173040Y-142911974D01*
X125078990Y-142993769D01*
X124942939Y-143021030D01*
X124811887Y-142988222D01*
X124773360Y-142959040D01*
X124722465Y-142860001D01*
X124712400Y-142791400D01*
X124753245Y-142652116D01*
X124871307Y-142575878D01*
X124977650Y-142562800D01*
X125113269Y-142604522D01*
X125192189Y-142709787D01*
X125197702Y-142848735D01*
X125327034Y-142848735D01*
X125314534Y-142681359D01*
X125234056Y-142529873D01*
X125180944Y-142480124D01*
X125026331Y-142417624D01*
X124858071Y-142430933D01*
G36*
X124034564Y-142448037D02*
G01*
X123951699Y-142477392D01*
X123950272Y-142512830D01*
X124037447Y-142543313D01*
X124115500Y-142553166D01*
X124252756Y-142584759D01*
X124306478Y-142636940D01*
X124273294Y-142689984D01*
X124149833Y-142724164D01*
X124144813Y-142724681D01*
X124011649Y-142756425D01*
X123961088Y-142804106D01*
X123996036Y-142847800D01*
X124119399Y-142867584D01*
X124123967Y-142867600D01*
X124245273Y-142875597D01*
X124295776Y-142916625D01*
X124305997Y-143016235D01*
X124306000Y-143020000D01*
X124325961Y-143131619D01*
X124372294Y-143172845D01*
X124424680Y-143130804D01*
X124437339Y-143103211D01*
X124449273Y-143017238D01*
X124452463Y-142867148D01*
X124448445Y-142734911D01*
X124433000Y-142435800D01*
X124191700Y-142435800D01*
X124034564Y-142448037D01*
G37*
X124034564Y-142448037D02*
X123951699Y-142477392D01*
X123950272Y-142512830D01*
X124037447Y-142543313D01*
X124115500Y-142553166D01*
X124252756Y-142584759D01*
X124306478Y-142636940D01*
X124273294Y-142689984D01*
X124149833Y-142724164D01*
X124144813Y-142724681D01*
X124011649Y-142756425D01*
X123961088Y-142804106D01*
X123996036Y-142847800D01*
X124119399Y-142867584D01*
X124123967Y-142867600D01*
X124245273Y-142875597D01*
X124295776Y-142916625D01*
X124305997Y-143016235D01*
X124306000Y-143020000D01*
X124325961Y-143131619D01*
X124372294Y-143172845D01*
X124424680Y-143130804D01*
X124437339Y-143103211D01*
X124449273Y-143017238D01*
X124452463Y-142867148D01*
X124448445Y-142734911D01*
X124433000Y-142435800D01*
X124191700Y-142435800D01*
X124034564Y-142448037D01*
G36*
X123196120Y-142470717D02*
G01*
X123123229Y-142585272D01*
X123044253Y-142736986D01*
X122972075Y-142898170D01*
X122919579Y-143041135D01*
X122899647Y-143138191D01*
X122905853Y-143160785D01*
X122959790Y-143155648D01*
X123007654Y-143108820D01*
X123098690Y-143047502D01*
X123231014Y-143020045D01*
X123364306Y-143027538D01*
X123458245Y-143071070D01*
X123474830Y-143096200D01*
X123541157Y-143163753D01*
X123579069Y-143172400D01*
X123636148Y-143150894D01*
X123637134Y-143131537D01*
X123511368Y-142836020D01*
X123508407Y-142829661D01*
X123363818Y-142829661D01*
X123335148Y-142863441D01*
X123263511Y-142867600D01*
X123168517Y-142853405D01*
X123137600Y-142826509D01*
X123164674Y-142756362D01*
X123203640Y-142695104D01*
X123254495Y-142639407D01*
X123292230Y-142661770D01*
X123329550Y-142736195D01*
X123363818Y-142829661D01*
X123508407Y-142829661D01*
X123414004Y-142626970D01*
X123339902Y-142494949D01*
X123283920Y-142430522D01*
X123250043Y-142421013D01*
X123196120Y-142470717D01*
G37*
X123196120Y-142470717D02*
X123123229Y-142585272D01*
X123044253Y-142736986D01*
X122972075Y-142898170D01*
X122919579Y-143041135D01*
X122899647Y-143138191D01*
X122905853Y-143160785D01*
X122959790Y-143155648D01*
X123007654Y-143108820D01*
X123098690Y-143047502D01*
X123231014Y-143020045D01*
X123364306Y-143027538D01*
X123458245Y-143071070D01*
X123474830Y-143096200D01*
X123541157Y-143163753D01*
X123579069Y-143172400D01*
X123636148Y-143150894D01*
X123637134Y-143131537D01*
X123511368Y-142836020D01*
X123508407Y-142829661D01*
X123363818Y-142829661D01*
X123335148Y-142863441D01*
X123263511Y-142867600D01*
X123168517Y-142853405D01*
X123137600Y-142826509D01*
X123164674Y-142756362D01*
X123203640Y-142695104D01*
X123254495Y-142639407D01*
X123292230Y-142661770D01*
X123329550Y-142736195D01*
X123363818Y-142829661D01*
X123508407Y-142829661D01*
X123414004Y-142626970D01*
X123339902Y-142494949D01*
X123283920Y-142430522D01*
X123250043Y-142421013D01*
X123196120Y-142470717D01*
G36*
X122359658Y-142443041D02*
G01*
X122226351Y-142535299D01*
X122172908Y-142678675D01*
X122172400Y-142696340D01*
X122213482Y-142830373D01*
X122335103Y-142903907D01*
X122461960Y-142918400D01*
X122577756Y-142929304D01*
X122623287Y-142977343D01*
X122629600Y-143045400D01*
X122656097Y-143147543D01*
X122705800Y-143172400D01*
X122745994Y-143152441D01*
X122769587Y-143080318D01*
X122780255Y-142937656D01*
X122782000Y-142791400D01*
X122782000Y-142693174D01*
X122629600Y-142693174D01*
X122614959Y-142786063D01*
X122549980Y-142811683D01*
X122489900Y-142807474D01*
X122375030Y-142765381D01*
X122333967Y-142677100D01*
X122337978Y-142596579D01*
X122399946Y-142566146D01*
X122473667Y-142562800D01*
X122584022Y-142575560D01*
X122625198Y-142631125D01*
X122629600Y-142693174D01*
X122782000Y-142693174D01*
X122782000Y-142410400D01*
X122561274Y-142410400D01*
X122359658Y-142443041D01*
G37*
X122359658Y-142443041D02*
X122226351Y-142535299D01*
X122172908Y-142678675D01*
X122172400Y-142696340D01*
X122213482Y-142830373D01*
X122335103Y-142903907D01*
X122461960Y-142918400D01*
X122577756Y-142929304D01*
X122623287Y-142977343D01*
X122629600Y-143045400D01*
X122656097Y-143147543D01*
X122705800Y-143172400D01*
X122745994Y-143152441D01*
X122769587Y-143080318D01*
X122780255Y-142937656D01*
X122782000Y-142791400D01*
X122782000Y-142693174D01*
X122629600Y-142693174D01*
X122614959Y-142786063D01*
X122549980Y-142811683D01*
X122489900Y-142807474D01*
X122375030Y-142765381D01*
X122333967Y-142677100D01*
X122337978Y-142596579D01*
X122399946Y-142566146D01*
X122473667Y-142562800D01*
X122584022Y-142575560D01*
X122625198Y-142631125D01*
X122629600Y-142693174D01*
X122782000Y-142693174D01*
X122782000Y-142410400D01*
X122561274Y-142410400D01*
X122359658Y-142443041D01*
G36*
X121648458Y-142443041D02*
G01*
X121515151Y-142535299D01*
X121461708Y-142678675D01*
X121461200Y-142696340D01*
X121502282Y-142830373D01*
X121623903Y-142903907D01*
X121750760Y-142918400D01*
X121866556Y-142929304D01*
X121912087Y-142977343D01*
X121918400Y-143045400D01*
X121944897Y-143147543D01*
X121994600Y-143172400D01*
X122034794Y-143152441D01*
X122058387Y-143080318D01*
X122069055Y-142937656D01*
X122070800Y-142791400D01*
X122070800Y-142693174D01*
X121918400Y-142693174D01*
X121903759Y-142786063D01*
X121838780Y-142811683D01*
X121778700Y-142807474D01*
X121663830Y-142765381D01*
X121622767Y-142677100D01*
X121626778Y-142596579D01*
X121688746Y-142566146D01*
X121762467Y-142562800D01*
X121872822Y-142575560D01*
X121913998Y-142631125D01*
X121918400Y-142693174D01*
X122070800Y-142693174D01*
X122070800Y-142410400D01*
X121850074Y-142410400D01*
X121648458Y-142443041D01*
G37*
X121648458Y-142443041D02*
X121515151Y-142535299D01*
X121461708Y-142678675D01*
X121461200Y-142696340D01*
X121502282Y-142830373D01*
X121623903Y-142903907D01*
X121750760Y-142918400D01*
X121866556Y-142929304D01*
X121912087Y-142977343D01*
X121918400Y-143045400D01*
X121944897Y-143147543D01*
X121994600Y-143172400D01*
X122034794Y-143152441D01*
X122058387Y-143080318D01*
X122069055Y-142937656D01*
X122070800Y-142791400D01*
X122070800Y-142693174D01*
X121918400Y-142693174D01*
X121903759Y-142786063D01*
X121838780Y-142811683D01*
X121778700Y-142807474D01*
X121663830Y-142765381D01*
X121622767Y-142677100D01*
X121626778Y-142596579D01*
X121688746Y-142566146D01*
X121762467Y-142562800D01*
X121872822Y-142575560D01*
X121913998Y-142631125D01*
X121918400Y-142693174D01*
X122070800Y-142693174D01*
X122070800Y-142410400D01*
X121850074Y-142410400D01*
X121648458Y-142443041D01*
G36*
X121239155Y-142433808D02*
G01*
X121215399Y-142516788D01*
X121207351Y-142678475D01*
X121207200Y-142715200D01*
X121207200Y-143020000D01*
X121054800Y-143020000D01*
X120933809Y-143042718D01*
X120902400Y-143096200D01*
X120932318Y-143146424D01*
X121034042Y-143169301D01*
X121131000Y-143172400D01*
X121359600Y-143172400D01*
X121359600Y-142791400D01*
X121355609Y-142590432D01*
X121341184Y-142472467D01*
X121312652Y-142419129D01*
X121283400Y-142410400D01*
X121239155Y-142433808D01*
G37*
X121239155Y-142433808D02*
X121215399Y-142516788D01*
X121207351Y-142678475D01*
X121207200Y-142715200D01*
X121207200Y-143020000D01*
X121054800Y-143020000D01*
X120933809Y-143042718D01*
X120902400Y-143096200D01*
X120932318Y-143146424D01*
X121034042Y-143169301D01*
X121131000Y-143172400D01*
X121359600Y-143172400D01*
X121359600Y-142791400D01*
X121355609Y-142590432D01*
X121341184Y-142472467D01*
X121312652Y-142419129D01*
X121283400Y-142410400D01*
X121239155Y-142433808D01*
G36*
X120684407Y-142430358D02*
G01*
X120660814Y-142502481D01*
X120650146Y-142645143D01*
X120648400Y-142791400D01*
X120652392Y-142992367D01*
X120666817Y-143110332D01*
X120695349Y-143163670D01*
X120724600Y-143172400D01*
X120764794Y-143152441D01*
X120788387Y-143080318D01*
X120799055Y-142937656D01*
X120800800Y-142791400D01*
X120796809Y-142590432D01*
X120782384Y-142472467D01*
X120753852Y-142419129D01*
X120724600Y-142410400D01*
X120684407Y-142430358D01*
G37*
X120684407Y-142430358D02*
X120660814Y-142502481D01*
X120650146Y-142645143D01*
X120648400Y-142791400D01*
X120652392Y-142992367D01*
X120666817Y-143110332D01*
X120695349Y-143163670D01*
X120724600Y-143172400D01*
X120764794Y-143152441D01*
X120788387Y-143080318D01*
X120799055Y-142937656D01*
X120800800Y-142791400D01*
X120796809Y-142590432D01*
X120782384Y-142472467D01*
X120753852Y-142419129D01*
X120724600Y-142410400D01*
X120684407Y-142430358D01*
G36*
X120031469Y-142418557D02*
G01*
X119953454Y-142446800D01*
X119937200Y-142486600D01*
X119970754Y-142539584D01*
X120081982Y-142561417D01*
X120140400Y-142562800D01*
X120281692Y-142575382D01*
X120339913Y-142617093D01*
X120343600Y-142639000D01*
X120305045Y-142695358D01*
X120181994Y-142715062D01*
X120165800Y-142715200D01*
X120034297Y-142731723D01*
X119988322Y-142784460D01*
X119988000Y-142791400D01*
X120026556Y-142847758D01*
X120149607Y-142867462D01*
X120165800Y-142867600D01*
X120297304Y-142884123D01*
X120343279Y-142936860D01*
X120343600Y-142943800D01*
X120310047Y-142996784D01*
X120198819Y-143018617D01*
X120140400Y-143020000D01*
X119999109Y-143032582D01*
X119940888Y-143074293D01*
X119937200Y-143096200D01*
X119964392Y-143144119D01*
X120058537Y-143167523D01*
X120191200Y-143172400D01*
X120445200Y-143172400D01*
X120445200Y-142410400D01*
X120191200Y-142410400D01*
X120031469Y-142418557D01*
G37*
X120031469Y-142418557D02*
X119953454Y-142446800D01*
X119937200Y-142486600D01*
X119970754Y-142539584D01*
X120081982Y-142561417D01*
X120140400Y-142562800D01*
X120281692Y-142575382D01*
X120339913Y-142617093D01*
X120343600Y-142639000D01*
X120305045Y-142695358D01*
X120181994Y-142715062D01*
X120165800Y-142715200D01*
X120034297Y-142731723D01*
X119988322Y-142784460D01*
X119988000Y-142791400D01*
X120026556Y-142847758D01*
X120149607Y-142867462D01*
X120165800Y-142867600D01*
X120297304Y-142884123D01*
X120343279Y-142936860D01*
X120343600Y-142943800D01*
X120310047Y-142996784D01*
X120198819Y-143018617D01*
X120140400Y-143020000D01*
X119999109Y-143032582D01*
X119940888Y-143074293D01*
X119937200Y-143096200D01*
X119964392Y-143144119D01*
X120058537Y-143167523D01*
X120191200Y-143172400D01*
X120445200Y-143172400D01*
X120445200Y-142410400D01*
X120191200Y-142410400D01*
X120031469Y-142418557D01*
G36*
X119375122Y-142427842D02*
G01*
X119247755Y-142490878D01*
X119198291Y-142535090D01*
X119095675Y-142693131D01*
X119082226Y-142853781D01*
X119147700Y-142998679D01*
X119281854Y-143109467D01*
X119474441Y-143167783D01*
X119553891Y-143172400D01*
X119784800Y-143172400D01*
X119784800Y-142791400D01*
X119632400Y-142791400D01*
X119627681Y-142932094D01*
X119602122Y-142998742D01*
X119538623Y-143018827D01*
X119490160Y-143020000D01*
X119363231Y-142999414D01*
X119286960Y-142959040D01*
X119236065Y-142860001D01*
X119226000Y-142791400D01*
X119266893Y-142652062D01*
X119384880Y-142575775D01*
X119490160Y-142562800D01*
X119577704Y-142570384D01*
X119619174Y-142611461D01*
X119631671Y-142713513D01*
X119632400Y-142791400D01*
X119784800Y-142791400D01*
X119784800Y-142410400D01*
X119553891Y-142410400D01*
X119375122Y-142427842D01*
G37*
X119375122Y-142427842D02*
X119247755Y-142490878D01*
X119198291Y-142535090D01*
X119095675Y-142693131D01*
X119082226Y-142853781D01*
X119147700Y-142998679D01*
X119281854Y-143109467D01*
X119474441Y-143167783D01*
X119553891Y-143172400D01*
X119784800Y-143172400D01*
X119784800Y-142791400D01*
X119632400Y-142791400D01*
X119627681Y-142932094D01*
X119602122Y-142998742D01*
X119538623Y-143018827D01*
X119490160Y-143020000D01*
X119363231Y-142999414D01*
X119286960Y-142959040D01*
X119236065Y-142860001D01*
X119226000Y-142791400D01*
X119266893Y-142652062D01*
X119384880Y-142575775D01*
X119490160Y-142562800D01*
X119577704Y-142570384D01*
X119619174Y-142611461D01*
X119631671Y-142713513D01*
X119632400Y-142791400D01*
X119784800Y-142791400D01*
X119784800Y-142410400D01*
X119553891Y-142410400D01*
X119375122Y-142427842D01*
G36*
X118300012Y-142427950D02*
G01*
X118287994Y-142430810D01*
X118193791Y-142475471D01*
X118185162Y-142526360D01*
X118249068Y-142565262D01*
X118372466Y-142573958D01*
X118389256Y-142572271D01*
X118520172Y-142569863D01*
X118557145Y-142601757D01*
X118500471Y-142664295D01*
X118375563Y-142740600D01*
X118222684Y-142849544D01*
X118170805Y-142959385D01*
X118219327Y-143071628D01*
X118236492Y-143090034D01*
X118373532Y-143161425D01*
X118539667Y-143155112D01*
X118629100Y-143117530D01*
X118709841Y-143051922D01*
X118696831Y-143010264D01*
X118596346Y-142998672D01*
X118514800Y-143006122D01*
X118367961Y-143009272D01*
X118312152Y-142975144D01*
X118349423Y-142915500D01*
X118481822Y-142842102D01*
X118485927Y-142840377D01*
X118635926Y-142763637D01*
X118701519Y-142684440D01*
X118698217Y-142581916D01*
X118692494Y-142562463D01*
X118614091Y-142468059D01*
X118472587Y-142419746D01*
X118300012Y-142427950D01*
G37*
X118300012Y-142427950D02*
X118287994Y-142430810D01*
X118193791Y-142475471D01*
X118185162Y-142526360D01*
X118249068Y-142565262D01*
X118372466Y-142573958D01*
X118389256Y-142572271D01*
X118520172Y-142569863D01*
X118557145Y-142601757D01*
X118500471Y-142664295D01*
X118375563Y-142740600D01*
X118222684Y-142849544D01*
X118170805Y-142959385D01*
X118219327Y-143071628D01*
X118236492Y-143090034D01*
X118373532Y-143161425D01*
X118539667Y-143155112D01*
X118629100Y-143117530D01*
X118709841Y-143051922D01*
X118696831Y-143010264D01*
X118596346Y-142998672D01*
X118514800Y-143006122D01*
X118367961Y-143009272D01*
X118312152Y-142975144D01*
X118349423Y-142915500D01*
X118481822Y-142842102D01*
X118485927Y-142840377D01*
X118635926Y-142763637D01*
X118701519Y-142684440D01*
X118698217Y-142581916D01*
X118692494Y-142562463D01*
X118614091Y-142468059D01*
X118472587Y-142419746D01*
X118300012Y-142427950D01*
G36*
X117558645Y-142441202D02*
G01*
X117457506Y-142494938D01*
X117449376Y-142542199D01*
X117525823Y-142570796D01*
X117648784Y-142571515D01*
X117820672Y-142590234D01*
X117920850Y-142672728D01*
X117939784Y-142806727D01*
X117908581Y-142905867D01*
X117858240Y-142987040D01*
X117784483Y-143015543D01*
X117649632Y-143005912D01*
X117649364Y-143005876D01*
X117501658Y-142999959D01*
X117424799Y-143024981D01*
X117429830Y-143072899D01*
X117494038Y-143119051D01*
X117681274Y-143169775D01*
X117860314Y-143130032D01*
X117942453Y-143072518D01*
X118061314Y-142916063D01*
X118081597Y-142752461D01*
X118033894Y-142616874D01*
X117909934Y-142475968D01*
X117738370Y-142416605D01*
X117558645Y-142441202D01*
G37*
X117558645Y-142441202D02*
X117457506Y-142494938D01*
X117449376Y-142542199D01*
X117525823Y-142570796D01*
X117648784Y-142571515D01*
X117820672Y-142590234D01*
X117920850Y-142672728D01*
X117939784Y-142806727D01*
X117908581Y-142905867D01*
X117858240Y-142987040D01*
X117784483Y-143015543D01*
X117649632Y-143005912D01*
X117649364Y-143005876D01*
X117501658Y-142999959D01*
X117424799Y-143024981D01*
X117429830Y-143072899D01*
X117494038Y-143119051D01*
X117681274Y-143169775D01*
X117860314Y-143130032D01*
X117942453Y-143072518D01*
X118061314Y-142916063D01*
X118081597Y-142752461D01*
X118033894Y-142616874D01*
X117909934Y-142475968D01*
X117738370Y-142416605D01*
X117558645Y-142441202D01*
G36*
X117179207Y-142430358D02*
G01*
X117155614Y-142502481D01*
X117144946Y-142645143D01*
X117143200Y-142791400D01*
X117147192Y-142992367D01*
X117161617Y-143110332D01*
X117190149Y-143163670D01*
X117219400Y-143172400D01*
X117259594Y-143152441D01*
X117283187Y-143080318D01*
X117293855Y-142937656D01*
X117295600Y-142791400D01*
X117291609Y-142590432D01*
X117277184Y-142472467D01*
X117248652Y-142419129D01*
X117219400Y-142410400D01*
X117179207Y-142430358D01*
G37*
X117179207Y-142430358D02*
X117155614Y-142502481D01*
X117144946Y-142645143D01*
X117143200Y-142791400D01*
X117147192Y-142992367D01*
X117161617Y-143110332D01*
X117190149Y-143163670D01*
X117219400Y-143172400D01*
X117259594Y-143152441D01*
X117283187Y-143080318D01*
X117293855Y-142937656D01*
X117295600Y-142791400D01*
X117291609Y-142590432D01*
X117277184Y-142472467D01*
X117248652Y-142419129D01*
X117219400Y-142410400D01*
X117179207Y-142430358D01*
G36*
X116542906Y-142417241D02*
G01*
X116456157Y-142441245D01*
X116432000Y-142486600D01*
X116465554Y-142539584D01*
X116576782Y-142561417D01*
X116635200Y-142562800D01*
X116776492Y-142575382D01*
X116834713Y-142617093D01*
X116838400Y-142639000D01*
X116799845Y-142695358D01*
X116676794Y-142715062D01*
X116660600Y-142715200D01*
X116529097Y-142731723D01*
X116483122Y-142784460D01*
X116482800Y-142791400D01*
X116521356Y-142847758D01*
X116644407Y-142867462D01*
X116660600Y-142867600D01*
X116792104Y-142884123D01*
X116838079Y-142936860D01*
X116838400Y-142943800D01*
X116804847Y-142996784D01*
X116693619Y-143018617D01*
X116635200Y-143020000D01*
X116493909Y-143032582D01*
X116435688Y-143074293D01*
X116432000Y-143096200D01*
X116460020Y-143144845D01*
X116556509Y-143168112D01*
X116677534Y-143172400D01*
X116828024Y-143165919D01*
X116932826Y-143149457D01*
X116956934Y-143138533D01*
X116973970Y-143074063D01*
X116986133Y-142937518D01*
X116990800Y-142758397D01*
X116990800Y-142410400D01*
X116711400Y-142410400D01*
X116542906Y-142417241D01*
G37*
X116542906Y-142417241D02*
X116456157Y-142441245D01*
X116432000Y-142486600D01*
X116465554Y-142539584D01*
X116576782Y-142561417D01*
X116635200Y-142562800D01*
X116776492Y-142575382D01*
X116834713Y-142617093D01*
X116838400Y-142639000D01*
X116799845Y-142695358D01*
X116676794Y-142715062D01*
X116660600Y-142715200D01*
X116529097Y-142731723D01*
X116483122Y-142784460D01*
X116482800Y-142791400D01*
X116521356Y-142847758D01*
X116644407Y-142867462D01*
X116660600Y-142867600D01*
X116792104Y-142884123D01*
X116838079Y-142936860D01*
X116838400Y-142943800D01*
X116804847Y-142996784D01*
X116693619Y-143018617D01*
X116635200Y-143020000D01*
X116493909Y-143032582D01*
X116435688Y-143074293D01*
X116432000Y-143096200D01*
X116460020Y-143144845D01*
X116556509Y-143168112D01*
X116677534Y-143172400D01*
X116828024Y-143165919D01*
X116932826Y-143149457D01*
X116956934Y-143138533D01*
X116973970Y-143074063D01*
X116986133Y-142937518D01*
X116990800Y-142758397D01*
X116990800Y-142410400D01*
X116711400Y-142410400D01*
X116542906Y-142417241D01*
G36*
X115653561Y-142432715D02*
G01*
X115630659Y-142511322D01*
X115620540Y-142663713D01*
X115619200Y-142791400D01*
X115627001Y-143013279D01*
X115654445Y-143137212D01*
X115707598Y-143165944D01*
X115792526Y-143102217D01*
X115915295Y-142948774D01*
X115928089Y-142931100D01*
X116101800Y-142689800D01*
X116117284Y-142931100D01*
X116139488Y-143093199D01*
X116181777Y-143165898D01*
X116206184Y-143172400D01*
X116245240Y-143150084D01*
X116268142Y-143071477D01*
X116278261Y-142919086D01*
X116279600Y-142791400D01*
X116271800Y-142569520D01*
X116244356Y-142445587D01*
X116191203Y-142416855D01*
X116106275Y-142480582D01*
X115983506Y-142634025D01*
X115970712Y-142651700D01*
X115797000Y-142893000D01*
X115781517Y-142651700D01*
X115759313Y-142489600D01*
X115717024Y-142416901D01*
X115692617Y-142410400D01*
X115653561Y-142432715D01*
G37*
X115653561Y-142432715D02*
X115630659Y-142511322D01*
X115620540Y-142663713D01*
X115619200Y-142791400D01*
X115627001Y-143013279D01*
X115654445Y-143137212D01*
X115707598Y-143165944D01*
X115792526Y-143102217D01*
X115915295Y-142948774D01*
X115928089Y-142931100D01*
X116101800Y-142689800D01*
X116117284Y-142931100D01*
X116139488Y-143093199D01*
X116181777Y-143165898D01*
X116206184Y-143172400D01*
X116245240Y-143150084D01*
X116268142Y-143071477D01*
X116278261Y-142919086D01*
X116279600Y-142791400D01*
X116271800Y-142569520D01*
X116244356Y-142445587D01*
X116191203Y-142416855D01*
X116106275Y-142480582D01*
X115983506Y-142634025D01*
X115970712Y-142651700D01*
X115797000Y-142893000D01*
X115781517Y-142651700D01*
X115759313Y-142489600D01*
X115717024Y-142416901D01*
X115692617Y-142410400D01*
X115653561Y-142432715D01*
G36*
X114974979Y-142438693D02*
G01*
X114869204Y-142493833D01*
X114859002Y-142543449D01*
X114938428Y-142577939D01*
X115067553Y-142588200D01*
X115249228Y-142614079D01*
X115343729Y-142691076D01*
X115350259Y-142818230D01*
X115322506Y-142895496D01*
X115270594Y-142983275D01*
X115199456Y-143015212D01*
X115070482Y-143007452D01*
X115058555Y-143005875D01*
X114917730Y-143000483D01*
X114860850Y-143027989D01*
X114894396Y-143081230D01*
X114955461Y-143119812D01*
X115140021Y-143168596D01*
X115316397Y-143123584D01*
X115320439Y-143121259D01*
X115397991Y-143041604D01*
X115464730Y-142923399D01*
X115492122Y-142746451D01*
X115437350Y-142590309D01*
X115319834Y-142474196D01*
X115158997Y-142417334D01*
X114974979Y-142438693D01*
G37*
X114974979Y-142438693D02*
X114869204Y-142493833D01*
X114859002Y-142543449D01*
X114938428Y-142577939D01*
X115067553Y-142588200D01*
X115249228Y-142614079D01*
X115343729Y-142691076D01*
X115350259Y-142818230D01*
X115322506Y-142895496D01*
X115270594Y-142983275D01*
X115199456Y-143015212D01*
X115070482Y-143007452D01*
X115058555Y-143005875D01*
X114917730Y-143000483D01*
X114860850Y-143027989D01*
X114894396Y-143081230D01*
X114955461Y-143119812D01*
X115140021Y-143168596D01*
X115316397Y-143123584D01*
X115320439Y-143121259D01*
X115397991Y-143041604D01*
X115464730Y-142923399D01*
X115492122Y-142746451D01*
X115437350Y-142590309D01*
X115319834Y-142474196D01*
X115158997Y-142417334D01*
X114974979Y-142438693D01*
G36*
X114251414Y-142424253D02*
G01*
X114163182Y-142457834D01*
X114161111Y-142499175D01*
X114249840Y-142536307D01*
X114365827Y-142553166D01*
X114504774Y-142585518D01*
X114558193Y-142637562D01*
X114524916Y-142687748D01*
X114403777Y-142714525D01*
X114374600Y-142715200D01*
X114243097Y-142731723D01*
X114197122Y-142784460D01*
X114196800Y-142791400D01*
X114235356Y-142847758D01*
X114358407Y-142867462D01*
X114374600Y-142867600D01*
X114506104Y-142884123D01*
X114552079Y-142936860D01*
X114552400Y-142943800D01*
X114518847Y-142996784D01*
X114407619Y-143018617D01*
X114349200Y-143020000D01*
X114207909Y-143032582D01*
X114149688Y-143074293D01*
X114146000Y-143096200D01*
X114171084Y-143142153D01*
X114259102Y-143165811D01*
X114425400Y-143172400D01*
X114704800Y-143172400D01*
X114704800Y-142410400D01*
X114421167Y-142410400D01*
X114251414Y-142424253D01*
G37*
X114251414Y-142424253D02*
X114163182Y-142457834D01*
X114161111Y-142499175D01*
X114249840Y-142536307D01*
X114365827Y-142553166D01*
X114504774Y-142585518D01*
X114558193Y-142637562D01*
X114524916Y-142687748D01*
X114403777Y-142714525D01*
X114374600Y-142715200D01*
X114243097Y-142731723D01*
X114197122Y-142784460D01*
X114196800Y-142791400D01*
X114235356Y-142847758D01*
X114358407Y-142867462D01*
X114374600Y-142867600D01*
X114506104Y-142884123D01*
X114552079Y-142936860D01*
X114552400Y-142943800D01*
X114518847Y-142996784D01*
X114407619Y-143018617D01*
X114349200Y-143020000D01*
X114207909Y-143032582D01*
X114149688Y-143074293D01*
X114146000Y-143096200D01*
X114171084Y-143142153D01*
X114259102Y-143165811D01*
X114425400Y-143172400D01*
X114704800Y-143172400D01*
X114704800Y-142410400D01*
X114421167Y-142410400D01*
X114251414Y-142424253D01*
G36*
X113676601Y-142426162D02*
G01*
X113576359Y-142468827D01*
X113547734Y-142514709D01*
X113558823Y-142566061D01*
X113634201Y-142579158D01*
X113712400Y-142572651D01*
X113844764Y-142572196D01*
X113885716Y-142607201D01*
X113835743Y-142669796D01*
X113701500Y-142749116D01*
X113548481Y-142851430D01*
X113496616Y-142959198D01*
X113546064Y-143072031D01*
X113562892Y-143090034D01*
X113701933Y-143162090D01*
X113875826Y-143149874D01*
X113982494Y-143104459D01*
X114063877Y-143043042D01*
X114051019Y-143005785D01*
X113949167Y-142996244D01*
X113837997Y-143006552D01*
X113693754Y-143010773D01*
X113640890Y-142978309D01*
X113679872Y-142917827D01*
X113811165Y-142837997D01*
X113828500Y-142829701D01*
X113972107Y-142732724D01*
X114036222Y-142624192D01*
X114015297Y-142521896D01*
X113943371Y-142461505D01*
X113811539Y-142422027D01*
X113676601Y-142426162D01*
G37*
X113676601Y-142426162D02*
X113576359Y-142468827D01*
X113547734Y-142514709D01*
X113558823Y-142566061D01*
X113634201Y-142579158D01*
X113712400Y-142572651D01*
X113844764Y-142572196D01*
X113885716Y-142607201D01*
X113835743Y-142669796D01*
X113701500Y-142749116D01*
X113548481Y-142851430D01*
X113496616Y-142959198D01*
X113546064Y-143072031D01*
X113562892Y-143090034D01*
X113701933Y-143162090D01*
X113875826Y-143149874D01*
X113982494Y-143104459D01*
X114063877Y-143043042D01*
X114051019Y-143005785D01*
X113949167Y-142996244D01*
X113837997Y-143006552D01*
X113693754Y-143010773D01*
X113640890Y-142978309D01*
X113679872Y-142917827D01*
X113811165Y-142837997D01*
X113828500Y-142829701D01*
X113972107Y-142732724D01*
X114036222Y-142624192D01*
X114015297Y-142521896D01*
X113943371Y-142461505D01*
X113811539Y-142422027D01*
X113676601Y-142426162D01*
G36*
X124798034Y-141197704D02*
G01*
X124694559Y-141225604D01*
X124676963Y-141287476D01*
X124740833Y-141395898D01*
X124867073Y-141546800D01*
X125068213Y-141775400D01*
X124864907Y-141791020D01*
X124714860Y-141819883D01*
X124661731Y-141876212D01*
X124661600Y-141879920D01*
X124685093Y-141920114D01*
X124767328Y-141943077D01*
X124925939Y-141952445D01*
X125017200Y-141953200D01*
X125223322Y-141945422D01*
X125343806Y-141923001D01*
X125372800Y-141896750D01*
X125342216Y-141830841D01*
X125262516Y-141715232D01*
X125164870Y-141591950D01*
X124956940Y-141343600D01*
X125139470Y-141343600D01*
X125272836Y-141327947D01*
X125321293Y-141277569D01*
X125322000Y-141267400D01*
X125299956Y-141224658D01*
X125221187Y-141200902D01*
X125066740Y-141191757D01*
X124991800Y-141191200D01*
X124798034Y-141197704D01*
G37*
X124798034Y-141197704D02*
X124694559Y-141225604D01*
X124676963Y-141287476D01*
X124740833Y-141395898D01*
X124867073Y-141546800D01*
X125068213Y-141775400D01*
X124864907Y-141791020D01*
X124714860Y-141819883D01*
X124661731Y-141876212D01*
X124661600Y-141879920D01*
X124685093Y-141920114D01*
X124767328Y-141943077D01*
X124925939Y-141952445D01*
X125017200Y-141953200D01*
X125223322Y-141945422D01*
X125343806Y-141923001D01*
X125372800Y-141896750D01*
X125342216Y-141830841D01*
X125262516Y-141715232D01*
X125164870Y-141591950D01*
X124956940Y-141343600D01*
X125139470Y-141343600D01*
X125272836Y-141327947D01*
X125321293Y-141277569D01*
X125322000Y-141267400D01*
X125299956Y-141224658D01*
X125221187Y-141200902D01*
X125066740Y-141191757D01*
X124991800Y-141191200D01*
X124798034Y-141197704D01*
G36*
X124117786Y-141208976D02*
G01*
X124056719Y-141273939D01*
X123986522Y-141403539D01*
X123912692Y-141572200D01*
X123753661Y-141953200D01*
X123877431Y-141953200D01*
X123977151Y-141926121D01*
X124001200Y-141877000D01*
X124041058Y-141819822D01*
X124166919Y-141800824D01*
X124173565Y-141800800D01*
X124312315Y-141823161D01*
X124375171Y-141877000D01*
X124428110Y-141925143D01*
X124514739Y-141953785D01*
X124589635Y-141953048D01*
X124610800Y-141928247D01*
X124591495Y-141873197D01*
X124540390Y-141750094D01*
X124483986Y-141620733D01*
X124283218Y-141620733D01*
X124244512Y-141646880D01*
X124206188Y-141648400D01*
X124122969Y-141632678D01*
X124103578Y-141610300D01*
X124128575Y-141538014D01*
X124148918Y-141501836D01*
X124191727Y-141466145D01*
X124238706Y-141516909D01*
X124251528Y-141539936D01*
X124283218Y-141620733D01*
X124483986Y-141620733D01*
X124467703Y-141583390D01*
X124451599Y-141547247D01*
X124360747Y-141357739D01*
X124289378Y-141247158D01*
X124224391Y-141198199D01*
X124182060Y-141191200D01*
X124117786Y-141208976D01*
G37*
X124117786Y-141208976D02*
X124056719Y-141273939D01*
X123986522Y-141403539D01*
X123912692Y-141572200D01*
X123753661Y-141953200D01*
X123877431Y-141953200D01*
X123977151Y-141926121D01*
X124001200Y-141877000D01*
X124041058Y-141819822D01*
X124166919Y-141800824D01*
X124173565Y-141800800D01*
X124312315Y-141823161D01*
X124375171Y-141877000D01*
X124428110Y-141925143D01*
X124514739Y-141953785D01*
X124589635Y-141953048D01*
X124610800Y-141928247D01*
X124591495Y-141873197D01*
X124540390Y-141750094D01*
X124483986Y-141620733D01*
X124283218Y-141620733D01*
X124244512Y-141646880D01*
X124206188Y-141648400D01*
X124122969Y-141632678D01*
X124103578Y-141610300D01*
X124128575Y-141538014D01*
X124148918Y-141501836D01*
X124191727Y-141466145D01*
X124238706Y-141516909D01*
X124251528Y-141539936D01*
X124283218Y-141620733D01*
X124483986Y-141620733D01*
X124467703Y-141583390D01*
X124451599Y-141547247D01*
X124360747Y-141357739D01*
X124289378Y-141247158D01*
X124224391Y-141198199D01*
X124182060Y-141191200D01*
X124117786Y-141208976D01*
G36*
X123348264Y-141201349D02*
G01*
X123194585Y-141221205D01*
X123117370Y-141262006D01*
X123094929Y-141312269D01*
X123097005Y-141377394D01*
X123156888Y-141385889D01*
X123213092Y-141373717D01*
X123383168Y-141362568D01*
X123505431Y-141412171D01*
X123565243Y-141504714D01*
X123547970Y-141622387D01*
X123486256Y-141706144D01*
X123374830Y-141781003D01*
X123291871Y-141762656D01*
X123248367Y-141657120D01*
X123196471Y-141564533D01*
X123134067Y-141546800D01*
X123060509Y-141586259D01*
X123031659Y-141680022D01*
X123047494Y-141791168D01*
X123107997Y-141882776D01*
X123134261Y-141900612D01*
X123311090Y-141949301D01*
X123499957Y-141932734D01*
X123639820Y-141864300D01*
X123753025Y-141711498D01*
X123778807Y-141531680D01*
X123714147Y-141354381D01*
X123694677Y-141327547D01*
X123610713Y-141239279D01*
X123517420Y-141201912D01*
X123372110Y-141199896D01*
X123348264Y-141201349D01*
G37*
X123348264Y-141201349D02*
X123194585Y-141221205D01*
X123117370Y-141262006D01*
X123094929Y-141312269D01*
X123097005Y-141377394D01*
X123156888Y-141385889D01*
X123213092Y-141373717D01*
X123383168Y-141362568D01*
X123505431Y-141412171D01*
X123565243Y-141504714D01*
X123547970Y-141622387D01*
X123486256Y-141706144D01*
X123374830Y-141781003D01*
X123291871Y-141762656D01*
X123248367Y-141657120D01*
X123196471Y-141564533D01*
X123134067Y-141546800D01*
X123060509Y-141586259D01*
X123031659Y-141680022D01*
X123047494Y-141791168D01*
X123107997Y-141882776D01*
X123134261Y-141900612D01*
X123311090Y-141949301D01*
X123499957Y-141932734D01*
X123639820Y-141864300D01*
X123753025Y-141711498D01*
X123778807Y-141531680D01*
X123714147Y-141354381D01*
X123694677Y-141327547D01*
X123610713Y-141239279D01*
X123517420Y-141201912D01*
X123372110Y-141199896D01*
X123348264Y-141201349D01*
G36*
X122501144Y-141202092D02*
G01*
X122375745Y-141229960D01*
X122334960Y-141252160D01*
X122284535Y-141360597D01*
X122279334Y-141502328D01*
X122319742Y-141620708D01*
X122332352Y-141635631D01*
X122360130Y-141704178D01*
X122316894Y-141806212D01*
X122305781Y-141823591D01*
X122251854Y-141914058D01*
X122263377Y-141948043D01*
X122345606Y-141953200D01*
X122462656Y-141914514D01*
X122502600Y-141851600D01*
X122569955Y-141769026D01*
X122633024Y-141750000D01*
X122715477Y-141787571D01*
X122731200Y-141851600D01*
X122767122Y-141936502D01*
X122832800Y-141953200D01*
X122884747Y-141944201D01*
X122915227Y-141903168D01*
X122929853Y-141809047D01*
X122934241Y-141640782D01*
X122934400Y-141572200D01*
X122934400Y-141445200D01*
X122731200Y-141445200D01*
X122701435Y-141524870D01*
X122604200Y-141546800D01*
X122504612Y-141522987D01*
X122477200Y-141445200D01*
X122506966Y-141365529D01*
X122604200Y-141343600D01*
X122703789Y-141367412D01*
X122731200Y-141445200D01*
X122934400Y-141445200D01*
X122934400Y-141191200D01*
X122665160Y-141191200D01*
X122501144Y-141202092D01*
G37*
X122501144Y-141202092D02*
X122375745Y-141229960D01*
X122334960Y-141252160D01*
X122284535Y-141360597D01*
X122279334Y-141502328D01*
X122319742Y-141620708D01*
X122332352Y-141635631D01*
X122360130Y-141704178D01*
X122316894Y-141806212D01*
X122305781Y-141823591D01*
X122251854Y-141914058D01*
X122263377Y-141948043D01*
X122345606Y-141953200D01*
X122462656Y-141914514D01*
X122502600Y-141851600D01*
X122569955Y-141769026D01*
X122633024Y-141750000D01*
X122715477Y-141787571D01*
X122731200Y-141851600D01*
X122767122Y-141936502D01*
X122832800Y-141953200D01*
X122884747Y-141944201D01*
X122915227Y-141903168D01*
X122929853Y-141809047D01*
X122934241Y-141640782D01*
X122934400Y-141572200D01*
X122934400Y-141445200D01*
X122731200Y-141445200D01*
X122701435Y-141524870D01*
X122604200Y-141546800D01*
X122504612Y-141522987D01*
X122477200Y-141445200D01*
X122506966Y-141365529D01*
X122604200Y-141343600D01*
X122703789Y-141367412D01*
X122731200Y-141445200D01*
X122934400Y-141445200D01*
X122934400Y-141191200D01*
X122665160Y-141191200D01*
X122501144Y-141202092D01*
G36*
X121639817Y-141197052D02*
G01*
X121544795Y-141217797D01*
X121512602Y-141258218D01*
X121512000Y-141267400D01*
X121545554Y-141320384D01*
X121656782Y-141342217D01*
X121715200Y-141343600D01*
X121856492Y-141356182D01*
X121914713Y-141397893D01*
X121918400Y-141419800D01*
X121879845Y-141476158D01*
X121756794Y-141495862D01*
X121740600Y-141496000D01*
X121609097Y-141512523D01*
X121563122Y-141565260D01*
X121562800Y-141572200D01*
X121601356Y-141628558D01*
X121724407Y-141648262D01*
X121740600Y-141648400D01*
X121872104Y-141664923D01*
X121918079Y-141717660D01*
X121918400Y-141724600D01*
X121884847Y-141777584D01*
X121773619Y-141799417D01*
X121715200Y-141800800D01*
X121573909Y-141813382D01*
X121515688Y-141855093D01*
X121512000Y-141877000D01*
X121535409Y-141921245D01*
X121618389Y-141945001D01*
X121780076Y-141953049D01*
X121816800Y-141953200D01*
X122121600Y-141953200D01*
X122121600Y-141191200D01*
X121816800Y-141191200D01*
X121639817Y-141197052D01*
G37*
X121639817Y-141197052D02*
X121544795Y-141217797D01*
X121512602Y-141258218D01*
X121512000Y-141267400D01*
X121545554Y-141320384D01*
X121656782Y-141342217D01*
X121715200Y-141343600D01*
X121856492Y-141356182D01*
X121914713Y-141397893D01*
X121918400Y-141419800D01*
X121879845Y-141476158D01*
X121756794Y-141495862D01*
X121740600Y-141496000D01*
X121609097Y-141512523D01*
X121563122Y-141565260D01*
X121562800Y-141572200D01*
X121601356Y-141628558D01*
X121724407Y-141648262D01*
X121740600Y-141648400D01*
X121872104Y-141664923D01*
X121918079Y-141717660D01*
X121918400Y-141724600D01*
X121884847Y-141777584D01*
X121773619Y-141799417D01*
X121715200Y-141800800D01*
X121573909Y-141813382D01*
X121515688Y-141855093D01*
X121512000Y-141877000D01*
X121535409Y-141921245D01*
X121618389Y-141945001D01*
X121780076Y-141953049D01*
X121816800Y-141953200D01*
X122121600Y-141953200D01*
X122121600Y-141191200D01*
X121816800Y-141191200D01*
X121639817Y-141197052D01*
G36*
X120927996Y-141210899D02*
G01*
X120798167Y-141266685D01*
X120754888Y-141353583D01*
X120783889Y-141436758D01*
X120807721Y-141539580D01*
X120769051Y-141625550D01*
X120727695Y-141718835D01*
X120756256Y-141807017D01*
X120779089Y-141841450D01*
X120845910Y-141909234D01*
X120944509Y-141943037D01*
X121107397Y-141953101D01*
X121133881Y-141953200D01*
X121410400Y-141953200D01*
X121410400Y-141728133D01*
X121207200Y-141728133D01*
X121169608Y-141781788D01*
X121086490Y-141791314D01*
X121002330Y-141759699D01*
X120965646Y-141711900D01*
X120990681Y-141662285D01*
X121075967Y-141648400D01*
X121182488Y-141675023D01*
X121207200Y-141728133D01*
X121410400Y-141728133D01*
X121410400Y-141423333D01*
X121207200Y-141423333D01*
X121169608Y-141476988D01*
X121086490Y-141486514D01*
X121002330Y-141454899D01*
X120965646Y-141407100D01*
X120990681Y-141357485D01*
X121075967Y-141343600D01*
X121182488Y-141370223D01*
X121207200Y-141423333D01*
X121410400Y-141423333D01*
X121410400Y-141191200D01*
X121137221Y-141191200D01*
X120927996Y-141210899D01*
G37*
X120927996Y-141210899D02*
X120798167Y-141266685D01*
X120754888Y-141353583D01*
X120783889Y-141436758D01*
X120807721Y-141539580D01*
X120769051Y-141625550D01*
X120727695Y-141718835D01*
X120756256Y-141807017D01*
X120779089Y-141841450D01*
X120845910Y-141909234D01*
X120944509Y-141943037D01*
X121107397Y-141953101D01*
X121133881Y-141953200D01*
X121410400Y-141953200D01*
X121410400Y-141728133D01*
X121207200Y-141728133D01*
X121169608Y-141781788D01*
X121086490Y-141791314D01*
X121002330Y-141759699D01*
X120965646Y-141711900D01*
X120990681Y-141662285D01*
X121075967Y-141648400D01*
X121182488Y-141675023D01*
X121207200Y-141728133D01*
X121410400Y-141728133D01*
X121410400Y-141423333D01*
X121207200Y-141423333D01*
X121169608Y-141476988D01*
X121086490Y-141486514D01*
X121002330Y-141454899D01*
X120965646Y-141407100D01*
X120990681Y-141357485D01*
X121075967Y-141343600D01*
X121182488Y-141370223D01*
X121207200Y-141423333D01*
X121410400Y-141423333D01*
X121410400Y-141191200D01*
X121137221Y-141191200D01*
X120927996Y-141210899D01*
G36*
X119981843Y-141202425D02*
G01*
X119951184Y-141251654D01*
X119938975Y-141362215D01*
X119937200Y-141493119D01*
X119943345Y-141672424D01*
X119967867Y-141781370D01*
X120019900Y-141850775D01*
X120050104Y-141874119D01*
X120223349Y-141944111D01*
X120402944Y-141934448D01*
X120546800Y-141851600D01*
X120612501Y-141753705D01*
X120643165Y-141610660D01*
X120648400Y-141470600D01*
X120643991Y-141309135D01*
X120624924Y-141225021D01*
X120582445Y-141194179D01*
X120546800Y-141191200D01*
X120485269Y-141204924D01*
X120454947Y-141262888D01*
X120445508Y-141390277D01*
X120445200Y-141438979D01*
X120425887Y-141630811D01*
X120372889Y-141750084D01*
X120293620Y-141786711D01*
X120216600Y-141750000D01*
X120162224Y-141646468D01*
X120140603Y-141462214D01*
X120140400Y-141438979D01*
X120134773Y-141288917D01*
X120111005Y-141214969D01*
X120058771Y-141191950D01*
X120038800Y-141191200D01*
X119981843Y-141202425D01*
G37*
X119981843Y-141202425D02*
X119951184Y-141251654D01*
X119938975Y-141362215D01*
X119937200Y-141493119D01*
X119943345Y-141672424D01*
X119967867Y-141781370D01*
X120019900Y-141850775D01*
X120050104Y-141874119D01*
X120223349Y-141944111D01*
X120402944Y-141934448D01*
X120546800Y-141851600D01*
X120612501Y-141753705D01*
X120643165Y-141610660D01*
X120648400Y-141470600D01*
X120643991Y-141309135D01*
X120624924Y-141225021D01*
X120582445Y-141194179D01*
X120546800Y-141191200D01*
X120485269Y-141204924D01*
X120454947Y-141262888D01*
X120445508Y-141390277D01*
X120445200Y-141438979D01*
X120425887Y-141630811D01*
X120372889Y-141750084D01*
X120293620Y-141786711D01*
X120216600Y-141750000D01*
X120162224Y-141646468D01*
X120140603Y-141462214D01*
X120140400Y-141438979D01*
X120134773Y-141288917D01*
X120111005Y-141214969D01*
X120058771Y-141191950D01*
X120038800Y-141191200D01*
X119981843Y-141202425D01*
G36*
X119092173Y-141199350D02*
G01*
X118994903Y-141231915D01*
X118984553Y-141301062D01*
X119056451Y-141418962D01*
X119149800Y-141533031D01*
X119248904Y-141653943D01*
X119313449Y-141742536D01*
X119327600Y-141770775D01*
X119282941Y-141790766D01*
X119173380Y-141800591D01*
X119152799Y-141800800D01*
X119024960Y-141816023D01*
X118946262Y-141853160D01*
X118942642Y-141858004D01*
X118906626Y-141843464D01*
X118842437Y-141751353D01*
X118760859Y-141597936D01*
X118745983Y-141566547D01*
X118613703Y-141566547D01*
X118576776Y-141635392D01*
X118514800Y-141648400D01*
X118432137Y-141636319D01*
X118413200Y-141619660D01*
X118434598Y-141557162D01*
X118469461Y-141485797D01*
X118519377Y-141417417D01*
X118561192Y-141437626D01*
X118570283Y-141451036D01*
X118613703Y-141566547D01*
X118745983Y-141566547D01*
X118737488Y-141548623D01*
X118643872Y-141365062D01*
X118564365Y-141244481D01*
X118509216Y-141202135D01*
X118505189Y-141202870D01*
X118454073Y-141256865D01*
X118384996Y-141374762D01*
X118310293Y-141528456D01*
X118242299Y-141689839D01*
X118193351Y-141830804D01*
X118175784Y-141923246D01*
X118181126Y-141941258D01*
X118235312Y-141936383D01*
X118283254Y-141889620D01*
X118372154Y-141830250D01*
X118503161Y-141802045D01*
X118635974Y-141806627D01*
X118730289Y-141845618D01*
X118748092Y-141870908D01*
X118807211Y-141907870D01*
X118933469Y-141934427D01*
X119098496Y-141949895D01*
X119273924Y-141953590D01*
X119431383Y-141944828D01*
X119542503Y-141922927D01*
X119579435Y-141890937D01*
X119546684Y-141820340D01*
X119464059Y-141703877D01*
X119376031Y-141597600D01*
X119174793Y-141369000D01*
X119361526Y-141343600D01*
X119488915Y-141311370D01*
X119563990Y-141264409D01*
X119569163Y-141254700D01*
X119550072Y-141217197D01*
X119453736Y-141196930D01*
X119281034Y-141191200D01*
X119092173Y-141199350D01*
G37*
X119092173Y-141199350D02*
X118994903Y-141231915D01*
X118984553Y-141301062D01*
X119056451Y-141418962D01*
X119149800Y-141533031D01*
X119248904Y-141653943D01*
X119313449Y-141742536D01*
X119327600Y-141770775D01*
X119282941Y-141790766D01*
X119173380Y-141800591D01*
X119152799Y-141800800D01*
X119024960Y-141816023D01*
X118946262Y-141853160D01*
X118942642Y-141858004D01*
X118906626Y-141843464D01*
X118842437Y-141751353D01*
X118760859Y-141597936D01*
X118745983Y-141566547D01*
X118613703Y-141566547D01*
X118576776Y-141635392D01*
X118514800Y-141648400D01*
X118432137Y-141636319D01*
X118413200Y-141619660D01*
X118434598Y-141557162D01*
X118469461Y-141485797D01*
X118519377Y-141417417D01*
X118561192Y-141437626D01*
X118570283Y-141451036D01*
X118613703Y-141566547D01*
X118745983Y-141566547D01*
X118737488Y-141548623D01*
X118643872Y-141365062D01*
X118564365Y-141244481D01*
X118509216Y-141202135D01*
X118505189Y-141202870D01*
X118454073Y-141256865D01*
X118384996Y-141374762D01*
X118310293Y-141528456D01*
X118242299Y-141689839D01*
X118193351Y-141830804D01*
X118175784Y-141923246D01*
X118181126Y-141941258D01*
X118235312Y-141936383D01*
X118283254Y-141889620D01*
X118372154Y-141830250D01*
X118503161Y-141802045D01*
X118635974Y-141806627D01*
X118730289Y-141845618D01*
X118748092Y-141870908D01*
X118807211Y-141907870D01*
X118933469Y-141934427D01*
X119098496Y-141949895D01*
X119273924Y-141953590D01*
X119431383Y-141944828D01*
X119542503Y-141922927D01*
X119579435Y-141890937D01*
X119546684Y-141820340D01*
X119464059Y-141703877D01*
X119376031Y-141597600D01*
X119174793Y-141369000D01*
X119361526Y-141343600D01*
X119488915Y-141311370D01*
X119563990Y-141264409D01*
X119569163Y-141254700D01*
X119550072Y-141217197D01*
X119453736Y-141196930D01*
X119281034Y-141191200D01*
X119092173Y-141199350D01*
G36*
X117541690Y-141251216D02*
G01*
X117521210Y-141265784D01*
X117464228Y-141319643D01*
X117483794Y-141345641D01*
X117589724Y-141349124D01*
X117666459Y-141344885D01*
X117832523Y-141369927D01*
X117930052Y-141469095D01*
X117956000Y-141605457D01*
X117927352Y-141733156D01*
X117843595Y-141794855D01*
X117696707Y-141819547D01*
X117590142Y-141782293D01*
X117549600Y-141693275D01*
X117527154Y-141613999D01*
X117498800Y-141597600D01*
X117456920Y-141638095D01*
X117447584Y-141731801D01*
X117467001Y-141837050D01*
X117511379Y-141912172D01*
X117528355Y-141922364D01*
X117732688Y-141949795D01*
X117929498Y-141879767D01*
X117974550Y-141847912D01*
X118081916Y-141713828D01*
X118108330Y-141564497D01*
X118068521Y-141418837D01*
X117977222Y-141295762D01*
X117849163Y-141214190D01*
X117699075Y-141193036D01*
X117541690Y-141251216D01*
G37*
X117541690Y-141251216D02*
X117521210Y-141265784D01*
X117464228Y-141319643D01*
X117483794Y-141345641D01*
X117589724Y-141349124D01*
X117666459Y-141344885D01*
X117832523Y-141369927D01*
X117930052Y-141469095D01*
X117956000Y-141605457D01*
X117927352Y-141733156D01*
X117843595Y-141794855D01*
X117696707Y-141819547D01*
X117590142Y-141782293D01*
X117549600Y-141693275D01*
X117527154Y-141613999D01*
X117498800Y-141597600D01*
X117456920Y-141638095D01*
X117447584Y-141731801D01*
X117467001Y-141837050D01*
X117511379Y-141912172D01*
X117528355Y-141922364D01*
X117732688Y-141949795D01*
X117929498Y-141879767D01*
X117974550Y-141847912D01*
X118081916Y-141713828D01*
X118108330Y-141564497D01*
X118068521Y-141418837D01*
X117977222Y-141295762D01*
X117849163Y-141214190D01*
X117699075Y-141193036D01*
X117541690Y-141251216D01*
G36*
X116905104Y-141209259D02*
G01*
X116779672Y-141249106D01*
X116768550Y-141256406D01*
X116700392Y-141352509D01*
X116674643Y-141481741D01*
X116695097Y-141598935D01*
X116735695Y-141647716D01*
X116772487Y-141699790D01*
X116741673Y-141791617D01*
X116737930Y-141798690D01*
X116701373Y-141907675D01*
X116729529Y-141946176D01*
X116804009Y-141902162D01*
X116838216Y-141864300D01*
X116942425Y-141777392D01*
X117046882Y-141750423D01*
X117122637Y-141784597D01*
X117143200Y-141851600D01*
X117170746Y-141937042D01*
X117228819Y-141944859D01*
X117274539Y-141884011D01*
X117286473Y-141798038D01*
X117289663Y-141647948D01*
X117285645Y-141515711D01*
X117283316Y-141470600D01*
X117143200Y-141470600D01*
X117131735Y-141561164D01*
X117076737Y-141591966D01*
X116978100Y-141588118D01*
X116858522Y-141560235D01*
X116814883Y-141497110D01*
X116813000Y-141470600D01*
X116839575Y-141394451D01*
X116935316Y-141358365D01*
X116978100Y-141353081D01*
X117091522Y-141351412D01*
X117136195Y-141391555D01*
X117143200Y-141470600D01*
X117283316Y-141470600D01*
X117270200Y-141216600D01*
X117067000Y-141201644D01*
X116905104Y-141209259D01*
G37*
X116905104Y-141209259D02*
X116779672Y-141249106D01*
X116768550Y-141256406D01*
X116700392Y-141352509D01*
X116674643Y-141481741D01*
X116695097Y-141598935D01*
X116735695Y-141647716D01*
X116772487Y-141699790D01*
X116741673Y-141791617D01*
X116737930Y-141798690D01*
X116701373Y-141907675D01*
X116729529Y-141946176D01*
X116804009Y-141902162D01*
X116838216Y-141864300D01*
X116942425Y-141777392D01*
X117046882Y-141750423D01*
X117122637Y-141784597D01*
X117143200Y-141851600D01*
X117170746Y-141937042D01*
X117228819Y-141944859D01*
X117274539Y-141884011D01*
X117286473Y-141798038D01*
X117289663Y-141647948D01*
X117285645Y-141515711D01*
X117283316Y-141470600D01*
X117143200Y-141470600D01*
X117131735Y-141561164D01*
X117076737Y-141591966D01*
X116978100Y-141588118D01*
X116858522Y-141560235D01*
X116814883Y-141497110D01*
X116813000Y-141470600D01*
X116839575Y-141394451D01*
X116935316Y-141358365D01*
X116978100Y-141353081D01*
X117091522Y-141351412D01*
X117136195Y-141391555D01*
X117143200Y-141470600D01*
X117283316Y-141470600D01*
X117270200Y-141216600D01*
X117067000Y-141201644D01*
X116905104Y-141209259D01*
G36*
X116069069Y-141199357D02*
G01*
X115991054Y-141227600D01*
X115974800Y-141267400D01*
X116008354Y-141320384D01*
X116119582Y-141342217D01*
X116178000Y-141343600D01*
X116319292Y-141356182D01*
X116377513Y-141397893D01*
X116381200Y-141419800D01*
X116342645Y-141476158D01*
X116219594Y-141495862D01*
X116203400Y-141496000D01*
X116071897Y-141512523D01*
X116025922Y-141565260D01*
X116025600Y-141572200D01*
X116064156Y-141628558D01*
X116187207Y-141648262D01*
X116203400Y-141648400D01*
X116334904Y-141664923D01*
X116380879Y-141717660D01*
X116381200Y-141724600D01*
X116347647Y-141777584D01*
X116236419Y-141799417D01*
X116178000Y-141800800D01*
X116036709Y-141813382D01*
X115978488Y-141855093D01*
X115974800Y-141877000D01*
X116001992Y-141924919D01*
X116096137Y-141948323D01*
X116228800Y-141953200D01*
X116482800Y-141953200D01*
X116482800Y-141191200D01*
X116228800Y-141191200D01*
X116069069Y-141199357D01*
G37*
X116069069Y-141199357D02*
X115991054Y-141227600D01*
X115974800Y-141267400D01*
X116008354Y-141320384D01*
X116119582Y-141342217D01*
X116178000Y-141343600D01*
X116319292Y-141356182D01*
X116377513Y-141397893D01*
X116381200Y-141419800D01*
X116342645Y-141476158D01*
X116219594Y-141495862D01*
X116203400Y-141496000D01*
X116071897Y-141512523D01*
X116025922Y-141565260D01*
X116025600Y-141572200D01*
X116064156Y-141628558D01*
X116187207Y-141648262D01*
X116203400Y-141648400D01*
X116334904Y-141664923D01*
X116380879Y-141717660D01*
X116381200Y-141724600D01*
X116347647Y-141777584D01*
X116236419Y-141799417D01*
X116178000Y-141800800D01*
X116036709Y-141813382D01*
X115978488Y-141855093D01*
X115974800Y-141877000D01*
X116001992Y-141924919D01*
X116096137Y-141948323D01*
X116228800Y-141953200D01*
X116482800Y-141953200D01*
X116482800Y-141191200D01*
X116228800Y-141191200D01*
X116069069Y-141199357D01*
G36*
X115414329Y-141213930D02*
G01*
X115284773Y-141273597D01*
X115223362Y-141357419D01*
X115244695Y-141452612D01*
X115267771Y-141479850D01*
X115293396Y-141556092D01*
X115255442Y-141642586D01*
X115213417Y-141770627D01*
X115265947Y-141865207D01*
X115410974Y-141924300D01*
X115560933Y-141943154D01*
X115822400Y-141958509D01*
X115822400Y-141750000D01*
X115670000Y-141750000D01*
X115660178Y-141825328D01*
X115612390Y-141846914D01*
X115499158Y-141824794D01*
X115479500Y-141819581D01*
X115381233Y-141766615D01*
X115371294Y-141703298D01*
X115443621Y-141656870D01*
X115517600Y-141648400D01*
X115629153Y-141664366D01*
X115668428Y-141723773D01*
X115670000Y-141750000D01*
X115822400Y-141750000D01*
X115822400Y-141423174D01*
X115670000Y-141423174D01*
X115630432Y-141474675D01*
X115540313Y-141488617D01*
X115442524Y-141467356D01*
X115379943Y-141413249D01*
X115377585Y-141407100D01*
X115404108Y-141358759D01*
X115513367Y-141343600D01*
X115633988Y-141363628D01*
X115670000Y-141423174D01*
X115822400Y-141423174D01*
X115822400Y-141191200D01*
X115597429Y-141191200D01*
X115414329Y-141213930D01*
G37*
X115414329Y-141213930D02*
X115284773Y-141273597D01*
X115223362Y-141357419D01*
X115244695Y-141452612D01*
X115267771Y-141479850D01*
X115293396Y-141556092D01*
X115255442Y-141642586D01*
X115213417Y-141770627D01*
X115265947Y-141865207D01*
X115410974Y-141924300D01*
X115560933Y-141943154D01*
X115822400Y-141958509D01*
X115822400Y-141750000D01*
X115670000Y-141750000D01*
X115660178Y-141825328D01*
X115612390Y-141846914D01*
X115499158Y-141824794D01*
X115479500Y-141819581D01*
X115381233Y-141766615D01*
X115371294Y-141703298D01*
X115443621Y-141656870D01*
X115517600Y-141648400D01*
X115629153Y-141664366D01*
X115668428Y-141723773D01*
X115670000Y-141750000D01*
X115822400Y-141750000D01*
X115822400Y-141423174D01*
X115670000Y-141423174D01*
X115630432Y-141474675D01*
X115540313Y-141488617D01*
X115442524Y-141467356D01*
X115379943Y-141413249D01*
X115377585Y-141407100D01*
X115404108Y-141358759D01*
X115513367Y-141343600D01*
X115633988Y-141363628D01*
X115670000Y-141423174D01*
X115822400Y-141423174D01*
X115822400Y-141191200D01*
X115597429Y-141191200D01*
X115414329Y-141213930D01*
G36*
X114169635Y-141235163D02*
G01*
X114142771Y-141346939D01*
X114140447Y-141496354D01*
X114161503Y-141653237D01*
X114204778Y-141787413D01*
X114247600Y-141851600D01*
X114389149Y-141933831D01*
X114551919Y-141945645D01*
X114694662Y-141886285D01*
X114722327Y-141860299D01*
X114772138Y-141761318D01*
X114801916Y-141616741D01*
X114811300Y-141457189D01*
X114799932Y-141313286D01*
X114767449Y-141215655D01*
X114730200Y-141191200D01*
X114684065Y-141216471D01*
X114660423Y-141305044D01*
X114654000Y-141468075D01*
X114632978Y-141676812D01*
X114571027Y-141796136D01*
X114469817Y-141823991D01*
X114388612Y-141794705D01*
X114332717Y-141738190D01*
X114305029Y-141629113D01*
X114298400Y-141468812D01*
X114291479Y-141300925D01*
X114267212Y-141214775D01*
X114222200Y-141191200D01*
X114169635Y-141235163D01*
G37*
X114169635Y-141235163D02*
X114142771Y-141346939D01*
X114140447Y-141496354D01*
X114161503Y-141653237D01*
X114204778Y-141787413D01*
X114247600Y-141851600D01*
X114389149Y-141933831D01*
X114551919Y-141945645D01*
X114694662Y-141886285D01*
X114722327Y-141860299D01*
X114772138Y-141761318D01*
X114801916Y-141616741D01*
X114811300Y-141457189D01*
X114799932Y-141313286D01*
X114767449Y-141215655D01*
X114730200Y-141191200D01*
X114684065Y-141216471D01*
X114660423Y-141305044D01*
X114654000Y-141468075D01*
X114632978Y-141676812D01*
X114571027Y-141796136D01*
X114469817Y-141823991D01*
X114388612Y-141794705D01*
X114332717Y-141738190D01*
X114305029Y-141629113D01*
X114298400Y-141468812D01*
X114291479Y-141300925D01*
X114267212Y-141214775D01*
X114222200Y-141191200D01*
X114169635Y-141235163D01*
G36*
X113367561Y-141213515D02*
G01*
X113344659Y-141292122D01*
X113334540Y-141444513D01*
X113333200Y-141572200D01*
X113341001Y-141794079D01*
X113368445Y-141918012D01*
X113421598Y-141946744D01*
X113506526Y-141883017D01*
X113629295Y-141729574D01*
X113642089Y-141711900D01*
X113815800Y-141470600D01*
X113831284Y-141711900D01*
X113853488Y-141873999D01*
X113895777Y-141946698D01*
X113920184Y-141953200D01*
X113959240Y-141930884D01*
X113982142Y-141852277D01*
X113992261Y-141699886D01*
X113993600Y-141572200D01*
X113985800Y-141350320D01*
X113958356Y-141226387D01*
X113905203Y-141197655D01*
X113820275Y-141261382D01*
X113697506Y-141414825D01*
X113684712Y-141432500D01*
X113511000Y-141673800D01*
X113495517Y-141432500D01*
X113473313Y-141270400D01*
X113431024Y-141197701D01*
X113406617Y-141191200D01*
X113367561Y-141213515D01*
G37*
X113367561Y-141213515D02*
X113344659Y-141292122D01*
X113334540Y-141444513D01*
X113333200Y-141572200D01*
X113341001Y-141794079D01*
X113368445Y-141918012D01*
X113421598Y-141946744D01*
X113506526Y-141883017D01*
X113629295Y-141729574D01*
X113642089Y-141711900D01*
X113815800Y-141470600D01*
X113831284Y-141711900D01*
X113853488Y-141873999D01*
X113895777Y-141946698D01*
X113920184Y-141953200D01*
X113959240Y-141930884D01*
X113982142Y-141852277D01*
X113992261Y-141699886D01*
X113993600Y-141572200D01*
X113985800Y-141350320D01*
X113958356Y-141226387D01*
X113905203Y-141197655D01*
X113820275Y-141261382D01*
X113697506Y-141414825D01*
X113684712Y-141432500D01*
X113511000Y-141673800D01*
X113495517Y-141432500D01*
X113473313Y-141270400D01*
X113431024Y-141197701D01*
X113406617Y-141191200D01*
X113367561Y-141213515D01*
G36*
X113053604Y-141238475D02*
G01*
X113035763Y-141366446D01*
X113028448Y-141554333D01*
X113028400Y-141572200D01*
X113034704Y-141764176D01*
X113051767Y-141897984D01*
X113076818Y-141952843D01*
X113079200Y-141953200D01*
X113104797Y-141905924D01*
X113122638Y-141777953D01*
X113129953Y-141590066D01*
X113130000Y-141572200D01*
X113123697Y-141380223D01*
X113106634Y-141246415D01*
X113081583Y-141191556D01*
X113079200Y-141191200D01*
X113053604Y-141238475D01*
G37*
X113053604Y-141238475D02*
X113035763Y-141366446D01*
X113028448Y-141554333D01*
X113028400Y-141572200D01*
X113034704Y-141764176D01*
X113051767Y-141897984D01*
X113076818Y-141952843D01*
X113079200Y-141953200D01*
X113104797Y-141905924D01*
X113122638Y-141777953D01*
X113129953Y-141590066D01*
X113130000Y-141572200D01*
X113123697Y-141380223D01*
X113106634Y-141246415D01*
X113081583Y-141191556D01*
X113079200Y-141191200D01*
X113053604Y-141238475D01*
G36*
X112797473Y-141234962D02*
G01*
X112730279Y-141346763D01*
X112694006Y-141432500D01*
X112623162Y-141612079D01*
X112571013Y-141697421D01*
X112526762Y-141691515D01*
X112479612Y-141597348D01*
X112445914Y-141501159D01*
X112368007Y-141304861D01*
X112297429Y-141205575D01*
X112235623Y-141205271D01*
X112232011Y-141208656D01*
X112231314Y-141271597D01*
X112267245Y-141395477D01*
X112327546Y-141552168D01*
X112399963Y-141713543D01*
X112472238Y-141851472D01*
X112532117Y-141937828D01*
X112556418Y-141953200D01*
X112619963Y-141910513D01*
X112687587Y-141804925D01*
X112700793Y-141775400D01*
X112773617Y-141599508D01*
X112848189Y-141419420D01*
X112850600Y-141413596D01*
X112904738Y-141279348D01*
X112920791Y-141214154D01*
X112899230Y-141193071D01*
X112854802Y-141191200D01*
X112797473Y-141234962D01*
G37*
X112797473Y-141234962D02*
X112730279Y-141346763D01*
X112694006Y-141432500D01*
X112623162Y-141612079D01*
X112571013Y-141697421D01*
X112526762Y-141691515D01*
X112479612Y-141597348D01*
X112445914Y-141501159D01*
X112368007Y-141304861D01*
X112297429Y-141205575D01*
X112235623Y-141205271D01*
X112232011Y-141208656D01*
X112231314Y-141271597D01*
X112267245Y-141395477D01*
X112327546Y-141552168D01*
X112399963Y-141713543D01*
X112472238Y-141851472D01*
X112532117Y-141937828D01*
X112556418Y-141953200D01*
X112619963Y-141910513D01*
X112687587Y-141804925D01*
X112700793Y-141775400D01*
X112773617Y-141599508D01*
X112848189Y-141419420D01*
X112850600Y-141413596D01*
X112904738Y-141279348D01*
X112920791Y-141214154D01*
X112899230Y-141193071D01*
X112854802Y-141191200D01*
X112797473Y-141234962D01*
G36*
X111666106Y-141198041D02*
G01*
X111579357Y-141222045D01*
X111555200Y-141267400D01*
X111588754Y-141320384D01*
X111699982Y-141342217D01*
X111758400Y-141343600D01*
X111899692Y-141356182D01*
X111957913Y-141397893D01*
X111961600Y-141419800D01*
X111923045Y-141476158D01*
X111799994Y-141495862D01*
X111783800Y-141496000D01*
X111652297Y-141512523D01*
X111606322Y-141565260D01*
X111606000Y-141572200D01*
X111644556Y-141628558D01*
X111767607Y-141648262D01*
X111783800Y-141648400D01*
X111915304Y-141664923D01*
X111961279Y-141717660D01*
X111961600Y-141724600D01*
X111928047Y-141777584D01*
X111816819Y-141799417D01*
X111758400Y-141800800D01*
X111617109Y-141813382D01*
X111558888Y-141855093D01*
X111555200Y-141877000D01*
X111580284Y-141922953D01*
X111668302Y-141946611D01*
X111834600Y-141953200D01*
X112114000Y-141953200D01*
X112114000Y-141191200D01*
X111834600Y-141191200D01*
X111666106Y-141198041D01*
G37*
X111666106Y-141198041D02*
X111579357Y-141222045D01*
X111555200Y-141267400D01*
X111588754Y-141320384D01*
X111699982Y-141342217D01*
X111758400Y-141343600D01*
X111899692Y-141356182D01*
X111957913Y-141397893D01*
X111961600Y-141419800D01*
X111923045Y-141476158D01*
X111799994Y-141495862D01*
X111783800Y-141496000D01*
X111652297Y-141512523D01*
X111606322Y-141565260D01*
X111606000Y-141572200D01*
X111644556Y-141628558D01*
X111767607Y-141648262D01*
X111783800Y-141648400D01*
X111915304Y-141664923D01*
X111961279Y-141717660D01*
X111961600Y-141724600D01*
X111928047Y-141777584D01*
X111816819Y-141799417D01*
X111758400Y-141800800D01*
X111617109Y-141813382D01*
X111558888Y-141855093D01*
X111555200Y-141877000D01*
X111580284Y-141922953D01*
X111668302Y-141946611D01*
X111834600Y-141953200D01*
X112114000Y-141953200D01*
X112114000Y-141191200D01*
X111834600Y-141191200D01*
X111666106Y-141198041D01*
G36*
X111006935Y-141220960D02*
G01*
X110867538Y-141301286D01*
X110803494Y-141418745D01*
X110825584Y-141559905D01*
X110863694Y-141623786D01*
X110907241Y-141709693D01*
X110883715Y-141794677D01*
X110857852Y-141836696D01*
X110809624Y-141920610D01*
X110822980Y-141950206D01*
X110861771Y-141953200D01*
X110947443Y-141912713D01*
X110996400Y-141851600D01*
X111080205Y-141770210D01*
X111150588Y-141750000D01*
X111234232Y-141786796D01*
X111250400Y-141851600D01*
X111282164Y-141934342D01*
X111326600Y-141953200D01*
X111366794Y-141933241D01*
X111390387Y-141861118D01*
X111401055Y-141718456D01*
X111402800Y-141572200D01*
X111402800Y-141473974D01*
X111250400Y-141473974D01*
X111235759Y-141566863D01*
X111170780Y-141592483D01*
X111110700Y-141588274D01*
X110995830Y-141546181D01*
X110954767Y-141457900D01*
X110958778Y-141377379D01*
X111020746Y-141346946D01*
X111094467Y-141343600D01*
X111204822Y-141356360D01*
X111245998Y-141411925D01*
X111250400Y-141473974D01*
X111402800Y-141473974D01*
X111402800Y-141191200D01*
X111210904Y-141191200D01*
X111006935Y-141220960D01*
G37*
X111006935Y-141220960D02*
X110867538Y-141301286D01*
X110803494Y-141418745D01*
X110825584Y-141559905D01*
X110863694Y-141623786D01*
X110907241Y-141709693D01*
X110883715Y-141794677D01*
X110857852Y-141836696D01*
X110809624Y-141920610D01*
X110822980Y-141950206D01*
X110861771Y-141953200D01*
X110947443Y-141912713D01*
X110996400Y-141851600D01*
X111080205Y-141770210D01*
X111150588Y-141750000D01*
X111234232Y-141786796D01*
X111250400Y-141851600D01*
X111282164Y-141934342D01*
X111326600Y-141953200D01*
X111366794Y-141933241D01*
X111390387Y-141861118D01*
X111401055Y-141718456D01*
X111402800Y-141572200D01*
X111402800Y-141473974D01*
X111250400Y-141473974D01*
X111235759Y-141566863D01*
X111170780Y-141592483D01*
X111110700Y-141588274D01*
X110995830Y-141546181D01*
X110954767Y-141457900D01*
X110958778Y-141377379D01*
X111020746Y-141346946D01*
X111094467Y-141343600D01*
X111204822Y-141356360D01*
X111245998Y-141411925D01*
X111250400Y-141473974D01*
X111402800Y-141473974D01*
X111402800Y-141191200D01*
X111210904Y-141191200D01*
X111006935Y-141220960D01*
G36*
X110189792Y-141237098D02*
G01*
X110139761Y-141296849D01*
X110173762Y-141342511D01*
X110274227Y-141359724D01*
X110333764Y-141354764D01*
X110452046Y-141354760D01*
X110484562Y-141393681D01*
X110432989Y-141458722D01*
X110310600Y-141531630D01*
X110176711Y-141631153D01*
X110129431Y-141750415D01*
X110174687Y-141871124D01*
X110193760Y-141892240D01*
X110303738Y-141942055D01*
X110454947Y-141945225D01*
X110597986Y-141901014D01*
X110602700Y-141898330D01*
X110683441Y-141832722D01*
X110670431Y-141791064D01*
X110569946Y-141779472D01*
X110488400Y-141786922D01*
X110341462Y-141789956D01*
X110285625Y-141755592D01*
X110323181Y-141695781D01*
X110456421Y-141622475D01*
X110456839Y-141622300D01*
X110609616Y-141529419D01*
X110666599Y-141421678D01*
X110625115Y-141305006D01*
X110608752Y-141285453D01*
X110481490Y-141210614D01*
X110320315Y-141195205D01*
X110189792Y-141237098D01*
G37*
X110189792Y-141237098D02*
X110139761Y-141296849D01*
X110173762Y-141342511D01*
X110274227Y-141359724D01*
X110333764Y-141354764D01*
X110452046Y-141354760D01*
X110484562Y-141393681D01*
X110432989Y-141458722D01*
X110310600Y-141531630D01*
X110176711Y-141631153D01*
X110129431Y-141750415D01*
X110174687Y-141871124D01*
X110193760Y-141892240D01*
X110303738Y-141942055D01*
X110454947Y-141945225D01*
X110597986Y-141901014D01*
X110602700Y-141898330D01*
X110683441Y-141832722D01*
X110670431Y-141791064D01*
X110569946Y-141779472D01*
X110488400Y-141786922D01*
X110341462Y-141789956D01*
X110285625Y-141755592D01*
X110323181Y-141695781D01*
X110456421Y-141622475D01*
X110456839Y-141622300D01*
X110609616Y-141529419D01*
X110666599Y-141421678D01*
X110625115Y-141305006D01*
X110608752Y-141285453D01*
X110481490Y-141210614D01*
X110320315Y-141195205D01*
X110189792Y-141237098D01*
G36*
X109916900Y-141203900D02*
G01*
X109877156Y-141268881D01*
X109856608Y-141431717D01*
X109853400Y-141572200D01*
X109862864Y-141792624D01*
X109891398Y-141914466D01*
X109916900Y-141940500D01*
X109950938Y-141923369D01*
X109971143Y-141835639D01*
X109979726Y-141664493D01*
X109980400Y-141572200D01*
X109975758Y-141364985D01*
X109960356Y-141246193D01*
X109931985Y-141203007D01*
X109916900Y-141203900D01*
G37*
X109916900Y-141203900D02*
X109877156Y-141268881D01*
X109856608Y-141431717D01*
X109853400Y-141572200D01*
X109862864Y-141792624D01*
X109891398Y-141914466D01*
X109916900Y-141940500D01*
X109950938Y-141923369D01*
X109971143Y-141835639D01*
X109979726Y-141664493D01*
X109980400Y-141572200D01*
X109975758Y-141364985D01*
X109960356Y-141246193D01*
X109931985Y-141203007D01*
X109916900Y-141203900D01*
G36*
X108510657Y-141210147D02*
G01*
X108507200Y-141236814D01*
X108530661Y-141304246D01*
X108590453Y-141425307D01*
X108633589Y-141503514D01*
X108708536Y-141656743D01*
X108754175Y-141792657D01*
X108760589Y-141838900D01*
X108780209Y-141928128D01*
X108812000Y-141953200D01*
X108852508Y-141910409D01*
X108862800Y-141845774D01*
X108882020Y-141756178D01*
X108930805Y-141631301D01*
X108995849Y-141496365D01*
X109063844Y-141376588D01*
X109121483Y-141297189D01*
X109155457Y-141283387D01*
X109157377Y-141287528D01*
X109216955Y-141334353D01*
X109273434Y-141343600D01*
X109327973Y-141355939D01*
X109357445Y-141408279D01*
X109369192Y-141523603D01*
X109370800Y-141648400D01*
X109376653Y-141825383D01*
X109397398Y-141920405D01*
X109437819Y-141952598D01*
X109447000Y-141953200D01*
X109491471Y-141929579D01*
X109515219Y-141845953D01*
X109523090Y-141683172D01*
X109523200Y-141651933D01*
X109526874Y-141482580D01*
X109543925Y-141389601D01*
X109583403Y-141347862D01*
X109637500Y-141334433D01*
X109741504Y-141307859D01*
X109755686Y-141275389D01*
X109691142Y-141242876D01*
X109558970Y-141216175D01*
X109385931Y-141201723D01*
X109195943Y-141195797D01*
X109080774Y-141202809D01*
X109013745Y-141231119D01*
X108968180Y-141289086D01*
X108940126Y-141341423D01*
X108861555Y-141461914D01*
X108792719Y-141483572D01*
X108720288Y-141406511D01*
X108685000Y-141343600D01*
X108614386Y-141238929D01*
X108549332Y-141190277D01*
X108510657Y-141210147D01*
G37*
X108510657Y-141210147D02*
X108507200Y-141236814D01*
X108530661Y-141304246D01*
X108590453Y-141425307D01*
X108633589Y-141503514D01*
X108708536Y-141656743D01*
X108754175Y-141792657D01*
X108760589Y-141838900D01*
X108780209Y-141928128D01*
X108812000Y-141953200D01*
X108852508Y-141910409D01*
X108862800Y-141845774D01*
X108882020Y-141756178D01*
X108930805Y-141631301D01*
X108995849Y-141496365D01*
X109063844Y-141376588D01*
X109121483Y-141297189D01*
X109155457Y-141283387D01*
X109157377Y-141287528D01*
X109216955Y-141334353D01*
X109273434Y-141343600D01*
X109327973Y-141355939D01*
X109357445Y-141408279D01*
X109369192Y-141523603D01*
X109370800Y-141648400D01*
X109376653Y-141825383D01*
X109397398Y-141920405D01*
X109437819Y-141952598D01*
X109447000Y-141953200D01*
X109491471Y-141929579D01*
X109515219Y-141845953D01*
X109523090Y-141683172D01*
X109523200Y-141651933D01*
X109526874Y-141482580D01*
X109543925Y-141389601D01*
X109583403Y-141347862D01*
X109637500Y-141334433D01*
X109741504Y-141307859D01*
X109755686Y-141275389D01*
X109691142Y-141242876D01*
X109558970Y-141216175D01*
X109385931Y-141201723D01*
X109195943Y-141195797D01*
X109080774Y-141202809D01*
X109013745Y-141231119D01*
X108968180Y-141289086D01*
X108940126Y-141341423D01*
X108861555Y-141461914D01*
X108792719Y-141483572D01*
X108720288Y-141406511D01*
X108685000Y-141343600D01*
X108614386Y-141238929D01*
X108549332Y-141190277D01*
X108510657Y-141210147D01*
G36*
X126761005Y-140920514D02*
G01*
X126708336Y-141107672D01*
X126701072Y-141218526D01*
X126752090Y-141273024D01*
X126874269Y-141291115D01*
X127001328Y-141292800D01*
X127309056Y-141292800D01*
X126820600Y-140726028D01*
X126761005Y-140920514D01*
G37*
X126761005Y-140920514D02*
X126708336Y-141107672D01*
X126701072Y-141218526D01*
X126752090Y-141273024D01*
X126874269Y-141291115D01*
X127001328Y-141292800D01*
X127309056Y-141292800D01*
X126820600Y-140726028D01*
X126761005Y-140920514D01*
G36*
X124857386Y-139926287D02*
G01*
X124754444Y-139944464D01*
X124714818Y-139980106D01*
X124712400Y-139997400D01*
X124754752Y-140059456D01*
X124814000Y-140073600D01*
X124870746Y-140084721D01*
X124901409Y-140133575D01*
X124913733Y-140243398D01*
X124915600Y-140378400D01*
X124918290Y-140547324D01*
X124932984Y-140638526D01*
X124969623Y-140675863D01*
X125038149Y-140683193D01*
X125042600Y-140683200D01*
X125112986Y-140676746D01*
X125150986Y-140641480D01*
X125166544Y-140553545D01*
X125169598Y-140389083D01*
X125169600Y-140378400D01*
X125173308Y-140208163D01*
X125189592Y-140116175D01*
X125226200Y-140079203D01*
X125271200Y-140073600D01*
X125353943Y-140041836D01*
X125372800Y-139997400D01*
X125350756Y-139954658D01*
X125271987Y-139930902D01*
X125117540Y-139921757D01*
X125042600Y-139921200D01*
X124857386Y-139926287D01*
G37*
X124857386Y-139926287D02*
X124754444Y-139944464D01*
X124714818Y-139980106D01*
X124712400Y-139997400D01*
X124754752Y-140059456D01*
X124814000Y-140073600D01*
X124870746Y-140084721D01*
X124901409Y-140133575D01*
X124913733Y-140243398D01*
X124915600Y-140378400D01*
X124918290Y-140547324D01*
X124932984Y-140638526D01*
X124969623Y-140675863D01*
X125038149Y-140683193D01*
X125042600Y-140683200D01*
X125112986Y-140676746D01*
X125150986Y-140641480D01*
X125166544Y-140553545D01*
X125169598Y-140389083D01*
X125169600Y-140378400D01*
X125173308Y-140208163D01*
X125189592Y-140116175D01*
X125226200Y-140079203D01*
X125271200Y-140073600D01*
X125353943Y-140041836D01*
X125372800Y-139997400D01*
X125350756Y-139954658D01*
X125271987Y-139930902D01*
X125117540Y-139921757D01*
X125042600Y-139921200D01*
X124857386Y-139926287D01*
G36*
X124177780Y-139927535D02*
G01*
X124082092Y-139949362D01*
X124052097Y-139990913D01*
X124052000Y-139994333D01*
X124100078Y-140052872D01*
X124238574Y-140083233D01*
X124385584Y-140112517D01*
X124447166Y-140157153D01*
X124420846Y-140200206D01*
X124304148Y-140224743D01*
X124259434Y-140226000D01*
X124109531Y-140245391D01*
X124045765Y-140290688D01*
X124070621Y-140342574D01*
X124186586Y-140381733D01*
X124238574Y-140388033D01*
X124391643Y-140417974D01*
X124449376Y-140462699D01*
X124412305Y-140505491D01*
X124280960Y-140529636D01*
X124234034Y-140530800D01*
X124081830Y-140540424D01*
X124011576Y-140573263D01*
X124001200Y-140607000D01*
X124023245Y-140649741D01*
X124102014Y-140673497D01*
X124256461Y-140682642D01*
X124331400Y-140683200D01*
X124661600Y-140683200D01*
X124661600Y-139921200D01*
X124356800Y-139921200D01*
X124177780Y-139927535D01*
G37*
X124177780Y-139927535D02*
X124082092Y-139949362D01*
X124052097Y-139990913D01*
X124052000Y-139994333D01*
X124100078Y-140052872D01*
X124238574Y-140083233D01*
X124385584Y-140112517D01*
X124447166Y-140157153D01*
X124420846Y-140200206D01*
X124304148Y-140224743D01*
X124259434Y-140226000D01*
X124109531Y-140245391D01*
X124045765Y-140290688D01*
X124070621Y-140342574D01*
X124186586Y-140381733D01*
X124238574Y-140388033D01*
X124391643Y-140417974D01*
X124449376Y-140462699D01*
X124412305Y-140505491D01*
X124280960Y-140529636D01*
X124234034Y-140530800D01*
X124081830Y-140540424D01*
X124011576Y-140573263D01*
X124001200Y-140607000D01*
X124023245Y-140649741D01*
X124102014Y-140673497D01*
X124256461Y-140682642D01*
X124331400Y-140683200D01*
X124661600Y-140683200D01*
X124661600Y-139921200D01*
X124356800Y-139921200D01*
X124177780Y-139927535D01*
G36*
X123238054Y-139930198D02*
G01*
X123207574Y-139971231D01*
X123192948Y-140065352D01*
X123188560Y-140233617D01*
X123188400Y-140302200D01*
X123190943Y-140497330D01*
X123202169Y-140611847D01*
X123227475Y-140666685D01*
X123272259Y-140682777D01*
X123286626Y-140683200D01*
X123368090Y-140647103D01*
X123400926Y-140543500D01*
X123437310Y-140434695D01*
X123533406Y-140390919D01*
X123556700Y-140387725D01*
X123654499Y-140388118D01*
X123691453Y-140440006D01*
X123696400Y-140527425D01*
X123711610Y-140640480D01*
X123768625Y-140681179D01*
X123798000Y-140683200D01*
X123849947Y-140674201D01*
X123880427Y-140633168D01*
X123895053Y-140539047D01*
X123899441Y-140370782D01*
X123899600Y-140302200D01*
X123897201Y-140107399D01*
X123886259Y-139993102D01*
X123861160Y-139938252D01*
X123816289Y-139921797D01*
X123798000Y-139921200D01*
X123723632Y-139945149D01*
X123697449Y-140034259D01*
X123696400Y-140073600D01*
X123683813Y-140181544D01*
X123624437Y-140221331D01*
X123544000Y-140226000D01*
X123436056Y-140213412D01*
X123396269Y-140154036D01*
X123391600Y-140073600D01*
X123375634Y-139962047D01*
X123316227Y-139922772D01*
X123290000Y-139921200D01*
X123238054Y-139930198D01*
G37*
X123238054Y-139930198D02*
X123207574Y-139971231D01*
X123192948Y-140065352D01*
X123188560Y-140233617D01*
X123188400Y-140302200D01*
X123190943Y-140497330D01*
X123202169Y-140611847D01*
X123227475Y-140666685D01*
X123272259Y-140682777D01*
X123286626Y-140683200D01*
X123368090Y-140647103D01*
X123400926Y-140543500D01*
X123437310Y-140434695D01*
X123533406Y-140390919D01*
X123556700Y-140387725D01*
X123654499Y-140388118D01*
X123691453Y-140440006D01*
X123696400Y-140527425D01*
X123711610Y-140640480D01*
X123768625Y-140681179D01*
X123798000Y-140683200D01*
X123849947Y-140674201D01*
X123880427Y-140633168D01*
X123895053Y-140539047D01*
X123899441Y-140370782D01*
X123899600Y-140302200D01*
X123897201Y-140107399D01*
X123886259Y-139993102D01*
X123861160Y-139938252D01*
X123816289Y-139921797D01*
X123798000Y-139921200D01*
X123723632Y-139945149D01*
X123697449Y-140034259D01*
X123696400Y-140073600D01*
X123683813Y-140181544D01*
X123624437Y-140221331D01*
X123544000Y-140226000D01*
X123436056Y-140213412D01*
X123396269Y-140154036D01*
X123391600Y-140073600D01*
X123375634Y-139962047D01*
X123316227Y-139922772D01*
X123290000Y-139921200D01*
X123238054Y-139930198D01*
G36*
X122372953Y-139930940D02*
G01*
X122343302Y-139974129D01*
X122329098Y-140071718D01*
X122324916Y-140244659D01*
X122324800Y-140302200D01*
X122327413Y-140497509D01*
X122338781Y-140612145D01*
X122364199Y-140666972D01*
X122408962Y-140682858D01*
X122421473Y-140683200D01*
X122509093Y-140645991D01*
X122620819Y-140551678D01*
X122673770Y-140492700D01*
X122829394Y-140302200D01*
X122831097Y-140492700D01*
X122842215Y-140620690D01*
X122882140Y-140674863D01*
X122934400Y-140683200D01*
X122986347Y-140674201D01*
X123016827Y-140633168D01*
X123031453Y-140539047D01*
X123035841Y-140370782D01*
X123036000Y-140302200D01*
X123033010Y-140105767D01*
X123020867Y-139990516D01*
X122994817Y-139936126D01*
X122950104Y-139922275D01*
X122947100Y-139922284D01*
X122868601Y-139961832D01*
X122765873Y-140061680D01*
X122705800Y-140138184D01*
X122553400Y-140353000D01*
X122537780Y-140137100D01*
X122518565Y-139997145D01*
X122479122Y-139933658D01*
X122423480Y-139921200D01*
X122372953Y-139930940D01*
G37*
X122372953Y-139930940D02*
X122343302Y-139974129D01*
X122329098Y-140071718D01*
X122324916Y-140244659D01*
X122324800Y-140302200D01*
X122327413Y-140497509D01*
X122338781Y-140612145D01*
X122364199Y-140666972D01*
X122408962Y-140682858D01*
X122421473Y-140683200D01*
X122509093Y-140645991D01*
X122620819Y-140551678D01*
X122673770Y-140492700D01*
X122829394Y-140302200D01*
X122831097Y-140492700D01*
X122842215Y-140620690D01*
X122882140Y-140674863D01*
X122934400Y-140683200D01*
X122986347Y-140674201D01*
X123016827Y-140633168D01*
X123031453Y-140539047D01*
X123035841Y-140370782D01*
X123036000Y-140302200D01*
X123033010Y-140105767D01*
X123020867Y-139990516D01*
X122994817Y-139936126D01*
X122950104Y-139922275D01*
X122947100Y-139922284D01*
X122868601Y-139961832D01*
X122765873Y-140061680D01*
X122705800Y-140138184D01*
X122553400Y-140353000D01*
X122537780Y-140137100D01*
X122518565Y-139997145D01*
X122479122Y-139933658D01*
X122423480Y-139921200D01*
X122372953Y-139930940D01*
G36*
X122018854Y-139930198D02*
G01*
X121988374Y-139971231D01*
X121973748Y-140065352D01*
X121969360Y-140233617D01*
X121969200Y-140302200D01*
X121971600Y-140497000D01*
X121982542Y-140611297D01*
X122007641Y-140666147D01*
X122052512Y-140682602D01*
X122070800Y-140683200D01*
X122122747Y-140674201D01*
X122153227Y-140633168D01*
X122167853Y-140539047D01*
X122172241Y-140370782D01*
X122172400Y-140302200D01*
X122170001Y-140107399D01*
X122159059Y-139993102D01*
X122133960Y-139938252D01*
X122089089Y-139921797D01*
X122070800Y-139921200D01*
X122018854Y-139930198D01*
G37*
X122018854Y-139930198D02*
X121988374Y-139971231D01*
X121973748Y-140065352D01*
X121969360Y-140233617D01*
X121969200Y-140302200D01*
X121971600Y-140497000D01*
X121982542Y-140611297D01*
X122007641Y-140666147D01*
X122052512Y-140682602D01*
X122070800Y-140683200D01*
X122122747Y-140674201D01*
X122153227Y-140633168D01*
X122167853Y-140539047D01*
X122172241Y-140370782D01*
X122172400Y-140302200D01*
X122170001Y-140107399D01*
X122159059Y-139993102D01*
X122133960Y-139938252D01*
X122089089Y-139921797D01*
X122070800Y-139921200D01*
X122018854Y-139930198D01*
G36*
X121345784Y-139939197D02*
G01*
X121241054Y-139978614D01*
X121189637Y-140037337D01*
X121209255Y-140101475D01*
X121287287Y-140146124D01*
X121364935Y-140121545D01*
X121489082Y-140098304D01*
X121590889Y-140149258D01*
X121653551Y-140247151D01*
X121660265Y-140364730D01*
X121594230Y-140474740D01*
X121586696Y-140481248D01*
X121494303Y-140519748D01*
X121387354Y-140490315D01*
X121280594Y-140461148D01*
X121210150Y-140501889D01*
X121207778Y-140504704D01*
X121192374Y-140574458D01*
X121252648Y-140631039D01*
X121362958Y-140668784D01*
X121497660Y-140682032D01*
X121631110Y-140665121D01*
X121728604Y-140619700D01*
X121839954Y-140478195D01*
X121875898Y-140302889D01*
X121836546Y-140127948D01*
X121726544Y-139990924D01*
X121613859Y-139939939D01*
X121478496Y-139924501D01*
X121345784Y-139939197D01*
G37*
X121345784Y-139939197D02*
X121241054Y-139978614D01*
X121189637Y-140037337D01*
X121209255Y-140101475D01*
X121287287Y-140146124D01*
X121364935Y-140121545D01*
X121489082Y-140098304D01*
X121590889Y-140149258D01*
X121653551Y-140247151D01*
X121660265Y-140364730D01*
X121594230Y-140474740D01*
X121586696Y-140481248D01*
X121494303Y-140519748D01*
X121387354Y-140490315D01*
X121280594Y-140461148D01*
X121210150Y-140501889D01*
X121207778Y-140504704D01*
X121192374Y-140574458D01*
X121252648Y-140631039D01*
X121362958Y-140668784D01*
X121497660Y-140682032D01*
X121631110Y-140665121D01*
X121728604Y-140619700D01*
X121839954Y-140478195D01*
X121875898Y-140302889D01*
X121836546Y-140127948D01*
X121726544Y-139990924D01*
X121613859Y-139939939D01*
X121478496Y-139924501D01*
X121345784Y-139939197D01*
G36*
X120931446Y-139943374D02*
G01*
X120904284Y-140027633D01*
X120902400Y-140083565D01*
X120902400Y-140245930D01*
X120729972Y-140078806D01*
X120606677Y-139980460D01*
X120499489Y-139930688D01*
X120467449Y-139929140D01*
X120417080Y-139949150D01*
X120425741Y-139994345D01*
X120498916Y-140087857D01*
X120507424Y-140097773D01*
X120637494Y-140248946D01*
X120338720Y-140683200D01*
X120466989Y-140683200D01*
X120604573Y-140635509D01*
X120678472Y-140556200D01*
X120751055Y-140465618D01*
X120805675Y-140429200D01*
X120849412Y-140472237D01*
X120881540Y-140556200D01*
X120942430Y-140660020D01*
X121009508Y-140683200D01*
X121058785Y-140672733D01*
X121087710Y-140627441D01*
X121101537Y-140526484D01*
X121105522Y-140349023D01*
X121105600Y-140302200D01*
X121103201Y-140107399D01*
X121092259Y-139993102D01*
X121067160Y-139938252D01*
X121022289Y-139921797D01*
X121004000Y-139921200D01*
X120931446Y-139943374D01*
G37*
X120931446Y-139943374D02*
X120904284Y-140027633D01*
X120902400Y-140083565D01*
X120902400Y-140245930D01*
X120729972Y-140078806D01*
X120606677Y-139980460D01*
X120499489Y-139930688D01*
X120467449Y-139929140D01*
X120417080Y-139949150D01*
X120425741Y-139994345D01*
X120498916Y-140087857D01*
X120507424Y-140097773D01*
X120637494Y-140248946D01*
X120338720Y-140683200D01*
X120466989Y-140683200D01*
X120604573Y-140635509D01*
X120678472Y-140556200D01*
X120751055Y-140465618D01*
X120805675Y-140429200D01*
X120849412Y-140472237D01*
X120881540Y-140556200D01*
X120942430Y-140660020D01*
X121009508Y-140683200D01*
X121058785Y-140672733D01*
X121087710Y-140627441D01*
X121101537Y-140526484D01*
X121105522Y-140349023D01*
X121105600Y-140302200D01*
X121103201Y-140107399D01*
X121092259Y-139993102D01*
X121067160Y-139938252D01*
X121022289Y-139921797D01*
X121004000Y-139921200D01*
X120931446Y-139943374D01*
G36*
X119861566Y-139935777D02*
G01*
X119696246Y-140010902D01*
X119655491Y-140045890D01*
X119550750Y-140207557D01*
X119546710Y-140379806D01*
X119636088Y-140549349D01*
X119774519Y-140650630D01*
X119955550Y-140686469D01*
X120141008Y-140653051D01*
X120224893Y-140608185D01*
X120337064Y-140475425D01*
X120369563Y-140309456D01*
X120365374Y-140293827D01*
X120140400Y-140293827D01*
X120105384Y-140432304D01*
X120019641Y-140512126D01*
X119912133Y-140524757D01*
X119811817Y-140461662D01*
X119774576Y-140401646D01*
X119743373Y-140294505D01*
X119781584Y-140209622D01*
X119820276Y-140167946D01*
X119911942Y-140098297D01*
X119997043Y-140104024D01*
X120032611Y-140121087D01*
X120119722Y-140213561D01*
X120140400Y-140293827D01*
X120365374Y-140293827D01*
X120323714Y-140138404D01*
X120200842Y-139990395D01*
X120195603Y-139986315D01*
X120042027Y-139926036D01*
X119861566Y-139935777D01*
G37*
X119861566Y-139935777D02*
X119696246Y-140010902D01*
X119655491Y-140045890D01*
X119550750Y-140207557D01*
X119546710Y-140379806D01*
X119636088Y-140549349D01*
X119774519Y-140650630D01*
X119955550Y-140686469D01*
X120141008Y-140653051D01*
X120224893Y-140608185D01*
X120337064Y-140475425D01*
X120369563Y-140309456D01*
X120365374Y-140293827D01*
X120140400Y-140293827D01*
X120105384Y-140432304D01*
X120019641Y-140512126D01*
X119912133Y-140524757D01*
X119811817Y-140461662D01*
X119774576Y-140401646D01*
X119743373Y-140294505D01*
X119781584Y-140209622D01*
X119820276Y-140167946D01*
X119911942Y-140098297D01*
X119997043Y-140104024D01*
X120032611Y-140121087D01*
X120119722Y-140213561D01*
X120140400Y-140293827D01*
X120365374Y-140293827D01*
X120323714Y-140138404D01*
X120200842Y-139990395D01*
X120195603Y-139986315D01*
X120042027Y-139926036D01*
X119861566Y-139935777D01*
G36*
X119048218Y-139956056D02*
G01*
X119002502Y-140045959D01*
X118959024Y-140190258D01*
X118914818Y-140312659D01*
X118858446Y-140454600D01*
X118771395Y-140200600D01*
X118703582Y-140037523D01*
X118633235Y-139953622D01*
X118568515Y-139929625D01*
X118486764Y-139932438D01*
X118471042Y-139957117D01*
X118496478Y-140024170D01*
X118546018Y-140158478D01*
X118609231Y-140331749D01*
X118613095Y-140342392D01*
X118684038Y-140524177D01*
X118741328Y-140628205D01*
X118799166Y-140674430D01*
X118855652Y-140683200D01*
X118973470Y-140638595D01*
X119018878Y-140568900D01*
X119062645Y-140457282D01*
X119126617Y-140295399D01*
X119169280Y-140187900D01*
X119275318Y-139921200D01*
X119154566Y-139921200D01*
X119048218Y-139956056D01*
G37*
X119048218Y-139956056D02*
X119002502Y-140045959D01*
X118959024Y-140190258D01*
X118914818Y-140312659D01*
X118858446Y-140454600D01*
X118771395Y-140200600D01*
X118703582Y-140037523D01*
X118633235Y-139953622D01*
X118568515Y-139929625D01*
X118486764Y-139932438D01*
X118471042Y-139957117D01*
X118496478Y-140024170D01*
X118546018Y-140158478D01*
X118609231Y-140331749D01*
X118613095Y-140342392D01*
X118684038Y-140524177D01*
X118741328Y-140628205D01*
X118799166Y-140674430D01*
X118855652Y-140683200D01*
X118973470Y-140638595D01*
X119018878Y-140568900D01*
X119062645Y-140457282D01*
X119126617Y-140295399D01*
X119169280Y-140187900D01*
X119275318Y-139921200D01*
X119154566Y-139921200D01*
X119048218Y-139956056D01*
G36*
X117794538Y-139939672D02*
G01*
X117756186Y-139972205D01*
X117752800Y-139994975D01*
X117783615Y-140049054D01*
X117888169Y-140071740D01*
X117956000Y-140073600D01*
X118097292Y-140086182D01*
X118155513Y-140127893D01*
X118159200Y-140149800D01*
X118120645Y-140206158D01*
X117997594Y-140225862D01*
X117981400Y-140226000D01*
X117849897Y-140242523D01*
X117803922Y-140295260D01*
X117803600Y-140302200D01*
X117842156Y-140358558D01*
X117965207Y-140378262D01*
X117981400Y-140378400D01*
X118112904Y-140394923D01*
X118158879Y-140447660D01*
X118159200Y-140454600D01*
X118125647Y-140507584D01*
X118014419Y-140529417D01*
X117956000Y-140530800D01*
X117814709Y-140543382D01*
X117756488Y-140585093D01*
X117752800Y-140607000D01*
X117774737Y-140649618D01*
X117853170Y-140673370D01*
X118007032Y-140682598D01*
X118085226Y-140683200D01*
X118417652Y-140683200D01*
X118387800Y-139946600D01*
X118070300Y-139931475D01*
X117892337Y-139927476D01*
X117794538Y-139939672D01*
G37*
X117794538Y-139939672D02*
X117756186Y-139972205D01*
X117752800Y-139994975D01*
X117783615Y-140049054D01*
X117888169Y-140071740D01*
X117956000Y-140073600D01*
X118097292Y-140086182D01*
X118155513Y-140127893D01*
X118159200Y-140149800D01*
X118120645Y-140206158D01*
X117997594Y-140225862D01*
X117981400Y-140226000D01*
X117849897Y-140242523D01*
X117803922Y-140295260D01*
X117803600Y-140302200D01*
X117842156Y-140358558D01*
X117965207Y-140378262D01*
X117981400Y-140378400D01*
X118112904Y-140394923D01*
X118158879Y-140447660D01*
X118159200Y-140454600D01*
X118125647Y-140507584D01*
X118014419Y-140529417D01*
X117956000Y-140530800D01*
X117814709Y-140543382D01*
X117756488Y-140585093D01*
X117752800Y-140607000D01*
X117774737Y-140649618D01*
X117853170Y-140673370D01*
X118007032Y-140682598D01*
X118085226Y-140683200D01*
X118417652Y-140683200D01*
X118387800Y-139946600D01*
X118070300Y-139931475D01*
X117892337Y-139927476D01*
X117794538Y-139939672D01*
G36*
X117492855Y-139932321D02*
G01*
X117462192Y-139981175D01*
X117449868Y-140090998D01*
X117448000Y-140226000D01*
X117448000Y-140530800D01*
X117295600Y-140530800D01*
X117174609Y-140553518D01*
X117143200Y-140607000D01*
X117170392Y-140654919D01*
X117264537Y-140678323D01*
X117397200Y-140683200D01*
X117651200Y-140683200D01*
X117651200Y-140302200D01*
X117648801Y-140107399D01*
X117637859Y-139993102D01*
X117612760Y-139938252D01*
X117567889Y-139921797D01*
X117549600Y-139921200D01*
X117492855Y-139932321D01*
G37*
X117492855Y-139932321D02*
X117462192Y-139981175D01*
X117449868Y-140090998D01*
X117448000Y-140226000D01*
X117448000Y-140530800D01*
X117295600Y-140530800D01*
X117174609Y-140553518D01*
X117143200Y-140607000D01*
X117170392Y-140654919D01*
X117264537Y-140678323D01*
X117397200Y-140683200D01*
X117651200Y-140683200D01*
X117651200Y-140302200D01*
X117648801Y-140107399D01*
X117637859Y-139993102D01*
X117612760Y-139938252D01*
X117567889Y-139921797D01*
X117549600Y-139921200D01*
X117492855Y-139932321D01*
G36*
X116559817Y-139927052D02*
G01*
X116464795Y-139947797D01*
X116432602Y-139988218D01*
X116432000Y-139997400D01*
X116465554Y-140050384D01*
X116576782Y-140072217D01*
X116635200Y-140073600D01*
X116776492Y-140086182D01*
X116834713Y-140127893D01*
X116838400Y-140149800D01*
X116799845Y-140206158D01*
X116676794Y-140225862D01*
X116660600Y-140226000D01*
X116529097Y-140242523D01*
X116483122Y-140295260D01*
X116482800Y-140302200D01*
X116521356Y-140358558D01*
X116644407Y-140378262D01*
X116660600Y-140378400D01*
X116792104Y-140394923D01*
X116838079Y-140447660D01*
X116838400Y-140454600D01*
X116804847Y-140507584D01*
X116693619Y-140529417D01*
X116635200Y-140530800D01*
X116493909Y-140543382D01*
X116435688Y-140585093D01*
X116432000Y-140607000D01*
X116455409Y-140651245D01*
X116538389Y-140675001D01*
X116700076Y-140683049D01*
X116736800Y-140683200D01*
X117041600Y-140683200D01*
X117041600Y-139921200D01*
X116736800Y-139921200D01*
X116559817Y-139927052D01*
G37*
X116559817Y-139927052D02*
X116464795Y-139947797D01*
X116432602Y-139988218D01*
X116432000Y-139997400D01*
X116465554Y-140050384D01*
X116576782Y-140072217D01*
X116635200Y-140073600D01*
X116776492Y-140086182D01*
X116834713Y-140127893D01*
X116838400Y-140149800D01*
X116799845Y-140206158D01*
X116676794Y-140225862D01*
X116660600Y-140226000D01*
X116529097Y-140242523D01*
X116483122Y-140295260D01*
X116482800Y-140302200D01*
X116521356Y-140358558D01*
X116644407Y-140378262D01*
X116660600Y-140378400D01*
X116792104Y-140394923D01*
X116838079Y-140447660D01*
X116838400Y-140454600D01*
X116804847Y-140507584D01*
X116693619Y-140529417D01*
X116635200Y-140530800D01*
X116493909Y-140543382D01*
X116435688Y-140585093D01*
X116432000Y-140607000D01*
X116455409Y-140651245D01*
X116538389Y-140675001D01*
X116700076Y-140683049D01*
X116736800Y-140683200D01*
X117041600Y-140683200D01*
X117041600Y-139921200D01*
X116736800Y-139921200D01*
X116559817Y-139927052D01*
G36*
X115661131Y-139933847D02*
G01*
X115630613Y-139988100D01*
X115619974Y-140108429D01*
X115619200Y-140189296D01*
X115640785Y-140428477D01*
X115709968Y-140584036D01*
X115833390Y-140665327D01*
X115969808Y-140683200D01*
X116150304Y-140652846D01*
X116246327Y-140590299D01*
X116306299Y-140465097D01*
X116329846Y-140256812D01*
X116330400Y-140209299D01*
X116326107Y-140044501D01*
X116307810Y-139957511D01*
X116267389Y-139924707D01*
X116231336Y-139921200D01*
X116173926Y-139935189D01*
X116140884Y-139992609D01*
X116123124Y-140116640D01*
X116117036Y-140212806D01*
X116102022Y-140384221D01*
X116074101Y-140477970D01*
X116024748Y-140517893D01*
X116006288Y-140522604D01*
X115909623Y-140509919D01*
X115850829Y-140421049D01*
X115825194Y-140246729D01*
X115823178Y-140162500D01*
X115816715Y-140014793D01*
X115791396Y-139942971D01*
X115736446Y-139921641D01*
X115720800Y-139921200D01*
X115661131Y-139933847D01*
G37*
X115661131Y-139933847D02*
X115630613Y-139988100D01*
X115619974Y-140108429D01*
X115619200Y-140189296D01*
X115640785Y-140428477D01*
X115709968Y-140584036D01*
X115833390Y-140665327D01*
X115969808Y-140683200D01*
X116150304Y-140652846D01*
X116246327Y-140590299D01*
X116306299Y-140465097D01*
X116329846Y-140256812D01*
X116330400Y-140209299D01*
X116326107Y-140044501D01*
X116307810Y-139957511D01*
X116267389Y-139924707D01*
X116231336Y-139921200D01*
X116173926Y-139935189D01*
X116140884Y-139992609D01*
X116123124Y-140116640D01*
X116117036Y-140212806D01*
X116102022Y-140384221D01*
X116074101Y-140477970D01*
X116024748Y-140517893D01*
X116006288Y-140522604D01*
X115909623Y-140509919D01*
X115850829Y-140421049D01*
X115825194Y-140246729D01*
X115823178Y-140162500D01*
X115816715Y-140014793D01*
X115791396Y-139942971D01*
X115736446Y-139921641D01*
X115720800Y-139921200D01*
X115661131Y-139933847D01*
G36*
X114993712Y-139940130D02*
G01*
X114890070Y-139981035D01*
X114840078Y-140040427D01*
X114859255Y-140101475D01*
X114937287Y-140146124D01*
X115014935Y-140121545D01*
X115139082Y-140098304D01*
X115240889Y-140149258D01*
X115303551Y-140247151D01*
X115310265Y-140364730D01*
X115244230Y-140474740D01*
X115236696Y-140481248D01*
X115144303Y-140519748D01*
X115037354Y-140490315D01*
X114930594Y-140461148D01*
X114860150Y-140501889D01*
X114857778Y-140504704D01*
X114839145Y-140576704D01*
X114896997Y-140632841D01*
X115006833Y-140668431D01*
X115144155Y-140678787D01*
X115284463Y-140659226D01*
X115398893Y-140608185D01*
X115511064Y-140475425D01*
X115543563Y-140309456D01*
X115497714Y-140138404D01*
X115374842Y-139990395D01*
X115369603Y-139986315D01*
X115259172Y-139936972D01*
X115125311Y-139923510D01*
X114993712Y-139940130D01*
G37*
X114993712Y-139940130D02*
X114890070Y-139981035D01*
X114840078Y-140040427D01*
X114859255Y-140101475D01*
X114937287Y-140146124D01*
X115014935Y-140121545D01*
X115139082Y-140098304D01*
X115240889Y-140149258D01*
X115303551Y-140247151D01*
X115310265Y-140364730D01*
X115244230Y-140474740D01*
X115236696Y-140481248D01*
X115144303Y-140519748D01*
X115037354Y-140490315D01*
X114930594Y-140461148D01*
X114860150Y-140501889D01*
X114857778Y-140504704D01*
X114839145Y-140576704D01*
X114896997Y-140632841D01*
X115006833Y-140668431D01*
X115144155Y-140678787D01*
X115284463Y-140659226D01*
X115398893Y-140608185D01*
X115511064Y-140475425D01*
X115543563Y-140309456D01*
X115497714Y-140138404D01*
X115374842Y-139990395D01*
X115369603Y-139986315D01*
X115259172Y-139936972D01*
X115125311Y-139923510D01*
X114993712Y-139940130D01*
G36*
X114602054Y-139930198D02*
G01*
X114571574Y-139971231D01*
X114556948Y-140065352D01*
X114552560Y-140233617D01*
X114552400Y-140302200D01*
X114554800Y-140497000D01*
X114565742Y-140611297D01*
X114590841Y-140666147D01*
X114635712Y-140682602D01*
X114654000Y-140683200D01*
X114705947Y-140674201D01*
X114736427Y-140633168D01*
X114751053Y-140539047D01*
X114755441Y-140370782D01*
X114755600Y-140302200D01*
X114753201Y-140107399D01*
X114742259Y-139993102D01*
X114717160Y-139938252D01*
X114672289Y-139921797D01*
X114654000Y-139921200D01*
X114602054Y-139930198D01*
G37*
X114602054Y-139930198D02*
X114571574Y-139971231D01*
X114556948Y-140065352D01*
X114552560Y-140233617D01*
X114552400Y-140302200D01*
X114554800Y-140497000D01*
X114565742Y-140611297D01*
X114590841Y-140666147D01*
X114635712Y-140682602D01*
X114654000Y-140683200D01*
X114705947Y-140674201D01*
X114736427Y-140633168D01*
X114751053Y-140539047D01*
X114755441Y-140370782D01*
X114755600Y-140302200D01*
X114753201Y-140107399D01*
X114742259Y-139993102D01*
X114717160Y-139938252D01*
X114672289Y-139921797D01*
X114654000Y-139921200D01*
X114602054Y-139930198D01*
G36*
X114241655Y-139932321D02*
G01*
X114210992Y-139981175D01*
X114198668Y-140090998D01*
X114196800Y-140226000D01*
X114196800Y-140530800D01*
X114044400Y-140530800D01*
X113923409Y-140553518D01*
X113892000Y-140607000D01*
X113919192Y-140654919D01*
X114013337Y-140678323D01*
X114146000Y-140683200D01*
X114400000Y-140683200D01*
X114400000Y-140302200D01*
X114397601Y-140107399D01*
X114386659Y-139993102D01*
X114361560Y-139938252D01*
X114316689Y-139921797D01*
X114298400Y-139921200D01*
X114241655Y-139932321D01*
G37*
X114241655Y-139932321D02*
X114210992Y-139981175D01*
X114198668Y-140090998D01*
X114196800Y-140226000D01*
X114196800Y-140530800D01*
X114044400Y-140530800D01*
X113923409Y-140553518D01*
X113892000Y-140607000D01*
X113919192Y-140654919D01*
X114013337Y-140678323D01*
X114146000Y-140683200D01*
X114400000Y-140683200D01*
X114400000Y-140302200D01*
X114397601Y-140107399D01*
X114386659Y-139993102D01*
X114361560Y-139938252D01*
X114316689Y-139921797D01*
X114298400Y-139921200D01*
X114241655Y-139932321D01*
G36*
X113636854Y-139930198D02*
G01*
X113606374Y-139971231D01*
X113591748Y-140065352D01*
X113587360Y-140233617D01*
X113587200Y-140302200D01*
X113589600Y-140497000D01*
X113600542Y-140611297D01*
X113625641Y-140666147D01*
X113670512Y-140682602D01*
X113688800Y-140683200D01*
X113740747Y-140674201D01*
X113771227Y-140633168D01*
X113785853Y-140539047D01*
X113790241Y-140370782D01*
X113790400Y-140302200D01*
X113788001Y-140107399D01*
X113777059Y-139993102D01*
X113751960Y-139938252D01*
X113707089Y-139921797D01*
X113688800Y-139921200D01*
X113636854Y-139930198D01*
G37*
X113636854Y-139930198D02*
X113606374Y-139971231D01*
X113591748Y-140065352D01*
X113587360Y-140233617D01*
X113587200Y-140302200D01*
X113589600Y-140497000D01*
X113600542Y-140611297D01*
X113625641Y-140666147D01*
X113670512Y-140682602D01*
X113688800Y-140683200D01*
X113740747Y-140674201D01*
X113771227Y-140633168D01*
X113785853Y-140539047D01*
X113790241Y-140370782D01*
X113790400Y-140302200D01*
X113788001Y-140107399D01*
X113777059Y-139993102D01*
X113751960Y-139938252D01*
X113707089Y-139921797D01*
X113688800Y-139921200D01*
X113636854Y-139930198D01*
G36*
X113030019Y-139932433D02*
G01*
X112922560Y-139980245D01*
X112884145Y-140042090D01*
X112884511Y-140102798D01*
X112934840Y-140119398D01*
X113048806Y-140103288D01*
X113182387Y-140091946D01*
X113226345Y-140119344D01*
X113181089Y-140177142D01*
X113047031Y-140257002D01*
X113041100Y-140259916D01*
X112888081Y-140362230D01*
X112836216Y-140469998D01*
X112885664Y-140582831D01*
X112902492Y-140600834D01*
X113013535Y-140656564D01*
X113173778Y-140680975D01*
X113334762Y-140670765D01*
X113429503Y-140636749D01*
X113475165Y-140557289D01*
X113468357Y-140508336D01*
X113423058Y-140453052D01*
X113339384Y-140476695D01*
X113337294Y-140477809D01*
X113220552Y-140521607D01*
X113158740Y-140530800D01*
X113086142Y-140509190D01*
X113092367Y-140458177D01*
X113167863Y-140398480D01*
X113232673Y-140370414D01*
X113387112Y-140285163D01*
X113448292Y-140173712D01*
X113412520Y-140043520D01*
X113402221Y-140027965D01*
X113305358Y-139955325D01*
X113169455Y-139923803D01*
X113030019Y-139932433D01*
G37*
X113030019Y-139932433D02*
X112922560Y-139980245D01*
X112884145Y-140042090D01*
X112884511Y-140102798D01*
X112934840Y-140119398D01*
X113048806Y-140103288D01*
X113182387Y-140091946D01*
X113226345Y-140119344D01*
X113181089Y-140177142D01*
X113047031Y-140257002D01*
X113041100Y-140259916D01*
X112888081Y-140362230D01*
X112836216Y-140469998D01*
X112885664Y-140582831D01*
X112902492Y-140600834D01*
X113013535Y-140656564D01*
X113173778Y-140680975D01*
X113334762Y-140670765D01*
X113429503Y-140636749D01*
X113475165Y-140557289D01*
X113468357Y-140508336D01*
X113423058Y-140453052D01*
X113339384Y-140476695D01*
X113337294Y-140477809D01*
X113220552Y-140521607D01*
X113158740Y-140530800D01*
X113086142Y-140509190D01*
X113092367Y-140458177D01*
X113167863Y-140398480D01*
X113232673Y-140370414D01*
X113387112Y-140285163D01*
X113448292Y-140173712D01*
X113412520Y-140043520D01*
X113402221Y-140027965D01*
X113305358Y-139955325D01*
X113169455Y-139923803D01*
X113030019Y-139932433D01*
G36*
X112258986Y-139926287D02*
G01*
X112156044Y-139944464D01*
X112116418Y-139980106D01*
X112114000Y-139997400D01*
X112158161Y-140058685D01*
X112241000Y-140073600D01*
X112311386Y-140080053D01*
X112349386Y-140115319D01*
X112364944Y-140203254D01*
X112367998Y-140367716D01*
X112368000Y-140378400D01*
X112371708Y-140548636D01*
X112387992Y-140640624D01*
X112424600Y-140677596D01*
X112469600Y-140683200D01*
X112526346Y-140672078D01*
X112557009Y-140623224D01*
X112569333Y-140513401D01*
X112571200Y-140378400D01*
X112574908Y-140208163D01*
X112591192Y-140116175D01*
X112627800Y-140079203D01*
X112672800Y-140073600D01*
X112755543Y-140041836D01*
X112774400Y-139997400D01*
X112752356Y-139954658D01*
X112673587Y-139930902D01*
X112519140Y-139921757D01*
X112444200Y-139921200D01*
X112258986Y-139926287D01*
G37*
X112258986Y-139926287D02*
X112156044Y-139944464D01*
X112116418Y-139980106D01*
X112114000Y-139997400D01*
X112158161Y-140058685D01*
X112241000Y-140073600D01*
X112311386Y-140080053D01*
X112349386Y-140115319D01*
X112364944Y-140203254D01*
X112367998Y-140367716D01*
X112368000Y-140378400D01*
X112371708Y-140548636D01*
X112387992Y-140640624D01*
X112424600Y-140677596D01*
X112469600Y-140683200D01*
X112526346Y-140672078D01*
X112557009Y-140623224D01*
X112569333Y-140513401D01*
X112571200Y-140378400D01*
X112574908Y-140208163D01*
X112591192Y-140116175D01*
X112627800Y-140079203D01*
X112672800Y-140073600D01*
X112755543Y-140041836D01*
X112774400Y-139997400D01*
X112752356Y-139954658D01*
X112673587Y-139930902D01*
X112519140Y-139921757D01*
X112444200Y-139921200D01*
X112258986Y-139926287D01*
G36*
X111581417Y-139927052D02*
G01*
X111486395Y-139947797D01*
X111454202Y-139988218D01*
X111453600Y-139997400D01*
X111487154Y-140050384D01*
X111598382Y-140072217D01*
X111656800Y-140073600D01*
X111798092Y-140086182D01*
X111856313Y-140127893D01*
X111860000Y-140149800D01*
X111821445Y-140206158D01*
X111698394Y-140225862D01*
X111682200Y-140226000D01*
X111550697Y-140242523D01*
X111504722Y-140295260D01*
X111504400Y-140302200D01*
X111542956Y-140358558D01*
X111666007Y-140378262D01*
X111682200Y-140378400D01*
X111813704Y-140394923D01*
X111859679Y-140447660D01*
X111860000Y-140454600D01*
X111826447Y-140507584D01*
X111715219Y-140529417D01*
X111656800Y-140530800D01*
X111515509Y-140543382D01*
X111457288Y-140585093D01*
X111453600Y-140607000D01*
X111477009Y-140651245D01*
X111559989Y-140675001D01*
X111721676Y-140683049D01*
X111758400Y-140683200D01*
X112063200Y-140683200D01*
X112063200Y-139921200D01*
X111758400Y-139921200D01*
X111581417Y-139927052D01*
G37*
X111581417Y-139927052D02*
X111486395Y-139947797D01*
X111454202Y-139988218D01*
X111453600Y-139997400D01*
X111487154Y-140050384D01*
X111598382Y-140072217D01*
X111656800Y-140073600D01*
X111798092Y-140086182D01*
X111856313Y-140127893D01*
X111860000Y-140149800D01*
X111821445Y-140206158D01*
X111698394Y-140225862D01*
X111682200Y-140226000D01*
X111550697Y-140242523D01*
X111504722Y-140295260D01*
X111504400Y-140302200D01*
X111542956Y-140358558D01*
X111666007Y-140378262D01*
X111682200Y-140378400D01*
X111813704Y-140394923D01*
X111859679Y-140447660D01*
X111860000Y-140454600D01*
X111826447Y-140507584D01*
X111715219Y-140529417D01*
X111656800Y-140530800D01*
X111515509Y-140543382D01*
X111457288Y-140585093D01*
X111453600Y-140607000D01*
X111477009Y-140651245D01*
X111559989Y-140675001D01*
X111721676Y-140683049D01*
X111758400Y-140683200D01*
X112063200Y-140683200D01*
X112063200Y-139921200D01*
X111758400Y-139921200D01*
X111581417Y-139927052D01*
G36*
X110431387Y-139932453D02*
G01*
X110400730Y-139981780D01*
X110388551Y-140092534D01*
X110386800Y-140222371D01*
X110401478Y-140444377D01*
X110446894Y-140578823D01*
X110466629Y-140603371D01*
X110580820Y-140661921D01*
X110737452Y-140681681D01*
X110891506Y-140662707D01*
X110997959Y-140605053D01*
X110999948Y-140602725D01*
X111039886Y-140509973D01*
X111073276Y-140354501D01*
X111088474Y-140221725D01*
X111097674Y-140054230D01*
X111089784Y-139964113D01*
X111058026Y-139927679D01*
X111002506Y-139921200D01*
X110934392Y-139935094D01*
X110902889Y-139994625D01*
X110894827Y-140126558D01*
X110894800Y-140140090D01*
X110873201Y-140330866D01*
X110814992Y-140463722D01*
X110730057Y-140521899D01*
X110673547Y-140515248D01*
X110622109Y-140467925D01*
X110596276Y-140361929D01*
X110590000Y-140202194D01*
X110585641Y-140040169D01*
X110566770Y-139955553D01*
X110524704Y-139924324D01*
X110488400Y-139921200D01*
X110431387Y-139932453D01*
G37*
X110431387Y-139932453D02*
X110400730Y-139981780D01*
X110388551Y-140092534D01*
X110386800Y-140222371D01*
X110401478Y-140444377D01*
X110446894Y-140578823D01*
X110466629Y-140603371D01*
X110580820Y-140661921D01*
X110737452Y-140681681D01*
X110891506Y-140662707D01*
X110997959Y-140605053D01*
X110999948Y-140602725D01*
X111039886Y-140509973D01*
X111073276Y-140354501D01*
X111088474Y-140221725D01*
X111097674Y-140054230D01*
X111089784Y-139964113D01*
X111058026Y-139927679D01*
X111002506Y-139921200D01*
X110934392Y-139935094D01*
X110902889Y-139994625D01*
X110894827Y-140126558D01*
X110894800Y-140140090D01*
X110873201Y-140330866D01*
X110814992Y-140463722D01*
X110730057Y-140521899D01*
X110673547Y-140515248D01*
X110622109Y-140467925D01*
X110596276Y-140361929D01*
X110590000Y-140202194D01*
X110585641Y-140040169D01*
X110566770Y-139955553D01*
X110524704Y-139924324D01*
X110488400Y-139921200D01*
X110431387Y-139932453D01*
G36*
X121315828Y-139693805D02*
G01*
X121331656Y-139764275D01*
X121369760Y-139809440D01*
X121485850Y-139867023D01*
X121602756Y-139838146D01*
X121664400Y-139768800D01*
X121692976Y-139689701D01*
X121654042Y-139667229D01*
X121650948Y-139667200D01*
X121557414Y-139700396D01*
X121522160Y-139728160D01*
X121471824Y-139763502D01*
X121461200Y-139728160D01*
X121420226Y-139674149D01*
X121385000Y-139667200D01*
X121315828Y-139693805D01*
G37*
X121315828Y-139693805D02*
X121331656Y-139764275D01*
X121369760Y-139809440D01*
X121485850Y-139867023D01*
X121602756Y-139838146D01*
X121664400Y-139768800D01*
X121692976Y-139689701D01*
X121654042Y-139667229D01*
X121650948Y-139667200D01*
X121557414Y-139700396D01*
X121522160Y-139728160D01*
X121471824Y-139763502D01*
X121461200Y-139728160D01*
X121420226Y-139674149D01*
X121385000Y-139667200D01*
X121315828Y-139693805D01*
G36*
X114965828Y-139693805D02*
G01*
X114981656Y-139764275D01*
X115019760Y-139809440D01*
X115135850Y-139867023D01*
X115252756Y-139838146D01*
X115314400Y-139768800D01*
X115342976Y-139689701D01*
X115304042Y-139667229D01*
X115300948Y-139667200D01*
X115207414Y-139700396D01*
X115172160Y-139728160D01*
X115121824Y-139763502D01*
X115111200Y-139728160D01*
X115070226Y-139674149D01*
X115035000Y-139667200D01*
X114965828Y-139693805D01*
G37*
X114965828Y-139693805D02*
X114981656Y-139764275D01*
X115019760Y-139809440D01*
X115135850Y-139867023D01*
X115252756Y-139838146D01*
X115314400Y-139768800D01*
X115342976Y-139689701D01*
X115304042Y-139667229D01*
X115300948Y-139667200D01*
X115207414Y-139700396D01*
X115172160Y-139728160D01*
X115121824Y-139763502D01*
X115111200Y-139728160D01*
X115070226Y-139674149D01*
X115035000Y-139667200D01*
X114965828Y-139693805D01*
G36*
X112952984Y-139681876D02*
G01*
X112973845Y-139743067D01*
X112989390Y-139768800D01*
X113080573Y-139847780D01*
X113191725Y-139866419D01*
X113282284Y-139822376D01*
X113303561Y-139786929D01*
X113317003Y-139694513D01*
X113269421Y-139677845D01*
X113211951Y-139713227D01*
X113135495Y-139744792D01*
X113106125Y-139720466D01*
X113031087Y-139671488D01*
X112999572Y-139667200D01*
X112952984Y-139681876D01*
G37*
X112952984Y-139681876D02*
X112973845Y-139743067D01*
X112989390Y-139768800D01*
X113080573Y-139847780D01*
X113191725Y-139866419D01*
X113282284Y-139822376D01*
X113303561Y-139786929D01*
X113317003Y-139694513D01*
X113269421Y-139677845D01*
X113211951Y-139713227D01*
X113135495Y-139744792D01*
X113106125Y-139720466D01*
X113031087Y-139671488D01*
X112999572Y-139667200D01*
X112952984Y-139681876D01*
%TD*%
M02*
