M48
; DRILL file {KiCad (5.1.10)-1} date 07/26/21 19:48:58
; FORMAT={-:-/ absolute / inch / decimal}
; #@! TF.CreationDate,2021-07-26T19:48:58+02:00
; #@! TF.GenerationSoftware,Kicad,Pcbnew,(5.1.10)-1
; #@! TF.FileFunction,Plated,1,2,PTH
FMAT,2
INCH
T1C0.0157
T2C0.0197
T3C0.0315
T4C0.0390
T5C0.0394
T6C0.0512
T7C0.1260
%
G90
G05
T1
X3.9665Y-3.0315
X3.9764Y-4.3701
X3.9764Y-4.4094
X3.9764Y-4.4488
X3.9764Y-4.4882
X3.9764Y-4.5276
X4.0157Y-4.3701
X4.0157Y-4.4094
X4.0157Y-4.4488
X4.0157Y-4.4882
X4.0157Y-4.5276
X4.1043Y-3.248
X4.115Y-5.74
X4.2323Y-3.622
X4.2323Y-5.0984
X4.2717Y-4.9016
X4.305Y-5.74
X4.3575Y-4.7375
X4.3898Y-3.75
X4.3898Y-3.7894
X4.3898Y-3.8287
X4.39Y-4.655
X4.4094Y-4.3406
X4.4094Y-4.3799
X4.4094Y-4.4193
X4.4291Y-3.75
X4.4291Y-3.7894
X4.4291Y-3.8287
X4.4488Y-4.3406
X4.4488Y-4.3799
X4.4488Y-4.4193
X4.4587Y-3.5827
X4.4685Y-3.75
X4.4685Y-3.7894
X4.4685Y-3.8287
X4.4775Y-4.975
X4.4783Y-5.0394
X4.498Y-3.5433
X4.5079Y-5.1181
X4.5177Y-4.2717
X4.5768Y-3.6319
X4.6161Y-5.0689
X4.6325Y-3.96
X4.6457Y-5.0295
X4.6824Y-3.8999
X4.685Y-4.5079
X4.815Y-5.007
X4.9016Y-4.0748
X4.9016Y-4.1535
X4.9016Y-4.2323
X4.9016Y-4.311
X4.9016Y-4.3898
X4.905Y-3.97
X4.9114Y-5.0591
X5.0Y-5.2067
X5.0591Y-3.4055
X5.0591Y-3.6909
X5.1181Y-3.7205
X5.1181Y-5.0886
X5.1181Y-5.1476
X5.128Y-3.7697
X5.185Y-3.28
X5.1969Y-3.7008
X5.4518Y-3.9163
X5.4823Y-5.2854
X5.502Y-3.2579
X5.502Y-3.3366
X5.502Y-3.4154
X5.502Y-3.4941
X5.502Y-4.0748
X5.502Y-4.1535
X5.502Y-4.2323
X5.502Y-4.311
X5.502Y-4.3898
X5.502Y-4.4685
X5.502Y-4.5472
X5.502Y-4.626
X5.502Y-4.7047
X5.502Y-5.5512
X5.502Y-5.6299
X5.5709Y-5.6299
X5.5906Y-5.5413
X5.6299Y-3.1201
X5.6299Y-3.1594
X5.6299Y-3.1988
X5.6299Y-3.2382
X5.6299Y-3.2776
X5.6496Y-5.5315
X5.6693Y-3.1201
X5.6693Y-3.1594
X5.6693Y-3.1988
X5.6693Y-3.2382
X5.6693Y-3.2776
X5.7579Y-3.3858
X5.7579Y-3.5039
X5.7579Y-3.5827
X5.7579Y-3.6614
X5.7579Y-3.7795
X5.7579Y-3.8976
X5.7579Y-3.9764
X5.7579Y-4.0551
X5.7579Y-4.1732
X5.7579Y-4.2913
X5.7579Y-4.3701
X5.7579Y-4.4488
X5.7579Y-4.5669
X5.7579Y-4.685
X5.7579Y-4.7638
X5.7579Y-4.8425
X5.7579Y-4.9606
X5.7579Y-5.0787
X5.7579Y-5.1575
X5.7579Y-5.2362
X5.7579Y-5.3543
X5.7579Y-5.4724
X5.7579Y-5.5512
X5.7579Y-5.6299
X5.8465Y-3.002
X5.8465Y-3.0413
X5.8858Y-2.9232
X5.8858Y-2.9626
X5.8858Y-3.002
X5.8858Y-3.0413
X5.8858Y-3.0807
X5.9252Y-2.9232
X5.9252Y-2.9626
X5.9252Y-3.002
X5.9252Y-3.0413
X5.9252Y-3.0807
X5.9252Y-3.1201
X5.9646Y-2.9232
X6.0039Y-2.9232
X6.0335Y-3.3465
X6.0335Y-3.7402
X6.0335Y-4.1339
X6.0335Y-4.5276
X6.0335Y-4.9114
X6.0335Y-5.315
X6.122Y-2.9429
X6.122Y-3.2185
X6.122Y-3.622
X6.122Y-4.0157
X6.122Y-4.4094
X6.122Y-4.8031
X6.122Y-5.1969
X6.1319Y-5.5906
X6.1811Y-2.815
X6.25Y-3.4843
X6.25Y-3.878
X6.25Y-4.2717
X6.25Y-4.6654
X6.25Y-5.0591
X6.25Y-5.4528
X6.2795Y-3.3071
X6.3189Y-3.3071
X6.3189Y-3.3465
X6.3189Y-3.7402
X6.3189Y-4.1339
X6.3189Y-4.5276
X6.3189Y-4.9213
X6.3189Y-5.315
X6.3583Y-3.3071
X6.3583Y-3.3465
X6.3583Y-3.7402
X6.3583Y-4.1339
X6.3583Y-4.5276
X6.3583Y-4.9213
X6.3583Y-5.315
X6.3976Y-3.3465
X6.3976Y-3.7402
X6.3976Y-4.1339
X6.3976Y-4.5276
X6.3976Y-4.9213
X6.3976Y-5.315
X6.437Y-3.3465
X6.437Y-3.7402
X6.437Y-4.1339
X6.437Y-4.5276
X6.437Y-4.9213
X6.437Y-5.315
X6.4764Y-3.3465
X6.4764Y-3.3858
X6.4764Y-3.4252
X6.4764Y-3.7402
X6.4764Y-3.7795
X6.4764Y-3.8189
X6.4764Y-4.1339
X6.4764Y-4.1732
X6.4764Y-4.2126
X6.4764Y-4.5276
X6.4764Y-4.5669
X6.4764Y-4.6063
X6.4764Y-4.9213
X6.4764Y-4.9606
X6.4764Y-5.0
X6.4764Y-5.315
X6.4764Y-5.3543
X6.4764Y-5.3937
X6.5157Y-3.3071
X6.5157Y-3.3465
X6.5157Y-3.3858
X6.5157Y-3.4252
X6.5157Y-3.7402
X6.5157Y-3.7795
X6.5157Y-3.8189
X6.5157Y-4.1339
X6.5157Y-4.1732
X6.5157Y-4.2126
X6.5157Y-4.5276
X6.5157Y-4.5669
X6.5157Y-4.6063
X6.5157Y-4.9213
X6.5157Y-4.9606
X6.5157Y-5.0
X6.5157Y-5.315
X6.5157Y-5.3543
X6.5157Y-5.3937
X6.5354Y-2.9429
X6.6535Y-5.5512
X6.6634Y-5.6004
T2
X3.6731Y-2.7046
X3.6752Y-5.6299
X3.7008Y-2.6378
X3.7008Y-2.7714
X3.7029Y-5.5631
X3.7029Y-5.6967
X3.7676Y-2.6101
X3.7676Y-2.7991
X3.7697Y-5.5354
X3.7697Y-5.7244
X3.8344Y-2.6378
X3.8344Y-2.7714
X3.8365Y-5.5631
X3.8365Y-5.6967
X3.8621Y-2.7046
X3.8642Y-5.6299
X6.9134Y-2.7067
X6.9232Y-5.6299
X6.9411Y-2.6399
X6.9411Y-2.7735
X6.9509Y-5.5631
X6.9509Y-5.6967
X7.0079Y-2.6122
X7.0079Y-2.8012
X7.0177Y-5.5354
X7.0177Y-5.7244
X7.0747Y-2.6399
X7.0747Y-2.7735
X7.0845Y-5.5631
X7.0845Y-5.6967
X7.1024Y-2.7067
X7.1122Y-5.6299
T3
X4.1142Y-5.4528
X4.3063Y-5.4528
T4
X3.7402Y-4.5669
X3.7402Y-4.7441
T5
X4.0453Y-4.9559
X4.0453Y-5.0559
X4.0453Y-5.1559
X4.0453Y-5.2559
X4.2815Y-2.9823
X4.3815Y-2.9823
X4.4815Y-2.9823
X4.5803Y-5.3543
X4.5815Y-2.9823
X4.6803Y-5.3543
X4.6815Y-2.9823
X4.7803Y-5.3543
X4.8228Y-2.9823
X4.8803Y-5.3543
X4.9228Y-2.9823
X4.9803Y-5.3543
X5.0228Y-2.9823
X5.1228Y-2.9823
X5.2657Y-2.9823
X5.3657Y-2.9823
X5.5118Y-2.9823
X5.6118Y-2.9823
X6.7421Y-3.4449
X6.7421Y-3.5449
X6.7421Y-3.6449
X6.7421Y-3.7894
X6.7421Y-3.8894
X6.7421Y-3.9894
X6.7421Y-4.1339
X6.7421Y-4.2339
X6.7421Y-4.3339
X6.7421Y-4.4783
X6.7421Y-4.5783
X6.7421Y-4.6783
X6.7421Y-4.8228
X6.7421Y-4.9228
X6.7421Y-5.0228
X6.7421Y-5.1673
X6.7421Y-5.2673
X6.7421Y-5.3673
T6
X3.8382Y-4.5173
X3.8382Y-4.7933
X6.8406Y-3.0087
X6.8406Y-3.2087
T7
X3.7676Y-2.7046
X3.7697Y-5.6299
X7.0079Y-2.7067
X7.0177Y-5.6299
T0
M30
