%TF.GenerationSoftware,KiCad,Pcbnew,(5.1.10)-1*%
%TF.CreationDate,2021-07-26T19:48:55+02:00*%
%TF.ProjectId,RobotskaRuka,526f626f-7473-46b6-9152-756b612e6b69,rev?*%
%TF.SameCoordinates,Original*%
%TF.FileFunction,Paste,Top*%
%TF.FilePolarity,Positive*%
%FSLAX46Y46*%
G04 Gerber Fmt 4.6, Leading zero omitted, Abs format (unit mm)*
G04 Created by KiCad (PCBNEW (5.1.10)-1) date 2021-07-26 19:48:55*
%MOMM*%
%LPD*%
G01*
G04 APERTURE LIST*
%ADD10R,0.900000X0.800000*%
%ADD11R,2.000000X3.800000*%
%ADD12R,2.000000X1.500000*%
%ADD13R,1.600000X0.550000*%
%ADD14R,0.550000X1.600000*%
%ADD15R,5.000000X5.000000*%
%ADD16R,0.900000X2.000000*%
%ADD17R,2.000000X0.900000*%
%ADD18R,1.060000X0.400000*%
G04 APERTURE END LIST*
%TO.C,C2*%
G36*
G01*
X164200000Y-75175000D02*
X164200000Y-74225000D01*
G75*
G02*
X164450000Y-73975000I250000J0D01*
G01*
X164950000Y-73975000D01*
G75*
G02*
X165200000Y-74225000I0J-250000D01*
G01*
X165200000Y-75175000D01*
G75*
G02*
X164950000Y-75425000I-250000J0D01*
G01*
X164450000Y-75425000D01*
G75*
G02*
X164200000Y-75175000I0J250000D01*
G01*
G37*
G36*
G01*
X162300000Y-75175000D02*
X162300000Y-74225000D01*
G75*
G02*
X162550000Y-73975000I250000J0D01*
G01*
X163050000Y-73975000D01*
G75*
G02*
X163300000Y-74225000I0J-250000D01*
G01*
X163300000Y-75175000D01*
G75*
G02*
X163050000Y-75425000I-250000J0D01*
G01*
X162550000Y-75425000D01*
G75*
G02*
X162300000Y-75175000I0J250000D01*
G01*
G37*
%TD*%
%TO.C,C4*%
G36*
G01*
X146800000Y-74225000D02*
X146800000Y-75175000D01*
G75*
G02*
X146550000Y-75425000I-250000J0D01*
G01*
X146050000Y-75425000D01*
G75*
G02*
X145800000Y-75175000I0J250000D01*
G01*
X145800000Y-74225000D01*
G75*
G02*
X146050000Y-73975000I250000J0D01*
G01*
X146550000Y-73975000D01*
G75*
G02*
X146800000Y-74225000I0J-250000D01*
G01*
G37*
G36*
G01*
X148700000Y-74225000D02*
X148700000Y-75175000D01*
G75*
G02*
X148450000Y-75425000I-250000J0D01*
G01*
X147950000Y-75425000D01*
G75*
G02*
X147700000Y-75175000I0J250000D01*
G01*
X147700000Y-74225000D01*
G75*
G02*
X147950000Y-73975000I250000J0D01*
G01*
X148450000Y-73975000D01*
G75*
G02*
X148700000Y-74225000I0J-250000D01*
G01*
G37*
%TD*%
%TO.C,C5*%
G36*
G01*
X116175000Y-117800000D02*
X115225000Y-117800000D01*
G75*
G02*
X114975000Y-117550000I0J250000D01*
G01*
X114975000Y-117050000D01*
G75*
G02*
X115225000Y-116800000I250000J0D01*
G01*
X116175000Y-116800000D01*
G75*
G02*
X116425000Y-117050000I0J-250000D01*
G01*
X116425000Y-117550000D01*
G75*
G02*
X116175000Y-117800000I-250000J0D01*
G01*
G37*
G36*
G01*
X116175000Y-119700000D02*
X115225000Y-119700000D01*
G75*
G02*
X114975000Y-119450000I0J250000D01*
G01*
X114975000Y-118950000D01*
G75*
G02*
X115225000Y-118700000I250000J0D01*
G01*
X116175000Y-118700000D01*
G75*
G02*
X116425000Y-118950000I0J-250000D01*
G01*
X116425000Y-119450000D01*
G75*
G02*
X116175000Y-119700000I-250000J0D01*
G01*
G37*
%TD*%
%TO.C,C6*%
G36*
G01*
X108975000Y-126300000D02*
X108025000Y-126300000D01*
G75*
G02*
X107775000Y-126050000I0J250000D01*
G01*
X107775000Y-125550000D01*
G75*
G02*
X108025000Y-125300000I250000J0D01*
G01*
X108975000Y-125300000D01*
G75*
G02*
X109225000Y-125550000I0J-250000D01*
G01*
X109225000Y-126050000D01*
G75*
G02*
X108975000Y-126300000I-250000J0D01*
G01*
G37*
G36*
G01*
X108975000Y-128200000D02*
X108025000Y-128200000D01*
G75*
G02*
X107775000Y-127950000I0J250000D01*
G01*
X107775000Y-127450000D01*
G75*
G02*
X108025000Y-127200000I250000J0D01*
G01*
X108975000Y-127200000D01*
G75*
G02*
X109225000Y-127450000I0J-250000D01*
G01*
X109225000Y-127950000D01*
G75*
G02*
X108975000Y-128200000I-250000J0D01*
G01*
G37*
%TD*%
%TO.C,C7*%
G36*
G01*
X108905000Y-142050000D02*
X109855000Y-142050000D01*
G75*
G02*
X110105000Y-142300000I0J-250000D01*
G01*
X110105000Y-142800000D01*
G75*
G02*
X109855000Y-143050000I-250000J0D01*
G01*
X108905000Y-143050000D01*
G75*
G02*
X108655000Y-142800000I0J250000D01*
G01*
X108655000Y-142300000D01*
G75*
G02*
X108905000Y-142050000I250000J0D01*
G01*
G37*
G36*
G01*
X108905000Y-143950000D02*
X109855000Y-143950000D01*
G75*
G02*
X110105000Y-144200000I0J-250000D01*
G01*
X110105000Y-144700000D01*
G75*
G02*
X109855000Y-144950000I-250000J0D01*
G01*
X108905000Y-144950000D01*
G75*
G02*
X108655000Y-144700000I0J250000D01*
G01*
X108655000Y-144200000D01*
G75*
G02*
X108905000Y-143950000I250000J0D01*
G01*
G37*
%TD*%
%TO.C,C8*%
G36*
G01*
X104025000Y-142050000D02*
X104975000Y-142050000D01*
G75*
G02*
X105225000Y-142300000I0J-250000D01*
G01*
X105225000Y-142800000D01*
G75*
G02*
X104975000Y-143050000I-250000J0D01*
G01*
X104025000Y-143050000D01*
G75*
G02*
X103775000Y-142800000I0J250000D01*
G01*
X103775000Y-142300000D01*
G75*
G02*
X104025000Y-142050000I250000J0D01*
G01*
G37*
G36*
G01*
X104025000Y-143950000D02*
X104975000Y-143950000D01*
G75*
G02*
X105225000Y-144200000I0J-250000D01*
G01*
X105225000Y-144700000D01*
G75*
G02*
X104975000Y-144950000I-250000J0D01*
G01*
X104025000Y-144950000D01*
G75*
G02*
X103775000Y-144700000I0J250000D01*
G01*
X103775000Y-144200000D01*
G75*
G02*
X104025000Y-143950000I250000J0D01*
G01*
G37*
%TD*%
%TO.C,C9*%
G36*
G01*
X105050000Y-108025000D02*
X105050000Y-108975000D01*
G75*
G02*
X104800000Y-109225000I-250000J0D01*
G01*
X104300000Y-109225000D01*
G75*
G02*
X104050000Y-108975000I0J250000D01*
G01*
X104050000Y-108025000D01*
G75*
G02*
X104300000Y-107775000I250000J0D01*
G01*
X104800000Y-107775000D01*
G75*
G02*
X105050000Y-108025000I0J-250000D01*
G01*
G37*
G36*
G01*
X106950000Y-108025000D02*
X106950000Y-108975000D01*
G75*
G02*
X106700000Y-109225000I-250000J0D01*
G01*
X106200000Y-109225000D01*
G75*
G02*
X105950000Y-108975000I0J250000D01*
G01*
X105950000Y-108025000D01*
G75*
G02*
X106200000Y-107775000I250000J0D01*
G01*
X106700000Y-107775000D01*
G75*
G02*
X106950000Y-108025000I0J-250000D01*
G01*
G37*
%TD*%
%TO.C,C10*%
G36*
G01*
X113950000Y-108025000D02*
X113950000Y-108975000D01*
G75*
G02*
X113700000Y-109225000I-250000J0D01*
G01*
X113200000Y-109225000D01*
G75*
G02*
X112950000Y-108975000I0J250000D01*
G01*
X112950000Y-108025000D01*
G75*
G02*
X113200000Y-107775000I250000J0D01*
G01*
X113700000Y-107775000D01*
G75*
G02*
X113950000Y-108025000I0J-250000D01*
G01*
G37*
G36*
G01*
X112050000Y-108025000D02*
X112050000Y-108975000D01*
G75*
G02*
X111800000Y-109225000I-250000J0D01*
G01*
X111300000Y-109225000D01*
G75*
G02*
X111050000Y-108975000I0J250000D01*
G01*
X111050000Y-108025000D01*
G75*
G02*
X111300000Y-107775000I250000J0D01*
G01*
X111800000Y-107775000D01*
G75*
G02*
X112050000Y-108025000I0J-250000D01*
G01*
G37*
%TD*%
%TO.C,C11*%
G36*
G01*
X111150000Y-112225000D02*
X111150000Y-114275000D01*
G75*
G02*
X110900000Y-114525000I-250000J0D01*
G01*
X109325000Y-114525000D01*
G75*
G02*
X109075000Y-114275000I0J250000D01*
G01*
X109075000Y-112225000D01*
G75*
G02*
X109325000Y-111975000I250000J0D01*
G01*
X110900000Y-111975000D01*
G75*
G02*
X111150000Y-112225000I0J-250000D01*
G01*
G37*
G36*
G01*
X104925000Y-112225000D02*
X104925000Y-114275000D01*
G75*
G02*
X104675000Y-114525000I-250000J0D01*
G01*
X103100000Y-114525000D01*
G75*
G02*
X102850000Y-114275000I0J250000D01*
G01*
X102850000Y-112225000D01*
G75*
G02*
X103100000Y-111975000I250000J0D01*
G01*
X104675000Y-111975000D01*
G75*
G02*
X104925000Y-112225000I0J-250000D01*
G01*
G37*
%TD*%
%TO.C,C12*%
G36*
G01*
X126525000Y-128550000D02*
X127475000Y-128550000D01*
G75*
G02*
X127725000Y-128800000I0J-250000D01*
G01*
X127725000Y-129300000D01*
G75*
G02*
X127475000Y-129550000I-250000J0D01*
G01*
X126525000Y-129550000D01*
G75*
G02*
X126275000Y-129300000I0J250000D01*
G01*
X126275000Y-128800000D01*
G75*
G02*
X126525000Y-128550000I250000J0D01*
G01*
G37*
G36*
G01*
X126525000Y-130450000D02*
X127475000Y-130450000D01*
G75*
G02*
X127725000Y-130700000I0J-250000D01*
G01*
X127725000Y-131200000D01*
G75*
G02*
X127475000Y-131450000I-250000J0D01*
G01*
X126525000Y-131450000D01*
G75*
G02*
X126275000Y-131200000I0J250000D01*
G01*
X126275000Y-130700000D01*
G75*
G02*
X126525000Y-130450000I250000J0D01*
G01*
G37*
%TD*%
%TO.C,C13*%
G36*
G01*
X155050000Y-134525000D02*
X155050000Y-135475000D01*
G75*
G02*
X154800000Y-135725000I-250000J0D01*
G01*
X154300000Y-135725000D01*
G75*
G02*
X154050000Y-135475000I0J250000D01*
G01*
X154050000Y-134525000D01*
G75*
G02*
X154300000Y-134275000I250000J0D01*
G01*
X154800000Y-134275000D01*
G75*
G02*
X155050000Y-134525000I0J-250000D01*
G01*
G37*
G36*
G01*
X156950000Y-134525000D02*
X156950000Y-135475000D01*
G75*
G02*
X156700000Y-135725000I-250000J0D01*
G01*
X156200000Y-135725000D01*
G75*
G02*
X155950000Y-135475000I0J250000D01*
G01*
X155950000Y-134525000D01*
G75*
G02*
X156200000Y-134275000I250000J0D01*
G01*
X156700000Y-134275000D01*
G75*
G02*
X156950000Y-134525000I0J-250000D01*
G01*
G37*
%TD*%
%TO.C,C14*%
G36*
G01*
X155050000Y-124275000D02*
X155050000Y-125225000D01*
G75*
G02*
X154800000Y-125475000I-250000J0D01*
G01*
X154300000Y-125475000D01*
G75*
G02*
X154050000Y-125225000I0J250000D01*
G01*
X154050000Y-124275000D01*
G75*
G02*
X154300000Y-124025000I250000J0D01*
G01*
X154800000Y-124025000D01*
G75*
G02*
X155050000Y-124275000I0J-250000D01*
G01*
G37*
G36*
G01*
X156950000Y-124275000D02*
X156950000Y-125225000D01*
G75*
G02*
X156700000Y-125475000I-250000J0D01*
G01*
X156200000Y-125475000D01*
G75*
G02*
X155950000Y-125225000I0J250000D01*
G01*
X155950000Y-124275000D01*
G75*
G02*
X156200000Y-124025000I250000J0D01*
G01*
X156700000Y-124025000D01*
G75*
G02*
X156950000Y-124275000I0J-250000D01*
G01*
G37*
%TD*%
%TO.C,C15*%
G36*
G01*
X156950000Y-114525000D02*
X156950000Y-115475000D01*
G75*
G02*
X156700000Y-115725000I-250000J0D01*
G01*
X156200000Y-115725000D01*
G75*
G02*
X155950000Y-115475000I0J250000D01*
G01*
X155950000Y-114525000D01*
G75*
G02*
X156200000Y-114275000I250000J0D01*
G01*
X156700000Y-114275000D01*
G75*
G02*
X156950000Y-114525000I0J-250000D01*
G01*
G37*
G36*
G01*
X155050000Y-114525000D02*
X155050000Y-115475000D01*
G75*
G02*
X154800000Y-115725000I-250000J0D01*
G01*
X154300000Y-115725000D01*
G75*
G02*
X154050000Y-115475000I0J250000D01*
G01*
X154050000Y-114525000D01*
G75*
G02*
X154300000Y-114275000I250000J0D01*
G01*
X154800000Y-114275000D01*
G75*
G02*
X155050000Y-114525000I0J-250000D01*
G01*
G37*
%TD*%
%TO.C,C16*%
G36*
G01*
X156950000Y-104525000D02*
X156950000Y-105475000D01*
G75*
G02*
X156700000Y-105725000I-250000J0D01*
G01*
X156200000Y-105725000D01*
G75*
G02*
X155950000Y-105475000I0J250000D01*
G01*
X155950000Y-104525000D01*
G75*
G02*
X156200000Y-104275000I250000J0D01*
G01*
X156700000Y-104275000D01*
G75*
G02*
X156950000Y-104525000I0J-250000D01*
G01*
G37*
G36*
G01*
X155050000Y-104525000D02*
X155050000Y-105475000D01*
G75*
G02*
X154800000Y-105725000I-250000J0D01*
G01*
X154300000Y-105725000D01*
G75*
G02*
X154050000Y-105475000I0J250000D01*
G01*
X154050000Y-104525000D01*
G75*
G02*
X154300000Y-104275000I250000J0D01*
G01*
X154800000Y-104275000D01*
G75*
G02*
X155050000Y-104525000I0J-250000D01*
G01*
G37*
%TD*%
%TO.C,C17*%
G36*
G01*
X155050000Y-94525000D02*
X155050000Y-95475000D01*
G75*
G02*
X154800000Y-95725000I-250000J0D01*
G01*
X154300000Y-95725000D01*
G75*
G02*
X154050000Y-95475000I0J250000D01*
G01*
X154050000Y-94525000D01*
G75*
G02*
X154300000Y-94275000I250000J0D01*
G01*
X154800000Y-94275000D01*
G75*
G02*
X155050000Y-94525000I0J-250000D01*
G01*
G37*
G36*
G01*
X156950000Y-94525000D02*
X156950000Y-95475000D01*
G75*
G02*
X156700000Y-95725000I-250000J0D01*
G01*
X156200000Y-95725000D01*
G75*
G02*
X155950000Y-95475000I0J250000D01*
G01*
X155950000Y-94525000D01*
G75*
G02*
X156200000Y-94275000I250000J0D01*
G01*
X156700000Y-94275000D01*
G75*
G02*
X156950000Y-94525000I0J-250000D01*
G01*
G37*
%TD*%
%TO.C,C18*%
G36*
G01*
X156950000Y-84525000D02*
X156950000Y-85475000D01*
G75*
G02*
X156700000Y-85725000I-250000J0D01*
G01*
X156200000Y-85725000D01*
G75*
G02*
X155950000Y-85475000I0J250000D01*
G01*
X155950000Y-84525000D01*
G75*
G02*
X156200000Y-84275000I250000J0D01*
G01*
X156700000Y-84275000D01*
G75*
G02*
X156950000Y-84525000I0J-250000D01*
G01*
G37*
G36*
G01*
X155050000Y-84525000D02*
X155050000Y-85475000D01*
G75*
G02*
X154800000Y-85725000I-250000J0D01*
G01*
X154300000Y-85725000D01*
G75*
G02*
X154050000Y-85475000I0J250000D01*
G01*
X154050000Y-84525000D01*
G75*
G02*
X154300000Y-84275000I250000J0D01*
G01*
X154800000Y-84275000D01*
G75*
G02*
X155050000Y-84525000I0J-250000D01*
G01*
G37*
%TD*%
%TO.C,C19*%
G36*
G01*
X130300000Y-86025000D02*
X130300000Y-86975000D01*
G75*
G02*
X130050000Y-87225000I-250000J0D01*
G01*
X129550000Y-87225000D01*
G75*
G02*
X129300000Y-86975000I0J250000D01*
G01*
X129300000Y-86025000D01*
G75*
G02*
X129550000Y-85775000I250000J0D01*
G01*
X130050000Y-85775000D01*
G75*
G02*
X130300000Y-86025000I0J-250000D01*
G01*
G37*
G36*
G01*
X132200000Y-86025000D02*
X132200000Y-86975000D01*
G75*
G02*
X131950000Y-87225000I-250000J0D01*
G01*
X131450000Y-87225000D01*
G75*
G02*
X131200000Y-86975000I0J250000D01*
G01*
X131200000Y-86025000D01*
G75*
G02*
X131450000Y-85775000I250000J0D01*
G01*
X131950000Y-85775000D01*
G75*
G02*
X132200000Y-86025000I0J-250000D01*
G01*
G37*
%TD*%
%TO.C,D1*%
G36*
G01*
X157456250Y-70675000D02*
X156543750Y-70675000D01*
G75*
G02*
X156300000Y-70431250I0J243750D01*
G01*
X156300000Y-69943750D01*
G75*
G02*
X156543750Y-69700000I243750J0D01*
G01*
X157456250Y-69700000D01*
G75*
G02*
X157700000Y-69943750I0J-243750D01*
G01*
X157700000Y-70431250D01*
G75*
G02*
X157456250Y-70675000I-243750J0D01*
G01*
G37*
G36*
G01*
X157456250Y-68800000D02*
X156543750Y-68800000D01*
G75*
G02*
X156300000Y-68556250I0J243750D01*
G01*
X156300000Y-68068750D01*
G75*
G02*
X156543750Y-67825000I243750J0D01*
G01*
X157456250Y-67825000D01*
G75*
G02*
X157700000Y-68068750I0J-243750D01*
G01*
X157700000Y-68556250D01*
G75*
G02*
X157456250Y-68800000I-243750J0D01*
G01*
G37*
%TD*%
D10*
%TO.C,Q2*%
X97000000Y-78950000D03*
X97000000Y-77050000D03*
X95000000Y-78000000D03*
%TD*%
%TO.C,Q3*%
X101750000Y-73050000D03*
X101750000Y-74950000D03*
X103750000Y-74000000D03*
%TD*%
%TO.C,R1*%
G36*
G01*
X154450002Y-68850000D02*
X153549998Y-68850000D01*
G75*
G02*
X153300000Y-68600002I0J249998D01*
G01*
X153300000Y-68074998D01*
G75*
G02*
X153549998Y-67825000I249998J0D01*
G01*
X154450002Y-67825000D01*
G75*
G02*
X154700000Y-68074998I0J-249998D01*
G01*
X154700000Y-68600002D01*
G75*
G02*
X154450002Y-68850000I-249998J0D01*
G01*
G37*
G36*
G01*
X154450002Y-70675000D02*
X153549998Y-70675000D01*
G75*
G02*
X153300000Y-70425002I0J249998D01*
G01*
X153300000Y-69899998D01*
G75*
G02*
X153549998Y-69650000I249998J0D01*
G01*
X154450002Y-69650000D01*
G75*
G02*
X154700000Y-69899998I0J-249998D01*
G01*
X154700000Y-70425002D01*
G75*
G02*
X154450002Y-70675000I-249998J0D01*
G01*
G37*
%TD*%
%TO.C,R2*%
G36*
G01*
X118549998Y-118650000D02*
X119450002Y-118650000D01*
G75*
G02*
X119700000Y-118899998I0J-249998D01*
G01*
X119700000Y-119425002D01*
G75*
G02*
X119450002Y-119675000I-249998J0D01*
G01*
X118549998Y-119675000D01*
G75*
G02*
X118300000Y-119425002I0J249998D01*
G01*
X118300000Y-118899998D01*
G75*
G02*
X118549998Y-118650000I249998J0D01*
G01*
G37*
G36*
G01*
X118549998Y-116825000D02*
X119450002Y-116825000D01*
G75*
G02*
X119700000Y-117074998I0J-249998D01*
G01*
X119700000Y-117600002D01*
G75*
G02*
X119450002Y-117850000I-249998J0D01*
G01*
X118549998Y-117850000D01*
G75*
G02*
X118300000Y-117600002I0J249998D01*
G01*
X118300000Y-117074998D01*
G75*
G02*
X118549998Y-116825000I249998J0D01*
G01*
G37*
%TD*%
%TO.C,R3*%
G36*
G01*
X110425000Y-108049998D02*
X110425000Y-108950002D01*
G75*
G02*
X110175002Y-109200000I-249998J0D01*
G01*
X109649998Y-109200000D01*
G75*
G02*
X109400000Y-108950002I0J249998D01*
G01*
X109400000Y-108049998D01*
G75*
G02*
X109649998Y-107800000I249998J0D01*
G01*
X110175002Y-107800000D01*
G75*
G02*
X110425000Y-108049998I0J-249998D01*
G01*
G37*
G36*
G01*
X108600000Y-108049998D02*
X108600000Y-108950002D01*
G75*
G02*
X108350002Y-109200000I-249998J0D01*
G01*
X107824998Y-109200000D01*
G75*
G02*
X107575000Y-108950002I0J249998D01*
G01*
X107575000Y-108049998D01*
G75*
G02*
X107824998Y-107800000I249998J0D01*
G01*
X108350002Y-107800000D01*
G75*
G02*
X108600000Y-108049998I0J-249998D01*
G01*
G37*
%TD*%
%TO.C,R4*%
G36*
G01*
X102100000Y-78299998D02*
X102100000Y-79200002D01*
G75*
G02*
X101850002Y-79450000I-249998J0D01*
G01*
X101324998Y-79450000D01*
G75*
G02*
X101075000Y-79200002I0J249998D01*
G01*
X101075000Y-78299998D01*
G75*
G02*
X101324998Y-78050000I249998J0D01*
G01*
X101850002Y-78050000D01*
G75*
G02*
X102100000Y-78299998I0J-249998D01*
G01*
G37*
G36*
G01*
X103925000Y-78299998D02*
X103925000Y-79200002D01*
G75*
G02*
X103675002Y-79450000I-249998J0D01*
G01*
X103149998Y-79450000D01*
G75*
G02*
X102900000Y-79200002I0J249998D01*
G01*
X102900000Y-78299998D01*
G75*
G02*
X103149998Y-78050000I249998J0D01*
G01*
X103675002Y-78050000D01*
G75*
G02*
X103925000Y-78299998I0J-249998D01*
G01*
G37*
%TD*%
%TO.C,R5*%
G36*
G01*
X96650000Y-74450002D02*
X96650000Y-73549998D01*
G75*
G02*
X96899998Y-73300000I249998J0D01*
G01*
X97425002Y-73300000D01*
G75*
G02*
X97675000Y-73549998I0J-249998D01*
G01*
X97675000Y-74450002D01*
G75*
G02*
X97425002Y-74700000I-249998J0D01*
G01*
X96899998Y-74700000D01*
G75*
G02*
X96650000Y-74450002I0J249998D01*
G01*
G37*
G36*
G01*
X94825000Y-74450002D02*
X94825000Y-73549998D01*
G75*
G02*
X95074998Y-73300000I249998J0D01*
G01*
X95600002Y-73300000D01*
G75*
G02*
X95850000Y-73549998I0J-249998D01*
G01*
X95850000Y-74450002D01*
G75*
G02*
X95600002Y-74700000I-249998J0D01*
G01*
X95074998Y-74700000D01*
G75*
G02*
X94825000Y-74450002I0J249998D01*
G01*
G37*
%TD*%
%TO.C,R6*%
G36*
G01*
X138925000Y-117049998D02*
X138925000Y-117950002D01*
G75*
G02*
X138675002Y-118200000I-249998J0D01*
G01*
X138149998Y-118200000D01*
G75*
G02*
X137900000Y-117950002I0J249998D01*
G01*
X137900000Y-117049998D01*
G75*
G02*
X138149998Y-116800000I249998J0D01*
G01*
X138675002Y-116800000D01*
G75*
G02*
X138925000Y-117049998I0J-249998D01*
G01*
G37*
G36*
G01*
X137100000Y-117049998D02*
X137100000Y-117950002D01*
G75*
G02*
X136850002Y-118200000I-249998J0D01*
G01*
X136324998Y-118200000D01*
G75*
G02*
X136075000Y-117950002I0J249998D01*
G01*
X136075000Y-117049998D01*
G75*
G02*
X136324998Y-116800000I249998J0D01*
G01*
X136850002Y-116800000D01*
G75*
G02*
X137100000Y-117049998I0J-249998D01*
G01*
G37*
%TD*%
%TO.C,R7*%
G36*
G01*
X138925000Y-115049998D02*
X138925000Y-115950002D01*
G75*
G02*
X138675002Y-116200000I-249998J0D01*
G01*
X138149998Y-116200000D01*
G75*
G02*
X137900000Y-115950002I0J249998D01*
G01*
X137900000Y-115049998D01*
G75*
G02*
X138149998Y-114800000I249998J0D01*
G01*
X138675002Y-114800000D01*
G75*
G02*
X138925000Y-115049998I0J-249998D01*
G01*
G37*
G36*
G01*
X137100000Y-115049998D02*
X137100000Y-115950002D01*
G75*
G02*
X136850002Y-116200000I-249998J0D01*
G01*
X136324998Y-116200000D01*
G75*
G02*
X136075000Y-115950002I0J249998D01*
G01*
X136075000Y-115049998D01*
G75*
G02*
X136324998Y-114800000I249998J0D01*
G01*
X136850002Y-114800000D01*
G75*
G02*
X137100000Y-115049998I0J-249998D01*
G01*
G37*
%TD*%
%TO.C,R8*%
G36*
G01*
X137100000Y-138549998D02*
X137100000Y-139450002D01*
G75*
G02*
X136850002Y-139700000I-249998J0D01*
G01*
X136324998Y-139700000D01*
G75*
G02*
X136075000Y-139450002I0J249998D01*
G01*
X136075000Y-138549998D01*
G75*
G02*
X136324998Y-138300000I249998J0D01*
G01*
X136850002Y-138300000D01*
G75*
G02*
X137100000Y-138549998I0J-249998D01*
G01*
G37*
G36*
G01*
X138925000Y-138549998D02*
X138925000Y-139450002D01*
G75*
G02*
X138675002Y-139700000I-249998J0D01*
G01*
X138149998Y-139700000D01*
G75*
G02*
X137900000Y-139450002I0J249998D01*
G01*
X137900000Y-138549998D01*
G75*
G02*
X138149998Y-138300000I249998J0D01*
G01*
X138675002Y-138300000D01*
G75*
G02*
X138925000Y-138549998I0J-249998D01*
G01*
G37*
%TD*%
%TO.C,R9*%
G36*
G01*
X137100000Y-119049998D02*
X137100000Y-119950002D01*
G75*
G02*
X136850002Y-120200000I-249998J0D01*
G01*
X136324998Y-120200000D01*
G75*
G02*
X136075000Y-119950002I0J249998D01*
G01*
X136075000Y-119049998D01*
G75*
G02*
X136324998Y-118800000I249998J0D01*
G01*
X136850002Y-118800000D01*
G75*
G02*
X137100000Y-119049998I0J-249998D01*
G01*
G37*
G36*
G01*
X138925000Y-119049998D02*
X138925000Y-119950002D01*
G75*
G02*
X138675002Y-120200000I-249998J0D01*
G01*
X138149998Y-120200000D01*
G75*
G02*
X137900000Y-119950002I0J249998D01*
G01*
X137900000Y-119049998D01*
G75*
G02*
X138149998Y-118800000I249998J0D01*
G01*
X138675002Y-118800000D01*
G75*
G02*
X138925000Y-119049998I0J-249998D01*
G01*
G37*
%TD*%
%TO.C,R10*%
G36*
G01*
X138925000Y-140549998D02*
X138925000Y-141450002D01*
G75*
G02*
X138675002Y-141700000I-249998J0D01*
G01*
X138149998Y-141700000D01*
G75*
G02*
X137900000Y-141450002I0J249998D01*
G01*
X137900000Y-140549998D01*
G75*
G02*
X138149998Y-140300000I249998J0D01*
G01*
X138675002Y-140300000D01*
G75*
G02*
X138925000Y-140549998I0J-249998D01*
G01*
G37*
G36*
G01*
X137100000Y-140549998D02*
X137100000Y-141450002D01*
G75*
G02*
X136850002Y-141700000I-249998J0D01*
G01*
X136324998Y-141700000D01*
G75*
G02*
X136075000Y-141450002I0J249998D01*
G01*
X136075000Y-140549998D01*
G75*
G02*
X136324998Y-140300000I249998J0D01*
G01*
X136850002Y-140300000D01*
G75*
G02*
X137100000Y-140549998I0J-249998D01*
G01*
G37*
%TD*%
%TO.C,R11*%
G36*
G01*
X137100000Y-142549998D02*
X137100000Y-143450002D01*
G75*
G02*
X136850002Y-143700000I-249998J0D01*
G01*
X136324998Y-143700000D01*
G75*
G02*
X136075000Y-143450002I0J249998D01*
G01*
X136075000Y-142549998D01*
G75*
G02*
X136324998Y-142300000I249998J0D01*
G01*
X136850002Y-142300000D01*
G75*
G02*
X137100000Y-142549998I0J-249998D01*
G01*
G37*
G36*
G01*
X138925000Y-142549998D02*
X138925000Y-143450002D01*
G75*
G02*
X138675002Y-143700000I-249998J0D01*
G01*
X138149998Y-143700000D01*
G75*
G02*
X137900000Y-143450002I0J249998D01*
G01*
X137900000Y-142549998D01*
G75*
G02*
X138149998Y-142300000I249998J0D01*
G01*
X138675002Y-142300000D01*
G75*
G02*
X138925000Y-142549998I0J-249998D01*
G01*
G37*
%TD*%
%TO.C,R15*%
G36*
G01*
X149925000Y-140549998D02*
X149925000Y-141450002D01*
G75*
G02*
X149675002Y-141700000I-249998J0D01*
G01*
X149149998Y-141700000D01*
G75*
G02*
X148900000Y-141450002I0J249998D01*
G01*
X148900000Y-140549998D01*
G75*
G02*
X149149998Y-140300000I249998J0D01*
G01*
X149675002Y-140300000D01*
G75*
G02*
X149925000Y-140549998I0J-249998D01*
G01*
G37*
G36*
G01*
X148100000Y-140549998D02*
X148100000Y-141450002D01*
G75*
G02*
X147850002Y-141700000I-249998J0D01*
G01*
X147324998Y-141700000D01*
G75*
G02*
X147075000Y-141450002I0J249998D01*
G01*
X147075000Y-140549998D01*
G75*
G02*
X147324998Y-140300000I249998J0D01*
G01*
X147850002Y-140300000D01*
G75*
G02*
X148100000Y-140549998I0J-249998D01*
G01*
G37*
%TD*%
%TO.C,R16*%
G36*
G01*
X149925000Y-130549998D02*
X149925000Y-131450002D01*
G75*
G02*
X149675002Y-131700000I-249998J0D01*
G01*
X149149998Y-131700000D01*
G75*
G02*
X148900000Y-131450002I0J249998D01*
G01*
X148900000Y-130549998D01*
G75*
G02*
X149149998Y-130300000I249998J0D01*
G01*
X149675002Y-130300000D01*
G75*
G02*
X149925000Y-130549998I0J-249998D01*
G01*
G37*
G36*
G01*
X148100000Y-130549998D02*
X148100000Y-131450002D01*
G75*
G02*
X147850002Y-131700000I-249998J0D01*
G01*
X147324998Y-131700000D01*
G75*
G02*
X147075000Y-131450002I0J249998D01*
G01*
X147075000Y-130549998D01*
G75*
G02*
X147324998Y-130300000I249998J0D01*
G01*
X147850002Y-130300000D01*
G75*
G02*
X148100000Y-130549998I0J-249998D01*
G01*
G37*
%TD*%
%TO.C,R17*%
G36*
G01*
X148100000Y-120549998D02*
X148100000Y-121450002D01*
G75*
G02*
X147850002Y-121700000I-249998J0D01*
G01*
X147324998Y-121700000D01*
G75*
G02*
X147075000Y-121450002I0J249998D01*
G01*
X147075000Y-120549998D01*
G75*
G02*
X147324998Y-120300000I249998J0D01*
G01*
X147850002Y-120300000D01*
G75*
G02*
X148100000Y-120549998I0J-249998D01*
G01*
G37*
G36*
G01*
X149925000Y-120549998D02*
X149925000Y-121450002D01*
G75*
G02*
X149675002Y-121700000I-249998J0D01*
G01*
X149149998Y-121700000D01*
G75*
G02*
X148900000Y-121450002I0J249998D01*
G01*
X148900000Y-120549998D01*
G75*
G02*
X149149998Y-120300000I249998J0D01*
G01*
X149675002Y-120300000D01*
G75*
G02*
X149925000Y-120549998I0J-249998D01*
G01*
G37*
%TD*%
%TO.C,R18*%
G36*
G01*
X148100000Y-142549998D02*
X148100000Y-143450002D01*
G75*
G02*
X147850002Y-143700000I-249998J0D01*
G01*
X147324998Y-143700000D01*
G75*
G02*
X147075000Y-143450002I0J249998D01*
G01*
X147075000Y-142549998D01*
G75*
G02*
X147324998Y-142300000I249998J0D01*
G01*
X147850002Y-142300000D01*
G75*
G02*
X148100000Y-142549998I0J-249998D01*
G01*
G37*
G36*
G01*
X149925000Y-142549998D02*
X149925000Y-143450002D01*
G75*
G02*
X149675002Y-143700000I-249998J0D01*
G01*
X149149998Y-143700000D01*
G75*
G02*
X148900000Y-143450002I0J249998D01*
G01*
X148900000Y-142549998D01*
G75*
G02*
X149149998Y-142300000I249998J0D01*
G01*
X149675002Y-142300000D01*
G75*
G02*
X149925000Y-142549998I0J-249998D01*
G01*
G37*
%TD*%
%TO.C,R19*%
G36*
G01*
X149925000Y-132549998D02*
X149925000Y-133450002D01*
G75*
G02*
X149675002Y-133700000I-249998J0D01*
G01*
X149149998Y-133700000D01*
G75*
G02*
X148900000Y-133450002I0J249998D01*
G01*
X148900000Y-132549998D01*
G75*
G02*
X149149998Y-132300000I249998J0D01*
G01*
X149675002Y-132300000D01*
G75*
G02*
X149925000Y-132549998I0J-249998D01*
G01*
G37*
G36*
G01*
X148100000Y-132549998D02*
X148100000Y-133450002D01*
G75*
G02*
X147850002Y-133700000I-249998J0D01*
G01*
X147324998Y-133700000D01*
G75*
G02*
X147075000Y-133450002I0J249998D01*
G01*
X147075000Y-132549998D01*
G75*
G02*
X147324998Y-132300000I249998J0D01*
G01*
X147850002Y-132300000D01*
G75*
G02*
X148100000Y-132549998I0J-249998D01*
G01*
G37*
%TD*%
%TO.C,R20*%
G36*
G01*
X149925000Y-122549998D02*
X149925000Y-123450002D01*
G75*
G02*
X149675002Y-123700000I-249998J0D01*
G01*
X149149998Y-123700000D01*
G75*
G02*
X148900000Y-123450002I0J249998D01*
G01*
X148900000Y-122549998D01*
G75*
G02*
X149149998Y-122300000I249998J0D01*
G01*
X149675002Y-122300000D01*
G75*
G02*
X149925000Y-122549998I0J-249998D01*
G01*
G37*
G36*
G01*
X148100000Y-122549998D02*
X148100000Y-123450002D01*
G75*
G02*
X147850002Y-123700000I-249998J0D01*
G01*
X147324998Y-123700000D01*
G75*
G02*
X147075000Y-123450002I0J249998D01*
G01*
X147075000Y-122549998D01*
G75*
G02*
X147324998Y-122300000I249998J0D01*
G01*
X147850002Y-122300000D01*
G75*
G02*
X148100000Y-122549998I0J-249998D01*
G01*
G37*
%TD*%
%TO.C,R21*%
G36*
G01*
X147075000Y-136450002D02*
X147075000Y-135549998D01*
G75*
G02*
X147324998Y-135300000I249998J0D01*
G01*
X147850002Y-135300000D01*
G75*
G02*
X148100000Y-135549998I0J-249998D01*
G01*
X148100000Y-136450002D01*
G75*
G02*
X147850002Y-136700000I-249998J0D01*
G01*
X147324998Y-136700000D01*
G75*
G02*
X147075000Y-136450002I0J249998D01*
G01*
G37*
G36*
G01*
X148900000Y-136450002D02*
X148900000Y-135549998D01*
G75*
G02*
X149149998Y-135300000I249998J0D01*
G01*
X149675002Y-135300000D01*
G75*
G02*
X149925000Y-135549998I0J-249998D01*
G01*
X149925000Y-136450002D01*
G75*
G02*
X149675002Y-136700000I-249998J0D01*
G01*
X149149998Y-136700000D01*
G75*
G02*
X148900000Y-136450002I0J249998D01*
G01*
G37*
%TD*%
%TO.C,R22*%
G36*
G01*
X148900000Y-139450002D02*
X148900000Y-138549998D01*
G75*
G02*
X149149998Y-138300000I249998J0D01*
G01*
X149675002Y-138300000D01*
G75*
G02*
X149925000Y-138549998I0J-249998D01*
G01*
X149925000Y-139450002D01*
G75*
G02*
X149675002Y-139700000I-249998J0D01*
G01*
X149149998Y-139700000D01*
G75*
G02*
X148900000Y-139450002I0J249998D01*
G01*
G37*
G36*
G01*
X147075000Y-139450002D02*
X147075000Y-138549998D01*
G75*
G02*
X147324998Y-138300000I249998J0D01*
G01*
X147850002Y-138300000D01*
G75*
G02*
X148100000Y-138549998I0J-249998D01*
G01*
X148100000Y-139450002D01*
G75*
G02*
X147850002Y-139700000I-249998J0D01*
G01*
X147324998Y-139700000D01*
G75*
G02*
X147075000Y-139450002I0J249998D01*
G01*
G37*
%TD*%
%TO.C,R23*%
G36*
G01*
X147075000Y-126450002D02*
X147075000Y-125549998D01*
G75*
G02*
X147324998Y-125300000I249998J0D01*
G01*
X147850002Y-125300000D01*
G75*
G02*
X148100000Y-125549998I0J-249998D01*
G01*
X148100000Y-126450002D01*
G75*
G02*
X147850002Y-126700000I-249998J0D01*
G01*
X147324998Y-126700000D01*
G75*
G02*
X147075000Y-126450002I0J249998D01*
G01*
G37*
G36*
G01*
X148900000Y-126450002D02*
X148900000Y-125549998D01*
G75*
G02*
X149149998Y-125300000I249998J0D01*
G01*
X149675002Y-125300000D01*
G75*
G02*
X149925000Y-125549998I0J-249998D01*
G01*
X149925000Y-126450002D01*
G75*
G02*
X149675002Y-126700000I-249998J0D01*
G01*
X149149998Y-126700000D01*
G75*
G02*
X148900000Y-126450002I0J249998D01*
G01*
G37*
%TD*%
%TO.C,R24*%
G36*
G01*
X147075000Y-129450002D02*
X147075000Y-128549998D01*
G75*
G02*
X147324998Y-128300000I249998J0D01*
G01*
X147850002Y-128300000D01*
G75*
G02*
X148100000Y-128549998I0J-249998D01*
G01*
X148100000Y-129450002D01*
G75*
G02*
X147850002Y-129700000I-249998J0D01*
G01*
X147324998Y-129700000D01*
G75*
G02*
X147075000Y-129450002I0J249998D01*
G01*
G37*
G36*
G01*
X148900000Y-129450002D02*
X148900000Y-128549998D01*
G75*
G02*
X149149998Y-128300000I249998J0D01*
G01*
X149675002Y-128300000D01*
G75*
G02*
X149925000Y-128549998I0J-249998D01*
G01*
X149925000Y-129450002D01*
G75*
G02*
X149675002Y-129700000I-249998J0D01*
G01*
X149149998Y-129700000D01*
G75*
G02*
X148900000Y-129450002I0J249998D01*
G01*
G37*
%TD*%
%TO.C,R25*%
G36*
G01*
X147075000Y-116450002D02*
X147075000Y-115549998D01*
G75*
G02*
X147324998Y-115300000I249998J0D01*
G01*
X147850002Y-115300000D01*
G75*
G02*
X148100000Y-115549998I0J-249998D01*
G01*
X148100000Y-116450002D01*
G75*
G02*
X147850002Y-116700000I-249998J0D01*
G01*
X147324998Y-116700000D01*
G75*
G02*
X147075000Y-116450002I0J249998D01*
G01*
G37*
G36*
G01*
X148900000Y-116450002D02*
X148900000Y-115549998D01*
G75*
G02*
X149149998Y-115300000I249998J0D01*
G01*
X149675002Y-115300000D01*
G75*
G02*
X149925000Y-115549998I0J-249998D01*
G01*
X149925000Y-116450002D01*
G75*
G02*
X149675002Y-116700000I-249998J0D01*
G01*
X149149998Y-116700000D01*
G75*
G02*
X148900000Y-116450002I0J249998D01*
G01*
G37*
%TD*%
%TO.C,R26*%
G36*
G01*
X147075000Y-119450002D02*
X147075000Y-118549998D01*
G75*
G02*
X147324998Y-118300000I249998J0D01*
G01*
X147850002Y-118300000D01*
G75*
G02*
X148100000Y-118549998I0J-249998D01*
G01*
X148100000Y-119450002D01*
G75*
G02*
X147850002Y-119700000I-249998J0D01*
G01*
X147324998Y-119700000D01*
G75*
G02*
X147075000Y-119450002I0J249998D01*
G01*
G37*
G36*
G01*
X148900000Y-119450002D02*
X148900000Y-118549998D01*
G75*
G02*
X149149998Y-118300000I249998J0D01*
G01*
X149675002Y-118300000D01*
G75*
G02*
X149925000Y-118549998I0J-249998D01*
G01*
X149925000Y-119450002D01*
G75*
G02*
X149675002Y-119700000I-249998J0D01*
G01*
X149149998Y-119700000D01*
G75*
G02*
X148900000Y-119450002I0J249998D01*
G01*
G37*
%TD*%
%TO.C,R30*%
G36*
G01*
X148100000Y-110549998D02*
X148100000Y-111450002D01*
G75*
G02*
X147850002Y-111700000I-249998J0D01*
G01*
X147324998Y-111700000D01*
G75*
G02*
X147075000Y-111450002I0J249998D01*
G01*
X147075000Y-110549998D01*
G75*
G02*
X147324998Y-110300000I249998J0D01*
G01*
X147850002Y-110300000D01*
G75*
G02*
X148100000Y-110549998I0J-249998D01*
G01*
G37*
G36*
G01*
X149925000Y-110549998D02*
X149925000Y-111450002D01*
G75*
G02*
X149675002Y-111700000I-249998J0D01*
G01*
X149149998Y-111700000D01*
G75*
G02*
X148900000Y-111450002I0J249998D01*
G01*
X148900000Y-110549998D01*
G75*
G02*
X149149998Y-110300000I249998J0D01*
G01*
X149675002Y-110300000D01*
G75*
G02*
X149925000Y-110549998I0J-249998D01*
G01*
G37*
%TD*%
%TO.C,R31*%
G36*
G01*
X148100000Y-100549998D02*
X148100000Y-101450002D01*
G75*
G02*
X147850002Y-101700000I-249998J0D01*
G01*
X147324998Y-101700000D01*
G75*
G02*
X147075000Y-101450002I0J249998D01*
G01*
X147075000Y-100549998D01*
G75*
G02*
X147324998Y-100300000I249998J0D01*
G01*
X147850002Y-100300000D01*
G75*
G02*
X148100000Y-100549998I0J-249998D01*
G01*
G37*
G36*
G01*
X149925000Y-100549998D02*
X149925000Y-101450002D01*
G75*
G02*
X149675002Y-101700000I-249998J0D01*
G01*
X149149998Y-101700000D01*
G75*
G02*
X148900000Y-101450002I0J249998D01*
G01*
X148900000Y-100549998D01*
G75*
G02*
X149149998Y-100300000I249998J0D01*
G01*
X149675002Y-100300000D01*
G75*
G02*
X149925000Y-100549998I0J-249998D01*
G01*
G37*
%TD*%
%TO.C,R32*%
G36*
G01*
X148100000Y-90549998D02*
X148100000Y-91450002D01*
G75*
G02*
X147850002Y-91700000I-249998J0D01*
G01*
X147324998Y-91700000D01*
G75*
G02*
X147075000Y-91450002I0J249998D01*
G01*
X147075000Y-90549998D01*
G75*
G02*
X147324998Y-90300000I249998J0D01*
G01*
X147850002Y-90300000D01*
G75*
G02*
X148100000Y-90549998I0J-249998D01*
G01*
G37*
G36*
G01*
X149925000Y-90549998D02*
X149925000Y-91450002D01*
G75*
G02*
X149675002Y-91700000I-249998J0D01*
G01*
X149149998Y-91700000D01*
G75*
G02*
X148900000Y-91450002I0J249998D01*
G01*
X148900000Y-90549998D01*
G75*
G02*
X149149998Y-90300000I249998J0D01*
G01*
X149675002Y-90300000D01*
G75*
G02*
X149925000Y-90549998I0J-249998D01*
G01*
G37*
%TD*%
%TO.C,R33*%
G36*
G01*
X149925000Y-112549998D02*
X149925000Y-113450002D01*
G75*
G02*
X149675002Y-113700000I-249998J0D01*
G01*
X149149998Y-113700000D01*
G75*
G02*
X148900000Y-113450002I0J249998D01*
G01*
X148900000Y-112549998D01*
G75*
G02*
X149149998Y-112300000I249998J0D01*
G01*
X149675002Y-112300000D01*
G75*
G02*
X149925000Y-112549998I0J-249998D01*
G01*
G37*
G36*
G01*
X148100000Y-112549998D02*
X148100000Y-113450002D01*
G75*
G02*
X147850002Y-113700000I-249998J0D01*
G01*
X147324998Y-113700000D01*
G75*
G02*
X147075000Y-113450002I0J249998D01*
G01*
X147075000Y-112549998D01*
G75*
G02*
X147324998Y-112300000I249998J0D01*
G01*
X147850002Y-112300000D01*
G75*
G02*
X148100000Y-112549998I0J-249998D01*
G01*
G37*
%TD*%
%TO.C,R34*%
G36*
G01*
X149925000Y-102549998D02*
X149925000Y-103450002D01*
G75*
G02*
X149675002Y-103700000I-249998J0D01*
G01*
X149149998Y-103700000D01*
G75*
G02*
X148900000Y-103450002I0J249998D01*
G01*
X148900000Y-102549998D01*
G75*
G02*
X149149998Y-102300000I249998J0D01*
G01*
X149675002Y-102300000D01*
G75*
G02*
X149925000Y-102549998I0J-249998D01*
G01*
G37*
G36*
G01*
X148100000Y-102549998D02*
X148100000Y-103450002D01*
G75*
G02*
X147850002Y-103700000I-249998J0D01*
G01*
X147324998Y-103700000D01*
G75*
G02*
X147075000Y-103450002I0J249998D01*
G01*
X147075000Y-102549998D01*
G75*
G02*
X147324998Y-102300000I249998J0D01*
G01*
X147850002Y-102300000D01*
G75*
G02*
X148100000Y-102549998I0J-249998D01*
G01*
G37*
%TD*%
%TO.C,R35*%
G36*
G01*
X149925000Y-92549998D02*
X149925000Y-93450002D01*
G75*
G02*
X149675002Y-93700000I-249998J0D01*
G01*
X149149998Y-93700000D01*
G75*
G02*
X148900000Y-93450002I0J249998D01*
G01*
X148900000Y-92549998D01*
G75*
G02*
X149149998Y-92300000I249998J0D01*
G01*
X149675002Y-92300000D01*
G75*
G02*
X149925000Y-92549998I0J-249998D01*
G01*
G37*
G36*
G01*
X148100000Y-92549998D02*
X148100000Y-93450002D01*
G75*
G02*
X147850002Y-93700000I-249998J0D01*
G01*
X147324998Y-93700000D01*
G75*
G02*
X147075000Y-93450002I0J249998D01*
G01*
X147075000Y-92549998D01*
G75*
G02*
X147324998Y-92300000I249998J0D01*
G01*
X147850002Y-92300000D01*
G75*
G02*
X148100000Y-92549998I0J-249998D01*
G01*
G37*
%TD*%
%TO.C,R36*%
G36*
G01*
X148900000Y-106450002D02*
X148900000Y-105549998D01*
G75*
G02*
X149149998Y-105300000I249998J0D01*
G01*
X149675002Y-105300000D01*
G75*
G02*
X149925000Y-105549998I0J-249998D01*
G01*
X149925000Y-106450002D01*
G75*
G02*
X149675002Y-106700000I-249998J0D01*
G01*
X149149998Y-106700000D01*
G75*
G02*
X148900000Y-106450002I0J249998D01*
G01*
G37*
G36*
G01*
X147075000Y-106450002D02*
X147075000Y-105549998D01*
G75*
G02*
X147324998Y-105300000I249998J0D01*
G01*
X147850002Y-105300000D01*
G75*
G02*
X148100000Y-105549998I0J-249998D01*
G01*
X148100000Y-106450002D01*
G75*
G02*
X147850002Y-106700000I-249998J0D01*
G01*
X147324998Y-106700000D01*
G75*
G02*
X147075000Y-106450002I0J249998D01*
G01*
G37*
%TD*%
%TO.C,R37*%
G36*
G01*
X147075000Y-109450002D02*
X147075000Y-108549998D01*
G75*
G02*
X147324998Y-108300000I249998J0D01*
G01*
X147850002Y-108300000D01*
G75*
G02*
X148100000Y-108549998I0J-249998D01*
G01*
X148100000Y-109450002D01*
G75*
G02*
X147850002Y-109700000I-249998J0D01*
G01*
X147324998Y-109700000D01*
G75*
G02*
X147075000Y-109450002I0J249998D01*
G01*
G37*
G36*
G01*
X148900000Y-109450002D02*
X148900000Y-108549998D01*
G75*
G02*
X149149998Y-108300000I249998J0D01*
G01*
X149675002Y-108300000D01*
G75*
G02*
X149925000Y-108549998I0J-249998D01*
G01*
X149925000Y-109450002D01*
G75*
G02*
X149675002Y-109700000I-249998J0D01*
G01*
X149149998Y-109700000D01*
G75*
G02*
X148900000Y-109450002I0J249998D01*
G01*
G37*
%TD*%
%TO.C,R38*%
G36*
G01*
X148900000Y-96450002D02*
X148900000Y-95549998D01*
G75*
G02*
X149149998Y-95300000I249998J0D01*
G01*
X149675002Y-95300000D01*
G75*
G02*
X149925000Y-95549998I0J-249998D01*
G01*
X149925000Y-96450002D01*
G75*
G02*
X149675002Y-96700000I-249998J0D01*
G01*
X149149998Y-96700000D01*
G75*
G02*
X148900000Y-96450002I0J249998D01*
G01*
G37*
G36*
G01*
X147075000Y-96450002D02*
X147075000Y-95549998D01*
G75*
G02*
X147324998Y-95300000I249998J0D01*
G01*
X147850002Y-95300000D01*
G75*
G02*
X148100000Y-95549998I0J-249998D01*
G01*
X148100000Y-96450002D01*
G75*
G02*
X147850002Y-96700000I-249998J0D01*
G01*
X147324998Y-96700000D01*
G75*
G02*
X147075000Y-96450002I0J249998D01*
G01*
G37*
%TD*%
%TO.C,R39*%
G36*
G01*
X148900000Y-99450002D02*
X148900000Y-98549998D01*
G75*
G02*
X149149998Y-98300000I249998J0D01*
G01*
X149675002Y-98300000D01*
G75*
G02*
X149925000Y-98549998I0J-249998D01*
G01*
X149925000Y-99450002D01*
G75*
G02*
X149675002Y-99700000I-249998J0D01*
G01*
X149149998Y-99700000D01*
G75*
G02*
X148900000Y-99450002I0J249998D01*
G01*
G37*
G36*
G01*
X147075000Y-99450002D02*
X147075000Y-98549998D01*
G75*
G02*
X147324998Y-98300000I249998J0D01*
G01*
X147850002Y-98300000D01*
G75*
G02*
X148100000Y-98549998I0J-249998D01*
G01*
X148100000Y-99450002D01*
G75*
G02*
X147850002Y-99700000I-249998J0D01*
G01*
X147324998Y-99700000D01*
G75*
G02*
X147075000Y-99450002I0J249998D01*
G01*
G37*
%TD*%
%TO.C,R40*%
G36*
G01*
X148900000Y-86450002D02*
X148900000Y-85549998D01*
G75*
G02*
X149149998Y-85300000I249998J0D01*
G01*
X149675002Y-85300000D01*
G75*
G02*
X149925000Y-85549998I0J-249998D01*
G01*
X149925000Y-86450002D01*
G75*
G02*
X149675002Y-86700000I-249998J0D01*
G01*
X149149998Y-86700000D01*
G75*
G02*
X148900000Y-86450002I0J249998D01*
G01*
G37*
G36*
G01*
X147075000Y-86450002D02*
X147075000Y-85549998D01*
G75*
G02*
X147324998Y-85300000I249998J0D01*
G01*
X147850002Y-85300000D01*
G75*
G02*
X148100000Y-85549998I0J-249998D01*
G01*
X148100000Y-86450002D01*
G75*
G02*
X147850002Y-86700000I-249998J0D01*
G01*
X147324998Y-86700000D01*
G75*
G02*
X147075000Y-86450002I0J249998D01*
G01*
G37*
%TD*%
%TO.C,R41*%
G36*
G01*
X147075000Y-89450002D02*
X147075000Y-88549998D01*
G75*
G02*
X147324998Y-88300000I249998J0D01*
G01*
X147850002Y-88300000D01*
G75*
G02*
X148100000Y-88549998I0J-249998D01*
G01*
X148100000Y-89450002D01*
G75*
G02*
X147850002Y-89700000I-249998J0D01*
G01*
X147324998Y-89700000D01*
G75*
G02*
X147075000Y-89450002I0J249998D01*
G01*
G37*
G36*
G01*
X148900000Y-89450002D02*
X148900000Y-88549998D01*
G75*
G02*
X149149998Y-88300000I249998J0D01*
G01*
X149675002Y-88300000D01*
G75*
G02*
X149925000Y-88549998I0J-249998D01*
G01*
X149925000Y-89450002D01*
G75*
G02*
X149675002Y-89700000I-249998J0D01*
G01*
X149149998Y-89700000D01*
G75*
G02*
X148900000Y-89450002I0J249998D01*
G01*
G37*
%TD*%
%TO.C,R42*%
G36*
G01*
X128175000Y-103049998D02*
X128175000Y-103950002D01*
G75*
G02*
X127925002Y-104200000I-249998J0D01*
G01*
X127399998Y-104200000D01*
G75*
G02*
X127150000Y-103950002I0J249998D01*
G01*
X127150000Y-103049998D01*
G75*
G02*
X127399998Y-102800000I249998J0D01*
G01*
X127925002Y-102800000D01*
G75*
G02*
X128175000Y-103049998I0J-249998D01*
G01*
G37*
G36*
G01*
X126350000Y-103049998D02*
X126350000Y-103950002D01*
G75*
G02*
X126100002Y-104200000I-249998J0D01*
G01*
X125574998Y-104200000D01*
G75*
G02*
X125325000Y-103950002I0J249998D01*
G01*
X125325000Y-103049998D01*
G75*
G02*
X125574998Y-102800000I249998J0D01*
G01*
X126100002Y-102800000D01*
G75*
G02*
X126350000Y-103049998I0J-249998D01*
G01*
G37*
%TD*%
%TO.C,R43*%
G36*
G01*
X126350000Y-105049998D02*
X126350000Y-105950002D01*
G75*
G02*
X126100002Y-106200000I-249998J0D01*
G01*
X125574998Y-106200000D01*
G75*
G02*
X125325000Y-105950002I0J249998D01*
G01*
X125325000Y-105049998D01*
G75*
G02*
X125574998Y-104800000I249998J0D01*
G01*
X126100002Y-104800000D01*
G75*
G02*
X126350000Y-105049998I0J-249998D01*
G01*
G37*
G36*
G01*
X128175000Y-105049998D02*
X128175000Y-105950002D01*
G75*
G02*
X127925002Y-106200000I-249998J0D01*
G01*
X127399998Y-106200000D01*
G75*
G02*
X127150000Y-105950002I0J249998D01*
G01*
X127150000Y-105049998D01*
G75*
G02*
X127399998Y-104800000I249998J0D01*
G01*
X127925002Y-104800000D01*
G75*
G02*
X128175000Y-105049998I0J-249998D01*
G01*
G37*
%TD*%
%TO.C,R44*%
G36*
G01*
X128175000Y-107049998D02*
X128175000Y-107950002D01*
G75*
G02*
X127925002Y-108200000I-249998J0D01*
G01*
X127399998Y-108200000D01*
G75*
G02*
X127150000Y-107950002I0J249998D01*
G01*
X127150000Y-107049998D01*
G75*
G02*
X127399998Y-106800000I249998J0D01*
G01*
X127925002Y-106800000D01*
G75*
G02*
X128175000Y-107049998I0J-249998D01*
G01*
G37*
G36*
G01*
X126350000Y-107049998D02*
X126350000Y-107950002D01*
G75*
G02*
X126100002Y-108200000I-249998J0D01*
G01*
X125574998Y-108200000D01*
G75*
G02*
X125325000Y-107950002I0J249998D01*
G01*
X125325000Y-107049998D01*
G75*
G02*
X125574998Y-106800000I249998J0D01*
G01*
X126100002Y-106800000D01*
G75*
G02*
X126350000Y-107049998I0J-249998D01*
G01*
G37*
%TD*%
%TO.C,R45*%
G36*
G01*
X128175000Y-109049998D02*
X128175000Y-109950002D01*
G75*
G02*
X127925002Y-110200000I-249998J0D01*
G01*
X127399998Y-110200000D01*
G75*
G02*
X127150000Y-109950002I0J249998D01*
G01*
X127150000Y-109049998D01*
G75*
G02*
X127399998Y-108800000I249998J0D01*
G01*
X127925002Y-108800000D01*
G75*
G02*
X128175000Y-109049998I0J-249998D01*
G01*
G37*
G36*
G01*
X126350000Y-109049998D02*
X126350000Y-109950002D01*
G75*
G02*
X126100002Y-110200000I-249998J0D01*
G01*
X125574998Y-110200000D01*
G75*
G02*
X125325000Y-109950002I0J249998D01*
G01*
X125325000Y-109049998D01*
G75*
G02*
X125574998Y-108800000I249998J0D01*
G01*
X126100002Y-108800000D01*
G75*
G02*
X126350000Y-109049998I0J-249998D01*
G01*
G37*
%TD*%
%TO.C,R46*%
G36*
G01*
X126350000Y-111049998D02*
X126350000Y-111950002D01*
G75*
G02*
X126100002Y-112200000I-249998J0D01*
G01*
X125574998Y-112200000D01*
G75*
G02*
X125325000Y-111950002I0J249998D01*
G01*
X125325000Y-111049998D01*
G75*
G02*
X125574998Y-110800000I249998J0D01*
G01*
X126100002Y-110800000D01*
G75*
G02*
X126350000Y-111049998I0J-249998D01*
G01*
G37*
G36*
G01*
X128175000Y-111049998D02*
X128175000Y-111950002D01*
G75*
G02*
X127925002Y-112200000I-249998J0D01*
G01*
X127399998Y-112200000D01*
G75*
G02*
X127150000Y-111950002I0J249998D01*
G01*
X127150000Y-111049998D01*
G75*
G02*
X127399998Y-110800000I249998J0D01*
G01*
X127925002Y-110800000D01*
G75*
G02*
X128175000Y-111049998I0J-249998D01*
G01*
G37*
%TD*%
%TO.C,R47*%
G36*
G01*
X137900000Y-89200002D02*
X137900000Y-88299998D01*
G75*
G02*
X138149998Y-88050000I249998J0D01*
G01*
X138675002Y-88050000D01*
G75*
G02*
X138925000Y-88299998I0J-249998D01*
G01*
X138925000Y-89200002D01*
G75*
G02*
X138675002Y-89450000I-249998J0D01*
G01*
X138149998Y-89450000D01*
G75*
G02*
X137900000Y-89200002I0J249998D01*
G01*
G37*
G36*
G01*
X136075000Y-89200002D02*
X136075000Y-88299998D01*
G75*
G02*
X136324998Y-88050000I249998J0D01*
G01*
X136850002Y-88050000D01*
G75*
G02*
X137100000Y-88299998I0J-249998D01*
G01*
X137100000Y-89200002D01*
G75*
G02*
X136850002Y-89450000I-249998J0D01*
G01*
X136324998Y-89450000D01*
G75*
G02*
X136075000Y-89200002I0J249998D01*
G01*
G37*
%TD*%
%TO.C,R48*%
G36*
G01*
X136075000Y-87200002D02*
X136075000Y-86299998D01*
G75*
G02*
X136324998Y-86050000I249998J0D01*
G01*
X136850002Y-86050000D01*
G75*
G02*
X137100000Y-86299998I0J-249998D01*
G01*
X137100000Y-87200002D01*
G75*
G02*
X136850002Y-87450000I-249998J0D01*
G01*
X136324998Y-87450000D01*
G75*
G02*
X136075000Y-87200002I0J249998D01*
G01*
G37*
G36*
G01*
X137900000Y-87200002D02*
X137900000Y-86299998D01*
G75*
G02*
X138149998Y-86050000I249998J0D01*
G01*
X138675002Y-86050000D01*
G75*
G02*
X138925000Y-86299998I0J-249998D01*
G01*
X138925000Y-87200002D01*
G75*
G02*
X138675002Y-87450000I-249998J0D01*
G01*
X138149998Y-87450000D01*
G75*
G02*
X137900000Y-87200002I0J249998D01*
G01*
G37*
%TD*%
%TO.C,R49*%
G36*
G01*
X137100000Y-113049998D02*
X137100000Y-113950002D01*
G75*
G02*
X136850002Y-114200000I-249998J0D01*
G01*
X136324998Y-114200000D01*
G75*
G02*
X136075000Y-113950002I0J249998D01*
G01*
X136075000Y-113049998D01*
G75*
G02*
X136324998Y-112800000I249998J0D01*
G01*
X136850002Y-112800000D01*
G75*
G02*
X137100000Y-113049998I0J-249998D01*
G01*
G37*
G36*
G01*
X138925000Y-113049998D02*
X138925000Y-113950002D01*
G75*
G02*
X138675002Y-114200000I-249998J0D01*
G01*
X138149998Y-114200000D01*
G75*
G02*
X137900000Y-113950002I0J249998D01*
G01*
X137900000Y-113049998D01*
G75*
G02*
X138149998Y-112800000I249998J0D01*
G01*
X138675002Y-112800000D01*
G75*
G02*
X138925000Y-113049998I0J-249998D01*
G01*
G37*
%TD*%
%TO.C,R50*%
G36*
G01*
X138925000Y-111049998D02*
X138925000Y-111950002D01*
G75*
G02*
X138675002Y-112200000I-249998J0D01*
G01*
X138149998Y-112200000D01*
G75*
G02*
X137900000Y-111950002I0J249998D01*
G01*
X137900000Y-111049998D01*
G75*
G02*
X138149998Y-110800000I249998J0D01*
G01*
X138675002Y-110800000D01*
G75*
G02*
X138925000Y-111049998I0J-249998D01*
G01*
G37*
G36*
G01*
X137100000Y-111049998D02*
X137100000Y-111950002D01*
G75*
G02*
X136850002Y-112200000I-249998J0D01*
G01*
X136324998Y-112200000D01*
G75*
G02*
X136075000Y-111950002I0J249998D01*
G01*
X136075000Y-111049998D01*
G75*
G02*
X136324998Y-110800000I249998J0D01*
G01*
X136850002Y-110800000D01*
G75*
G02*
X137100000Y-111049998I0J-249998D01*
G01*
G37*
%TD*%
%TO.C,R51*%
G36*
G01*
X138925000Y-109049998D02*
X138925000Y-109950002D01*
G75*
G02*
X138675002Y-110200000I-249998J0D01*
G01*
X138149998Y-110200000D01*
G75*
G02*
X137900000Y-109950002I0J249998D01*
G01*
X137900000Y-109049998D01*
G75*
G02*
X138149998Y-108800000I249998J0D01*
G01*
X138675002Y-108800000D01*
G75*
G02*
X138925000Y-109049998I0J-249998D01*
G01*
G37*
G36*
G01*
X137100000Y-109049998D02*
X137100000Y-109950002D01*
G75*
G02*
X136850002Y-110200000I-249998J0D01*
G01*
X136324998Y-110200000D01*
G75*
G02*
X136075000Y-109950002I0J249998D01*
G01*
X136075000Y-109049998D01*
G75*
G02*
X136324998Y-108800000I249998J0D01*
G01*
X136850002Y-108800000D01*
G75*
G02*
X137100000Y-109049998I0J-249998D01*
G01*
G37*
%TD*%
%TO.C,R52*%
G36*
G01*
X137100000Y-107049998D02*
X137100000Y-107950002D01*
G75*
G02*
X136850002Y-108200000I-249998J0D01*
G01*
X136324998Y-108200000D01*
G75*
G02*
X136075000Y-107950002I0J249998D01*
G01*
X136075000Y-107049998D01*
G75*
G02*
X136324998Y-106800000I249998J0D01*
G01*
X136850002Y-106800000D01*
G75*
G02*
X137100000Y-107049998I0J-249998D01*
G01*
G37*
G36*
G01*
X138925000Y-107049998D02*
X138925000Y-107950002D01*
G75*
G02*
X138675002Y-108200000I-249998J0D01*
G01*
X138149998Y-108200000D01*
G75*
G02*
X137900000Y-107950002I0J249998D01*
G01*
X137900000Y-107049998D01*
G75*
G02*
X138149998Y-106800000I249998J0D01*
G01*
X138675002Y-106800000D01*
G75*
G02*
X138925000Y-107049998I0J-249998D01*
G01*
G37*
%TD*%
%TO.C,R53*%
G36*
G01*
X138925000Y-105049998D02*
X138925000Y-105950002D01*
G75*
G02*
X138675002Y-106200000I-249998J0D01*
G01*
X138149998Y-106200000D01*
G75*
G02*
X137900000Y-105950002I0J249998D01*
G01*
X137900000Y-105049998D01*
G75*
G02*
X138149998Y-104800000I249998J0D01*
G01*
X138675002Y-104800000D01*
G75*
G02*
X138925000Y-105049998I0J-249998D01*
G01*
G37*
G36*
G01*
X137100000Y-105049998D02*
X137100000Y-105950002D01*
G75*
G02*
X136850002Y-106200000I-249998J0D01*
G01*
X136324998Y-106200000D01*
G75*
G02*
X136075000Y-105950002I0J249998D01*
G01*
X136075000Y-105049998D01*
G75*
G02*
X136324998Y-104800000I249998J0D01*
G01*
X136850002Y-104800000D01*
G75*
G02*
X137100000Y-105049998I0J-249998D01*
G01*
G37*
%TD*%
%TO.C,R54*%
G36*
G01*
X138925000Y-103049998D02*
X138925000Y-103950002D01*
G75*
G02*
X138675002Y-104200000I-249998J0D01*
G01*
X138149998Y-104200000D01*
G75*
G02*
X137900000Y-103950002I0J249998D01*
G01*
X137900000Y-103049998D01*
G75*
G02*
X138149998Y-102800000I249998J0D01*
G01*
X138675002Y-102800000D01*
G75*
G02*
X138925000Y-103049998I0J-249998D01*
G01*
G37*
G36*
G01*
X137100000Y-103049998D02*
X137100000Y-103950002D01*
G75*
G02*
X136850002Y-104200000I-249998J0D01*
G01*
X136324998Y-104200000D01*
G75*
G02*
X136075000Y-103950002I0J249998D01*
G01*
X136075000Y-103049998D01*
G75*
G02*
X136324998Y-102800000I249998J0D01*
G01*
X136850002Y-102800000D01*
G75*
G02*
X137100000Y-103049998I0J-249998D01*
G01*
G37*
%TD*%
%TO.C,R55*%
G36*
G01*
X137100000Y-84299998D02*
X137100000Y-85200002D01*
G75*
G02*
X136850002Y-85450000I-249998J0D01*
G01*
X136324998Y-85450000D01*
G75*
G02*
X136075000Y-85200002I0J249998D01*
G01*
X136075000Y-84299998D01*
G75*
G02*
X136324998Y-84050000I249998J0D01*
G01*
X136850002Y-84050000D01*
G75*
G02*
X137100000Y-84299998I0J-249998D01*
G01*
G37*
G36*
G01*
X138925000Y-84299998D02*
X138925000Y-85200002D01*
G75*
G02*
X138675002Y-85450000I-249998J0D01*
G01*
X138149998Y-85450000D01*
G75*
G02*
X137900000Y-85200002I0J249998D01*
G01*
X137900000Y-84299998D01*
G75*
G02*
X138149998Y-84050000I249998J0D01*
G01*
X138675002Y-84050000D01*
G75*
G02*
X138925000Y-84299998I0J-249998D01*
G01*
G37*
%TD*%
%TO.C,R56*%
G36*
G01*
X137100000Y-82299998D02*
X137100000Y-83200002D01*
G75*
G02*
X136850002Y-83450000I-249998J0D01*
G01*
X136324998Y-83450000D01*
G75*
G02*
X136075000Y-83200002I0J249998D01*
G01*
X136075000Y-82299998D01*
G75*
G02*
X136324998Y-82050000I249998J0D01*
G01*
X136850002Y-82050000D01*
G75*
G02*
X137100000Y-82299998I0J-249998D01*
G01*
G37*
G36*
G01*
X138925000Y-82299998D02*
X138925000Y-83200002D01*
G75*
G02*
X138675002Y-83450000I-249998J0D01*
G01*
X138149998Y-83450000D01*
G75*
G02*
X137900000Y-83200002I0J249998D01*
G01*
X137900000Y-82299998D01*
G75*
G02*
X138149998Y-82050000I249998J0D01*
G01*
X138675002Y-82050000D01*
G75*
G02*
X138925000Y-82299998I0J-249998D01*
G01*
G37*
%TD*%
D11*
%TO.C,U1*%
X152350000Y-77000000D03*
D12*
X158650000Y-77000000D03*
X158650000Y-74700000D03*
X158650000Y-79300000D03*
%TD*%
D13*
%TO.C,U2*%
X111850000Y-124790000D03*
X111850000Y-125590000D03*
X111850000Y-126390000D03*
X111850000Y-127190000D03*
X111850000Y-127990000D03*
X111850000Y-128790000D03*
X111850000Y-129590000D03*
X111850000Y-130390000D03*
D14*
X113300000Y-131840000D03*
X114100000Y-131840000D03*
X114900000Y-131840000D03*
X115700000Y-131840000D03*
X116500000Y-131840000D03*
X117300000Y-131840000D03*
X118100000Y-131840000D03*
X118900000Y-131840000D03*
D13*
X120350000Y-130390000D03*
X120350000Y-129590000D03*
X120350000Y-128790000D03*
X120350000Y-127990000D03*
X120350000Y-127190000D03*
X120350000Y-126390000D03*
X120350000Y-125590000D03*
X120350000Y-124790000D03*
D14*
X118900000Y-123340000D03*
X118100000Y-123340000D03*
X117300000Y-123340000D03*
X116500000Y-123340000D03*
X115700000Y-123340000D03*
X114900000Y-123340000D03*
X114100000Y-123340000D03*
X113300000Y-123340000D03*
%TD*%
D15*
%TO.C,U3*%
X112464001Y-96129999D03*
D16*
X104964001Y-103629999D03*
X106234001Y-103629999D03*
X107504001Y-103629999D03*
X108774001Y-103629999D03*
X110044001Y-103629999D03*
X111314001Y-103629999D03*
X112584001Y-103629999D03*
X113854001Y-103629999D03*
X115124001Y-103629999D03*
X116394001Y-103629999D03*
X117664001Y-103629999D03*
X118934001Y-103629999D03*
X120204001Y-103629999D03*
X121474001Y-103629999D03*
D17*
X122474001Y-100844999D03*
X122474001Y-99574999D03*
X122474001Y-98304999D03*
X122474001Y-97034999D03*
X122474001Y-95764999D03*
X122474001Y-94494999D03*
X122474001Y-93224999D03*
X122474001Y-91954999D03*
X122474001Y-90684999D03*
X122474001Y-89414999D03*
D16*
X121474001Y-86629999D03*
X120204001Y-86629999D03*
X118934001Y-86629999D03*
X117664001Y-86629999D03*
X116394001Y-86629999D03*
X115124001Y-86629999D03*
X113854001Y-86629999D03*
X112584001Y-86629999D03*
X111314001Y-86629999D03*
X110044001Y-86629999D03*
X108774001Y-86629999D03*
X107504001Y-86629999D03*
X106234001Y-86629999D03*
X104964001Y-86629999D03*
%TD*%
%TO.C,U4*%
G36*
G01*
X130025000Y-133350000D02*
X129825000Y-133350000D01*
G75*
G02*
X129725000Y-133250000I0J100000D01*
G01*
X129725000Y-131975000D01*
G75*
G02*
X129825000Y-131875000I100000J0D01*
G01*
X130025000Y-131875000D01*
G75*
G02*
X130125000Y-131975000I0J-100000D01*
G01*
X130125000Y-133250000D01*
G75*
G02*
X130025000Y-133350000I-100000J0D01*
G01*
G37*
G36*
G01*
X130675000Y-133350000D02*
X130475000Y-133350000D01*
G75*
G02*
X130375000Y-133250000I0J100000D01*
G01*
X130375000Y-131975000D01*
G75*
G02*
X130475000Y-131875000I100000J0D01*
G01*
X130675000Y-131875000D01*
G75*
G02*
X130775000Y-131975000I0J-100000D01*
G01*
X130775000Y-133250000D01*
G75*
G02*
X130675000Y-133350000I-100000J0D01*
G01*
G37*
G36*
G01*
X131325000Y-133350000D02*
X131125000Y-133350000D01*
G75*
G02*
X131025000Y-133250000I0J100000D01*
G01*
X131025000Y-131975000D01*
G75*
G02*
X131125000Y-131875000I100000J0D01*
G01*
X131325000Y-131875000D01*
G75*
G02*
X131425000Y-131975000I0J-100000D01*
G01*
X131425000Y-133250000D01*
G75*
G02*
X131325000Y-133350000I-100000J0D01*
G01*
G37*
G36*
G01*
X131975000Y-133350000D02*
X131775000Y-133350000D01*
G75*
G02*
X131675000Y-133250000I0J100000D01*
G01*
X131675000Y-131975000D01*
G75*
G02*
X131775000Y-131875000I100000J0D01*
G01*
X131975000Y-131875000D01*
G75*
G02*
X132075000Y-131975000I0J-100000D01*
G01*
X132075000Y-133250000D01*
G75*
G02*
X131975000Y-133350000I-100000J0D01*
G01*
G37*
G36*
G01*
X132625000Y-133350000D02*
X132425000Y-133350000D01*
G75*
G02*
X132325000Y-133250000I0J100000D01*
G01*
X132325000Y-131975000D01*
G75*
G02*
X132425000Y-131875000I100000J0D01*
G01*
X132625000Y-131875000D01*
G75*
G02*
X132725000Y-131975000I0J-100000D01*
G01*
X132725000Y-133250000D01*
G75*
G02*
X132625000Y-133350000I-100000J0D01*
G01*
G37*
G36*
G01*
X133275000Y-133350000D02*
X133075000Y-133350000D01*
G75*
G02*
X132975000Y-133250000I0J100000D01*
G01*
X132975000Y-131975000D01*
G75*
G02*
X133075000Y-131875000I100000J0D01*
G01*
X133275000Y-131875000D01*
G75*
G02*
X133375000Y-131975000I0J-100000D01*
G01*
X133375000Y-133250000D01*
G75*
G02*
X133275000Y-133350000I-100000J0D01*
G01*
G37*
G36*
G01*
X133925000Y-133350000D02*
X133725000Y-133350000D01*
G75*
G02*
X133625000Y-133250000I0J100000D01*
G01*
X133625000Y-131975000D01*
G75*
G02*
X133725000Y-131875000I100000J0D01*
G01*
X133925000Y-131875000D01*
G75*
G02*
X134025000Y-131975000I0J-100000D01*
G01*
X134025000Y-133250000D01*
G75*
G02*
X133925000Y-133350000I-100000J0D01*
G01*
G37*
G36*
G01*
X134575000Y-133350000D02*
X134375000Y-133350000D01*
G75*
G02*
X134275000Y-133250000I0J100000D01*
G01*
X134275000Y-131975000D01*
G75*
G02*
X134375000Y-131875000I100000J0D01*
G01*
X134575000Y-131875000D01*
G75*
G02*
X134675000Y-131975000I0J-100000D01*
G01*
X134675000Y-133250000D01*
G75*
G02*
X134575000Y-133350000I-100000J0D01*
G01*
G37*
G36*
G01*
X135225000Y-133350000D02*
X135025000Y-133350000D01*
G75*
G02*
X134925000Y-133250000I0J100000D01*
G01*
X134925000Y-131975000D01*
G75*
G02*
X135025000Y-131875000I100000J0D01*
G01*
X135225000Y-131875000D01*
G75*
G02*
X135325000Y-131975000I0J-100000D01*
G01*
X135325000Y-133250000D01*
G75*
G02*
X135225000Y-133350000I-100000J0D01*
G01*
G37*
G36*
G01*
X135875000Y-133350000D02*
X135675000Y-133350000D01*
G75*
G02*
X135575000Y-133250000I0J100000D01*
G01*
X135575000Y-131975000D01*
G75*
G02*
X135675000Y-131875000I100000J0D01*
G01*
X135875000Y-131875000D01*
G75*
G02*
X135975000Y-131975000I0J-100000D01*
G01*
X135975000Y-133250000D01*
G75*
G02*
X135875000Y-133350000I-100000J0D01*
G01*
G37*
G36*
G01*
X136525000Y-133350000D02*
X136325000Y-133350000D01*
G75*
G02*
X136225000Y-133250000I0J100000D01*
G01*
X136225000Y-131975000D01*
G75*
G02*
X136325000Y-131875000I100000J0D01*
G01*
X136525000Y-131875000D01*
G75*
G02*
X136625000Y-131975000I0J-100000D01*
G01*
X136625000Y-133250000D01*
G75*
G02*
X136525000Y-133350000I-100000J0D01*
G01*
G37*
G36*
G01*
X137175000Y-133350000D02*
X136975000Y-133350000D01*
G75*
G02*
X136875000Y-133250000I0J100000D01*
G01*
X136875000Y-131975000D01*
G75*
G02*
X136975000Y-131875000I100000J0D01*
G01*
X137175000Y-131875000D01*
G75*
G02*
X137275000Y-131975000I0J-100000D01*
G01*
X137275000Y-133250000D01*
G75*
G02*
X137175000Y-133350000I-100000J0D01*
G01*
G37*
G36*
G01*
X137175000Y-127625000D02*
X136975000Y-127625000D01*
G75*
G02*
X136875000Y-127525000I0J100000D01*
G01*
X136875000Y-126250000D01*
G75*
G02*
X136975000Y-126150000I100000J0D01*
G01*
X137175000Y-126150000D01*
G75*
G02*
X137275000Y-126250000I0J-100000D01*
G01*
X137275000Y-127525000D01*
G75*
G02*
X137175000Y-127625000I-100000J0D01*
G01*
G37*
G36*
G01*
X136525000Y-127625000D02*
X136325000Y-127625000D01*
G75*
G02*
X136225000Y-127525000I0J100000D01*
G01*
X136225000Y-126250000D01*
G75*
G02*
X136325000Y-126150000I100000J0D01*
G01*
X136525000Y-126150000D01*
G75*
G02*
X136625000Y-126250000I0J-100000D01*
G01*
X136625000Y-127525000D01*
G75*
G02*
X136525000Y-127625000I-100000J0D01*
G01*
G37*
G36*
G01*
X135875000Y-127625000D02*
X135675000Y-127625000D01*
G75*
G02*
X135575000Y-127525000I0J100000D01*
G01*
X135575000Y-126250000D01*
G75*
G02*
X135675000Y-126150000I100000J0D01*
G01*
X135875000Y-126150000D01*
G75*
G02*
X135975000Y-126250000I0J-100000D01*
G01*
X135975000Y-127525000D01*
G75*
G02*
X135875000Y-127625000I-100000J0D01*
G01*
G37*
G36*
G01*
X135225000Y-127625000D02*
X135025000Y-127625000D01*
G75*
G02*
X134925000Y-127525000I0J100000D01*
G01*
X134925000Y-126250000D01*
G75*
G02*
X135025000Y-126150000I100000J0D01*
G01*
X135225000Y-126150000D01*
G75*
G02*
X135325000Y-126250000I0J-100000D01*
G01*
X135325000Y-127525000D01*
G75*
G02*
X135225000Y-127625000I-100000J0D01*
G01*
G37*
G36*
G01*
X134575000Y-127625000D02*
X134375000Y-127625000D01*
G75*
G02*
X134275000Y-127525000I0J100000D01*
G01*
X134275000Y-126250000D01*
G75*
G02*
X134375000Y-126150000I100000J0D01*
G01*
X134575000Y-126150000D01*
G75*
G02*
X134675000Y-126250000I0J-100000D01*
G01*
X134675000Y-127525000D01*
G75*
G02*
X134575000Y-127625000I-100000J0D01*
G01*
G37*
G36*
G01*
X133925000Y-127625000D02*
X133725000Y-127625000D01*
G75*
G02*
X133625000Y-127525000I0J100000D01*
G01*
X133625000Y-126250000D01*
G75*
G02*
X133725000Y-126150000I100000J0D01*
G01*
X133925000Y-126150000D01*
G75*
G02*
X134025000Y-126250000I0J-100000D01*
G01*
X134025000Y-127525000D01*
G75*
G02*
X133925000Y-127625000I-100000J0D01*
G01*
G37*
G36*
G01*
X133275000Y-127625000D02*
X133075000Y-127625000D01*
G75*
G02*
X132975000Y-127525000I0J100000D01*
G01*
X132975000Y-126250000D01*
G75*
G02*
X133075000Y-126150000I100000J0D01*
G01*
X133275000Y-126150000D01*
G75*
G02*
X133375000Y-126250000I0J-100000D01*
G01*
X133375000Y-127525000D01*
G75*
G02*
X133275000Y-127625000I-100000J0D01*
G01*
G37*
G36*
G01*
X132625000Y-127625000D02*
X132425000Y-127625000D01*
G75*
G02*
X132325000Y-127525000I0J100000D01*
G01*
X132325000Y-126250000D01*
G75*
G02*
X132425000Y-126150000I100000J0D01*
G01*
X132625000Y-126150000D01*
G75*
G02*
X132725000Y-126250000I0J-100000D01*
G01*
X132725000Y-127525000D01*
G75*
G02*
X132625000Y-127625000I-100000J0D01*
G01*
G37*
G36*
G01*
X131975000Y-127625000D02*
X131775000Y-127625000D01*
G75*
G02*
X131675000Y-127525000I0J100000D01*
G01*
X131675000Y-126250000D01*
G75*
G02*
X131775000Y-126150000I100000J0D01*
G01*
X131975000Y-126150000D01*
G75*
G02*
X132075000Y-126250000I0J-100000D01*
G01*
X132075000Y-127525000D01*
G75*
G02*
X131975000Y-127625000I-100000J0D01*
G01*
G37*
G36*
G01*
X131325000Y-127625000D02*
X131125000Y-127625000D01*
G75*
G02*
X131025000Y-127525000I0J100000D01*
G01*
X131025000Y-126250000D01*
G75*
G02*
X131125000Y-126150000I100000J0D01*
G01*
X131325000Y-126150000D01*
G75*
G02*
X131425000Y-126250000I0J-100000D01*
G01*
X131425000Y-127525000D01*
G75*
G02*
X131325000Y-127625000I-100000J0D01*
G01*
G37*
G36*
G01*
X130675000Y-127625000D02*
X130475000Y-127625000D01*
G75*
G02*
X130375000Y-127525000I0J100000D01*
G01*
X130375000Y-126250000D01*
G75*
G02*
X130475000Y-126150000I100000J0D01*
G01*
X130675000Y-126150000D01*
G75*
G02*
X130775000Y-126250000I0J-100000D01*
G01*
X130775000Y-127525000D01*
G75*
G02*
X130675000Y-127625000I-100000J0D01*
G01*
G37*
G36*
G01*
X130025000Y-127625000D02*
X129825000Y-127625000D01*
G75*
G02*
X129725000Y-127525000I0J100000D01*
G01*
X129725000Y-126250000D01*
G75*
G02*
X129825000Y-126150000I100000J0D01*
G01*
X130025000Y-126150000D01*
G75*
G02*
X130125000Y-126250000I0J-100000D01*
G01*
X130125000Y-127525000D01*
G75*
G02*
X130025000Y-127625000I-100000J0D01*
G01*
G37*
%TD*%
D18*
%TO.C,U5*%
X154400000Y-140480000D03*
X154400000Y-139830000D03*
X154400000Y-139170000D03*
X154400000Y-138520000D03*
X156600000Y-138520000D03*
X156600000Y-139170000D03*
X156600000Y-139830000D03*
X156600000Y-140480000D03*
%TD*%
%TO.C,U6*%
X156600000Y-130480000D03*
X156600000Y-129830000D03*
X156600000Y-129170000D03*
X156600000Y-128520000D03*
X154400000Y-128520000D03*
X154400000Y-129170000D03*
X154400000Y-129830000D03*
X154400000Y-130480000D03*
%TD*%
%TO.C,U7*%
X156600000Y-120480000D03*
X156600000Y-119830000D03*
X156600000Y-119170000D03*
X156600000Y-118520000D03*
X154400000Y-118520000D03*
X154400000Y-119170000D03*
X154400000Y-119830000D03*
X154400000Y-120480000D03*
%TD*%
%TO.C,U8*%
X154400000Y-110480000D03*
X154400000Y-109830000D03*
X154400000Y-109170000D03*
X154400000Y-108520000D03*
X156600000Y-108520000D03*
X156600000Y-109170000D03*
X156600000Y-109830000D03*
X156600000Y-110480000D03*
%TD*%
%TO.C,U9*%
X154400000Y-100480000D03*
X154400000Y-99830000D03*
X154400000Y-99170000D03*
X154400000Y-98520000D03*
X156600000Y-98520000D03*
X156600000Y-99170000D03*
X156600000Y-99830000D03*
X156600000Y-100480000D03*
%TD*%
%TO.C,U10*%
X156600000Y-90480000D03*
X156600000Y-89830000D03*
X156600000Y-89170000D03*
X156600000Y-88520000D03*
X154400000Y-88520000D03*
X154400000Y-89170000D03*
X154400000Y-89830000D03*
X154400000Y-90480000D03*
%TD*%
%TO.C,U11*%
G36*
G01*
X130125000Y-92875000D02*
X129925000Y-92875000D01*
G75*
G02*
X129825000Y-92775000I0J100000D01*
G01*
X129825000Y-91500000D01*
G75*
G02*
X129925000Y-91400000I100000J0D01*
G01*
X130125000Y-91400000D01*
G75*
G02*
X130225000Y-91500000I0J-100000D01*
G01*
X130225000Y-92775000D01*
G75*
G02*
X130125000Y-92875000I-100000J0D01*
G01*
G37*
G36*
G01*
X130775000Y-92875000D02*
X130575000Y-92875000D01*
G75*
G02*
X130475000Y-92775000I0J100000D01*
G01*
X130475000Y-91500000D01*
G75*
G02*
X130575000Y-91400000I100000J0D01*
G01*
X130775000Y-91400000D01*
G75*
G02*
X130875000Y-91500000I0J-100000D01*
G01*
X130875000Y-92775000D01*
G75*
G02*
X130775000Y-92875000I-100000J0D01*
G01*
G37*
G36*
G01*
X131425000Y-92875000D02*
X131225000Y-92875000D01*
G75*
G02*
X131125000Y-92775000I0J100000D01*
G01*
X131125000Y-91500000D01*
G75*
G02*
X131225000Y-91400000I100000J0D01*
G01*
X131425000Y-91400000D01*
G75*
G02*
X131525000Y-91500000I0J-100000D01*
G01*
X131525000Y-92775000D01*
G75*
G02*
X131425000Y-92875000I-100000J0D01*
G01*
G37*
G36*
G01*
X132075000Y-92875000D02*
X131875000Y-92875000D01*
G75*
G02*
X131775000Y-92775000I0J100000D01*
G01*
X131775000Y-91500000D01*
G75*
G02*
X131875000Y-91400000I100000J0D01*
G01*
X132075000Y-91400000D01*
G75*
G02*
X132175000Y-91500000I0J-100000D01*
G01*
X132175000Y-92775000D01*
G75*
G02*
X132075000Y-92875000I-100000J0D01*
G01*
G37*
G36*
G01*
X132725000Y-92875000D02*
X132525000Y-92875000D01*
G75*
G02*
X132425000Y-92775000I0J100000D01*
G01*
X132425000Y-91500000D01*
G75*
G02*
X132525000Y-91400000I100000J0D01*
G01*
X132725000Y-91400000D01*
G75*
G02*
X132825000Y-91500000I0J-100000D01*
G01*
X132825000Y-92775000D01*
G75*
G02*
X132725000Y-92875000I-100000J0D01*
G01*
G37*
G36*
G01*
X133375000Y-92875000D02*
X133175000Y-92875000D01*
G75*
G02*
X133075000Y-92775000I0J100000D01*
G01*
X133075000Y-91500000D01*
G75*
G02*
X133175000Y-91400000I100000J0D01*
G01*
X133375000Y-91400000D01*
G75*
G02*
X133475000Y-91500000I0J-100000D01*
G01*
X133475000Y-92775000D01*
G75*
G02*
X133375000Y-92875000I-100000J0D01*
G01*
G37*
G36*
G01*
X134025000Y-92875000D02*
X133825000Y-92875000D01*
G75*
G02*
X133725000Y-92775000I0J100000D01*
G01*
X133725000Y-91500000D01*
G75*
G02*
X133825000Y-91400000I100000J0D01*
G01*
X134025000Y-91400000D01*
G75*
G02*
X134125000Y-91500000I0J-100000D01*
G01*
X134125000Y-92775000D01*
G75*
G02*
X134025000Y-92875000I-100000J0D01*
G01*
G37*
G36*
G01*
X134675000Y-92875000D02*
X134475000Y-92875000D01*
G75*
G02*
X134375000Y-92775000I0J100000D01*
G01*
X134375000Y-91500000D01*
G75*
G02*
X134475000Y-91400000I100000J0D01*
G01*
X134675000Y-91400000D01*
G75*
G02*
X134775000Y-91500000I0J-100000D01*
G01*
X134775000Y-92775000D01*
G75*
G02*
X134675000Y-92875000I-100000J0D01*
G01*
G37*
G36*
G01*
X135325000Y-92875000D02*
X135125000Y-92875000D01*
G75*
G02*
X135025000Y-92775000I0J100000D01*
G01*
X135025000Y-91500000D01*
G75*
G02*
X135125000Y-91400000I100000J0D01*
G01*
X135325000Y-91400000D01*
G75*
G02*
X135425000Y-91500000I0J-100000D01*
G01*
X135425000Y-92775000D01*
G75*
G02*
X135325000Y-92875000I-100000J0D01*
G01*
G37*
G36*
G01*
X135975000Y-92875000D02*
X135775000Y-92875000D01*
G75*
G02*
X135675000Y-92775000I0J100000D01*
G01*
X135675000Y-91500000D01*
G75*
G02*
X135775000Y-91400000I100000J0D01*
G01*
X135975000Y-91400000D01*
G75*
G02*
X136075000Y-91500000I0J-100000D01*
G01*
X136075000Y-92775000D01*
G75*
G02*
X135975000Y-92875000I-100000J0D01*
G01*
G37*
G36*
G01*
X136625000Y-92875000D02*
X136425000Y-92875000D01*
G75*
G02*
X136325000Y-92775000I0J100000D01*
G01*
X136325000Y-91500000D01*
G75*
G02*
X136425000Y-91400000I100000J0D01*
G01*
X136625000Y-91400000D01*
G75*
G02*
X136725000Y-91500000I0J-100000D01*
G01*
X136725000Y-92775000D01*
G75*
G02*
X136625000Y-92875000I-100000J0D01*
G01*
G37*
G36*
G01*
X137275000Y-92875000D02*
X137075000Y-92875000D01*
G75*
G02*
X136975000Y-92775000I0J100000D01*
G01*
X136975000Y-91500000D01*
G75*
G02*
X137075000Y-91400000I100000J0D01*
G01*
X137275000Y-91400000D01*
G75*
G02*
X137375000Y-91500000I0J-100000D01*
G01*
X137375000Y-92775000D01*
G75*
G02*
X137275000Y-92875000I-100000J0D01*
G01*
G37*
G36*
G01*
X137925000Y-92875000D02*
X137725000Y-92875000D01*
G75*
G02*
X137625000Y-92775000I0J100000D01*
G01*
X137625000Y-91500000D01*
G75*
G02*
X137725000Y-91400000I100000J0D01*
G01*
X137925000Y-91400000D01*
G75*
G02*
X138025000Y-91500000I0J-100000D01*
G01*
X138025000Y-92775000D01*
G75*
G02*
X137925000Y-92875000I-100000J0D01*
G01*
G37*
G36*
G01*
X138575000Y-92875000D02*
X138375000Y-92875000D01*
G75*
G02*
X138275000Y-92775000I0J100000D01*
G01*
X138275000Y-91500000D01*
G75*
G02*
X138375000Y-91400000I100000J0D01*
G01*
X138575000Y-91400000D01*
G75*
G02*
X138675000Y-91500000I0J-100000D01*
G01*
X138675000Y-92775000D01*
G75*
G02*
X138575000Y-92875000I-100000J0D01*
G01*
G37*
G36*
G01*
X138575000Y-98600000D02*
X138375000Y-98600000D01*
G75*
G02*
X138275000Y-98500000I0J100000D01*
G01*
X138275000Y-97225000D01*
G75*
G02*
X138375000Y-97125000I100000J0D01*
G01*
X138575000Y-97125000D01*
G75*
G02*
X138675000Y-97225000I0J-100000D01*
G01*
X138675000Y-98500000D01*
G75*
G02*
X138575000Y-98600000I-100000J0D01*
G01*
G37*
G36*
G01*
X137925000Y-98600000D02*
X137725000Y-98600000D01*
G75*
G02*
X137625000Y-98500000I0J100000D01*
G01*
X137625000Y-97225000D01*
G75*
G02*
X137725000Y-97125000I100000J0D01*
G01*
X137925000Y-97125000D01*
G75*
G02*
X138025000Y-97225000I0J-100000D01*
G01*
X138025000Y-98500000D01*
G75*
G02*
X137925000Y-98600000I-100000J0D01*
G01*
G37*
G36*
G01*
X137275000Y-98600000D02*
X137075000Y-98600000D01*
G75*
G02*
X136975000Y-98500000I0J100000D01*
G01*
X136975000Y-97225000D01*
G75*
G02*
X137075000Y-97125000I100000J0D01*
G01*
X137275000Y-97125000D01*
G75*
G02*
X137375000Y-97225000I0J-100000D01*
G01*
X137375000Y-98500000D01*
G75*
G02*
X137275000Y-98600000I-100000J0D01*
G01*
G37*
G36*
G01*
X136625000Y-98600000D02*
X136425000Y-98600000D01*
G75*
G02*
X136325000Y-98500000I0J100000D01*
G01*
X136325000Y-97225000D01*
G75*
G02*
X136425000Y-97125000I100000J0D01*
G01*
X136625000Y-97125000D01*
G75*
G02*
X136725000Y-97225000I0J-100000D01*
G01*
X136725000Y-98500000D01*
G75*
G02*
X136625000Y-98600000I-100000J0D01*
G01*
G37*
G36*
G01*
X135975000Y-98600000D02*
X135775000Y-98600000D01*
G75*
G02*
X135675000Y-98500000I0J100000D01*
G01*
X135675000Y-97225000D01*
G75*
G02*
X135775000Y-97125000I100000J0D01*
G01*
X135975000Y-97125000D01*
G75*
G02*
X136075000Y-97225000I0J-100000D01*
G01*
X136075000Y-98500000D01*
G75*
G02*
X135975000Y-98600000I-100000J0D01*
G01*
G37*
G36*
G01*
X135325000Y-98600000D02*
X135125000Y-98600000D01*
G75*
G02*
X135025000Y-98500000I0J100000D01*
G01*
X135025000Y-97225000D01*
G75*
G02*
X135125000Y-97125000I100000J0D01*
G01*
X135325000Y-97125000D01*
G75*
G02*
X135425000Y-97225000I0J-100000D01*
G01*
X135425000Y-98500000D01*
G75*
G02*
X135325000Y-98600000I-100000J0D01*
G01*
G37*
G36*
G01*
X134675000Y-98600000D02*
X134475000Y-98600000D01*
G75*
G02*
X134375000Y-98500000I0J100000D01*
G01*
X134375000Y-97225000D01*
G75*
G02*
X134475000Y-97125000I100000J0D01*
G01*
X134675000Y-97125000D01*
G75*
G02*
X134775000Y-97225000I0J-100000D01*
G01*
X134775000Y-98500000D01*
G75*
G02*
X134675000Y-98600000I-100000J0D01*
G01*
G37*
G36*
G01*
X134025000Y-98600000D02*
X133825000Y-98600000D01*
G75*
G02*
X133725000Y-98500000I0J100000D01*
G01*
X133725000Y-97225000D01*
G75*
G02*
X133825000Y-97125000I100000J0D01*
G01*
X134025000Y-97125000D01*
G75*
G02*
X134125000Y-97225000I0J-100000D01*
G01*
X134125000Y-98500000D01*
G75*
G02*
X134025000Y-98600000I-100000J0D01*
G01*
G37*
G36*
G01*
X133375000Y-98600000D02*
X133175000Y-98600000D01*
G75*
G02*
X133075000Y-98500000I0J100000D01*
G01*
X133075000Y-97225000D01*
G75*
G02*
X133175000Y-97125000I100000J0D01*
G01*
X133375000Y-97125000D01*
G75*
G02*
X133475000Y-97225000I0J-100000D01*
G01*
X133475000Y-98500000D01*
G75*
G02*
X133375000Y-98600000I-100000J0D01*
G01*
G37*
G36*
G01*
X132725000Y-98600000D02*
X132525000Y-98600000D01*
G75*
G02*
X132425000Y-98500000I0J100000D01*
G01*
X132425000Y-97225000D01*
G75*
G02*
X132525000Y-97125000I100000J0D01*
G01*
X132725000Y-97125000D01*
G75*
G02*
X132825000Y-97225000I0J-100000D01*
G01*
X132825000Y-98500000D01*
G75*
G02*
X132725000Y-98600000I-100000J0D01*
G01*
G37*
G36*
G01*
X132075000Y-98600000D02*
X131875000Y-98600000D01*
G75*
G02*
X131775000Y-98500000I0J100000D01*
G01*
X131775000Y-97225000D01*
G75*
G02*
X131875000Y-97125000I100000J0D01*
G01*
X132075000Y-97125000D01*
G75*
G02*
X132175000Y-97225000I0J-100000D01*
G01*
X132175000Y-98500000D01*
G75*
G02*
X132075000Y-98600000I-100000J0D01*
G01*
G37*
G36*
G01*
X131425000Y-98600000D02*
X131225000Y-98600000D01*
G75*
G02*
X131125000Y-98500000I0J100000D01*
G01*
X131125000Y-97225000D01*
G75*
G02*
X131225000Y-97125000I100000J0D01*
G01*
X131425000Y-97125000D01*
G75*
G02*
X131525000Y-97225000I0J-100000D01*
G01*
X131525000Y-98500000D01*
G75*
G02*
X131425000Y-98600000I-100000J0D01*
G01*
G37*
G36*
G01*
X130775000Y-98600000D02*
X130575000Y-98600000D01*
G75*
G02*
X130475000Y-98500000I0J100000D01*
G01*
X130475000Y-97225000D01*
G75*
G02*
X130575000Y-97125000I100000J0D01*
G01*
X130775000Y-97125000D01*
G75*
G02*
X130875000Y-97225000I0J-100000D01*
G01*
X130875000Y-98500000D01*
G75*
G02*
X130775000Y-98600000I-100000J0D01*
G01*
G37*
G36*
G01*
X130125000Y-98600000D02*
X129925000Y-98600000D01*
G75*
G02*
X129825000Y-98500000I0J100000D01*
G01*
X129825000Y-97225000D01*
G75*
G02*
X129925000Y-97125000I100000J0D01*
G01*
X130125000Y-97125000D01*
G75*
G02*
X130225000Y-97225000I0J-100000D01*
G01*
X130225000Y-98500000D01*
G75*
G02*
X130125000Y-98600000I-100000J0D01*
G01*
G37*
%TD*%
%TO.C,C1*%
G36*
G01*
X163200000Y-77400000D02*
X164300000Y-77400000D01*
G75*
G02*
X164550000Y-77650000I0J-250000D01*
G01*
X164550000Y-79750000D01*
G75*
G02*
X164300000Y-80000000I-250000J0D01*
G01*
X163200000Y-80000000D01*
G75*
G02*
X162950000Y-79750000I0J250000D01*
G01*
X162950000Y-77650000D01*
G75*
G02*
X163200000Y-77400000I250000J0D01*
G01*
G37*
G36*
G01*
X163200000Y-81000000D02*
X164300000Y-81000000D01*
G75*
G02*
X164550000Y-81250000I0J-250000D01*
G01*
X164550000Y-83350000D01*
G75*
G02*
X164300000Y-83600000I-250000J0D01*
G01*
X163200000Y-83600000D01*
G75*
G02*
X162950000Y-83350000I0J250000D01*
G01*
X162950000Y-81250000D01*
G75*
G02*
X163200000Y-81000000I250000J0D01*
G01*
G37*
%TD*%
%TO.C,C3*%
G36*
G01*
X146700000Y-81000000D02*
X147800000Y-81000000D01*
G75*
G02*
X148050000Y-81250000I0J-250000D01*
G01*
X148050000Y-83350000D01*
G75*
G02*
X147800000Y-83600000I-250000J0D01*
G01*
X146700000Y-83600000D01*
G75*
G02*
X146450000Y-83350000I0J250000D01*
G01*
X146450000Y-81250000D01*
G75*
G02*
X146700000Y-81000000I250000J0D01*
G01*
G37*
G36*
G01*
X146700000Y-77400000D02*
X147800000Y-77400000D01*
G75*
G02*
X148050000Y-77650000I0J-250000D01*
G01*
X148050000Y-79750000D01*
G75*
G02*
X147800000Y-80000000I-250000J0D01*
G01*
X146700000Y-80000000D01*
G75*
G02*
X146450000Y-79750000I0J250000D01*
G01*
X146450000Y-77650000D01*
G75*
G02*
X146700000Y-77400000I250000J0D01*
G01*
G37*
%TD*%
%TO.C,R12*%
G36*
G01*
X163425001Y-143075000D02*
X160574999Y-143075000D01*
G75*
G02*
X160325000Y-142825001I0J249999D01*
G01*
X160325000Y-142099999D01*
G75*
G02*
X160574999Y-141850000I249999J0D01*
G01*
X163425001Y-141850000D01*
G75*
G02*
X163675000Y-142099999I0J-249999D01*
G01*
X163675000Y-142825001D01*
G75*
G02*
X163425001Y-143075000I-249999J0D01*
G01*
G37*
G36*
G01*
X163425001Y-137150000D02*
X160574999Y-137150000D01*
G75*
G02*
X160325000Y-136900001I0J249999D01*
G01*
X160325000Y-136174999D01*
G75*
G02*
X160574999Y-135925000I249999J0D01*
G01*
X163425001Y-135925000D01*
G75*
G02*
X163675000Y-136174999I0J-249999D01*
G01*
X163675000Y-136900001D01*
G75*
G02*
X163425001Y-137150000I-249999J0D01*
G01*
G37*
%TD*%
%TO.C,R13*%
G36*
G01*
X163425001Y-127150000D02*
X160574999Y-127150000D01*
G75*
G02*
X160325000Y-126900001I0J249999D01*
G01*
X160325000Y-126174999D01*
G75*
G02*
X160574999Y-125925000I249999J0D01*
G01*
X163425001Y-125925000D01*
G75*
G02*
X163675000Y-126174999I0J-249999D01*
G01*
X163675000Y-126900001D01*
G75*
G02*
X163425001Y-127150000I-249999J0D01*
G01*
G37*
G36*
G01*
X163425001Y-133075000D02*
X160574999Y-133075000D01*
G75*
G02*
X160325000Y-132825001I0J249999D01*
G01*
X160325000Y-132099999D01*
G75*
G02*
X160574999Y-131850000I249999J0D01*
G01*
X163425001Y-131850000D01*
G75*
G02*
X163675000Y-132099999I0J-249999D01*
G01*
X163675000Y-132825001D01*
G75*
G02*
X163425001Y-133075000I-249999J0D01*
G01*
G37*
%TD*%
%TO.C,R14*%
G36*
G01*
X163425001Y-117150000D02*
X160574999Y-117150000D01*
G75*
G02*
X160325000Y-116900001I0J249999D01*
G01*
X160325000Y-116174999D01*
G75*
G02*
X160574999Y-115925000I249999J0D01*
G01*
X163425001Y-115925000D01*
G75*
G02*
X163675000Y-116174999I0J-249999D01*
G01*
X163675000Y-116900001D01*
G75*
G02*
X163425001Y-117150000I-249999J0D01*
G01*
G37*
G36*
G01*
X163425001Y-123075000D02*
X160574999Y-123075000D01*
G75*
G02*
X160325000Y-122825001I0J249999D01*
G01*
X160325000Y-122099999D01*
G75*
G02*
X160574999Y-121850000I249999J0D01*
G01*
X163425001Y-121850000D01*
G75*
G02*
X163675000Y-122099999I0J-249999D01*
G01*
X163675000Y-122825001D01*
G75*
G02*
X163425001Y-123075000I-249999J0D01*
G01*
G37*
%TD*%
%TO.C,R27*%
G36*
G01*
X163425001Y-113075000D02*
X160574999Y-113075000D01*
G75*
G02*
X160325000Y-112825001I0J249999D01*
G01*
X160325000Y-112099999D01*
G75*
G02*
X160574999Y-111850000I249999J0D01*
G01*
X163425001Y-111850000D01*
G75*
G02*
X163675000Y-112099999I0J-249999D01*
G01*
X163675000Y-112825001D01*
G75*
G02*
X163425001Y-113075000I-249999J0D01*
G01*
G37*
G36*
G01*
X163425001Y-107150000D02*
X160574999Y-107150000D01*
G75*
G02*
X160325000Y-106900001I0J249999D01*
G01*
X160325000Y-106174999D01*
G75*
G02*
X160574999Y-105925000I249999J0D01*
G01*
X163425001Y-105925000D01*
G75*
G02*
X163675000Y-106174999I0J-249999D01*
G01*
X163675000Y-106900001D01*
G75*
G02*
X163425001Y-107150000I-249999J0D01*
G01*
G37*
%TD*%
%TO.C,R28*%
G36*
G01*
X163425001Y-103075000D02*
X160574999Y-103075000D01*
G75*
G02*
X160325000Y-102825001I0J249999D01*
G01*
X160325000Y-102099999D01*
G75*
G02*
X160574999Y-101850000I249999J0D01*
G01*
X163425001Y-101850000D01*
G75*
G02*
X163675000Y-102099999I0J-249999D01*
G01*
X163675000Y-102825001D01*
G75*
G02*
X163425001Y-103075000I-249999J0D01*
G01*
G37*
G36*
G01*
X163425001Y-97150000D02*
X160574999Y-97150000D01*
G75*
G02*
X160325000Y-96900001I0J249999D01*
G01*
X160325000Y-96174999D01*
G75*
G02*
X160574999Y-95925000I249999J0D01*
G01*
X163425001Y-95925000D01*
G75*
G02*
X163675000Y-96174999I0J-249999D01*
G01*
X163675000Y-96900001D01*
G75*
G02*
X163425001Y-97150000I-249999J0D01*
G01*
G37*
%TD*%
%TO.C,R29*%
G36*
G01*
X163425001Y-87150000D02*
X160574999Y-87150000D01*
G75*
G02*
X160325000Y-86900001I0J249999D01*
G01*
X160325000Y-86174999D01*
G75*
G02*
X160574999Y-85925000I249999J0D01*
G01*
X163425001Y-85925000D01*
G75*
G02*
X163675000Y-86174999I0J-249999D01*
G01*
X163675000Y-86900001D01*
G75*
G02*
X163425001Y-87150000I-249999J0D01*
G01*
G37*
G36*
G01*
X163425001Y-93075000D02*
X160574999Y-93075000D01*
G75*
G02*
X160325000Y-92825001I0J249999D01*
G01*
X160325000Y-92099999D01*
G75*
G02*
X160574999Y-91850000I249999J0D01*
G01*
X163425001Y-91850000D01*
G75*
G02*
X163675000Y-92099999I0J-249999D01*
G01*
X163675000Y-92825001D01*
G75*
G02*
X163425001Y-93075000I-249999J0D01*
G01*
G37*
%TD*%
M02*
