%TF.GenerationSoftware,KiCad,Pcbnew,(5.1.10)-1*%
%TF.CreationDate,2021-07-26T19:48:55+02:00*%
%TF.ProjectId,RobotskaRuka,526f626f-7473-46b6-9152-756b612e6b69,rev?*%
%TF.SameCoordinates,Original*%
%TF.FileFunction,Soldermask,Bot*%
%TF.FilePolarity,Negative*%
%FSLAX46Y46*%
G04 Gerber Fmt 4.6, Leading zero omitted, Abs format (unit mm)*
G04 Created by KiCad (PCBNEW (5.1.10)-1) date 2021-07-26 19:48:55*
%MOMM*%
%LPD*%
G01*
G04 APERTURE LIST*
%ADD10R,2.600000X2.600000*%
%ADD11C,2.600000*%
%ADD12C,2.100000*%
%ADD13C,1.750000*%
%ADD14C,1.500000*%
%ADD15C,0.800000*%
%ADD16C,6.400000*%
%ADD17O,1.700000X1.700000*%
%ADD18R,1.700000X1.700000*%
G04 APERTURE END LIST*
D10*
%TO.C,J1*%
X173750000Y-81500000D03*
D11*
X173750000Y-76420000D03*
%TD*%
D12*
%TO.C,SW1*%
X97490000Y-114740000D03*
D13*
X95000000Y-116000000D03*
X95000000Y-120500000D03*
D12*
X97490000Y-121750000D03*
%TD*%
D14*
%TO.C,Y1*%
X104500000Y-138500000D03*
X109380000Y-138500000D03*
%TD*%
D15*
%TO.C,H1*%
X97394112Y-67000000D03*
X95697056Y-66297056D03*
X94000000Y-67000000D03*
X93297056Y-68697056D03*
X94000000Y-70394112D03*
X95697056Y-71097056D03*
X97394112Y-70394112D03*
X98097056Y-68697056D03*
D16*
X95697056Y-68697056D03*
%TD*%
%TO.C,H2*%
X178000000Y-68750000D03*
D15*
X180400000Y-68750000D03*
X179697056Y-70447056D03*
X178000000Y-71150000D03*
X176302944Y-70447056D03*
X175600000Y-68750000D03*
X176302944Y-67052944D03*
X178000000Y-66350000D03*
X179697056Y-67052944D03*
%TD*%
%TO.C,H3*%
X179947056Y-141302944D03*
X178250000Y-140600000D03*
X176552944Y-141302944D03*
X175850000Y-143000000D03*
X176552944Y-144697056D03*
X178250000Y-145400000D03*
X179947056Y-144697056D03*
X180650000Y-143000000D03*
D16*
X178250000Y-143000000D03*
%TD*%
%TO.C,H4*%
X95750000Y-143000000D03*
D15*
X98150000Y-143000000D03*
X97447056Y-144697056D03*
X95750000Y-145400000D03*
X94052944Y-144697056D03*
X93350000Y-143000000D03*
X94052944Y-141302944D03*
X95750000Y-140600000D03*
X97447056Y-141302944D03*
%TD*%
D17*
%TO.C,J8*%
X171250000Y-136330000D03*
X171250000Y-133790000D03*
D18*
X171250000Y-131250000D03*
%TD*%
%TO.C,J9*%
X171250000Y-122500000D03*
D17*
X171250000Y-125040000D03*
X171250000Y-127580000D03*
%TD*%
D18*
%TO.C,J10*%
X171250000Y-113750000D03*
D17*
X171250000Y-116290000D03*
X171250000Y-118830000D03*
%TD*%
%TO.C,J11*%
X171250000Y-110080000D03*
X171250000Y-107540000D03*
D18*
X171250000Y-105000000D03*
%TD*%
%TO.C,J12*%
X171250000Y-96250000D03*
D17*
X171250000Y-98790000D03*
X171250000Y-101330000D03*
%TD*%
%TO.C,J13*%
X171250000Y-92580000D03*
X171250000Y-90040000D03*
D18*
X171250000Y-87500000D03*
%TD*%
%TO.C,J7*%
X108750000Y-75750000D03*
D17*
X111290000Y-75750000D03*
X113830000Y-75750000D03*
X116370000Y-75750000D03*
X118910000Y-75750000D03*
%TD*%
%TO.C,J2*%
X102750000Y-125880000D03*
X102750000Y-128420000D03*
X102750000Y-130960000D03*
D18*
X102750000Y-133500000D03*
%TD*%
%TO.C,J4*%
X122500000Y-75750000D03*
D17*
X125040000Y-75750000D03*
X127580000Y-75750000D03*
X130120000Y-75750000D03*
%TD*%
D18*
%TO.C,J5*%
X140000000Y-75750000D03*
D17*
X142540000Y-75750000D03*
%TD*%
%TO.C,J6*%
X136290000Y-75750000D03*
D18*
X133750000Y-75750000D03*
%TD*%
%TO.C,J3*%
X126500000Y-136000000D03*
D17*
X123960000Y-136000000D03*
X121420000Y-136000000D03*
X118880000Y-136000000D03*
X116340000Y-136000000D03*
%TD*%
M02*
