%TF.GenerationSoftware,KiCad,Pcbnew,(5.1.10)-1*%
%TF.CreationDate,2021-07-26T19:48:54+02:00*%
%TF.ProjectId,RobotskaRuka,526f626f-7473-46b6-9152-756b612e6b69,rev?*%
%TF.SameCoordinates,Original*%
%TF.FileFunction,Copper,L2,Bot*%
%TF.FilePolarity,Positive*%
%FSLAX46Y46*%
G04 Gerber Fmt 4.6, Leading zero omitted, Abs format (unit mm)*
G04 Created by KiCad (PCBNEW (5.1.10)-1) date 2021-07-26 19:48:54*
%MOMM*%
%LPD*%
G01*
G04 APERTURE LIST*
%TA.AperFunction,ComponentPad*%
%ADD10R,2.600000X2.600000*%
%TD*%
%TA.AperFunction,ComponentPad*%
%ADD11C,2.600000*%
%TD*%
%TA.AperFunction,ComponentPad*%
%ADD12C,2.100000*%
%TD*%
%TA.AperFunction,ComponentPad*%
%ADD13C,1.750000*%
%TD*%
%TA.AperFunction,ComponentPad*%
%ADD14C,1.500000*%
%TD*%
%TA.AperFunction,ComponentPad*%
%ADD15C,0.800000*%
%TD*%
%TA.AperFunction,ComponentPad*%
%ADD16C,6.400000*%
%TD*%
%TA.AperFunction,ComponentPad*%
%ADD17O,1.700000X1.700000*%
%TD*%
%TA.AperFunction,ComponentPad*%
%ADD18R,1.700000X1.700000*%
%TD*%
%TA.AperFunction,ViaPad*%
%ADD19C,0.800000*%
%TD*%
%TA.AperFunction,Conductor*%
%ADD20C,1.524000*%
%TD*%
%TA.AperFunction,Conductor*%
%ADD21C,0.762000*%
%TD*%
%TA.AperFunction,Conductor*%
%ADD22C,0.508000*%
%TD*%
%TA.AperFunction,Conductor*%
%ADD23C,0.355600*%
%TD*%
%TA.AperFunction,Conductor*%
%ADD24C,0.250000*%
%TD*%
%TA.AperFunction,Conductor*%
%ADD25C,0.254000*%
%TD*%
%TA.AperFunction,Conductor*%
%ADD26C,0.100000*%
%TD*%
G04 APERTURE END LIST*
D10*
%TO.P,J1,1*%
%TO.N,+5V*%
X173750000Y-81500000D03*
D11*
%TO.P,J1,2*%
%TO.N,GND*%
X173750000Y-76420000D03*
%TD*%
D12*
%TO.P,SW1,*%
%TO.N,*%
X97490000Y-114740000D03*
D13*
%TO.P,SW1,2*%
%TO.N,EN*%
X95000000Y-116000000D03*
%TO.P,SW1,1*%
%TO.N,GND*%
X95000000Y-120500000D03*
D12*
%TO.P,SW1,*%
%TO.N,*%
X97490000Y-121750000D03*
%TD*%
D14*
%TO.P,Y1,1*%
%TO.N,Net-(C8-Pad1)*%
X104500000Y-138500000D03*
%TO.P,Y1,2*%
%TO.N,Net-(C7-Pad1)*%
X109380000Y-138500000D03*
%TD*%
D15*
%TO.P,H1,1*%
%TO.N,N/C*%
X97394112Y-67000000D03*
X95697056Y-66297056D03*
X94000000Y-67000000D03*
X93297056Y-68697056D03*
X94000000Y-70394112D03*
X95697056Y-71097056D03*
X97394112Y-70394112D03*
X98097056Y-68697056D03*
D16*
X95697056Y-68697056D03*
%TD*%
%TO.P,H2,1*%
%TO.N,N/C*%
X178000000Y-68750000D03*
D15*
X180400000Y-68750000D03*
X179697056Y-70447056D03*
X178000000Y-71150000D03*
X176302944Y-70447056D03*
X175600000Y-68750000D03*
X176302944Y-67052944D03*
X178000000Y-66350000D03*
X179697056Y-67052944D03*
%TD*%
%TO.P,H3,1*%
%TO.N,N/C*%
X179947056Y-141302944D03*
X178250000Y-140600000D03*
X176552944Y-141302944D03*
X175850000Y-143000000D03*
X176552944Y-144697056D03*
X178250000Y-145400000D03*
X179947056Y-144697056D03*
X180650000Y-143000000D03*
D16*
X178250000Y-143000000D03*
%TD*%
%TO.P,H4,1*%
%TO.N,N/C*%
X95750000Y-143000000D03*
D15*
X98150000Y-143000000D03*
X97447056Y-144697056D03*
X95750000Y-145400000D03*
X94052944Y-144697056D03*
X93350000Y-143000000D03*
X94052944Y-141302944D03*
X95750000Y-140600000D03*
X97447056Y-141302944D03*
%TD*%
D17*
%TO.P,J8,3*%
%TO.N,Net-(J8-Pad3)*%
X171250000Y-136330000D03*
%TO.P,J8,2*%
%TO.N,+5V*%
X171250000Y-133790000D03*
D18*
%TO.P,J8,1*%
%TO.N,PWM_1*%
X171250000Y-131250000D03*
%TD*%
%TO.P,J9,1*%
%TO.N,PWM_2*%
X171250000Y-122500000D03*
D17*
%TO.P,J9,2*%
%TO.N,+5V*%
X171250000Y-125040000D03*
%TO.P,J9,3*%
%TO.N,Net-(J9-Pad3)*%
X171250000Y-127580000D03*
%TD*%
D18*
%TO.P,J10,1*%
%TO.N,PWM_3*%
X171250000Y-113750000D03*
D17*
%TO.P,J10,2*%
%TO.N,+5V*%
X171250000Y-116290000D03*
%TO.P,J10,3*%
%TO.N,Net-(J10-Pad3)*%
X171250000Y-118830000D03*
%TD*%
%TO.P,J11,3*%
%TO.N,Net-(J11-Pad3)*%
X171250000Y-110080000D03*
%TO.P,J11,2*%
%TO.N,+5V*%
X171250000Y-107540000D03*
D18*
%TO.P,J11,1*%
%TO.N,PWM_4*%
X171250000Y-105000000D03*
%TD*%
%TO.P,J12,1*%
%TO.N,PWM_5*%
X171250000Y-96250000D03*
D17*
%TO.P,J12,2*%
%TO.N,+5V*%
X171250000Y-98790000D03*
%TO.P,J12,3*%
%TO.N,Net-(J12-Pad3)*%
X171250000Y-101330000D03*
%TD*%
%TO.P,J13,3*%
%TO.N,Net-(J13-Pad3)*%
X171250000Y-92580000D03*
%TO.P,J13,2*%
%TO.N,+5V*%
X171250000Y-90040000D03*
D18*
%TO.P,J13,1*%
%TO.N,PWM_6*%
X171250000Y-87500000D03*
%TD*%
%TO.P,J7,1*%
%TO.N,GND*%
X108750000Y-75750000D03*
D17*
%TO.P,J7,2*%
%TO.N,CTS*%
X111290000Y-75750000D03*
%TO.P,J7,3*%
%TO.N,DTR*%
X113830000Y-75750000D03*
%TO.P,J7,4*%
%TO.N,TXD0*%
X116370000Y-75750000D03*
%TO.P,J7,5*%
%TO.N,RXD0*%
X118910000Y-75750000D03*
%TD*%
%TO.P,J2,4*%
%TO.N,DTR2*%
X102750000Y-125880000D03*
%TO.P,J2,3*%
%TO.N,RXD*%
X102750000Y-128420000D03*
%TO.P,J2,2*%
%TO.N,TXD*%
X102750000Y-130960000D03*
D18*
%TO.P,J2,1*%
%TO.N,GND*%
X102750000Y-133500000D03*
%TD*%
%TO.P,J4,1*%
%TO.N,+5V*%
X122500000Y-75750000D03*
D17*
%TO.P,J4,2*%
%TO.N,Net-(J4-Pad2)*%
X125040000Y-75750000D03*
%TO.P,J4,3*%
%TO.N,Net-(J4-Pad3)*%
X127580000Y-75750000D03*
%TO.P,J4,4*%
%TO.N,GND*%
X130120000Y-75750000D03*
%TD*%
D18*
%TO.P,J5,1*%
%TO.N,TXD0*%
X140000000Y-75750000D03*
D17*
%TO.P,J5,2*%
%TO.N,Net-(J4-Pad3)*%
X142540000Y-75750000D03*
%TD*%
%TO.P,J6,2*%
%TO.N,Net-(J4-Pad2)*%
X136290000Y-75750000D03*
D18*
%TO.P,J6,1*%
%TO.N,RXD0*%
X133750000Y-75750000D03*
%TD*%
%TO.P,J3,1*%
%TO.N,RES*%
X126500000Y-136000000D03*
D17*
%TO.P,J3,2*%
%TO.N,SCK*%
X123960000Y-136000000D03*
%TO.P,J3,3*%
%TO.N,MISO*%
X121420000Y-136000000D03*
%TO.P,J3,4*%
%TO.N,MOSI*%
X118880000Y-136000000D03*
%TO.P,J3,5*%
%TO.N,GND*%
X116340000Y-136000000D03*
%TD*%
D19*
%TO.N,+5V*%
X139750000Y-117500000D03*
X139750000Y-115500000D03*
X146250000Y-86000000D03*
X139750000Y-82750000D03*
X139750000Y-84750000D03*
X146250000Y-89000000D03*
X146250000Y-96000000D03*
X146250000Y-99000000D03*
X146250000Y-106000000D03*
X146250000Y-109000000D03*
X146250000Y-139000000D03*
X146250000Y-136000000D03*
X146250000Y-129000000D03*
X146250000Y-126000000D03*
X146250000Y-119000000D03*
X146250000Y-116000000D03*
X119000000Y-114500000D03*
X107500000Y-129500000D03*
X131699000Y-83312000D03*
X124750000Y-128500000D03*
X155500000Y-81750000D03*
X155500000Y-92000000D03*
X155500000Y-102000000D03*
X155500000Y-132000000D03*
X155500000Y-122000000D03*
X155500000Y-112000000D03*
X155500000Y-74750000D03*
X114500000Y-130000000D03*
%TO.N,GND*%
X113500000Y-97250000D03*
X112500000Y-97250000D03*
X111500000Y-97250000D03*
X113500000Y-96250000D03*
X112500000Y-96250000D03*
X111500000Y-96250000D03*
X113500000Y-95250000D03*
X112500000Y-95250000D03*
X111500000Y-95250000D03*
X139750000Y-119500000D03*
X139750000Y-86750000D03*
X139750000Y-88750000D03*
X146250000Y-91000000D03*
X146250000Y-93000000D03*
X146250000Y-101000000D03*
X146250000Y-103000000D03*
X146250000Y-111000000D03*
X146250000Y-113000000D03*
X146250000Y-143000000D03*
X146250000Y-141000000D03*
X139750000Y-143000000D03*
X139750000Y-141000000D03*
X146250000Y-133000000D03*
X146250000Y-131000000D03*
X146250000Y-123000000D03*
X146250000Y-121000000D03*
X124500000Y-103500000D03*
X124500000Y-105500000D03*
X124500000Y-107500000D03*
X124500000Y-109500000D03*
X124500000Y-111500000D03*
X138475000Y-99475000D03*
X153250000Y-85000000D03*
X153250000Y-95000000D03*
X153250000Y-105000000D03*
X153250000Y-115000000D03*
X153250000Y-124750000D03*
X153250000Y-135000000D03*
X127000000Y-132250000D03*
X128500000Y-86500000D03*
X122301000Y-127179000D03*
X113750000Y-128000000D03*
X108500000Y-124500000D03*
X114750000Y-108500000D03*
X109347000Y-145796000D03*
X104521000Y-145796000D03*
X113728500Y-126365000D03*
X124587000Y-100838000D03*
X157000000Y-71500000D03*
X132000000Y-94000000D03*
X104250000Y-82500000D03*
X158750000Y-138500000D03*
X158750000Y-128500000D03*
X158750000Y-118500000D03*
X158750000Y-108500000D03*
X158750000Y-98500000D03*
X158750000Y-88500000D03*
X160500000Y-135000000D03*
X161500000Y-135000000D03*
X162500000Y-135000000D03*
X163500000Y-135000000D03*
X164500000Y-135000000D03*
X164500000Y-136000000D03*
X164500000Y-137000000D03*
X165500000Y-137000000D03*
X165500000Y-136000000D03*
X165500000Y-135000000D03*
X160500000Y-125000000D03*
X161500000Y-125000000D03*
X162500000Y-125000000D03*
X163500000Y-125000000D03*
X164500000Y-125000000D03*
X164500000Y-126000000D03*
X164500000Y-127000000D03*
X165500000Y-127000000D03*
X165500000Y-126000000D03*
X165500000Y-125000000D03*
X160500000Y-115000000D03*
X161500000Y-115000000D03*
X162500000Y-115000000D03*
X163500000Y-115000000D03*
X164500000Y-115000000D03*
X164500000Y-116000000D03*
X164500000Y-117000000D03*
X165500000Y-117000000D03*
X165500000Y-116000000D03*
X165500000Y-115000000D03*
X160500000Y-105000000D03*
X161500000Y-105000000D03*
X162500000Y-105000000D03*
X163500000Y-105000000D03*
X164500000Y-105000000D03*
X164500000Y-106000000D03*
X164500000Y-107000000D03*
X165500000Y-107000000D03*
X165500000Y-106000000D03*
X165500000Y-105000000D03*
X160500000Y-95000000D03*
X161500000Y-95000000D03*
X162500000Y-95000000D03*
X163500000Y-95000000D03*
X164500000Y-95000000D03*
X164500000Y-96000000D03*
X164500000Y-97000000D03*
X165500000Y-97000000D03*
X165500000Y-96000000D03*
X165500000Y-95000000D03*
X160500000Y-85000000D03*
X161500000Y-85000000D03*
X162500000Y-85000000D03*
X163500000Y-85000000D03*
X164500000Y-85000000D03*
X164500000Y-86000000D03*
X164500000Y-87000000D03*
X165500000Y-87000000D03*
X165500000Y-86000000D03*
X165500000Y-85000000D03*
X143000000Y-83250000D03*
X143000000Y-82250000D03*
X143000000Y-81250000D03*
X143000000Y-80250000D03*
X143000000Y-79250000D03*
X144000000Y-83250000D03*
X144000000Y-82250000D03*
X144000000Y-81250000D03*
X144000000Y-80250000D03*
X144000000Y-79250000D03*
X166000000Y-74750000D03*
X102000000Y-115000000D03*
X101000000Y-115000000D03*
X101000000Y-114000000D03*
X102000000Y-114000000D03*
X102000000Y-113000000D03*
X101000000Y-113000000D03*
X101000000Y-112000000D03*
X102000000Y-112000000D03*
X102000000Y-111000000D03*
X101000000Y-111000000D03*
X160500000Y-84000000D03*
X161500000Y-84000000D03*
X165500000Y-84000000D03*
X159500000Y-84000000D03*
X139250000Y-134250000D03*
%TO.N,+3V3*%
X112000000Y-112250000D03*
X112000000Y-111250000D03*
X112000000Y-110250000D03*
X113000000Y-110250000D03*
X113000000Y-111250000D03*
X113000000Y-112250000D03*
X149500000Y-74250000D03*
X150500000Y-74250000D03*
X151500000Y-74250000D03*
X152500000Y-74250000D03*
X149500000Y-75250000D03*
X150500000Y-75250000D03*
X149500000Y-76250000D03*
X148500000Y-76250000D03*
X150500000Y-76250000D03*
X148500000Y-77250000D03*
X149500000Y-77250000D03*
X150500000Y-77250000D03*
X150500000Y-78250000D03*
X149500000Y-78250000D03*
X150500000Y-79250000D03*
%TO.N,EN*%
X107500000Y-92000000D03*
X100750000Y-77000000D03*
%TO.N,TXD*%
X118934001Y-99058501D03*
X110680500Y-120332500D03*
%TO.N,RXD*%
X111506000Y-118237000D03*
X117665500Y-100584000D03*
%TO.N,PWM_1*%
X139750000Y-113500000D03*
X143500000Y-140500000D03*
X155750000Y-142000000D03*
%TO.N,PWM_2*%
X139750000Y-111500000D03*
X142000000Y-140750000D03*
X169000000Y-141000000D03*
%TO.N,PWM_3*%
X139750000Y-109500000D03*
X169250000Y-142250000D03*
X141500000Y-143000000D03*
%TO.N,PWM_4*%
X139750000Y-107500000D03*
%TO.N,PWM_5*%
X139750000Y-105500000D03*
%TO.N,PWM_6*%
X139750000Y-103500000D03*
%TO.N,AT_SCL*%
X117250000Y-128750000D03*
X130000000Y-130750000D03*
%TO.N,AT_SDA*%
X130000000Y-129250000D03*
X118000000Y-127750000D03*
%TO.N,ESP_SCL*%
X130000000Y-94500000D03*
X113250000Y-91000000D03*
%TO.N,ESP_SDA*%
X128500000Y-93750000D03*
X114250000Y-90000000D03*
%TO.N,OE*%
X116250000Y-92250000D03*
X130250000Y-95750000D03*
%TD*%
D20*
%TO.N,+5V*%
X139750000Y-82750000D02*
X139750000Y-84750000D01*
X146250000Y-86000000D02*
X146250000Y-89000000D01*
X146250000Y-86000000D02*
X143500000Y-86000000D01*
D21*
X139188000Y-83312000D02*
X139750000Y-82750000D01*
D20*
X131699000Y-83312000D02*
X139188000Y-83312000D01*
X155500000Y-92000000D02*
X152500000Y-89000000D01*
X155500000Y-81750000D02*
X155500000Y-74750000D01*
D21*
X139750000Y-115500000D02*
X143750000Y-115500000D01*
X144526000Y-100724000D02*
X144526000Y-104267000D01*
X155500000Y-74750000D02*
X155500000Y-74750000D01*
D20*
X139750000Y-83874000D02*
X139188000Y-83312000D01*
X139750000Y-84750000D02*
X139750000Y-83874000D01*
X132261000Y-82750000D02*
X131699000Y-83312000D01*
X139750000Y-82750000D02*
X132261000Y-82750000D01*
X133137000Y-84750000D02*
X131699000Y-83312000D01*
X139750000Y-84750000D02*
X133137000Y-84750000D01*
X142750000Y-85750000D02*
X142750000Y-86000000D01*
X139750000Y-82750000D02*
X142750000Y-85750000D01*
X146250000Y-86000000D02*
X142750000Y-86000000D01*
X141500000Y-84750000D02*
X142750000Y-86000000D01*
X139750000Y-84750000D02*
X141500000Y-84750000D01*
X127688000Y-83312000D02*
X131699000Y-83312000D01*
X122500000Y-78124000D02*
X127688000Y-83312000D01*
X122500000Y-75750000D02*
X122500000Y-78124000D01*
X146250000Y-139000000D02*
X146250000Y-136000000D01*
X146250000Y-129000000D02*
X145250000Y-129000000D01*
X145250000Y-129000000D02*
X143500000Y-130750000D01*
X143500000Y-133250000D02*
X146250000Y-136000000D01*
X143500000Y-130750000D02*
X143500000Y-133250000D01*
X152500000Y-129000000D02*
X155500000Y-132000000D01*
X146250000Y-129000000D02*
X146250000Y-126000000D01*
X146250000Y-119000000D02*
X144750000Y-119000000D01*
X152500000Y-119000000D02*
X155500000Y-122000000D01*
X146250000Y-119000000D02*
X146250000Y-116000000D01*
X139750000Y-117500000D02*
X139750000Y-115500000D01*
X145750000Y-115500000D02*
X146250000Y-116000000D01*
X139750000Y-115500000D02*
X145750000Y-115500000D01*
X146250000Y-109000000D02*
X144750000Y-109000000D01*
X142500000Y-86250000D02*
X142750000Y-86000000D01*
X142500000Y-89000000D02*
X142500000Y-86250000D01*
X133750000Y-92250000D02*
X131699000Y-90199000D01*
X133750000Y-96500000D02*
X133750000Y-92250000D01*
X128875000Y-101375000D02*
X133750000Y-96500000D01*
X128875000Y-111625000D02*
X128875000Y-101375000D01*
X126000000Y-114500000D02*
X128875000Y-111625000D01*
X124750000Y-115750000D02*
X124750000Y-115250000D01*
X124000000Y-114500000D02*
X126000000Y-114500000D01*
X122500000Y-114500000D02*
X124000000Y-114500000D01*
X124750000Y-118000000D02*
X124750000Y-116750000D01*
X124750000Y-128500000D02*
X124750000Y-118000000D01*
X124750000Y-118000000D02*
X124750000Y-115750000D01*
X119000000Y-118000000D02*
X118500000Y-118500000D01*
X119000000Y-114500000D02*
X119000000Y-118000000D01*
X119000000Y-114500000D02*
X122500000Y-114500000D01*
X120625000Y-116125000D02*
X120625000Y-116375000D01*
X119000000Y-114500000D02*
X120625000Y-116125000D01*
X118500000Y-118500000D02*
X120625000Y-116375000D01*
X124125000Y-116375000D02*
X126000000Y-114500000D01*
X124125000Y-116125000D02*
X122500000Y-114500000D01*
X124125000Y-116375000D02*
X124125000Y-116125000D01*
X121750000Y-115250000D02*
X122500000Y-114500000D01*
X120625000Y-116375000D02*
X121750000Y-115250000D01*
X123125000Y-116375000D02*
X122875000Y-116375000D01*
X120625000Y-116375000D02*
X123125000Y-116375000D01*
X122875000Y-116375000D02*
X121750000Y-115250000D01*
X123125000Y-116375000D02*
X124125000Y-116375000D01*
X152500000Y-109000000D02*
X155500000Y-112000000D01*
X142750000Y-109000000D02*
X142500000Y-109250000D01*
X146250000Y-109000000D02*
X142750000Y-109000000D01*
X142500000Y-109250000D02*
X142500000Y-89000000D01*
X146250000Y-106000000D02*
X146250000Y-109000000D01*
X144526000Y-104276000D02*
X144526000Y-104267000D01*
X146250000Y-106000000D02*
X144526000Y-104276000D01*
X144526000Y-104276000D02*
X144526000Y-100724000D01*
X146250000Y-99000000D02*
X145250000Y-99000000D01*
X144526000Y-99724000D02*
X144526000Y-104276000D01*
X145250000Y-99000000D02*
X144526000Y-99724000D01*
X146250000Y-89000000D02*
X145250000Y-89000000D01*
X145250000Y-89000000D02*
X144250000Y-90000000D01*
X144250000Y-94000000D02*
X146250000Y-96000000D01*
X144250000Y-90000000D02*
X144250000Y-94000000D01*
X131898000Y-84750000D02*
X131699000Y-84949000D01*
X131699000Y-84949000D02*
X131699000Y-83312000D01*
X139750000Y-115500000D02*
X141500000Y-115500000D01*
X141500000Y-115500000D02*
X142500000Y-114500000D01*
X142500000Y-114500000D02*
X142500000Y-109250000D01*
X146250000Y-116000000D02*
X143750000Y-113500000D01*
X146250000Y-127000000D02*
X148250000Y-129000000D01*
X146250000Y-126000000D02*
X146250000Y-127000000D01*
X146250000Y-129000000D02*
X148250000Y-129000000D01*
X146250000Y-107000000D02*
X148250000Y-109000000D01*
X146250000Y-106000000D02*
X146250000Y-107000000D01*
X146250000Y-109000000D02*
X148250000Y-109000000D01*
X146250000Y-99000000D02*
X146250000Y-96000000D01*
X152500000Y-99000000D02*
X155500000Y-102000000D01*
X146250000Y-96750000D02*
X148500000Y-99000000D01*
X146250000Y-96000000D02*
X146250000Y-96750000D01*
X146250000Y-99000000D02*
X148500000Y-99000000D01*
X155500000Y-81750000D02*
X154250000Y-83000000D01*
X149250000Y-83000000D02*
X146250000Y-86000000D01*
X154250000Y-83000000D02*
X149250000Y-83000000D01*
X142000000Y-117500000D02*
X144125000Y-119625000D01*
X139750000Y-117500000D02*
X142000000Y-117500000D01*
X144750000Y-119000000D02*
X144125000Y-119625000D01*
X146250000Y-126000000D02*
X149250000Y-129000000D01*
X149250000Y-129000000D02*
X149750000Y-129000000D01*
X149750000Y-129000000D02*
X152500000Y-129000000D01*
X148250000Y-129000000D02*
X149750000Y-129000000D01*
X130062000Y-83312000D02*
X131699000Y-84949000D01*
X127688000Y-83312000D02*
X130062000Y-83312000D01*
X141000000Y-84750000D02*
X142500000Y-86250000D01*
X139750000Y-84750000D02*
X141000000Y-84750000D01*
X146250000Y-87500000D02*
X147750000Y-89000000D01*
X146250000Y-86000000D02*
X146250000Y-87500000D01*
X147750000Y-89000000D02*
X146250000Y-89000000D01*
X152500000Y-89000000D02*
X147750000Y-89000000D01*
X149250000Y-99000000D02*
X149750000Y-99000000D01*
X146250000Y-96000000D02*
X149250000Y-99000000D01*
X149750000Y-99000000D02*
X152500000Y-99000000D01*
X148500000Y-99000000D02*
X149750000Y-99000000D01*
X149250000Y-109000000D02*
X149750000Y-109000000D01*
X146250000Y-106000000D02*
X149250000Y-109000000D01*
X149750000Y-109000000D02*
X152500000Y-109000000D01*
X148250000Y-109000000D02*
X149750000Y-109000000D01*
X149250000Y-119000000D02*
X152500000Y-119000000D01*
X146250000Y-119000000D02*
X149250000Y-119000000D01*
X147500000Y-117750000D02*
X148000000Y-117750000D01*
X146250000Y-119000000D02*
X147500000Y-117750000D01*
X148000000Y-117750000D02*
X149250000Y-119000000D01*
X146250000Y-116000000D02*
X148000000Y-117750000D01*
X144750000Y-126000000D02*
X146250000Y-126000000D01*
X143250000Y-120500000D02*
X144125000Y-119625000D01*
X143250000Y-123000000D02*
X143250000Y-120500000D01*
X146250000Y-126000000D02*
X143250000Y-123000000D01*
X146250000Y-126000000D02*
X145000000Y-126000000D01*
X108000000Y-130000000D02*
X107500000Y-129500000D01*
X128875000Y-124375000D02*
X124750000Y-128500000D01*
X128875000Y-111625000D02*
X128875000Y-124375000D01*
X109625000Y-129625000D02*
X109250000Y-130000000D01*
X107500000Y-129500000D02*
X109625000Y-127375000D01*
X108000000Y-130000000D02*
X109250000Y-130000000D01*
X109625000Y-127375000D02*
X118500000Y-118500000D01*
X110750000Y-130000000D02*
X109625000Y-128875000D01*
X109625000Y-128875000D02*
X109625000Y-129625000D01*
X109625000Y-127375000D02*
X109625000Y-128875000D01*
X111750000Y-130000000D02*
X110750000Y-130000000D01*
X109250000Y-130000000D02*
X111750000Y-130000000D01*
X111750000Y-130000000D02*
X114500000Y-130000000D01*
X131699000Y-86551000D02*
X133500000Y-84750000D01*
X131699000Y-86949000D02*
X131699000Y-86551000D01*
X131699000Y-90199000D02*
X131699000Y-86949000D01*
X133500000Y-84750000D02*
X131898000Y-84750000D01*
X131699000Y-86949000D02*
X131699000Y-84949000D01*
X137000000Y-84750000D02*
X136750000Y-84750000D01*
X139750000Y-84750000D02*
X137000000Y-84750000D01*
X137000000Y-84750000D02*
X133500000Y-84750000D01*
X136750000Y-84750000D02*
X134250000Y-87250000D01*
D22*
%TO.N,EN*%
X107500000Y-92000000D02*
X105750000Y-90250000D01*
X105750000Y-82000000D02*
X100750000Y-77000000D01*
X105750000Y-90250000D02*
X105750000Y-82000000D01*
D23*
%TO.N,TXD*%
X118934001Y-112078999D02*
X110680500Y-120332500D01*
X118934001Y-99058501D02*
X118934001Y-112078999D01*
%TO.N,RXD*%
X117665500Y-100584000D02*
X117665500Y-110109000D01*
X117665500Y-110109000D02*
X117665500Y-111442500D01*
X117665500Y-112077500D02*
X117665500Y-111887000D01*
X111506000Y-118237000D02*
X117665500Y-112077500D01*
X117665500Y-111442500D02*
X117665500Y-111887000D01*
D21*
%TO.N,Net-(J4-Pad3)*%
X142540000Y-77210000D02*
X142540000Y-75750000D01*
X141000000Y-78750000D02*
X142540000Y-77210000D01*
X129000000Y-78750000D02*
X141000000Y-78750000D01*
X127580000Y-77330000D02*
X129000000Y-78750000D01*
X127580000Y-75750000D02*
X127580000Y-77330000D01*
D23*
%TO.N,PWM_1*%
X138000000Y-135000000D02*
X143500000Y-140500000D01*
X139000000Y-113500000D02*
X138000000Y-114500000D01*
X139750000Y-113500000D02*
X139000000Y-113500000D01*
X138000000Y-114500000D02*
X138000000Y-135000000D01*
X143500000Y-140500000D02*
X143500000Y-140500000D01*
X168500000Y-132250000D02*
X168500000Y-137250000D01*
X169500000Y-131250000D02*
X168500000Y-132250000D01*
X171250000Y-131250000D02*
X169500000Y-131250000D01*
X164500000Y-141250000D02*
X165000000Y-140750000D01*
X165000000Y-140750000D02*
X164625000Y-141125000D01*
X168500000Y-137250000D02*
X165000000Y-140750000D01*
X163750000Y-142000000D02*
X164500000Y-141250000D01*
X155750000Y-142000000D02*
X163750000Y-142000000D01*
%TO.N,PWM_2*%
X169000000Y-141000000D02*
X176250000Y-133750000D01*
X176250000Y-133750000D02*
X176250000Y-124750000D01*
X174000000Y-122500000D02*
X171250000Y-122500000D01*
X176250000Y-124750000D02*
X174000000Y-122500000D01*
X139000000Y-111500000D02*
X139750000Y-111500000D01*
X137250000Y-113250000D02*
X139000000Y-111500000D01*
X137250000Y-136000000D02*
X137250000Y-113250000D01*
X142000000Y-140750000D02*
X137250000Y-136000000D01*
%TO.N,PWM_3*%
X169250000Y-142250000D02*
X177250000Y-134250000D01*
X138000000Y-142000000D02*
X136500000Y-140500000D01*
X139000000Y-109500000D02*
X136500000Y-112000000D01*
X139750000Y-109500000D02*
X139000000Y-109500000D01*
X136500000Y-140500000D02*
X136500000Y-112000000D01*
X138000000Y-142000000D02*
X140500000Y-142000000D01*
X140500000Y-142000000D02*
X141500000Y-143000000D01*
X174000000Y-113750000D02*
X177250000Y-117000000D01*
X171250000Y-113750000D02*
X174000000Y-113750000D01*
X177250000Y-134250000D02*
X177250000Y-117000000D01*
%TO.N,PWM_4*%
X139250000Y-144250000D02*
X168750000Y-144250000D01*
X168750000Y-144250000D02*
X178250000Y-134750000D01*
X135750000Y-140750000D02*
X139250000Y-144250000D01*
X135750000Y-110750000D02*
X135750000Y-140750000D01*
X139000000Y-107500000D02*
X135750000Y-110750000D01*
X139750000Y-107500000D02*
X139000000Y-107500000D01*
X171250000Y-105000000D02*
X174000000Y-105000000D01*
X174000000Y-105000000D02*
X178250000Y-109250000D01*
X178250000Y-134750000D02*
X178250000Y-109250000D01*
%TO.N,PWM_5*%
X135000000Y-141000000D02*
X139000000Y-145000000D01*
X169250000Y-145000000D02*
X179000000Y-135250000D01*
X139000000Y-145000000D02*
X169250000Y-145000000D01*
X135000000Y-109500000D02*
X135000000Y-141000000D01*
X139000000Y-105500000D02*
X135000000Y-109500000D01*
X139750000Y-105500000D02*
X139000000Y-105500000D01*
X174000000Y-96250000D02*
X179000000Y-101250000D01*
X171250000Y-96250000D02*
X174000000Y-96250000D01*
X179000000Y-135250000D02*
X179000000Y-101250000D01*
%TO.N,PWM_6*%
X169500000Y-145750000D02*
X179750000Y-135500000D01*
X134250000Y-141250000D02*
X138750000Y-145750000D01*
X134250000Y-108250000D02*
X134250000Y-141250000D01*
X138750000Y-145750000D02*
X169500000Y-145750000D01*
X139000000Y-103500000D02*
X134250000Y-108250000D01*
X139750000Y-103500000D02*
X139000000Y-103500000D01*
X173750000Y-87500000D02*
X179750000Y-93500000D01*
X171250000Y-87500000D02*
X173750000Y-87500000D01*
X179750000Y-135500000D02*
X179750000Y-93500000D01*
%TO.N,AT_SCL*%
X119250000Y-130750000D02*
X117250000Y-128750000D01*
X130000000Y-130750000D02*
X119250000Y-130750000D01*
%TO.N,AT_SDA*%
X129500000Y-129750000D02*
X130000000Y-129250000D01*
X120000000Y-129750000D02*
X129500000Y-129750000D01*
X118000000Y-127750000D02*
X120000000Y-129750000D01*
D24*
%TO.N,ESP_SCL*%
X120250000Y-94500000D02*
X130000000Y-94500000D01*
X116750000Y-91000000D02*
X120250000Y-94500000D01*
X113250000Y-91000000D02*
X116750000Y-91000000D01*
%TO.N,ESP_SDA*%
X128500000Y-93750000D02*
X120750000Y-93750000D01*
X120750000Y-93750000D02*
X117000000Y-90000000D01*
X114250000Y-90000000D02*
X117000000Y-90000000D01*
%TO.N,OE*%
X116250000Y-92250000D02*
X119750000Y-95750000D01*
X119750000Y-95750000D02*
X130250000Y-95750000D01*
%TD*%
D25*
%TO.N,GND*%
X175021161Y-66305330D02*
X174601467Y-66933446D01*
X174312377Y-67631372D01*
X174165000Y-68372285D01*
X174165000Y-69127715D01*
X174312377Y-69868628D01*
X174601467Y-70566554D01*
X175021161Y-71194670D01*
X175555330Y-71728839D01*
X176183446Y-72148533D01*
X176881372Y-72437623D01*
X177622285Y-72585000D01*
X178377715Y-72585000D01*
X179118628Y-72437623D01*
X179816554Y-72148533D01*
X180444670Y-71728839D01*
X180848666Y-71324843D01*
X181081268Y-140407759D01*
X180694670Y-140021161D01*
X180066554Y-139601467D01*
X179368628Y-139312377D01*
X178627715Y-139165000D01*
X177872285Y-139165000D01*
X177131372Y-139312377D01*
X177055788Y-139343685D01*
X180296507Y-136102966D01*
X180327517Y-136077517D01*
X180429088Y-135953752D01*
X180504562Y-135812550D01*
X180551039Y-135659337D01*
X180562800Y-135539923D01*
X180562800Y-135539921D01*
X180566732Y-135500001D01*
X180562800Y-135460080D01*
X180562800Y-93539920D01*
X180566732Y-93499999D01*
X180562571Y-93457753D01*
X180551039Y-93340663D01*
X180504562Y-93187450D01*
X180433198Y-93053937D01*
X180429088Y-93046247D01*
X180397201Y-93007393D01*
X180327517Y-92922483D01*
X180296500Y-92897028D01*
X174352972Y-86953500D01*
X174327517Y-86922483D01*
X174203752Y-86820912D01*
X174062550Y-86745438D01*
X173909337Y-86698961D01*
X173789923Y-86687200D01*
X173789920Y-86687200D01*
X173750000Y-86683268D01*
X173710080Y-86687200D01*
X172738072Y-86687200D01*
X172738072Y-86650000D01*
X172725812Y-86525518D01*
X172689502Y-86405820D01*
X172630537Y-86295506D01*
X172551185Y-86198815D01*
X172454494Y-86119463D01*
X172344180Y-86060498D01*
X172224482Y-86024188D01*
X172100000Y-86011928D01*
X170400000Y-86011928D01*
X170275518Y-86024188D01*
X170155820Y-86060498D01*
X170045506Y-86119463D01*
X169948815Y-86198815D01*
X169869463Y-86295506D01*
X169810498Y-86405820D01*
X169774188Y-86525518D01*
X169761928Y-86650000D01*
X169761928Y-88350000D01*
X169774188Y-88474482D01*
X169810498Y-88594180D01*
X169869463Y-88704494D01*
X169948815Y-88801185D01*
X170045506Y-88880537D01*
X170155820Y-88939502D01*
X170228380Y-88961513D01*
X170096525Y-89093368D01*
X169934010Y-89336589D01*
X169822068Y-89606842D01*
X169765000Y-89893740D01*
X169765000Y-90186260D01*
X169822068Y-90473158D01*
X169934010Y-90743411D01*
X170096525Y-90986632D01*
X170303368Y-91193475D01*
X170477760Y-91310000D01*
X170303368Y-91426525D01*
X170096525Y-91633368D01*
X169934010Y-91876589D01*
X169822068Y-92146842D01*
X169765000Y-92433740D01*
X169765000Y-92726260D01*
X169822068Y-93013158D01*
X169934010Y-93283411D01*
X170096525Y-93526632D01*
X170303368Y-93733475D01*
X170546589Y-93895990D01*
X170816842Y-94007932D01*
X171103740Y-94065000D01*
X171396260Y-94065000D01*
X171683158Y-94007932D01*
X171953411Y-93895990D01*
X172196632Y-93733475D01*
X172403475Y-93526632D01*
X172565990Y-93283411D01*
X172677932Y-93013158D01*
X172735000Y-92726260D01*
X172735000Y-92433740D01*
X172677932Y-92146842D01*
X172565990Y-91876589D01*
X172403475Y-91633368D01*
X172196632Y-91426525D01*
X172022240Y-91310000D01*
X172196632Y-91193475D01*
X172403475Y-90986632D01*
X172565990Y-90743411D01*
X172677932Y-90473158D01*
X172735000Y-90186260D01*
X172735000Y-89893740D01*
X172677932Y-89606842D01*
X172565990Y-89336589D01*
X172403475Y-89093368D01*
X172271620Y-88961513D01*
X172344180Y-88939502D01*
X172454494Y-88880537D01*
X172551185Y-88801185D01*
X172630537Y-88704494D01*
X172689502Y-88594180D01*
X172725812Y-88474482D01*
X172738072Y-88350000D01*
X172738072Y-88312800D01*
X173413328Y-88312800D01*
X178937201Y-93836673D01*
X178937201Y-100037728D01*
X174602971Y-95703499D01*
X174577517Y-95672483D01*
X174453752Y-95570912D01*
X174312550Y-95495438D01*
X174159337Y-95448961D01*
X174039923Y-95437200D01*
X174039920Y-95437200D01*
X174000000Y-95433268D01*
X173960080Y-95437200D01*
X172738072Y-95437200D01*
X172738072Y-95400000D01*
X172725812Y-95275518D01*
X172689502Y-95155820D01*
X172630537Y-95045506D01*
X172551185Y-94948815D01*
X172454494Y-94869463D01*
X172344180Y-94810498D01*
X172224482Y-94774188D01*
X172100000Y-94761928D01*
X170400000Y-94761928D01*
X170275518Y-94774188D01*
X170155820Y-94810498D01*
X170045506Y-94869463D01*
X169948815Y-94948815D01*
X169869463Y-95045506D01*
X169810498Y-95155820D01*
X169774188Y-95275518D01*
X169761928Y-95400000D01*
X169761928Y-97100000D01*
X169774188Y-97224482D01*
X169810498Y-97344180D01*
X169869463Y-97454494D01*
X169948815Y-97551185D01*
X170045506Y-97630537D01*
X170155820Y-97689502D01*
X170228380Y-97711513D01*
X170096525Y-97843368D01*
X169934010Y-98086589D01*
X169822068Y-98356842D01*
X169765000Y-98643740D01*
X169765000Y-98936260D01*
X169822068Y-99223158D01*
X169934010Y-99493411D01*
X170096525Y-99736632D01*
X170303368Y-99943475D01*
X170477760Y-100060000D01*
X170303368Y-100176525D01*
X170096525Y-100383368D01*
X169934010Y-100626589D01*
X169822068Y-100896842D01*
X169765000Y-101183740D01*
X169765000Y-101476260D01*
X169822068Y-101763158D01*
X169934010Y-102033411D01*
X170096525Y-102276632D01*
X170303368Y-102483475D01*
X170546589Y-102645990D01*
X170816842Y-102757932D01*
X171103740Y-102815000D01*
X171396260Y-102815000D01*
X171683158Y-102757932D01*
X171953411Y-102645990D01*
X172196632Y-102483475D01*
X172403475Y-102276632D01*
X172565990Y-102033411D01*
X172677932Y-101763158D01*
X172735000Y-101476260D01*
X172735000Y-101183740D01*
X172677932Y-100896842D01*
X172565990Y-100626589D01*
X172403475Y-100383368D01*
X172196632Y-100176525D01*
X172022240Y-100060000D01*
X172196632Y-99943475D01*
X172403475Y-99736632D01*
X172565990Y-99493411D01*
X172677932Y-99223158D01*
X172735000Y-98936260D01*
X172735000Y-98643740D01*
X172677932Y-98356842D01*
X172565990Y-98086589D01*
X172403475Y-97843368D01*
X172271620Y-97711513D01*
X172344180Y-97689502D01*
X172454494Y-97630537D01*
X172551185Y-97551185D01*
X172630537Y-97454494D01*
X172689502Y-97344180D01*
X172725812Y-97224482D01*
X172738072Y-97100000D01*
X172738072Y-97062800D01*
X173663328Y-97062800D01*
X178187201Y-101586674D01*
X178187201Y-108037728D01*
X174602971Y-104453499D01*
X174577517Y-104422483D01*
X174453752Y-104320912D01*
X174312550Y-104245438D01*
X174159337Y-104198961D01*
X174039923Y-104187200D01*
X174039920Y-104187200D01*
X174000000Y-104183268D01*
X173960080Y-104187200D01*
X172738072Y-104187200D01*
X172738072Y-104150000D01*
X172725812Y-104025518D01*
X172689502Y-103905820D01*
X172630537Y-103795506D01*
X172551185Y-103698815D01*
X172454494Y-103619463D01*
X172344180Y-103560498D01*
X172224482Y-103524188D01*
X172100000Y-103511928D01*
X170400000Y-103511928D01*
X170275518Y-103524188D01*
X170155820Y-103560498D01*
X170045506Y-103619463D01*
X169948815Y-103698815D01*
X169869463Y-103795506D01*
X169810498Y-103905820D01*
X169774188Y-104025518D01*
X169761928Y-104150000D01*
X169761928Y-105850000D01*
X169774188Y-105974482D01*
X169810498Y-106094180D01*
X169869463Y-106204494D01*
X169948815Y-106301185D01*
X170045506Y-106380537D01*
X170155820Y-106439502D01*
X170228380Y-106461513D01*
X170096525Y-106593368D01*
X169934010Y-106836589D01*
X169822068Y-107106842D01*
X169765000Y-107393740D01*
X169765000Y-107686260D01*
X169822068Y-107973158D01*
X169934010Y-108243411D01*
X170096525Y-108486632D01*
X170303368Y-108693475D01*
X170477760Y-108810000D01*
X170303368Y-108926525D01*
X170096525Y-109133368D01*
X169934010Y-109376589D01*
X169822068Y-109646842D01*
X169765000Y-109933740D01*
X169765000Y-110226260D01*
X169822068Y-110513158D01*
X169934010Y-110783411D01*
X170096525Y-111026632D01*
X170303368Y-111233475D01*
X170546589Y-111395990D01*
X170816842Y-111507932D01*
X171103740Y-111565000D01*
X171396260Y-111565000D01*
X171683158Y-111507932D01*
X171953411Y-111395990D01*
X172196632Y-111233475D01*
X172403475Y-111026632D01*
X172565990Y-110783411D01*
X172677932Y-110513158D01*
X172735000Y-110226260D01*
X172735000Y-109933740D01*
X172677932Y-109646842D01*
X172565990Y-109376589D01*
X172403475Y-109133368D01*
X172196632Y-108926525D01*
X172022240Y-108810000D01*
X172196632Y-108693475D01*
X172403475Y-108486632D01*
X172565990Y-108243411D01*
X172677932Y-107973158D01*
X172735000Y-107686260D01*
X172735000Y-107393740D01*
X172677932Y-107106842D01*
X172565990Y-106836589D01*
X172403475Y-106593368D01*
X172271620Y-106461513D01*
X172344180Y-106439502D01*
X172454494Y-106380537D01*
X172551185Y-106301185D01*
X172630537Y-106204494D01*
X172689502Y-106094180D01*
X172725812Y-105974482D01*
X172738072Y-105850000D01*
X172738072Y-105812800D01*
X173663328Y-105812800D01*
X177437201Y-109586674D01*
X177437201Y-116037728D01*
X174602971Y-113203499D01*
X174577517Y-113172483D01*
X174453752Y-113070912D01*
X174312550Y-112995438D01*
X174159337Y-112948961D01*
X174039923Y-112937200D01*
X174039920Y-112937200D01*
X174000000Y-112933268D01*
X173960080Y-112937200D01*
X172738072Y-112937200D01*
X172738072Y-112900000D01*
X172725812Y-112775518D01*
X172689502Y-112655820D01*
X172630537Y-112545506D01*
X172551185Y-112448815D01*
X172454494Y-112369463D01*
X172344180Y-112310498D01*
X172224482Y-112274188D01*
X172100000Y-112261928D01*
X170400000Y-112261928D01*
X170275518Y-112274188D01*
X170155820Y-112310498D01*
X170045506Y-112369463D01*
X169948815Y-112448815D01*
X169869463Y-112545506D01*
X169810498Y-112655820D01*
X169774188Y-112775518D01*
X169761928Y-112900000D01*
X169761928Y-114600000D01*
X169774188Y-114724482D01*
X169810498Y-114844180D01*
X169869463Y-114954494D01*
X169948815Y-115051185D01*
X170045506Y-115130537D01*
X170155820Y-115189502D01*
X170228380Y-115211513D01*
X170096525Y-115343368D01*
X169934010Y-115586589D01*
X169822068Y-115856842D01*
X169765000Y-116143740D01*
X169765000Y-116436260D01*
X169822068Y-116723158D01*
X169934010Y-116993411D01*
X170096525Y-117236632D01*
X170303368Y-117443475D01*
X170477760Y-117560000D01*
X170303368Y-117676525D01*
X170096525Y-117883368D01*
X169934010Y-118126589D01*
X169822068Y-118396842D01*
X169765000Y-118683740D01*
X169765000Y-118976260D01*
X169822068Y-119263158D01*
X169934010Y-119533411D01*
X170096525Y-119776632D01*
X170303368Y-119983475D01*
X170546589Y-120145990D01*
X170816842Y-120257932D01*
X171103740Y-120315000D01*
X171396260Y-120315000D01*
X171683158Y-120257932D01*
X171953411Y-120145990D01*
X172196632Y-119983475D01*
X172403475Y-119776632D01*
X172565990Y-119533411D01*
X172677932Y-119263158D01*
X172735000Y-118976260D01*
X172735000Y-118683740D01*
X172677932Y-118396842D01*
X172565990Y-118126589D01*
X172403475Y-117883368D01*
X172196632Y-117676525D01*
X172022240Y-117560000D01*
X172196632Y-117443475D01*
X172403475Y-117236632D01*
X172565990Y-116993411D01*
X172677932Y-116723158D01*
X172735000Y-116436260D01*
X172735000Y-116143740D01*
X172677932Y-115856842D01*
X172565990Y-115586589D01*
X172403475Y-115343368D01*
X172271620Y-115211513D01*
X172344180Y-115189502D01*
X172454494Y-115130537D01*
X172551185Y-115051185D01*
X172630537Y-114954494D01*
X172689502Y-114844180D01*
X172725812Y-114724482D01*
X172738072Y-114600000D01*
X172738072Y-114562800D01*
X173663328Y-114562800D01*
X176437201Y-117336674D01*
X176437201Y-123787728D01*
X174602971Y-121953499D01*
X174577517Y-121922483D01*
X174453752Y-121820912D01*
X174312550Y-121745438D01*
X174159337Y-121698961D01*
X174039923Y-121687200D01*
X174039920Y-121687200D01*
X174000000Y-121683268D01*
X173960080Y-121687200D01*
X172738072Y-121687200D01*
X172738072Y-121650000D01*
X172725812Y-121525518D01*
X172689502Y-121405820D01*
X172630537Y-121295506D01*
X172551185Y-121198815D01*
X172454494Y-121119463D01*
X172344180Y-121060498D01*
X172224482Y-121024188D01*
X172100000Y-121011928D01*
X170400000Y-121011928D01*
X170275518Y-121024188D01*
X170155820Y-121060498D01*
X170045506Y-121119463D01*
X169948815Y-121198815D01*
X169869463Y-121295506D01*
X169810498Y-121405820D01*
X169774188Y-121525518D01*
X169761928Y-121650000D01*
X169761928Y-123350000D01*
X169774188Y-123474482D01*
X169810498Y-123594180D01*
X169869463Y-123704494D01*
X169948815Y-123801185D01*
X170045506Y-123880537D01*
X170155820Y-123939502D01*
X170228380Y-123961513D01*
X170096525Y-124093368D01*
X169934010Y-124336589D01*
X169822068Y-124606842D01*
X169765000Y-124893740D01*
X169765000Y-125186260D01*
X169822068Y-125473158D01*
X169934010Y-125743411D01*
X170096525Y-125986632D01*
X170303368Y-126193475D01*
X170477760Y-126310000D01*
X170303368Y-126426525D01*
X170096525Y-126633368D01*
X169934010Y-126876589D01*
X169822068Y-127146842D01*
X169765000Y-127433740D01*
X169765000Y-127726260D01*
X169822068Y-128013158D01*
X169934010Y-128283411D01*
X170096525Y-128526632D01*
X170303368Y-128733475D01*
X170546589Y-128895990D01*
X170816842Y-129007932D01*
X171103740Y-129065000D01*
X171396260Y-129065000D01*
X171683158Y-129007932D01*
X171953411Y-128895990D01*
X172196632Y-128733475D01*
X172403475Y-128526632D01*
X172565990Y-128283411D01*
X172677932Y-128013158D01*
X172735000Y-127726260D01*
X172735000Y-127433740D01*
X172677932Y-127146842D01*
X172565990Y-126876589D01*
X172403475Y-126633368D01*
X172196632Y-126426525D01*
X172022240Y-126310000D01*
X172196632Y-126193475D01*
X172403475Y-125986632D01*
X172565990Y-125743411D01*
X172677932Y-125473158D01*
X172735000Y-125186260D01*
X172735000Y-124893740D01*
X172677932Y-124606842D01*
X172565990Y-124336589D01*
X172403475Y-124093368D01*
X172271620Y-123961513D01*
X172344180Y-123939502D01*
X172454494Y-123880537D01*
X172551185Y-123801185D01*
X172630537Y-123704494D01*
X172689502Y-123594180D01*
X172725812Y-123474482D01*
X172738072Y-123350000D01*
X172738072Y-123312800D01*
X173663328Y-123312800D01*
X175437201Y-125086674D01*
X175437200Y-133413328D01*
X172723683Y-136126845D01*
X172677932Y-135896842D01*
X172565990Y-135626589D01*
X172403475Y-135383368D01*
X172196632Y-135176525D01*
X172022240Y-135060000D01*
X172196632Y-134943475D01*
X172403475Y-134736632D01*
X172565990Y-134493411D01*
X172677932Y-134223158D01*
X172735000Y-133936260D01*
X172735000Y-133643740D01*
X172677932Y-133356842D01*
X172565990Y-133086589D01*
X172403475Y-132843368D01*
X172271620Y-132711513D01*
X172344180Y-132689502D01*
X172454494Y-132630537D01*
X172551185Y-132551185D01*
X172630537Y-132454494D01*
X172689502Y-132344180D01*
X172725812Y-132224482D01*
X172738072Y-132100000D01*
X172738072Y-130400000D01*
X172725812Y-130275518D01*
X172689502Y-130155820D01*
X172630537Y-130045506D01*
X172551185Y-129948815D01*
X172454494Y-129869463D01*
X172344180Y-129810498D01*
X172224482Y-129774188D01*
X172100000Y-129761928D01*
X170400000Y-129761928D01*
X170275518Y-129774188D01*
X170155820Y-129810498D01*
X170045506Y-129869463D01*
X169948815Y-129948815D01*
X169869463Y-130045506D01*
X169810498Y-130155820D01*
X169774188Y-130275518D01*
X169761928Y-130400000D01*
X169761928Y-130437200D01*
X169539923Y-130437200D01*
X169500000Y-130433268D01*
X169460077Y-130437200D01*
X169340663Y-130448961D01*
X169187450Y-130495438D01*
X169046248Y-130570912D01*
X168922483Y-130672483D01*
X168897033Y-130703494D01*
X167953499Y-131647029D01*
X167922483Y-131672483D01*
X167820912Y-131796249D01*
X167745438Y-131937451D01*
X167698961Y-132090664D01*
X167692747Y-132153759D01*
X167683268Y-132250000D01*
X167687200Y-132289920D01*
X167687201Y-136913327D01*
X163953499Y-140647029D01*
X163953493Y-140647034D01*
X163413328Y-141187200D01*
X156396510Y-141187200D01*
X156240256Y-141082795D01*
X156051898Y-141004774D01*
X155851939Y-140965000D01*
X155648061Y-140965000D01*
X155448102Y-141004774D01*
X155259744Y-141082795D01*
X155090226Y-141196063D01*
X154946063Y-141340226D01*
X154832795Y-141509744D01*
X154754774Y-141698102D01*
X154715000Y-141898061D01*
X154715000Y-142101939D01*
X154754774Y-142301898D01*
X154832795Y-142490256D01*
X154946063Y-142659774D01*
X155090226Y-142803937D01*
X155259744Y-142917205D01*
X155448102Y-142995226D01*
X155648061Y-143035000D01*
X155851939Y-143035000D01*
X156051898Y-142995226D01*
X156240256Y-142917205D01*
X156396510Y-142812800D01*
X163710080Y-142812800D01*
X163750000Y-142816732D01*
X163789920Y-142812800D01*
X163789923Y-142812800D01*
X163909337Y-142801039D01*
X164062550Y-142754562D01*
X164203752Y-142679088D01*
X164327517Y-142577517D01*
X164352971Y-142546501D01*
X165102966Y-141796507D01*
X165102971Y-141796501D01*
X169046500Y-137852972D01*
X169077517Y-137827517D01*
X169147729Y-137741963D01*
X169179088Y-137703753D01*
X169254561Y-137562551D01*
X169254562Y-137562550D01*
X169301039Y-137409337D01*
X169312800Y-137289923D01*
X169312800Y-137289921D01*
X169316732Y-137250001D01*
X169312800Y-137210080D01*
X169312800Y-132586672D01*
X169765294Y-132134179D01*
X169774188Y-132224482D01*
X169810498Y-132344180D01*
X169869463Y-132454494D01*
X169948815Y-132551185D01*
X170045506Y-132630537D01*
X170155820Y-132689502D01*
X170228380Y-132711513D01*
X170096525Y-132843368D01*
X169934010Y-133086589D01*
X169822068Y-133356842D01*
X169765000Y-133643740D01*
X169765000Y-133936260D01*
X169822068Y-134223158D01*
X169934010Y-134493411D01*
X170096525Y-134736632D01*
X170303368Y-134943475D01*
X170477760Y-135060000D01*
X170303368Y-135176525D01*
X170096525Y-135383368D01*
X169934010Y-135626589D01*
X169822068Y-135896842D01*
X169765000Y-136183740D01*
X169765000Y-136476260D01*
X169822068Y-136763158D01*
X169934010Y-137033411D01*
X170096525Y-137276632D01*
X170303368Y-137483475D01*
X170546589Y-137645990D01*
X170816842Y-137757932D01*
X171046845Y-137803683D01*
X168882416Y-139968112D01*
X168698102Y-140004774D01*
X168509744Y-140082795D01*
X168340226Y-140196063D01*
X168196063Y-140340226D01*
X168082795Y-140509744D01*
X168004774Y-140698102D01*
X167965000Y-140898061D01*
X167965000Y-141101939D01*
X168004774Y-141301898D01*
X168082795Y-141490256D01*
X168196063Y-141659774D01*
X168322028Y-141785739D01*
X168254774Y-141948102D01*
X168215000Y-142148061D01*
X168215000Y-142351939D01*
X168254774Y-142551898D01*
X168332795Y-142740256D01*
X168446063Y-142909774D01*
X168590226Y-143053937D01*
X168713933Y-143136595D01*
X168413328Y-143437200D01*
X142439182Y-143437200D01*
X142495226Y-143301898D01*
X142535000Y-143101939D01*
X142535000Y-142898061D01*
X142495226Y-142698102D01*
X142417205Y-142509744D01*
X142303937Y-142340226D01*
X142159774Y-142196063D01*
X141990256Y-142082795D01*
X141801898Y-142004774D01*
X141617585Y-141968112D01*
X141102971Y-141453499D01*
X141077517Y-141422483D01*
X140953752Y-141320912D01*
X140812550Y-141245438D01*
X140659337Y-141198961D01*
X140539923Y-141187200D01*
X140539920Y-141187200D01*
X140500000Y-141183268D01*
X140460080Y-141187200D01*
X138336672Y-141187200D01*
X137312800Y-140163328D01*
X137312800Y-137212272D01*
X140968112Y-140867584D01*
X141004774Y-141051898D01*
X141082795Y-141240256D01*
X141196063Y-141409774D01*
X141340226Y-141553937D01*
X141509744Y-141667205D01*
X141698102Y-141745226D01*
X141898061Y-141785000D01*
X142101939Y-141785000D01*
X142301898Y-141745226D01*
X142490256Y-141667205D01*
X142659774Y-141553937D01*
X142803937Y-141409774D01*
X142864028Y-141319841D01*
X143009744Y-141417205D01*
X143198102Y-141495226D01*
X143398061Y-141535000D01*
X143601939Y-141535000D01*
X143801898Y-141495226D01*
X143990256Y-141417205D01*
X144159774Y-141303937D01*
X144303937Y-141159774D01*
X144417205Y-140990256D01*
X144495226Y-140801898D01*
X144535000Y-140601939D01*
X144535000Y-140398061D01*
X144495226Y-140198102D01*
X144417205Y-140009744D01*
X144303937Y-139840226D01*
X144159774Y-139696063D01*
X143990256Y-139582795D01*
X143801898Y-139504774D01*
X143617585Y-139468112D01*
X138812800Y-134663328D01*
X138812800Y-118538080D01*
X138927721Y-118632393D01*
X138970113Y-118667183D01*
X139212805Y-118796904D01*
X139476140Y-118876786D01*
X139750000Y-118903759D01*
X139818625Y-118897000D01*
X141115000Y-118897000D01*
X141115000Y-135773116D01*
X141121391Y-135862979D01*
X141141418Y-136003072D01*
X141191776Y-136175603D01*
X141250254Y-136304474D01*
X141346934Y-136455981D01*
X141439177Y-136563305D01*
X141502598Y-136627290D01*
X145062831Y-139742494D01*
X145082817Y-139779886D01*
X145257392Y-139992607D01*
X145470113Y-140167183D01*
X145712805Y-140296904D01*
X145976140Y-140376786D01*
X146250000Y-140403759D01*
X146523859Y-140376786D01*
X146787194Y-140296904D01*
X147029886Y-140167183D01*
X147242607Y-139992608D01*
X147417183Y-139779887D01*
X147546904Y-139537195D01*
X147626786Y-139273860D01*
X147647000Y-139068625D01*
X147647000Y-136068624D01*
X147653759Y-135999999D01*
X147626786Y-135726140D01*
X147596587Y-135626589D01*
X147546904Y-135462805D01*
X147417183Y-135220113D01*
X147242608Y-135007392D01*
X147189302Y-134963645D01*
X145635000Y-133409344D01*
X145635000Y-130590656D01*
X145828656Y-130397000D01*
X146181375Y-130397000D01*
X146250000Y-130403759D01*
X146318625Y-130397000D01*
X148181374Y-130397000D01*
X148249999Y-130403759D01*
X148318624Y-130397000D01*
X149181375Y-130397000D01*
X149250000Y-130403759D01*
X149318625Y-130397000D01*
X151921345Y-130397000D01*
X154560697Y-133036353D01*
X154720113Y-133167183D01*
X154962804Y-133296904D01*
X155226140Y-133376786D01*
X155500000Y-133403759D01*
X155773859Y-133376786D01*
X156037195Y-133296904D01*
X156279886Y-133167183D01*
X156492607Y-132992607D01*
X156667183Y-132779886D01*
X156796904Y-132537195D01*
X156876786Y-132273859D01*
X156903759Y-132000000D01*
X156876786Y-131726140D01*
X156796904Y-131462804D01*
X156667183Y-131220113D01*
X156536353Y-131060697D01*
X153536364Y-128060709D01*
X153492608Y-128007392D01*
X153279887Y-127832817D01*
X153037195Y-127703096D01*
X152773860Y-127623214D01*
X152568625Y-127603000D01*
X152500000Y-127596241D01*
X152431375Y-127603000D01*
X149828656Y-127603000D01*
X147286364Y-125060709D01*
X147242608Y-125007392D01*
X147189297Y-124963641D01*
X145635000Y-123409345D01*
X145635000Y-120513026D01*
X145751026Y-120397000D01*
X146181375Y-120397000D01*
X146250000Y-120403759D01*
X146318625Y-120397000D01*
X149181375Y-120397000D01*
X149250000Y-120403759D01*
X149318625Y-120397000D01*
X151921345Y-120397000D01*
X154560697Y-123036353D01*
X154720113Y-123167183D01*
X154962804Y-123296904D01*
X155226140Y-123376786D01*
X155500000Y-123403759D01*
X155773859Y-123376786D01*
X156037195Y-123296904D01*
X156279886Y-123167183D01*
X156492607Y-122992607D01*
X156667183Y-122779886D01*
X156796904Y-122537195D01*
X156876786Y-122273859D01*
X156903759Y-122000000D01*
X156876786Y-121726140D01*
X156796904Y-121462804D01*
X156667183Y-121220113D01*
X156536353Y-121060697D01*
X153536364Y-118060709D01*
X153492608Y-118007392D01*
X153279887Y-117832817D01*
X153037195Y-117703096D01*
X152773860Y-117623214D01*
X152568625Y-117603000D01*
X152500000Y-117596241D01*
X152431375Y-117603000D01*
X149828656Y-117603000D01*
X149036364Y-116810708D01*
X148992608Y-116757392D01*
X148939296Y-116713640D01*
X147286364Y-115060709D01*
X147242608Y-115007392D01*
X147189296Y-114963641D01*
X146786360Y-114560704D01*
X146742608Y-114507392D01*
X146689295Y-114463640D01*
X145635000Y-113409345D01*
X145635000Y-110397000D01*
X146181375Y-110397000D01*
X146250000Y-110403759D01*
X146318625Y-110397000D01*
X148181374Y-110397000D01*
X148249999Y-110403759D01*
X148318624Y-110397000D01*
X149181375Y-110397000D01*
X149250000Y-110403759D01*
X149318625Y-110397000D01*
X151921345Y-110397000D01*
X154560697Y-113036353D01*
X154720113Y-113167183D01*
X154962804Y-113296904D01*
X155226140Y-113376786D01*
X155500000Y-113403759D01*
X155773859Y-113376786D01*
X156037195Y-113296904D01*
X156279886Y-113167183D01*
X156492607Y-112992607D01*
X156667183Y-112779886D01*
X156796904Y-112537195D01*
X156876786Y-112273859D01*
X156903759Y-112000000D01*
X156876786Y-111726140D01*
X156796904Y-111462804D01*
X156667183Y-111220113D01*
X156536353Y-111060697D01*
X153536364Y-108060709D01*
X153492608Y-108007392D01*
X153279887Y-107832817D01*
X153037195Y-107703096D01*
X152773860Y-107623214D01*
X152568625Y-107603000D01*
X152500000Y-107596241D01*
X152431375Y-107603000D01*
X149828656Y-107603000D01*
X147286360Y-105060705D01*
X147242607Y-105007392D01*
X147189306Y-104963649D01*
X145923000Y-103697344D01*
X145923000Y-100397000D01*
X146181375Y-100397000D01*
X146250000Y-100403759D01*
X146318625Y-100397000D01*
X148431367Y-100397000D01*
X148500000Y-100403760D01*
X148568632Y-100397000D01*
X149181375Y-100397000D01*
X149250000Y-100403759D01*
X149318625Y-100397000D01*
X151921345Y-100397000D01*
X154560697Y-103036353D01*
X154720113Y-103167183D01*
X154962804Y-103296904D01*
X155226140Y-103376786D01*
X155500000Y-103403759D01*
X155773859Y-103376786D01*
X156037195Y-103296904D01*
X156279886Y-103167183D01*
X156492607Y-102992607D01*
X156667183Y-102779886D01*
X156796904Y-102537195D01*
X156876786Y-102273859D01*
X156903759Y-102000000D01*
X156876786Y-101726140D01*
X156796904Y-101462804D01*
X156667183Y-101220113D01*
X156536353Y-101060697D01*
X153536364Y-98060709D01*
X153492608Y-98007392D01*
X153279887Y-97832817D01*
X153037195Y-97703096D01*
X152773860Y-97623214D01*
X152568625Y-97603000D01*
X152500000Y-97596241D01*
X152431375Y-97603000D01*
X149828656Y-97603000D01*
X147286364Y-95060709D01*
X147242608Y-95007392D01*
X147189302Y-94963645D01*
X145647000Y-93421345D01*
X145647000Y-90578655D01*
X145828656Y-90397000D01*
X146181375Y-90397000D01*
X146250000Y-90403759D01*
X146318625Y-90397000D01*
X147681374Y-90397000D01*
X147749999Y-90403759D01*
X147818624Y-90397000D01*
X151921345Y-90397000D01*
X154560697Y-93036353D01*
X154720113Y-93167183D01*
X154962804Y-93296904D01*
X155226140Y-93376786D01*
X155500000Y-93403759D01*
X155773859Y-93376786D01*
X156037195Y-93296904D01*
X156279886Y-93167183D01*
X156492607Y-92992607D01*
X156667183Y-92779886D01*
X156796904Y-92537195D01*
X156876786Y-92273859D01*
X156903759Y-92000000D01*
X156876786Y-91726140D01*
X156796904Y-91462804D01*
X156667183Y-91220113D01*
X156536353Y-91060697D01*
X153536364Y-88060709D01*
X153492608Y-88007392D01*
X153279887Y-87832817D01*
X153037195Y-87703096D01*
X152773860Y-87623214D01*
X152568625Y-87603000D01*
X152500000Y-87596241D01*
X152431375Y-87603000D01*
X148328656Y-87603000D01*
X147647000Y-86921344D01*
X147647000Y-86578655D01*
X149828656Y-84397000D01*
X154181375Y-84397000D01*
X154250000Y-84403759D01*
X154318625Y-84397000D01*
X154523860Y-84376786D01*
X154787195Y-84296904D01*
X155029887Y-84167183D01*
X155242608Y-83992608D01*
X155286364Y-83939292D01*
X156439301Y-82786355D01*
X156492607Y-82742608D01*
X156667183Y-82529887D01*
X156796904Y-82287195D01*
X156876786Y-82023860D01*
X156897000Y-81818625D01*
X156897000Y-81818624D01*
X156903759Y-81750000D01*
X156897000Y-81681375D01*
X156897000Y-80200000D01*
X171811928Y-80200000D01*
X171811928Y-82800000D01*
X171824188Y-82924482D01*
X171860498Y-83044180D01*
X171919463Y-83154494D01*
X171998815Y-83251185D01*
X172095506Y-83330537D01*
X172205820Y-83389502D01*
X172325518Y-83425812D01*
X172450000Y-83438072D01*
X175050000Y-83438072D01*
X175174482Y-83425812D01*
X175294180Y-83389502D01*
X175404494Y-83330537D01*
X175501185Y-83251185D01*
X175580537Y-83154494D01*
X175639502Y-83044180D01*
X175675812Y-82924482D01*
X175688072Y-82800000D01*
X175688072Y-80200000D01*
X175675812Y-80075518D01*
X175639502Y-79955820D01*
X175580537Y-79845506D01*
X175501185Y-79748815D01*
X175404494Y-79669463D01*
X175294180Y-79610498D01*
X175174482Y-79574188D01*
X175050000Y-79561928D01*
X172450000Y-79561928D01*
X172325518Y-79574188D01*
X172205820Y-79610498D01*
X172095506Y-79669463D01*
X171998815Y-79748815D01*
X171919463Y-79845506D01*
X171860498Y-79955820D01*
X171824188Y-80075518D01*
X171811928Y-80200000D01*
X156897000Y-80200000D01*
X156897000Y-74681375D01*
X156876786Y-74476140D01*
X156796904Y-74212805D01*
X156667183Y-73970113D01*
X156492608Y-73757392D01*
X156279887Y-73582817D01*
X156037195Y-73453096D01*
X155773860Y-73373214D01*
X155500000Y-73346241D01*
X155226141Y-73373214D01*
X154962806Y-73453096D01*
X154720114Y-73582817D01*
X154507393Y-73757392D01*
X154332818Y-73970113D01*
X154203097Y-74212805D01*
X154123215Y-74476140D01*
X154103001Y-74681375D01*
X154103000Y-81171344D01*
X153671345Y-81603000D01*
X149318625Y-81603000D01*
X149250000Y-81596241D01*
X148976140Y-81623214D01*
X148712804Y-81703096D01*
X148566379Y-81781362D01*
X148470113Y-81832817D01*
X148257392Y-82007392D01*
X148213641Y-82060703D01*
X145671345Y-84603000D01*
X143578656Y-84603000D01*
X140786364Y-81810709D01*
X140742608Y-81757392D01*
X140529887Y-81582817D01*
X140287195Y-81453096D01*
X140023860Y-81373214D01*
X139818625Y-81353000D01*
X139750000Y-81346241D01*
X139681375Y-81353000D01*
X132329624Y-81353000D01*
X132260999Y-81346241D01*
X132070537Y-81365000D01*
X127716656Y-81365000D01*
X123897000Y-77545345D01*
X123897000Y-76923694D01*
X123939502Y-76844180D01*
X123961513Y-76771620D01*
X124093368Y-76903475D01*
X124336589Y-77065990D01*
X124606842Y-77177932D01*
X124893740Y-77235000D01*
X125186260Y-77235000D01*
X125473158Y-77177932D01*
X125743411Y-77065990D01*
X125986632Y-76903475D01*
X126193475Y-76696632D01*
X126310000Y-76522240D01*
X126426525Y-76696632D01*
X126564001Y-76834108D01*
X126564001Y-77280089D01*
X126559085Y-77330000D01*
X126578702Y-77529170D01*
X126613965Y-77645415D01*
X126636799Y-77720687D01*
X126731141Y-77897190D01*
X126858105Y-78051896D01*
X126896868Y-78083708D01*
X128246292Y-79433133D01*
X128278104Y-79471896D01*
X128432810Y-79598860D01*
X128609313Y-79693202D01*
X128800829Y-79751298D01*
X128950098Y-79766000D01*
X128950105Y-79766000D01*
X128999999Y-79770914D01*
X129049893Y-79766000D01*
X140950098Y-79766000D01*
X141000000Y-79770915D01*
X141049902Y-79766000D01*
X141199171Y-79751298D01*
X141390687Y-79693202D01*
X141567190Y-79598860D01*
X141721896Y-79471896D01*
X141753712Y-79433128D01*
X143223133Y-77963708D01*
X143261896Y-77931896D01*
X143388860Y-77777190D01*
X143459295Y-77645415D01*
X143483202Y-77600688D01*
X143541298Y-77409171D01*
X143560915Y-77210000D01*
X143556000Y-77160098D01*
X143556000Y-76834107D01*
X143693475Y-76696632D01*
X143855990Y-76453411D01*
X143967932Y-76183158D01*
X144025000Y-75896260D01*
X144025000Y-75603740D01*
X143967932Y-75316842D01*
X143855990Y-75046589D01*
X143693475Y-74803368D01*
X143486632Y-74596525D01*
X143243411Y-74434010D01*
X142973158Y-74322068D01*
X142686260Y-74265000D01*
X142393740Y-74265000D01*
X142106842Y-74322068D01*
X141836589Y-74434010D01*
X141593368Y-74596525D01*
X141461513Y-74728380D01*
X141439502Y-74655820D01*
X141380537Y-74545506D01*
X141301185Y-74448815D01*
X141204494Y-74369463D01*
X141094180Y-74310498D01*
X140974482Y-74274188D01*
X140850000Y-74261928D01*
X139150000Y-74261928D01*
X139025518Y-74274188D01*
X138905820Y-74310498D01*
X138795506Y-74369463D01*
X138698815Y-74448815D01*
X138619463Y-74545506D01*
X138560498Y-74655820D01*
X138524188Y-74775518D01*
X138511928Y-74900000D01*
X138511928Y-76600000D01*
X138524188Y-76724482D01*
X138560498Y-76844180D01*
X138619463Y-76954494D01*
X138698815Y-77051185D01*
X138795506Y-77130537D01*
X138905820Y-77189502D01*
X139025518Y-77225812D01*
X139150000Y-77238072D01*
X140850000Y-77238072D01*
X140974482Y-77225812D01*
X141094180Y-77189502D01*
X141157507Y-77155653D01*
X140579160Y-77734000D01*
X129420841Y-77734000D01*
X128596000Y-76909160D01*
X128596000Y-76834107D01*
X128733475Y-76696632D01*
X128895990Y-76453411D01*
X129007932Y-76183158D01*
X129065000Y-75896260D01*
X129065000Y-75603740D01*
X129007932Y-75316842D01*
X128895990Y-75046589D01*
X128798043Y-74900000D01*
X132261928Y-74900000D01*
X132261928Y-76600000D01*
X132274188Y-76724482D01*
X132310498Y-76844180D01*
X132369463Y-76954494D01*
X132448815Y-77051185D01*
X132545506Y-77130537D01*
X132655820Y-77189502D01*
X132775518Y-77225812D01*
X132900000Y-77238072D01*
X134600000Y-77238072D01*
X134724482Y-77225812D01*
X134844180Y-77189502D01*
X134954494Y-77130537D01*
X135051185Y-77051185D01*
X135130537Y-76954494D01*
X135189502Y-76844180D01*
X135211513Y-76771620D01*
X135343368Y-76903475D01*
X135586589Y-77065990D01*
X135856842Y-77177932D01*
X136143740Y-77235000D01*
X136436260Y-77235000D01*
X136723158Y-77177932D01*
X136993411Y-77065990D01*
X137236632Y-76903475D01*
X137443475Y-76696632D01*
X137605990Y-76453411D01*
X137717932Y-76183158D01*
X137775000Y-75896260D01*
X137775000Y-75603740D01*
X137717932Y-75316842D01*
X137605990Y-75046589D01*
X137443475Y-74803368D01*
X137236632Y-74596525D01*
X136993411Y-74434010D01*
X136723158Y-74322068D01*
X136436260Y-74265000D01*
X136143740Y-74265000D01*
X135856842Y-74322068D01*
X135586589Y-74434010D01*
X135343368Y-74596525D01*
X135211513Y-74728380D01*
X135189502Y-74655820D01*
X135130537Y-74545506D01*
X135051185Y-74448815D01*
X134954494Y-74369463D01*
X134844180Y-74310498D01*
X134724482Y-74274188D01*
X134600000Y-74261928D01*
X132900000Y-74261928D01*
X132775518Y-74274188D01*
X132655820Y-74310498D01*
X132545506Y-74369463D01*
X132448815Y-74448815D01*
X132369463Y-74545506D01*
X132310498Y-74655820D01*
X132274188Y-74775518D01*
X132261928Y-74900000D01*
X128798043Y-74900000D01*
X128733475Y-74803368D01*
X128526632Y-74596525D01*
X128283411Y-74434010D01*
X128013158Y-74322068D01*
X127726260Y-74265000D01*
X127433740Y-74265000D01*
X127146842Y-74322068D01*
X126876589Y-74434010D01*
X126633368Y-74596525D01*
X126426525Y-74803368D01*
X126310000Y-74977760D01*
X126193475Y-74803368D01*
X125986632Y-74596525D01*
X125743411Y-74434010D01*
X125473158Y-74322068D01*
X125186260Y-74265000D01*
X124893740Y-74265000D01*
X124606842Y-74322068D01*
X124336589Y-74434010D01*
X124093368Y-74596525D01*
X123961513Y-74728380D01*
X123939502Y-74655820D01*
X123880537Y-74545506D01*
X123801185Y-74448815D01*
X123704494Y-74369463D01*
X123594180Y-74310498D01*
X123474482Y-74274188D01*
X123350000Y-74261928D01*
X121650000Y-74261928D01*
X121525518Y-74274188D01*
X121405820Y-74310498D01*
X121295506Y-74369463D01*
X121198815Y-74448815D01*
X121119463Y-74545506D01*
X121060498Y-74655820D01*
X121024188Y-74775518D01*
X121011928Y-74900000D01*
X121011928Y-76600000D01*
X121024188Y-76724482D01*
X121060498Y-76844180D01*
X121103000Y-76923695D01*
X121103001Y-78055366D01*
X121096241Y-78124000D01*
X121123214Y-78397859D01*
X121181569Y-78590226D01*
X121203097Y-78661195D01*
X121332818Y-78903887D01*
X121507393Y-79116608D01*
X121560704Y-79160359D01*
X126651641Y-84251297D01*
X126695392Y-84304608D01*
X126908113Y-84479183D01*
X127150805Y-84608904D01*
X127369159Y-84675141D01*
X127414140Y-84688786D01*
X127688000Y-84715759D01*
X127756625Y-84709000D01*
X129483345Y-84709000D01*
X130302001Y-85527656D01*
X130302000Y-86482373D01*
X130295241Y-86551000D01*
X130302000Y-86619627D01*
X130302000Y-87017624D01*
X130302001Y-87017634D01*
X130302000Y-90130375D01*
X130295241Y-90199000D01*
X130317429Y-90424273D01*
X130322214Y-90472859D01*
X130402096Y-90736194D01*
X130531817Y-90978886D01*
X130706392Y-91191607D01*
X130759704Y-91235359D01*
X132353001Y-92828657D01*
X132353000Y-95921343D01*
X127935704Y-100338641D01*
X127882393Y-100382392D01*
X127707818Y-100595113D01*
X127619496Y-100760353D01*
X127578097Y-100837805D01*
X127498214Y-101101141D01*
X127471241Y-101375000D01*
X127478001Y-101443635D01*
X127478000Y-111046344D01*
X125421345Y-113103000D01*
X122568625Y-113103000D01*
X122500000Y-113096241D01*
X122499999Y-113096241D01*
X122431374Y-113103000D01*
X119068625Y-113103000D01*
X119060293Y-113102179D01*
X119480507Y-112681966D01*
X119511518Y-112656516D01*
X119613089Y-112532751D01*
X119688563Y-112391549D01*
X119735040Y-112238336D01*
X119746801Y-112118922D01*
X119746801Y-112118920D01*
X119750733Y-112079000D01*
X119746801Y-112039079D01*
X119746801Y-99705011D01*
X119851206Y-99548757D01*
X119929227Y-99360399D01*
X119969001Y-99160440D01*
X119969001Y-98956562D01*
X119929227Y-98756603D01*
X119851206Y-98568245D01*
X119737938Y-98398727D01*
X119593775Y-98254564D01*
X119424257Y-98141296D01*
X119235899Y-98063275D01*
X119035940Y-98023501D01*
X118832062Y-98023501D01*
X118632103Y-98063275D01*
X118443745Y-98141296D01*
X118274227Y-98254564D01*
X118130064Y-98398727D01*
X118016796Y-98568245D01*
X117938775Y-98756603D01*
X117899001Y-98956562D01*
X117899001Y-99160440D01*
X117938775Y-99360399D01*
X118016796Y-99548757D01*
X118072671Y-99632380D01*
X117967398Y-99588774D01*
X117767439Y-99549000D01*
X117563561Y-99549000D01*
X117363602Y-99588774D01*
X117175244Y-99666795D01*
X117005726Y-99780063D01*
X116861563Y-99924226D01*
X116748295Y-100093744D01*
X116670274Y-100282102D01*
X116630500Y-100482061D01*
X116630500Y-100685939D01*
X116670274Y-100885898D01*
X116748295Y-101074256D01*
X116852700Y-101230510D01*
X116852701Y-110069068D01*
X116852700Y-110069078D01*
X116852701Y-111402568D01*
X116852700Y-111402578D01*
X116852700Y-111740828D01*
X111388416Y-117205112D01*
X111204102Y-117241774D01*
X111015744Y-117319795D01*
X110846226Y-117433063D01*
X110702063Y-117577226D01*
X110588795Y-117746744D01*
X110510774Y-117935102D01*
X110471000Y-118135061D01*
X110471000Y-118338939D01*
X110510774Y-118538898D01*
X110588795Y-118727256D01*
X110702063Y-118896774D01*
X110834408Y-119029119D01*
X110562916Y-119300612D01*
X110378602Y-119337274D01*
X110190244Y-119415295D01*
X110020726Y-119528563D01*
X109876563Y-119672726D01*
X109763295Y-119842244D01*
X109685274Y-120030602D01*
X109645500Y-120230561D01*
X109645500Y-120434439D01*
X109685274Y-120634398D01*
X109763295Y-120822756D01*
X109876563Y-120992274D01*
X110020726Y-121136437D01*
X110190244Y-121249705D01*
X110378602Y-121327726D01*
X110578561Y-121367500D01*
X110782439Y-121367500D01*
X110982398Y-121327726D01*
X111170756Y-121249705D01*
X111340274Y-121136437D01*
X111484437Y-120992274D01*
X111597705Y-120822756D01*
X111675726Y-120634398D01*
X111712388Y-120450084D01*
X117602179Y-114560293D01*
X117603000Y-114568624D01*
X117603001Y-117421344D01*
X117560707Y-117463638D01*
X117560696Y-117463647D01*
X108685705Y-126338640D01*
X108632392Y-126382393D01*
X108588646Y-126435698D01*
X106560698Y-128463646D01*
X106507393Y-128507393D01*
X106404809Y-128632393D01*
X106332818Y-128720114D01*
X106203097Y-128962805D01*
X106123214Y-129226141D01*
X106096241Y-129500000D01*
X106123214Y-129773859D01*
X106203097Y-130037195D01*
X106332818Y-130279886D01*
X106507393Y-130492607D01*
X106560698Y-130536353D01*
X106963636Y-130939291D01*
X107007392Y-130992608D01*
X107220113Y-131167183D01*
X107462805Y-131296904D01*
X107726140Y-131376786D01*
X108000000Y-131403759D01*
X108068625Y-131397000D01*
X109181375Y-131397000D01*
X109250000Y-131403759D01*
X109318625Y-131397000D01*
X110681374Y-131397000D01*
X110749999Y-131403759D01*
X110818624Y-131397000D01*
X114568625Y-131397000D01*
X114773860Y-131376786D01*
X115037195Y-131296904D01*
X115279887Y-131167183D01*
X115492608Y-130992608D01*
X115667183Y-130779887D01*
X115796904Y-130537195D01*
X115876786Y-130273860D01*
X115903759Y-130000000D01*
X115876786Y-129726140D01*
X115796904Y-129462805D01*
X115667183Y-129220113D01*
X115492608Y-129007392D01*
X115279887Y-128832817D01*
X115037195Y-128703096D01*
X114773860Y-128623214D01*
X114568625Y-128603000D01*
X111328656Y-128603000D01*
X111022000Y-128296344D01*
X111022000Y-127953655D01*
X114840656Y-124135000D01*
X122236974Y-124135000D01*
X123353000Y-125251026D01*
X123353000Y-128431375D01*
X123346241Y-128500000D01*
X123370394Y-128745226D01*
X123373214Y-128773859D01*
X123422763Y-128937200D01*
X120336673Y-128937200D01*
X119031888Y-127632416D01*
X118995226Y-127448102D01*
X118917205Y-127259744D01*
X118803937Y-127090226D01*
X118659774Y-126946063D01*
X118490256Y-126832795D01*
X118301898Y-126754774D01*
X118101939Y-126715000D01*
X117898061Y-126715000D01*
X117698102Y-126754774D01*
X117509744Y-126832795D01*
X117340226Y-126946063D01*
X117196063Y-127090226D01*
X117082795Y-127259744D01*
X117004774Y-127448102D01*
X116965000Y-127648061D01*
X116965000Y-127751413D01*
X116948102Y-127754774D01*
X116759744Y-127832795D01*
X116590226Y-127946063D01*
X116446063Y-128090226D01*
X116332795Y-128259744D01*
X116254774Y-128448102D01*
X116215000Y-128648061D01*
X116215000Y-128851939D01*
X116254774Y-129051898D01*
X116332795Y-129240256D01*
X116446063Y-129409774D01*
X116590226Y-129553937D01*
X116759744Y-129667205D01*
X116948102Y-129745226D01*
X117132416Y-129781888D01*
X118647033Y-131296506D01*
X118672483Y-131327517D01*
X118796248Y-131429088D01*
X118937450Y-131504562D01*
X119090663Y-131551039D01*
X119210077Y-131562800D01*
X119210079Y-131562800D01*
X119249999Y-131566732D01*
X119289920Y-131562800D01*
X129353490Y-131562800D01*
X129509744Y-131667205D01*
X129698102Y-131745226D01*
X129898061Y-131785000D01*
X130101939Y-131785000D01*
X130301898Y-131745226D01*
X130490256Y-131667205D01*
X130659774Y-131553937D01*
X130803937Y-131409774D01*
X130917205Y-131240256D01*
X130995226Y-131051898D01*
X131035000Y-130851939D01*
X131035000Y-130648061D01*
X130995226Y-130448102D01*
X130917205Y-130259744D01*
X130803937Y-130090226D01*
X130713711Y-130000000D01*
X130803937Y-129909774D01*
X130917205Y-129740256D01*
X130995226Y-129551898D01*
X131035000Y-129351939D01*
X131035000Y-129148061D01*
X130995226Y-128948102D01*
X130917205Y-128759744D01*
X130803937Y-128590226D01*
X130659774Y-128446063D01*
X130490256Y-128332795D01*
X130301898Y-128254774D01*
X130101939Y-128215000D01*
X129898061Y-128215000D01*
X129698102Y-128254774D01*
X129509744Y-128332795D01*
X129340226Y-128446063D01*
X129196063Y-128590226D01*
X129082795Y-128759744D01*
X129009290Y-128937200D01*
X126288455Y-128937200D01*
X129509113Y-125716543D01*
X129542444Y-125701369D01*
X129685974Y-125611166D01*
X129788497Y-125525690D01*
X129849960Y-125467048D01*
X131586670Y-123572455D01*
X131636019Y-123511445D01*
X131707514Y-123410937D01*
X131781876Y-123273065D01*
X131826591Y-123158112D01*
X131864939Y-123006229D01*
X131880152Y-122883828D01*
X131885000Y-122805508D01*
X131885000Y-107503540D01*
X136322875Y-102832093D01*
X136374422Y-102770451D01*
X136449144Y-102668640D01*
X136526953Y-102528389D01*
X136573782Y-102411103D01*
X136613967Y-102255834D01*
X136629916Y-102130556D01*
X136635000Y-102050362D01*
X136635000Y-86840656D01*
X137328656Y-86147000D01*
X139681375Y-86147000D01*
X139750000Y-86153759D01*
X139818625Y-86147000D01*
X140421344Y-86147000D01*
X141103001Y-86828657D01*
X141103000Y-89068624D01*
X141103001Y-89068634D01*
X141103000Y-109181375D01*
X141096241Y-109250000D01*
X141103000Y-109318624D01*
X141103001Y-109318634D01*
X141103000Y-113921344D01*
X140921345Y-114103000D01*
X140591872Y-114103000D01*
X140667205Y-113990256D01*
X140745226Y-113801898D01*
X140785000Y-113601939D01*
X140785000Y-113398061D01*
X140745226Y-113198102D01*
X140667205Y-113009744D01*
X140553937Y-112840226D01*
X140409774Y-112696063D01*
X140240256Y-112582795D01*
X140051898Y-112504774D01*
X140027897Y-112500000D01*
X140051898Y-112495226D01*
X140240256Y-112417205D01*
X140409774Y-112303937D01*
X140553937Y-112159774D01*
X140667205Y-111990256D01*
X140745226Y-111801898D01*
X140785000Y-111601939D01*
X140785000Y-111398061D01*
X140745226Y-111198102D01*
X140667205Y-111009744D01*
X140553937Y-110840226D01*
X140409774Y-110696063D01*
X140240256Y-110582795D01*
X140051898Y-110504774D01*
X140027897Y-110500000D01*
X140051898Y-110495226D01*
X140240256Y-110417205D01*
X140409774Y-110303937D01*
X140553937Y-110159774D01*
X140667205Y-109990256D01*
X140745226Y-109801898D01*
X140785000Y-109601939D01*
X140785000Y-109398061D01*
X140745226Y-109198102D01*
X140667205Y-109009744D01*
X140553937Y-108840226D01*
X140409774Y-108696063D01*
X140240256Y-108582795D01*
X140051898Y-108504774D01*
X140027897Y-108500000D01*
X140051898Y-108495226D01*
X140240256Y-108417205D01*
X140409774Y-108303937D01*
X140553937Y-108159774D01*
X140667205Y-107990256D01*
X140745226Y-107801898D01*
X140785000Y-107601939D01*
X140785000Y-107398061D01*
X140745226Y-107198102D01*
X140667205Y-107009744D01*
X140553937Y-106840226D01*
X140409774Y-106696063D01*
X140240256Y-106582795D01*
X140051898Y-106504774D01*
X140027897Y-106500000D01*
X140051898Y-106495226D01*
X140240256Y-106417205D01*
X140409774Y-106303937D01*
X140553937Y-106159774D01*
X140667205Y-105990256D01*
X140745226Y-105801898D01*
X140785000Y-105601939D01*
X140785000Y-105398061D01*
X140745226Y-105198102D01*
X140667205Y-105009744D01*
X140553937Y-104840226D01*
X140409774Y-104696063D01*
X140240256Y-104582795D01*
X140051898Y-104504774D01*
X140027897Y-104500000D01*
X140051898Y-104495226D01*
X140240256Y-104417205D01*
X140409774Y-104303937D01*
X140553937Y-104159774D01*
X140667205Y-103990256D01*
X140745226Y-103801898D01*
X140785000Y-103601939D01*
X140785000Y-103398061D01*
X140745226Y-103198102D01*
X140667205Y-103009744D01*
X140553937Y-102840226D01*
X140409774Y-102696063D01*
X140240256Y-102582795D01*
X140051898Y-102504774D01*
X139851939Y-102465000D01*
X139648061Y-102465000D01*
X139448102Y-102504774D01*
X139259744Y-102582795D01*
X139103490Y-102687200D01*
X139039920Y-102687200D01*
X138999999Y-102683268D01*
X138960079Y-102687200D01*
X138960077Y-102687200D01*
X138840663Y-102698961D01*
X138687450Y-102745438D01*
X138595432Y-102794623D01*
X138546247Y-102820912D01*
X138508037Y-102852271D01*
X138422483Y-102922483D01*
X138397028Y-102953500D01*
X133703500Y-107647028D01*
X133672483Y-107672483D01*
X133570912Y-107796249D01*
X133495438Y-107937451D01*
X133448961Y-108090664D01*
X133437200Y-108210077D01*
X133433268Y-108250000D01*
X133437200Y-108289920D01*
X133437201Y-141210070D01*
X133433268Y-141250000D01*
X133441423Y-141332795D01*
X133448962Y-141409337D01*
X133457520Y-141437549D01*
X133495438Y-141562549D01*
X133570912Y-141703751D01*
X133616864Y-141759744D01*
X133672484Y-141827517D01*
X133703494Y-141852966D01*
X137690527Y-145840000D01*
X98333509Y-145840000D01*
X98728839Y-145444670D01*
X99148533Y-144816554D01*
X99437623Y-144118628D01*
X99585000Y-143377715D01*
X99585000Y-142622285D01*
X99437623Y-141881372D01*
X99148533Y-141183446D01*
X98728839Y-140555330D01*
X98194670Y-140021161D01*
X97566554Y-139601467D01*
X96868628Y-139312377D01*
X96127715Y-139165000D01*
X95372285Y-139165000D01*
X94631372Y-139312377D01*
X93933446Y-139601467D01*
X93305330Y-140021161D01*
X92910000Y-140416491D01*
X92910000Y-138363589D01*
X103115000Y-138363589D01*
X103115000Y-138636411D01*
X103168225Y-138903989D01*
X103272629Y-139156043D01*
X103424201Y-139382886D01*
X103617114Y-139575799D01*
X103843957Y-139727371D01*
X104096011Y-139831775D01*
X104363589Y-139885000D01*
X104636411Y-139885000D01*
X104903989Y-139831775D01*
X105156043Y-139727371D01*
X105382886Y-139575799D01*
X105575799Y-139382886D01*
X105727371Y-139156043D01*
X105831775Y-138903989D01*
X105885000Y-138636411D01*
X105885000Y-138363589D01*
X107995000Y-138363589D01*
X107995000Y-138636411D01*
X108048225Y-138903989D01*
X108152629Y-139156043D01*
X108304201Y-139382886D01*
X108497114Y-139575799D01*
X108723957Y-139727371D01*
X108976011Y-139831775D01*
X109243589Y-139885000D01*
X109516411Y-139885000D01*
X109783989Y-139831775D01*
X110036043Y-139727371D01*
X110262886Y-139575799D01*
X110455799Y-139382886D01*
X110607371Y-139156043D01*
X110711775Y-138903989D01*
X110765000Y-138636411D01*
X110765000Y-138363589D01*
X110711775Y-138096011D01*
X110607371Y-137843957D01*
X110455799Y-137617114D01*
X110262886Y-137424201D01*
X110036043Y-137272629D01*
X109783989Y-137168225D01*
X109516411Y-137115000D01*
X109243589Y-137115000D01*
X108976011Y-137168225D01*
X108723957Y-137272629D01*
X108497114Y-137424201D01*
X108304201Y-137617114D01*
X108152629Y-137843957D01*
X108048225Y-138096011D01*
X107995000Y-138363589D01*
X105885000Y-138363589D01*
X105831775Y-138096011D01*
X105727371Y-137843957D01*
X105575799Y-137617114D01*
X105382886Y-137424201D01*
X105156043Y-137272629D01*
X104903989Y-137168225D01*
X104636411Y-137115000D01*
X104363589Y-137115000D01*
X104096011Y-137168225D01*
X103843957Y-137272629D01*
X103617114Y-137424201D01*
X103424201Y-137617114D01*
X103272629Y-137843957D01*
X103168225Y-138096011D01*
X103115000Y-138363589D01*
X92910000Y-138363589D01*
X92910000Y-135853740D01*
X117395000Y-135853740D01*
X117395000Y-136146260D01*
X117452068Y-136433158D01*
X117564010Y-136703411D01*
X117726525Y-136946632D01*
X117933368Y-137153475D01*
X118176589Y-137315990D01*
X118446842Y-137427932D01*
X118733740Y-137485000D01*
X119026260Y-137485000D01*
X119313158Y-137427932D01*
X119583411Y-137315990D01*
X119826632Y-137153475D01*
X120033475Y-136946632D01*
X120150000Y-136772240D01*
X120266525Y-136946632D01*
X120473368Y-137153475D01*
X120716589Y-137315990D01*
X120986842Y-137427932D01*
X121273740Y-137485000D01*
X121566260Y-137485000D01*
X121853158Y-137427932D01*
X122123411Y-137315990D01*
X122366632Y-137153475D01*
X122573475Y-136946632D01*
X122690000Y-136772240D01*
X122806525Y-136946632D01*
X123013368Y-137153475D01*
X123256589Y-137315990D01*
X123526842Y-137427932D01*
X123813740Y-137485000D01*
X124106260Y-137485000D01*
X124393158Y-137427932D01*
X124663411Y-137315990D01*
X124906632Y-137153475D01*
X125038487Y-137021620D01*
X125060498Y-137094180D01*
X125119463Y-137204494D01*
X125198815Y-137301185D01*
X125295506Y-137380537D01*
X125405820Y-137439502D01*
X125525518Y-137475812D01*
X125650000Y-137488072D01*
X127350000Y-137488072D01*
X127474482Y-137475812D01*
X127594180Y-137439502D01*
X127704494Y-137380537D01*
X127801185Y-137301185D01*
X127880537Y-137204494D01*
X127939502Y-137094180D01*
X127975812Y-136974482D01*
X127988072Y-136850000D01*
X127988072Y-135150000D01*
X127975812Y-135025518D01*
X127939502Y-134905820D01*
X127880537Y-134795506D01*
X127801185Y-134698815D01*
X127704494Y-134619463D01*
X127594180Y-134560498D01*
X127474482Y-134524188D01*
X127350000Y-134511928D01*
X125650000Y-134511928D01*
X125525518Y-134524188D01*
X125405820Y-134560498D01*
X125295506Y-134619463D01*
X125198815Y-134698815D01*
X125119463Y-134795506D01*
X125060498Y-134905820D01*
X125038487Y-134978380D01*
X124906632Y-134846525D01*
X124663411Y-134684010D01*
X124393158Y-134572068D01*
X124106260Y-134515000D01*
X123813740Y-134515000D01*
X123526842Y-134572068D01*
X123256589Y-134684010D01*
X123013368Y-134846525D01*
X122806525Y-135053368D01*
X122690000Y-135227760D01*
X122573475Y-135053368D01*
X122366632Y-134846525D01*
X122123411Y-134684010D01*
X121853158Y-134572068D01*
X121566260Y-134515000D01*
X121273740Y-134515000D01*
X120986842Y-134572068D01*
X120716589Y-134684010D01*
X120473368Y-134846525D01*
X120266525Y-135053368D01*
X120150000Y-135227760D01*
X120033475Y-135053368D01*
X119826632Y-134846525D01*
X119583411Y-134684010D01*
X119313158Y-134572068D01*
X119026260Y-134515000D01*
X118733740Y-134515000D01*
X118446842Y-134572068D01*
X118176589Y-134684010D01*
X117933368Y-134846525D01*
X117726525Y-135053368D01*
X117564010Y-135296589D01*
X117452068Y-135566842D01*
X117395000Y-135853740D01*
X92910000Y-135853740D01*
X92910000Y-125733740D01*
X101265000Y-125733740D01*
X101265000Y-126026260D01*
X101322068Y-126313158D01*
X101434010Y-126583411D01*
X101596525Y-126826632D01*
X101803368Y-127033475D01*
X101977760Y-127150000D01*
X101803368Y-127266525D01*
X101596525Y-127473368D01*
X101434010Y-127716589D01*
X101322068Y-127986842D01*
X101265000Y-128273740D01*
X101265000Y-128566260D01*
X101322068Y-128853158D01*
X101434010Y-129123411D01*
X101596525Y-129366632D01*
X101803368Y-129573475D01*
X101977760Y-129690000D01*
X101803368Y-129806525D01*
X101596525Y-130013368D01*
X101434010Y-130256589D01*
X101322068Y-130526842D01*
X101265000Y-130813740D01*
X101265000Y-131106260D01*
X101322068Y-131393158D01*
X101434010Y-131663411D01*
X101596525Y-131906632D01*
X101803368Y-132113475D01*
X102046589Y-132275990D01*
X102316842Y-132387932D01*
X102603740Y-132445000D01*
X102896260Y-132445000D01*
X103183158Y-132387932D01*
X103453411Y-132275990D01*
X103696632Y-132113475D01*
X103903475Y-131906632D01*
X104065990Y-131663411D01*
X104177932Y-131393158D01*
X104235000Y-131106260D01*
X104235000Y-130813740D01*
X104177932Y-130526842D01*
X104065990Y-130256589D01*
X103903475Y-130013368D01*
X103696632Y-129806525D01*
X103522240Y-129690000D01*
X103696632Y-129573475D01*
X103903475Y-129366632D01*
X104065990Y-129123411D01*
X104177932Y-128853158D01*
X104235000Y-128566260D01*
X104235000Y-128273740D01*
X104177932Y-127986842D01*
X104065990Y-127716589D01*
X103903475Y-127473368D01*
X103696632Y-127266525D01*
X103522240Y-127150000D01*
X103696632Y-127033475D01*
X103903475Y-126826632D01*
X104065990Y-126583411D01*
X104177932Y-126313158D01*
X104235000Y-126026260D01*
X104235000Y-125733740D01*
X104177932Y-125446842D01*
X104065990Y-125176589D01*
X103903475Y-124933368D01*
X103696632Y-124726525D01*
X103453411Y-124564010D01*
X103183158Y-124452068D01*
X102896260Y-124395000D01*
X102603740Y-124395000D01*
X102316842Y-124452068D01*
X102046589Y-124564010D01*
X101803368Y-124726525D01*
X101596525Y-124933368D01*
X101434010Y-125176589D01*
X101322068Y-125446842D01*
X101265000Y-125733740D01*
X92910000Y-125733740D01*
X92910000Y-121584042D01*
X95805000Y-121584042D01*
X95805000Y-121915958D01*
X95869754Y-122241496D01*
X95996772Y-122548147D01*
X96181175Y-122824125D01*
X96415875Y-123058825D01*
X96691853Y-123243228D01*
X96998504Y-123370246D01*
X97324042Y-123435000D01*
X97655958Y-123435000D01*
X97981496Y-123370246D01*
X98288147Y-123243228D01*
X98564125Y-123058825D01*
X98798825Y-122824125D01*
X98983228Y-122548147D01*
X99110246Y-122241496D01*
X99175000Y-121915958D01*
X99175000Y-121584042D01*
X99110246Y-121258504D01*
X98983228Y-120951853D01*
X98798825Y-120675875D01*
X98564125Y-120441175D01*
X98288147Y-120256772D01*
X97981496Y-120129754D01*
X97655958Y-120065000D01*
X97324042Y-120065000D01*
X96998504Y-120129754D01*
X96691853Y-120256772D01*
X96415875Y-120441175D01*
X96181175Y-120675875D01*
X95996772Y-120951853D01*
X95869754Y-121258504D01*
X95805000Y-121584042D01*
X92910000Y-121584042D01*
X92910000Y-115851278D01*
X93490000Y-115851278D01*
X93490000Y-116148722D01*
X93548029Y-116440451D01*
X93661856Y-116715253D01*
X93827107Y-116962569D01*
X94037431Y-117172893D01*
X94284747Y-117338144D01*
X94559549Y-117451971D01*
X94851278Y-117510000D01*
X95148722Y-117510000D01*
X95440451Y-117451971D01*
X95715253Y-117338144D01*
X95962569Y-117172893D01*
X96172893Y-116962569D01*
X96338144Y-116715253D01*
X96451971Y-116440451D01*
X96510000Y-116148722D01*
X96510000Y-116111717D01*
X96691853Y-116233228D01*
X96998504Y-116360246D01*
X97324042Y-116425000D01*
X97655958Y-116425000D01*
X97981496Y-116360246D01*
X98288147Y-116233228D01*
X98564125Y-116048825D01*
X98798825Y-115814125D01*
X98983228Y-115538147D01*
X99110246Y-115231496D01*
X99175000Y-114905958D01*
X99175000Y-114574042D01*
X99110246Y-114248504D01*
X98983228Y-113941853D01*
X98798825Y-113665875D01*
X98564125Y-113431175D01*
X98288147Y-113246772D01*
X97981496Y-113119754D01*
X97655958Y-113055000D01*
X97324042Y-113055000D01*
X96998504Y-113119754D01*
X96691853Y-113246772D01*
X96415875Y-113431175D01*
X96181175Y-113665875D01*
X95996772Y-113941853D01*
X95869754Y-114248504D01*
X95805000Y-114574042D01*
X95805000Y-114721823D01*
X95715253Y-114661856D01*
X95440451Y-114548029D01*
X95148722Y-114490000D01*
X94851278Y-114490000D01*
X94559549Y-114548029D01*
X94284747Y-114661856D01*
X94037431Y-114827107D01*
X93827107Y-115037431D01*
X93661856Y-115284747D01*
X93548029Y-115559549D01*
X93490000Y-115851278D01*
X92910000Y-115851278D01*
X92910000Y-113032279D01*
X92967192Y-112448990D01*
X93127216Y-111918964D01*
X93387140Y-111430121D01*
X93737065Y-111001069D01*
X94163664Y-110648156D01*
X94650681Y-110384827D01*
X95179578Y-110221106D01*
X95760960Y-110160000D01*
X100032419Y-110160000D01*
X100062408Y-110157046D01*
X100084252Y-110157199D01*
X100093423Y-110156299D01*
X100772762Y-110084897D01*
X100831325Y-110072876D01*
X100890118Y-110061661D01*
X100898940Y-110058997D01*
X101551472Y-109857005D01*
X101606615Y-109833825D01*
X101662080Y-109811416D01*
X101670217Y-109807089D01*
X102271087Y-109482200D01*
X102320671Y-109448755D01*
X102370734Y-109415995D01*
X102377875Y-109410171D01*
X102904198Y-108974759D01*
X102946358Y-108932303D01*
X102989088Y-108890459D01*
X102994962Y-108883359D01*
X103426688Y-108354009D01*
X103459780Y-108304200D01*
X103493587Y-108254828D01*
X103497969Y-108246721D01*
X103818656Y-107643598D01*
X103841440Y-107588318D01*
X103865017Y-107533310D01*
X103867742Y-107524507D01*
X104065174Y-106870581D01*
X104076797Y-106811880D01*
X104089230Y-106753390D01*
X104090193Y-106744225D01*
X104156850Y-106064405D01*
X104156850Y-106064402D01*
X104160000Y-106032419D01*
X104160000Y-84217581D01*
X104157046Y-84187592D01*
X104157199Y-84165748D01*
X104156299Y-84156577D01*
X104084897Y-83477238D01*
X104072876Y-83418675D01*
X104061661Y-83359882D01*
X104058997Y-83351060D01*
X103857005Y-82698528D01*
X103833820Y-82643373D01*
X103811416Y-82587920D01*
X103807089Y-82579784D01*
X103807089Y-82579783D01*
X103807086Y-82579779D01*
X103482200Y-81978913D01*
X103448755Y-81929329D01*
X103415995Y-81879266D01*
X103410171Y-81872125D01*
X102974759Y-81345802D01*
X102932303Y-81303642D01*
X102890459Y-81260912D01*
X102883358Y-81255038D01*
X102354009Y-80823312D01*
X102304182Y-80790208D01*
X102254827Y-80756413D01*
X102246724Y-80752032D01*
X102246716Y-80752028D01*
X101643597Y-80431344D01*
X101588291Y-80408548D01*
X101533310Y-80384983D01*
X101524507Y-80382258D01*
X100870581Y-80184826D01*
X100811878Y-80173203D01*
X100753389Y-80160770D01*
X100744225Y-80159807D01*
X100064405Y-80093150D01*
X100064402Y-80093150D01*
X100032419Y-80090000D01*
X95782279Y-80090000D01*
X95198990Y-80032808D01*
X94668964Y-79872783D01*
X94180120Y-79612860D01*
X93751069Y-79262935D01*
X93398155Y-78836335D01*
X93134827Y-78349320D01*
X92971106Y-77820422D01*
X92910000Y-77239040D01*
X92910000Y-76898061D01*
X99715000Y-76898061D01*
X99715000Y-77101939D01*
X99754774Y-77301898D01*
X99832795Y-77490256D01*
X99946063Y-77659774D01*
X100090226Y-77803937D01*
X100259744Y-77917205D01*
X100448102Y-77995226D01*
X100497895Y-78005130D01*
X104861001Y-82368237D01*
X104861000Y-90206340D01*
X104856700Y-90250000D01*
X104861000Y-90293660D01*
X104861000Y-90293666D01*
X104873864Y-90424273D01*
X104924697Y-90591850D01*
X105007247Y-90746290D01*
X105118341Y-90881659D01*
X105152264Y-90909499D01*
X106494870Y-92252106D01*
X106504774Y-92301898D01*
X106582795Y-92490256D01*
X106696063Y-92659774D01*
X106840226Y-92803937D01*
X107009744Y-92917205D01*
X107198102Y-92995226D01*
X107398061Y-93035000D01*
X107601939Y-93035000D01*
X107801898Y-92995226D01*
X107865000Y-92969088D01*
X107865000Y-106542893D01*
X107870432Y-106625776D01*
X107887469Y-106755186D01*
X107930373Y-106915307D01*
X107980323Y-107035897D01*
X108063208Y-107179457D01*
X108142668Y-107283011D01*
X108197434Y-107345460D01*
X110865000Y-110013026D01*
X110865000Y-112250000D01*
X110870432Y-112332883D01*
X110887469Y-112462293D01*
X110930373Y-112622414D01*
X110980323Y-112743004D01*
X111063210Y-112886567D01*
X111142670Y-112990120D01*
X111259880Y-113107330D01*
X111363433Y-113186790D01*
X111506996Y-113269677D01*
X111627586Y-113319627D01*
X111787707Y-113362531D01*
X111917117Y-113379568D01*
X112000000Y-113385000D01*
X113000000Y-113385000D01*
X113082883Y-113379568D01*
X113212293Y-113362531D01*
X113372414Y-113319627D01*
X113493004Y-113269677D01*
X113636567Y-113186790D01*
X113740120Y-113107330D01*
X113857330Y-112990120D01*
X113936790Y-112886567D01*
X114019677Y-112743004D01*
X114069627Y-112622414D01*
X114112531Y-112462293D01*
X114129568Y-112332883D01*
X114135000Y-112250000D01*
X114135000Y-109457107D01*
X114129568Y-109374224D01*
X114112531Y-109244814D01*
X114069627Y-109084693D01*
X114019677Y-108964103D01*
X113936792Y-108820543D01*
X113857332Y-108716989D01*
X113802566Y-108654540D01*
X110635000Y-105486974D01*
X110635000Y-90898061D01*
X112215000Y-90898061D01*
X112215000Y-91101939D01*
X112254774Y-91301898D01*
X112332795Y-91490256D01*
X112446063Y-91659774D01*
X112590226Y-91803937D01*
X112759744Y-91917205D01*
X112948102Y-91995226D01*
X113148061Y-92035000D01*
X113351939Y-92035000D01*
X113551898Y-91995226D01*
X113740256Y-91917205D01*
X113909774Y-91803937D01*
X113953711Y-91760000D01*
X115332689Y-91760000D01*
X115254774Y-91948102D01*
X115215000Y-92148061D01*
X115215000Y-92351939D01*
X115254774Y-92551898D01*
X115332795Y-92740256D01*
X115446063Y-92909774D01*
X115590226Y-93053937D01*
X115759744Y-93167205D01*
X115948102Y-93245226D01*
X116148061Y-93285000D01*
X116210199Y-93285000D01*
X119186205Y-96261008D01*
X119209999Y-96290001D01*
X119238992Y-96313795D01*
X119238996Y-96313799D01*
X119309685Y-96371811D01*
X119325724Y-96384974D01*
X119457753Y-96455546D01*
X119601014Y-96499003D01*
X119712667Y-96510000D01*
X119712676Y-96510000D01*
X119749999Y-96513676D01*
X119787322Y-96510000D01*
X129546289Y-96510000D01*
X129590226Y-96553937D01*
X129759744Y-96667205D01*
X129948102Y-96745226D01*
X130148061Y-96785000D01*
X130351939Y-96785000D01*
X130551898Y-96745226D01*
X130740256Y-96667205D01*
X130909774Y-96553937D01*
X131053937Y-96409774D01*
X131167205Y-96240256D01*
X131245226Y-96051898D01*
X131285000Y-95851939D01*
X131285000Y-95648061D01*
X131245226Y-95448102D01*
X131167205Y-95259744D01*
X131053937Y-95090226D01*
X130927972Y-94964261D01*
X130995226Y-94801898D01*
X131035000Y-94601939D01*
X131035000Y-94398061D01*
X130995226Y-94198102D01*
X130917205Y-94009744D01*
X130803937Y-93840226D01*
X130659774Y-93696063D01*
X130490256Y-93582795D01*
X130301898Y-93504774D01*
X130101939Y-93465000D01*
X129898061Y-93465000D01*
X129698102Y-93504774D01*
X129521084Y-93578098D01*
X129495226Y-93448102D01*
X129417205Y-93259744D01*
X129303937Y-93090226D01*
X129159774Y-92946063D01*
X128990256Y-92832795D01*
X128801898Y-92754774D01*
X128601939Y-92715000D01*
X128398061Y-92715000D01*
X128198102Y-92754774D01*
X128009744Y-92832795D01*
X127840226Y-92946063D01*
X127796289Y-92990000D01*
X121064802Y-92990000D01*
X117563804Y-89489003D01*
X117540001Y-89459999D01*
X117424276Y-89365026D01*
X117292247Y-89294454D01*
X117148986Y-89250997D01*
X117037333Y-89240000D01*
X117037322Y-89240000D01*
X117000000Y-89236324D01*
X116962678Y-89240000D01*
X114953711Y-89240000D01*
X114909774Y-89196063D01*
X114740256Y-89082795D01*
X114551898Y-89004774D01*
X114351939Y-88965000D01*
X114148061Y-88965000D01*
X113948102Y-89004774D01*
X113759744Y-89082795D01*
X113590226Y-89196063D01*
X113446063Y-89340226D01*
X113332795Y-89509744D01*
X113254774Y-89698102D01*
X113215000Y-89898061D01*
X113215000Y-89965000D01*
X113148061Y-89965000D01*
X112948102Y-90004774D01*
X112759744Y-90082795D01*
X112590226Y-90196063D01*
X112446063Y-90340226D01*
X112332795Y-90509744D01*
X112254774Y-90698102D01*
X112215000Y-90898061D01*
X110635000Y-90898061D01*
X110635000Y-80957107D01*
X110629568Y-80874224D01*
X110612531Y-80744814D01*
X110569627Y-80584693D01*
X110519677Y-80464103D01*
X110436792Y-80320543D01*
X110357332Y-80216989D01*
X110302566Y-80154540D01*
X107135000Y-76986974D01*
X107135000Y-75603740D01*
X109805000Y-75603740D01*
X109805000Y-75896260D01*
X109862068Y-76183158D01*
X109974010Y-76453411D01*
X110136525Y-76696632D01*
X110343368Y-76903475D01*
X110586589Y-77065990D01*
X110856842Y-77177932D01*
X111143740Y-77235000D01*
X111436260Y-77235000D01*
X111723158Y-77177932D01*
X111993411Y-77065990D01*
X112236632Y-76903475D01*
X112443475Y-76696632D01*
X112560000Y-76522240D01*
X112676525Y-76696632D01*
X112883368Y-76903475D01*
X113126589Y-77065990D01*
X113396842Y-77177932D01*
X113683740Y-77235000D01*
X113976260Y-77235000D01*
X114263158Y-77177932D01*
X114533411Y-77065990D01*
X114776632Y-76903475D01*
X114983475Y-76696632D01*
X115100000Y-76522240D01*
X115216525Y-76696632D01*
X115423368Y-76903475D01*
X115666589Y-77065990D01*
X115936842Y-77177932D01*
X116223740Y-77235000D01*
X116516260Y-77235000D01*
X116803158Y-77177932D01*
X117073411Y-77065990D01*
X117316632Y-76903475D01*
X117523475Y-76696632D01*
X117640000Y-76522240D01*
X117756525Y-76696632D01*
X117963368Y-76903475D01*
X118206589Y-77065990D01*
X118476842Y-77177932D01*
X118763740Y-77235000D01*
X119056260Y-77235000D01*
X119343158Y-77177932D01*
X119613411Y-77065990D01*
X119856632Y-76903475D01*
X120063475Y-76696632D01*
X120225990Y-76453411D01*
X120337932Y-76183158D01*
X120395000Y-75896260D01*
X120395000Y-75603740D01*
X120337932Y-75316842D01*
X120225990Y-75046589D01*
X120063475Y-74803368D01*
X119856632Y-74596525D01*
X119613411Y-74434010D01*
X119343158Y-74322068D01*
X119056260Y-74265000D01*
X118763740Y-74265000D01*
X118476842Y-74322068D01*
X118206589Y-74434010D01*
X117963368Y-74596525D01*
X117756525Y-74803368D01*
X117640000Y-74977760D01*
X117523475Y-74803368D01*
X117316632Y-74596525D01*
X117073411Y-74434010D01*
X116803158Y-74322068D01*
X116516260Y-74265000D01*
X116223740Y-74265000D01*
X115936842Y-74322068D01*
X115666589Y-74434010D01*
X115423368Y-74596525D01*
X115216525Y-74803368D01*
X115100000Y-74977760D01*
X114983475Y-74803368D01*
X114776632Y-74596525D01*
X114533411Y-74434010D01*
X114263158Y-74322068D01*
X113976260Y-74265000D01*
X113683740Y-74265000D01*
X113396842Y-74322068D01*
X113126589Y-74434010D01*
X112883368Y-74596525D01*
X112676525Y-74803368D01*
X112560000Y-74977760D01*
X112443475Y-74803368D01*
X112236632Y-74596525D01*
X111993411Y-74434010D01*
X111723158Y-74322068D01*
X111436260Y-74265000D01*
X111143740Y-74265000D01*
X110856842Y-74322068D01*
X110586589Y-74434010D01*
X110343368Y-74596525D01*
X110136525Y-74803368D01*
X109974010Y-75046589D01*
X109862068Y-75316842D01*
X109805000Y-75603740D01*
X107135000Y-75603740D01*
X107135000Y-74013026D01*
X109013026Y-72135000D01*
X146236974Y-72135000D01*
X147365000Y-73263026D01*
X147365000Y-79250000D01*
X147370432Y-79332883D01*
X147387469Y-79462293D01*
X147430373Y-79622414D01*
X147480323Y-79743004D01*
X147563210Y-79886567D01*
X147642670Y-79990120D01*
X147759880Y-80107330D01*
X147863433Y-80186790D01*
X148006996Y-80269677D01*
X148127586Y-80319627D01*
X148287707Y-80362531D01*
X148417117Y-80379568D01*
X148500000Y-80385000D01*
X152500000Y-80385000D01*
X152582883Y-80379568D01*
X152712293Y-80362531D01*
X152872414Y-80319627D01*
X152993004Y-80269677D01*
X153136567Y-80186790D01*
X153240120Y-80107330D01*
X153357330Y-79990120D01*
X153436790Y-79886567D01*
X153519677Y-79743004D01*
X153569627Y-79622414D01*
X153612531Y-79462293D01*
X153629568Y-79332883D01*
X153635000Y-79250000D01*
X153635000Y-73957107D01*
X153629568Y-73874224D01*
X153612531Y-73744814D01*
X153569627Y-73584693D01*
X153519677Y-73464103D01*
X153436792Y-73320543D01*
X153357332Y-73216989D01*
X153302566Y-73154540D01*
X149345460Y-69197434D01*
X149283011Y-69142668D01*
X149179457Y-69063208D01*
X149035897Y-68980323D01*
X148915307Y-68930373D01*
X148755186Y-68887469D01*
X148625776Y-68870432D01*
X148542893Y-68865000D01*
X108457107Y-68865000D01*
X108374224Y-68870432D01*
X108244814Y-68887469D01*
X108084693Y-68930373D01*
X107964103Y-68980323D01*
X107820543Y-69063208D01*
X107716989Y-69142668D01*
X107654540Y-69197434D01*
X104447434Y-72404540D01*
X104392668Y-72466989D01*
X104313208Y-72570543D01*
X104230323Y-72714103D01*
X104180373Y-72834693D01*
X104137469Y-72994814D01*
X104120432Y-73124224D01*
X104115000Y-73207107D01*
X104115000Y-77792893D01*
X104120432Y-77875776D01*
X104137469Y-78005186D01*
X104180373Y-78165307D01*
X104230323Y-78285897D01*
X104313208Y-78429457D01*
X104392668Y-78533011D01*
X104447434Y-78595460D01*
X107865000Y-82013026D01*
X107865000Y-91030912D01*
X107801898Y-91004774D01*
X107752106Y-90994870D01*
X106639000Y-89881765D01*
X106639000Y-82043660D01*
X106643300Y-82000000D01*
X106639000Y-81956340D01*
X106639000Y-81956333D01*
X106626136Y-81825726D01*
X106605408Y-81757392D01*
X106591056Y-81710080D01*
X106575303Y-81658149D01*
X106492753Y-81503709D01*
X106381659Y-81368341D01*
X106347742Y-81340506D01*
X101755130Y-76747895D01*
X101745226Y-76698102D01*
X101667205Y-76509744D01*
X101553937Y-76340226D01*
X101409774Y-76196063D01*
X101240256Y-76082795D01*
X101051898Y-76004774D01*
X100851939Y-75965000D01*
X100648061Y-75965000D01*
X100448102Y-76004774D01*
X100259744Y-76082795D01*
X100090226Y-76196063D01*
X99946063Y-76340226D01*
X99832795Y-76509744D01*
X99754774Y-76698102D01*
X99715000Y-76898061D01*
X92910000Y-76898061D01*
X92910000Y-71333509D01*
X93252386Y-71675895D01*
X93880502Y-72095589D01*
X94578428Y-72384679D01*
X95319341Y-72532056D01*
X96074771Y-72532056D01*
X96815684Y-72384679D01*
X97513610Y-72095589D01*
X98141726Y-71675895D01*
X98675895Y-71141726D01*
X99095589Y-70513610D01*
X99384679Y-69815684D01*
X99532056Y-69074771D01*
X99532056Y-68319341D01*
X99384679Y-67578428D01*
X99095589Y-66880502D01*
X98675895Y-66252386D01*
X98333509Y-65910000D01*
X175416491Y-65910000D01*
X175021161Y-66305330D01*
%TA.AperFunction,Conductor*%
D26*
G36*
X175021161Y-66305330D02*
G01*
X174601467Y-66933446D01*
X174312377Y-67631372D01*
X174165000Y-68372285D01*
X174165000Y-69127715D01*
X174312377Y-69868628D01*
X174601467Y-70566554D01*
X175021161Y-71194670D01*
X175555330Y-71728839D01*
X176183446Y-72148533D01*
X176881372Y-72437623D01*
X177622285Y-72585000D01*
X178377715Y-72585000D01*
X179118628Y-72437623D01*
X179816554Y-72148533D01*
X180444670Y-71728839D01*
X180848666Y-71324843D01*
X181081268Y-140407759D01*
X180694670Y-140021161D01*
X180066554Y-139601467D01*
X179368628Y-139312377D01*
X178627715Y-139165000D01*
X177872285Y-139165000D01*
X177131372Y-139312377D01*
X177055788Y-139343685D01*
X180296507Y-136102966D01*
X180327517Y-136077517D01*
X180429088Y-135953752D01*
X180504562Y-135812550D01*
X180551039Y-135659337D01*
X180562800Y-135539923D01*
X180562800Y-135539921D01*
X180566732Y-135500001D01*
X180562800Y-135460080D01*
X180562800Y-93539920D01*
X180566732Y-93499999D01*
X180562571Y-93457753D01*
X180551039Y-93340663D01*
X180504562Y-93187450D01*
X180433198Y-93053937D01*
X180429088Y-93046247D01*
X180397201Y-93007393D01*
X180327517Y-92922483D01*
X180296500Y-92897028D01*
X174352972Y-86953500D01*
X174327517Y-86922483D01*
X174203752Y-86820912D01*
X174062550Y-86745438D01*
X173909337Y-86698961D01*
X173789923Y-86687200D01*
X173789920Y-86687200D01*
X173750000Y-86683268D01*
X173710080Y-86687200D01*
X172738072Y-86687200D01*
X172738072Y-86650000D01*
X172725812Y-86525518D01*
X172689502Y-86405820D01*
X172630537Y-86295506D01*
X172551185Y-86198815D01*
X172454494Y-86119463D01*
X172344180Y-86060498D01*
X172224482Y-86024188D01*
X172100000Y-86011928D01*
X170400000Y-86011928D01*
X170275518Y-86024188D01*
X170155820Y-86060498D01*
X170045506Y-86119463D01*
X169948815Y-86198815D01*
X169869463Y-86295506D01*
X169810498Y-86405820D01*
X169774188Y-86525518D01*
X169761928Y-86650000D01*
X169761928Y-88350000D01*
X169774188Y-88474482D01*
X169810498Y-88594180D01*
X169869463Y-88704494D01*
X169948815Y-88801185D01*
X170045506Y-88880537D01*
X170155820Y-88939502D01*
X170228380Y-88961513D01*
X170096525Y-89093368D01*
X169934010Y-89336589D01*
X169822068Y-89606842D01*
X169765000Y-89893740D01*
X169765000Y-90186260D01*
X169822068Y-90473158D01*
X169934010Y-90743411D01*
X170096525Y-90986632D01*
X170303368Y-91193475D01*
X170477760Y-91310000D01*
X170303368Y-91426525D01*
X170096525Y-91633368D01*
X169934010Y-91876589D01*
X169822068Y-92146842D01*
X169765000Y-92433740D01*
X169765000Y-92726260D01*
X169822068Y-93013158D01*
X169934010Y-93283411D01*
X170096525Y-93526632D01*
X170303368Y-93733475D01*
X170546589Y-93895990D01*
X170816842Y-94007932D01*
X171103740Y-94065000D01*
X171396260Y-94065000D01*
X171683158Y-94007932D01*
X171953411Y-93895990D01*
X172196632Y-93733475D01*
X172403475Y-93526632D01*
X172565990Y-93283411D01*
X172677932Y-93013158D01*
X172735000Y-92726260D01*
X172735000Y-92433740D01*
X172677932Y-92146842D01*
X172565990Y-91876589D01*
X172403475Y-91633368D01*
X172196632Y-91426525D01*
X172022240Y-91310000D01*
X172196632Y-91193475D01*
X172403475Y-90986632D01*
X172565990Y-90743411D01*
X172677932Y-90473158D01*
X172735000Y-90186260D01*
X172735000Y-89893740D01*
X172677932Y-89606842D01*
X172565990Y-89336589D01*
X172403475Y-89093368D01*
X172271620Y-88961513D01*
X172344180Y-88939502D01*
X172454494Y-88880537D01*
X172551185Y-88801185D01*
X172630537Y-88704494D01*
X172689502Y-88594180D01*
X172725812Y-88474482D01*
X172738072Y-88350000D01*
X172738072Y-88312800D01*
X173413328Y-88312800D01*
X178937201Y-93836673D01*
X178937201Y-100037728D01*
X174602971Y-95703499D01*
X174577517Y-95672483D01*
X174453752Y-95570912D01*
X174312550Y-95495438D01*
X174159337Y-95448961D01*
X174039923Y-95437200D01*
X174039920Y-95437200D01*
X174000000Y-95433268D01*
X173960080Y-95437200D01*
X172738072Y-95437200D01*
X172738072Y-95400000D01*
X172725812Y-95275518D01*
X172689502Y-95155820D01*
X172630537Y-95045506D01*
X172551185Y-94948815D01*
X172454494Y-94869463D01*
X172344180Y-94810498D01*
X172224482Y-94774188D01*
X172100000Y-94761928D01*
X170400000Y-94761928D01*
X170275518Y-94774188D01*
X170155820Y-94810498D01*
X170045506Y-94869463D01*
X169948815Y-94948815D01*
X169869463Y-95045506D01*
X169810498Y-95155820D01*
X169774188Y-95275518D01*
X169761928Y-95400000D01*
X169761928Y-97100000D01*
X169774188Y-97224482D01*
X169810498Y-97344180D01*
X169869463Y-97454494D01*
X169948815Y-97551185D01*
X170045506Y-97630537D01*
X170155820Y-97689502D01*
X170228380Y-97711513D01*
X170096525Y-97843368D01*
X169934010Y-98086589D01*
X169822068Y-98356842D01*
X169765000Y-98643740D01*
X169765000Y-98936260D01*
X169822068Y-99223158D01*
X169934010Y-99493411D01*
X170096525Y-99736632D01*
X170303368Y-99943475D01*
X170477760Y-100060000D01*
X170303368Y-100176525D01*
X170096525Y-100383368D01*
X169934010Y-100626589D01*
X169822068Y-100896842D01*
X169765000Y-101183740D01*
X169765000Y-101476260D01*
X169822068Y-101763158D01*
X169934010Y-102033411D01*
X170096525Y-102276632D01*
X170303368Y-102483475D01*
X170546589Y-102645990D01*
X170816842Y-102757932D01*
X171103740Y-102815000D01*
X171396260Y-102815000D01*
X171683158Y-102757932D01*
X171953411Y-102645990D01*
X172196632Y-102483475D01*
X172403475Y-102276632D01*
X172565990Y-102033411D01*
X172677932Y-101763158D01*
X172735000Y-101476260D01*
X172735000Y-101183740D01*
X172677932Y-100896842D01*
X172565990Y-100626589D01*
X172403475Y-100383368D01*
X172196632Y-100176525D01*
X172022240Y-100060000D01*
X172196632Y-99943475D01*
X172403475Y-99736632D01*
X172565990Y-99493411D01*
X172677932Y-99223158D01*
X172735000Y-98936260D01*
X172735000Y-98643740D01*
X172677932Y-98356842D01*
X172565990Y-98086589D01*
X172403475Y-97843368D01*
X172271620Y-97711513D01*
X172344180Y-97689502D01*
X172454494Y-97630537D01*
X172551185Y-97551185D01*
X172630537Y-97454494D01*
X172689502Y-97344180D01*
X172725812Y-97224482D01*
X172738072Y-97100000D01*
X172738072Y-97062800D01*
X173663328Y-97062800D01*
X178187201Y-101586674D01*
X178187201Y-108037728D01*
X174602971Y-104453499D01*
X174577517Y-104422483D01*
X174453752Y-104320912D01*
X174312550Y-104245438D01*
X174159337Y-104198961D01*
X174039923Y-104187200D01*
X174039920Y-104187200D01*
X174000000Y-104183268D01*
X173960080Y-104187200D01*
X172738072Y-104187200D01*
X172738072Y-104150000D01*
X172725812Y-104025518D01*
X172689502Y-103905820D01*
X172630537Y-103795506D01*
X172551185Y-103698815D01*
X172454494Y-103619463D01*
X172344180Y-103560498D01*
X172224482Y-103524188D01*
X172100000Y-103511928D01*
X170400000Y-103511928D01*
X170275518Y-103524188D01*
X170155820Y-103560498D01*
X170045506Y-103619463D01*
X169948815Y-103698815D01*
X169869463Y-103795506D01*
X169810498Y-103905820D01*
X169774188Y-104025518D01*
X169761928Y-104150000D01*
X169761928Y-105850000D01*
X169774188Y-105974482D01*
X169810498Y-106094180D01*
X169869463Y-106204494D01*
X169948815Y-106301185D01*
X170045506Y-106380537D01*
X170155820Y-106439502D01*
X170228380Y-106461513D01*
X170096525Y-106593368D01*
X169934010Y-106836589D01*
X169822068Y-107106842D01*
X169765000Y-107393740D01*
X169765000Y-107686260D01*
X169822068Y-107973158D01*
X169934010Y-108243411D01*
X170096525Y-108486632D01*
X170303368Y-108693475D01*
X170477760Y-108810000D01*
X170303368Y-108926525D01*
X170096525Y-109133368D01*
X169934010Y-109376589D01*
X169822068Y-109646842D01*
X169765000Y-109933740D01*
X169765000Y-110226260D01*
X169822068Y-110513158D01*
X169934010Y-110783411D01*
X170096525Y-111026632D01*
X170303368Y-111233475D01*
X170546589Y-111395990D01*
X170816842Y-111507932D01*
X171103740Y-111565000D01*
X171396260Y-111565000D01*
X171683158Y-111507932D01*
X171953411Y-111395990D01*
X172196632Y-111233475D01*
X172403475Y-111026632D01*
X172565990Y-110783411D01*
X172677932Y-110513158D01*
X172735000Y-110226260D01*
X172735000Y-109933740D01*
X172677932Y-109646842D01*
X172565990Y-109376589D01*
X172403475Y-109133368D01*
X172196632Y-108926525D01*
X172022240Y-108810000D01*
X172196632Y-108693475D01*
X172403475Y-108486632D01*
X172565990Y-108243411D01*
X172677932Y-107973158D01*
X172735000Y-107686260D01*
X172735000Y-107393740D01*
X172677932Y-107106842D01*
X172565990Y-106836589D01*
X172403475Y-106593368D01*
X172271620Y-106461513D01*
X172344180Y-106439502D01*
X172454494Y-106380537D01*
X172551185Y-106301185D01*
X172630537Y-106204494D01*
X172689502Y-106094180D01*
X172725812Y-105974482D01*
X172738072Y-105850000D01*
X172738072Y-105812800D01*
X173663328Y-105812800D01*
X177437201Y-109586674D01*
X177437201Y-116037728D01*
X174602971Y-113203499D01*
X174577517Y-113172483D01*
X174453752Y-113070912D01*
X174312550Y-112995438D01*
X174159337Y-112948961D01*
X174039923Y-112937200D01*
X174039920Y-112937200D01*
X174000000Y-112933268D01*
X173960080Y-112937200D01*
X172738072Y-112937200D01*
X172738072Y-112900000D01*
X172725812Y-112775518D01*
X172689502Y-112655820D01*
X172630537Y-112545506D01*
X172551185Y-112448815D01*
X172454494Y-112369463D01*
X172344180Y-112310498D01*
X172224482Y-112274188D01*
X172100000Y-112261928D01*
X170400000Y-112261928D01*
X170275518Y-112274188D01*
X170155820Y-112310498D01*
X170045506Y-112369463D01*
X169948815Y-112448815D01*
X169869463Y-112545506D01*
X169810498Y-112655820D01*
X169774188Y-112775518D01*
X169761928Y-112900000D01*
X169761928Y-114600000D01*
X169774188Y-114724482D01*
X169810498Y-114844180D01*
X169869463Y-114954494D01*
X169948815Y-115051185D01*
X170045506Y-115130537D01*
X170155820Y-115189502D01*
X170228380Y-115211513D01*
X170096525Y-115343368D01*
X169934010Y-115586589D01*
X169822068Y-115856842D01*
X169765000Y-116143740D01*
X169765000Y-116436260D01*
X169822068Y-116723158D01*
X169934010Y-116993411D01*
X170096525Y-117236632D01*
X170303368Y-117443475D01*
X170477760Y-117560000D01*
X170303368Y-117676525D01*
X170096525Y-117883368D01*
X169934010Y-118126589D01*
X169822068Y-118396842D01*
X169765000Y-118683740D01*
X169765000Y-118976260D01*
X169822068Y-119263158D01*
X169934010Y-119533411D01*
X170096525Y-119776632D01*
X170303368Y-119983475D01*
X170546589Y-120145990D01*
X170816842Y-120257932D01*
X171103740Y-120315000D01*
X171396260Y-120315000D01*
X171683158Y-120257932D01*
X171953411Y-120145990D01*
X172196632Y-119983475D01*
X172403475Y-119776632D01*
X172565990Y-119533411D01*
X172677932Y-119263158D01*
X172735000Y-118976260D01*
X172735000Y-118683740D01*
X172677932Y-118396842D01*
X172565990Y-118126589D01*
X172403475Y-117883368D01*
X172196632Y-117676525D01*
X172022240Y-117560000D01*
X172196632Y-117443475D01*
X172403475Y-117236632D01*
X172565990Y-116993411D01*
X172677932Y-116723158D01*
X172735000Y-116436260D01*
X172735000Y-116143740D01*
X172677932Y-115856842D01*
X172565990Y-115586589D01*
X172403475Y-115343368D01*
X172271620Y-115211513D01*
X172344180Y-115189502D01*
X172454494Y-115130537D01*
X172551185Y-115051185D01*
X172630537Y-114954494D01*
X172689502Y-114844180D01*
X172725812Y-114724482D01*
X172738072Y-114600000D01*
X172738072Y-114562800D01*
X173663328Y-114562800D01*
X176437201Y-117336674D01*
X176437201Y-123787728D01*
X174602971Y-121953499D01*
X174577517Y-121922483D01*
X174453752Y-121820912D01*
X174312550Y-121745438D01*
X174159337Y-121698961D01*
X174039923Y-121687200D01*
X174039920Y-121687200D01*
X174000000Y-121683268D01*
X173960080Y-121687200D01*
X172738072Y-121687200D01*
X172738072Y-121650000D01*
X172725812Y-121525518D01*
X172689502Y-121405820D01*
X172630537Y-121295506D01*
X172551185Y-121198815D01*
X172454494Y-121119463D01*
X172344180Y-121060498D01*
X172224482Y-121024188D01*
X172100000Y-121011928D01*
X170400000Y-121011928D01*
X170275518Y-121024188D01*
X170155820Y-121060498D01*
X170045506Y-121119463D01*
X169948815Y-121198815D01*
X169869463Y-121295506D01*
X169810498Y-121405820D01*
X169774188Y-121525518D01*
X169761928Y-121650000D01*
X169761928Y-123350000D01*
X169774188Y-123474482D01*
X169810498Y-123594180D01*
X169869463Y-123704494D01*
X169948815Y-123801185D01*
X170045506Y-123880537D01*
X170155820Y-123939502D01*
X170228380Y-123961513D01*
X170096525Y-124093368D01*
X169934010Y-124336589D01*
X169822068Y-124606842D01*
X169765000Y-124893740D01*
X169765000Y-125186260D01*
X169822068Y-125473158D01*
X169934010Y-125743411D01*
X170096525Y-125986632D01*
X170303368Y-126193475D01*
X170477760Y-126310000D01*
X170303368Y-126426525D01*
X170096525Y-126633368D01*
X169934010Y-126876589D01*
X169822068Y-127146842D01*
X169765000Y-127433740D01*
X169765000Y-127726260D01*
X169822068Y-128013158D01*
X169934010Y-128283411D01*
X170096525Y-128526632D01*
X170303368Y-128733475D01*
X170546589Y-128895990D01*
X170816842Y-129007932D01*
X171103740Y-129065000D01*
X171396260Y-129065000D01*
X171683158Y-129007932D01*
X171953411Y-128895990D01*
X172196632Y-128733475D01*
X172403475Y-128526632D01*
X172565990Y-128283411D01*
X172677932Y-128013158D01*
X172735000Y-127726260D01*
X172735000Y-127433740D01*
X172677932Y-127146842D01*
X172565990Y-126876589D01*
X172403475Y-126633368D01*
X172196632Y-126426525D01*
X172022240Y-126310000D01*
X172196632Y-126193475D01*
X172403475Y-125986632D01*
X172565990Y-125743411D01*
X172677932Y-125473158D01*
X172735000Y-125186260D01*
X172735000Y-124893740D01*
X172677932Y-124606842D01*
X172565990Y-124336589D01*
X172403475Y-124093368D01*
X172271620Y-123961513D01*
X172344180Y-123939502D01*
X172454494Y-123880537D01*
X172551185Y-123801185D01*
X172630537Y-123704494D01*
X172689502Y-123594180D01*
X172725812Y-123474482D01*
X172738072Y-123350000D01*
X172738072Y-123312800D01*
X173663328Y-123312800D01*
X175437201Y-125086674D01*
X175437200Y-133413328D01*
X172723683Y-136126845D01*
X172677932Y-135896842D01*
X172565990Y-135626589D01*
X172403475Y-135383368D01*
X172196632Y-135176525D01*
X172022240Y-135060000D01*
X172196632Y-134943475D01*
X172403475Y-134736632D01*
X172565990Y-134493411D01*
X172677932Y-134223158D01*
X172735000Y-133936260D01*
X172735000Y-133643740D01*
X172677932Y-133356842D01*
X172565990Y-133086589D01*
X172403475Y-132843368D01*
X172271620Y-132711513D01*
X172344180Y-132689502D01*
X172454494Y-132630537D01*
X172551185Y-132551185D01*
X172630537Y-132454494D01*
X172689502Y-132344180D01*
X172725812Y-132224482D01*
X172738072Y-132100000D01*
X172738072Y-130400000D01*
X172725812Y-130275518D01*
X172689502Y-130155820D01*
X172630537Y-130045506D01*
X172551185Y-129948815D01*
X172454494Y-129869463D01*
X172344180Y-129810498D01*
X172224482Y-129774188D01*
X172100000Y-129761928D01*
X170400000Y-129761928D01*
X170275518Y-129774188D01*
X170155820Y-129810498D01*
X170045506Y-129869463D01*
X169948815Y-129948815D01*
X169869463Y-130045506D01*
X169810498Y-130155820D01*
X169774188Y-130275518D01*
X169761928Y-130400000D01*
X169761928Y-130437200D01*
X169539923Y-130437200D01*
X169500000Y-130433268D01*
X169460077Y-130437200D01*
X169340663Y-130448961D01*
X169187450Y-130495438D01*
X169046248Y-130570912D01*
X168922483Y-130672483D01*
X168897033Y-130703494D01*
X167953499Y-131647029D01*
X167922483Y-131672483D01*
X167820912Y-131796249D01*
X167745438Y-131937451D01*
X167698961Y-132090664D01*
X167692747Y-132153759D01*
X167683268Y-132250000D01*
X167687200Y-132289920D01*
X167687201Y-136913327D01*
X163953499Y-140647029D01*
X163953493Y-140647034D01*
X163413328Y-141187200D01*
X156396510Y-141187200D01*
X156240256Y-141082795D01*
X156051898Y-141004774D01*
X155851939Y-140965000D01*
X155648061Y-140965000D01*
X155448102Y-141004774D01*
X155259744Y-141082795D01*
X155090226Y-141196063D01*
X154946063Y-141340226D01*
X154832795Y-141509744D01*
X154754774Y-141698102D01*
X154715000Y-141898061D01*
X154715000Y-142101939D01*
X154754774Y-142301898D01*
X154832795Y-142490256D01*
X154946063Y-142659774D01*
X155090226Y-142803937D01*
X155259744Y-142917205D01*
X155448102Y-142995226D01*
X155648061Y-143035000D01*
X155851939Y-143035000D01*
X156051898Y-142995226D01*
X156240256Y-142917205D01*
X156396510Y-142812800D01*
X163710080Y-142812800D01*
X163750000Y-142816732D01*
X163789920Y-142812800D01*
X163789923Y-142812800D01*
X163909337Y-142801039D01*
X164062550Y-142754562D01*
X164203752Y-142679088D01*
X164327517Y-142577517D01*
X164352971Y-142546501D01*
X165102966Y-141796507D01*
X165102971Y-141796501D01*
X169046500Y-137852972D01*
X169077517Y-137827517D01*
X169147729Y-137741963D01*
X169179088Y-137703753D01*
X169254561Y-137562551D01*
X169254562Y-137562550D01*
X169301039Y-137409337D01*
X169312800Y-137289923D01*
X169312800Y-137289921D01*
X169316732Y-137250001D01*
X169312800Y-137210080D01*
X169312800Y-132586672D01*
X169765294Y-132134179D01*
X169774188Y-132224482D01*
X169810498Y-132344180D01*
X169869463Y-132454494D01*
X169948815Y-132551185D01*
X170045506Y-132630537D01*
X170155820Y-132689502D01*
X170228380Y-132711513D01*
X170096525Y-132843368D01*
X169934010Y-133086589D01*
X169822068Y-133356842D01*
X169765000Y-133643740D01*
X169765000Y-133936260D01*
X169822068Y-134223158D01*
X169934010Y-134493411D01*
X170096525Y-134736632D01*
X170303368Y-134943475D01*
X170477760Y-135060000D01*
X170303368Y-135176525D01*
X170096525Y-135383368D01*
X169934010Y-135626589D01*
X169822068Y-135896842D01*
X169765000Y-136183740D01*
X169765000Y-136476260D01*
X169822068Y-136763158D01*
X169934010Y-137033411D01*
X170096525Y-137276632D01*
X170303368Y-137483475D01*
X170546589Y-137645990D01*
X170816842Y-137757932D01*
X171046845Y-137803683D01*
X168882416Y-139968112D01*
X168698102Y-140004774D01*
X168509744Y-140082795D01*
X168340226Y-140196063D01*
X168196063Y-140340226D01*
X168082795Y-140509744D01*
X168004774Y-140698102D01*
X167965000Y-140898061D01*
X167965000Y-141101939D01*
X168004774Y-141301898D01*
X168082795Y-141490256D01*
X168196063Y-141659774D01*
X168322028Y-141785739D01*
X168254774Y-141948102D01*
X168215000Y-142148061D01*
X168215000Y-142351939D01*
X168254774Y-142551898D01*
X168332795Y-142740256D01*
X168446063Y-142909774D01*
X168590226Y-143053937D01*
X168713933Y-143136595D01*
X168413328Y-143437200D01*
X142439182Y-143437200D01*
X142495226Y-143301898D01*
X142535000Y-143101939D01*
X142535000Y-142898061D01*
X142495226Y-142698102D01*
X142417205Y-142509744D01*
X142303937Y-142340226D01*
X142159774Y-142196063D01*
X141990256Y-142082795D01*
X141801898Y-142004774D01*
X141617585Y-141968112D01*
X141102971Y-141453499D01*
X141077517Y-141422483D01*
X140953752Y-141320912D01*
X140812550Y-141245438D01*
X140659337Y-141198961D01*
X140539923Y-141187200D01*
X140539920Y-141187200D01*
X140500000Y-141183268D01*
X140460080Y-141187200D01*
X138336672Y-141187200D01*
X137312800Y-140163328D01*
X137312800Y-137212272D01*
X140968112Y-140867584D01*
X141004774Y-141051898D01*
X141082795Y-141240256D01*
X141196063Y-141409774D01*
X141340226Y-141553937D01*
X141509744Y-141667205D01*
X141698102Y-141745226D01*
X141898061Y-141785000D01*
X142101939Y-141785000D01*
X142301898Y-141745226D01*
X142490256Y-141667205D01*
X142659774Y-141553937D01*
X142803937Y-141409774D01*
X142864028Y-141319841D01*
X143009744Y-141417205D01*
X143198102Y-141495226D01*
X143398061Y-141535000D01*
X143601939Y-141535000D01*
X143801898Y-141495226D01*
X143990256Y-141417205D01*
X144159774Y-141303937D01*
X144303937Y-141159774D01*
X144417205Y-140990256D01*
X144495226Y-140801898D01*
X144535000Y-140601939D01*
X144535000Y-140398061D01*
X144495226Y-140198102D01*
X144417205Y-140009744D01*
X144303937Y-139840226D01*
X144159774Y-139696063D01*
X143990256Y-139582795D01*
X143801898Y-139504774D01*
X143617585Y-139468112D01*
X138812800Y-134663328D01*
X138812800Y-118538080D01*
X138927721Y-118632393D01*
X138970113Y-118667183D01*
X139212805Y-118796904D01*
X139476140Y-118876786D01*
X139750000Y-118903759D01*
X139818625Y-118897000D01*
X141115000Y-118897000D01*
X141115000Y-135773116D01*
X141121391Y-135862979D01*
X141141418Y-136003072D01*
X141191776Y-136175603D01*
X141250254Y-136304474D01*
X141346934Y-136455981D01*
X141439177Y-136563305D01*
X141502598Y-136627290D01*
X145062831Y-139742494D01*
X145082817Y-139779886D01*
X145257392Y-139992607D01*
X145470113Y-140167183D01*
X145712805Y-140296904D01*
X145976140Y-140376786D01*
X146250000Y-140403759D01*
X146523859Y-140376786D01*
X146787194Y-140296904D01*
X147029886Y-140167183D01*
X147242607Y-139992608D01*
X147417183Y-139779887D01*
X147546904Y-139537195D01*
X147626786Y-139273860D01*
X147647000Y-139068625D01*
X147647000Y-136068624D01*
X147653759Y-135999999D01*
X147626786Y-135726140D01*
X147596587Y-135626589D01*
X147546904Y-135462805D01*
X147417183Y-135220113D01*
X147242608Y-135007392D01*
X147189302Y-134963645D01*
X145635000Y-133409344D01*
X145635000Y-130590656D01*
X145828656Y-130397000D01*
X146181375Y-130397000D01*
X146250000Y-130403759D01*
X146318625Y-130397000D01*
X148181374Y-130397000D01*
X148249999Y-130403759D01*
X148318624Y-130397000D01*
X149181375Y-130397000D01*
X149250000Y-130403759D01*
X149318625Y-130397000D01*
X151921345Y-130397000D01*
X154560697Y-133036353D01*
X154720113Y-133167183D01*
X154962804Y-133296904D01*
X155226140Y-133376786D01*
X155500000Y-133403759D01*
X155773859Y-133376786D01*
X156037195Y-133296904D01*
X156279886Y-133167183D01*
X156492607Y-132992607D01*
X156667183Y-132779886D01*
X156796904Y-132537195D01*
X156876786Y-132273859D01*
X156903759Y-132000000D01*
X156876786Y-131726140D01*
X156796904Y-131462804D01*
X156667183Y-131220113D01*
X156536353Y-131060697D01*
X153536364Y-128060709D01*
X153492608Y-128007392D01*
X153279887Y-127832817D01*
X153037195Y-127703096D01*
X152773860Y-127623214D01*
X152568625Y-127603000D01*
X152500000Y-127596241D01*
X152431375Y-127603000D01*
X149828656Y-127603000D01*
X147286364Y-125060709D01*
X147242608Y-125007392D01*
X147189297Y-124963641D01*
X145635000Y-123409345D01*
X145635000Y-120513026D01*
X145751026Y-120397000D01*
X146181375Y-120397000D01*
X146250000Y-120403759D01*
X146318625Y-120397000D01*
X149181375Y-120397000D01*
X149250000Y-120403759D01*
X149318625Y-120397000D01*
X151921345Y-120397000D01*
X154560697Y-123036353D01*
X154720113Y-123167183D01*
X154962804Y-123296904D01*
X155226140Y-123376786D01*
X155500000Y-123403759D01*
X155773859Y-123376786D01*
X156037195Y-123296904D01*
X156279886Y-123167183D01*
X156492607Y-122992607D01*
X156667183Y-122779886D01*
X156796904Y-122537195D01*
X156876786Y-122273859D01*
X156903759Y-122000000D01*
X156876786Y-121726140D01*
X156796904Y-121462804D01*
X156667183Y-121220113D01*
X156536353Y-121060697D01*
X153536364Y-118060709D01*
X153492608Y-118007392D01*
X153279887Y-117832817D01*
X153037195Y-117703096D01*
X152773860Y-117623214D01*
X152568625Y-117603000D01*
X152500000Y-117596241D01*
X152431375Y-117603000D01*
X149828656Y-117603000D01*
X149036364Y-116810708D01*
X148992608Y-116757392D01*
X148939296Y-116713640D01*
X147286364Y-115060709D01*
X147242608Y-115007392D01*
X147189296Y-114963641D01*
X146786360Y-114560704D01*
X146742608Y-114507392D01*
X146689295Y-114463640D01*
X145635000Y-113409345D01*
X145635000Y-110397000D01*
X146181375Y-110397000D01*
X146250000Y-110403759D01*
X146318625Y-110397000D01*
X148181374Y-110397000D01*
X148249999Y-110403759D01*
X148318624Y-110397000D01*
X149181375Y-110397000D01*
X149250000Y-110403759D01*
X149318625Y-110397000D01*
X151921345Y-110397000D01*
X154560697Y-113036353D01*
X154720113Y-113167183D01*
X154962804Y-113296904D01*
X155226140Y-113376786D01*
X155500000Y-113403759D01*
X155773859Y-113376786D01*
X156037195Y-113296904D01*
X156279886Y-113167183D01*
X156492607Y-112992607D01*
X156667183Y-112779886D01*
X156796904Y-112537195D01*
X156876786Y-112273859D01*
X156903759Y-112000000D01*
X156876786Y-111726140D01*
X156796904Y-111462804D01*
X156667183Y-111220113D01*
X156536353Y-111060697D01*
X153536364Y-108060709D01*
X153492608Y-108007392D01*
X153279887Y-107832817D01*
X153037195Y-107703096D01*
X152773860Y-107623214D01*
X152568625Y-107603000D01*
X152500000Y-107596241D01*
X152431375Y-107603000D01*
X149828656Y-107603000D01*
X147286360Y-105060705D01*
X147242607Y-105007392D01*
X147189306Y-104963649D01*
X145923000Y-103697344D01*
X145923000Y-100397000D01*
X146181375Y-100397000D01*
X146250000Y-100403759D01*
X146318625Y-100397000D01*
X148431367Y-100397000D01*
X148500000Y-100403760D01*
X148568632Y-100397000D01*
X149181375Y-100397000D01*
X149250000Y-100403759D01*
X149318625Y-100397000D01*
X151921345Y-100397000D01*
X154560697Y-103036353D01*
X154720113Y-103167183D01*
X154962804Y-103296904D01*
X155226140Y-103376786D01*
X155500000Y-103403759D01*
X155773859Y-103376786D01*
X156037195Y-103296904D01*
X156279886Y-103167183D01*
X156492607Y-102992607D01*
X156667183Y-102779886D01*
X156796904Y-102537195D01*
X156876786Y-102273859D01*
X156903759Y-102000000D01*
X156876786Y-101726140D01*
X156796904Y-101462804D01*
X156667183Y-101220113D01*
X156536353Y-101060697D01*
X153536364Y-98060709D01*
X153492608Y-98007392D01*
X153279887Y-97832817D01*
X153037195Y-97703096D01*
X152773860Y-97623214D01*
X152568625Y-97603000D01*
X152500000Y-97596241D01*
X152431375Y-97603000D01*
X149828656Y-97603000D01*
X147286364Y-95060709D01*
X147242608Y-95007392D01*
X147189302Y-94963645D01*
X145647000Y-93421345D01*
X145647000Y-90578655D01*
X145828656Y-90397000D01*
X146181375Y-90397000D01*
X146250000Y-90403759D01*
X146318625Y-90397000D01*
X147681374Y-90397000D01*
X147749999Y-90403759D01*
X147818624Y-90397000D01*
X151921345Y-90397000D01*
X154560697Y-93036353D01*
X154720113Y-93167183D01*
X154962804Y-93296904D01*
X155226140Y-93376786D01*
X155500000Y-93403759D01*
X155773859Y-93376786D01*
X156037195Y-93296904D01*
X156279886Y-93167183D01*
X156492607Y-92992607D01*
X156667183Y-92779886D01*
X156796904Y-92537195D01*
X156876786Y-92273859D01*
X156903759Y-92000000D01*
X156876786Y-91726140D01*
X156796904Y-91462804D01*
X156667183Y-91220113D01*
X156536353Y-91060697D01*
X153536364Y-88060709D01*
X153492608Y-88007392D01*
X153279887Y-87832817D01*
X153037195Y-87703096D01*
X152773860Y-87623214D01*
X152568625Y-87603000D01*
X152500000Y-87596241D01*
X152431375Y-87603000D01*
X148328656Y-87603000D01*
X147647000Y-86921344D01*
X147647000Y-86578655D01*
X149828656Y-84397000D01*
X154181375Y-84397000D01*
X154250000Y-84403759D01*
X154318625Y-84397000D01*
X154523860Y-84376786D01*
X154787195Y-84296904D01*
X155029887Y-84167183D01*
X155242608Y-83992608D01*
X155286364Y-83939292D01*
X156439301Y-82786355D01*
X156492607Y-82742608D01*
X156667183Y-82529887D01*
X156796904Y-82287195D01*
X156876786Y-82023860D01*
X156897000Y-81818625D01*
X156897000Y-81818624D01*
X156903759Y-81750000D01*
X156897000Y-81681375D01*
X156897000Y-80200000D01*
X171811928Y-80200000D01*
X171811928Y-82800000D01*
X171824188Y-82924482D01*
X171860498Y-83044180D01*
X171919463Y-83154494D01*
X171998815Y-83251185D01*
X172095506Y-83330537D01*
X172205820Y-83389502D01*
X172325518Y-83425812D01*
X172450000Y-83438072D01*
X175050000Y-83438072D01*
X175174482Y-83425812D01*
X175294180Y-83389502D01*
X175404494Y-83330537D01*
X175501185Y-83251185D01*
X175580537Y-83154494D01*
X175639502Y-83044180D01*
X175675812Y-82924482D01*
X175688072Y-82800000D01*
X175688072Y-80200000D01*
X175675812Y-80075518D01*
X175639502Y-79955820D01*
X175580537Y-79845506D01*
X175501185Y-79748815D01*
X175404494Y-79669463D01*
X175294180Y-79610498D01*
X175174482Y-79574188D01*
X175050000Y-79561928D01*
X172450000Y-79561928D01*
X172325518Y-79574188D01*
X172205820Y-79610498D01*
X172095506Y-79669463D01*
X171998815Y-79748815D01*
X171919463Y-79845506D01*
X171860498Y-79955820D01*
X171824188Y-80075518D01*
X171811928Y-80200000D01*
X156897000Y-80200000D01*
X156897000Y-74681375D01*
X156876786Y-74476140D01*
X156796904Y-74212805D01*
X156667183Y-73970113D01*
X156492608Y-73757392D01*
X156279887Y-73582817D01*
X156037195Y-73453096D01*
X155773860Y-73373214D01*
X155500000Y-73346241D01*
X155226141Y-73373214D01*
X154962806Y-73453096D01*
X154720114Y-73582817D01*
X154507393Y-73757392D01*
X154332818Y-73970113D01*
X154203097Y-74212805D01*
X154123215Y-74476140D01*
X154103001Y-74681375D01*
X154103000Y-81171344D01*
X153671345Y-81603000D01*
X149318625Y-81603000D01*
X149250000Y-81596241D01*
X148976140Y-81623214D01*
X148712804Y-81703096D01*
X148566379Y-81781362D01*
X148470113Y-81832817D01*
X148257392Y-82007392D01*
X148213641Y-82060703D01*
X145671345Y-84603000D01*
X143578656Y-84603000D01*
X140786364Y-81810709D01*
X140742608Y-81757392D01*
X140529887Y-81582817D01*
X140287195Y-81453096D01*
X140023860Y-81373214D01*
X139818625Y-81353000D01*
X139750000Y-81346241D01*
X139681375Y-81353000D01*
X132329624Y-81353000D01*
X132260999Y-81346241D01*
X132070537Y-81365000D01*
X127716656Y-81365000D01*
X123897000Y-77545345D01*
X123897000Y-76923694D01*
X123939502Y-76844180D01*
X123961513Y-76771620D01*
X124093368Y-76903475D01*
X124336589Y-77065990D01*
X124606842Y-77177932D01*
X124893740Y-77235000D01*
X125186260Y-77235000D01*
X125473158Y-77177932D01*
X125743411Y-77065990D01*
X125986632Y-76903475D01*
X126193475Y-76696632D01*
X126310000Y-76522240D01*
X126426525Y-76696632D01*
X126564001Y-76834108D01*
X126564001Y-77280089D01*
X126559085Y-77330000D01*
X126578702Y-77529170D01*
X126613965Y-77645415D01*
X126636799Y-77720687D01*
X126731141Y-77897190D01*
X126858105Y-78051896D01*
X126896868Y-78083708D01*
X128246292Y-79433133D01*
X128278104Y-79471896D01*
X128432810Y-79598860D01*
X128609313Y-79693202D01*
X128800829Y-79751298D01*
X128950098Y-79766000D01*
X128950105Y-79766000D01*
X128999999Y-79770914D01*
X129049893Y-79766000D01*
X140950098Y-79766000D01*
X141000000Y-79770915D01*
X141049902Y-79766000D01*
X141199171Y-79751298D01*
X141390687Y-79693202D01*
X141567190Y-79598860D01*
X141721896Y-79471896D01*
X141753712Y-79433128D01*
X143223133Y-77963708D01*
X143261896Y-77931896D01*
X143388860Y-77777190D01*
X143459295Y-77645415D01*
X143483202Y-77600688D01*
X143541298Y-77409171D01*
X143560915Y-77210000D01*
X143556000Y-77160098D01*
X143556000Y-76834107D01*
X143693475Y-76696632D01*
X143855990Y-76453411D01*
X143967932Y-76183158D01*
X144025000Y-75896260D01*
X144025000Y-75603740D01*
X143967932Y-75316842D01*
X143855990Y-75046589D01*
X143693475Y-74803368D01*
X143486632Y-74596525D01*
X143243411Y-74434010D01*
X142973158Y-74322068D01*
X142686260Y-74265000D01*
X142393740Y-74265000D01*
X142106842Y-74322068D01*
X141836589Y-74434010D01*
X141593368Y-74596525D01*
X141461513Y-74728380D01*
X141439502Y-74655820D01*
X141380537Y-74545506D01*
X141301185Y-74448815D01*
X141204494Y-74369463D01*
X141094180Y-74310498D01*
X140974482Y-74274188D01*
X140850000Y-74261928D01*
X139150000Y-74261928D01*
X139025518Y-74274188D01*
X138905820Y-74310498D01*
X138795506Y-74369463D01*
X138698815Y-74448815D01*
X138619463Y-74545506D01*
X138560498Y-74655820D01*
X138524188Y-74775518D01*
X138511928Y-74900000D01*
X138511928Y-76600000D01*
X138524188Y-76724482D01*
X138560498Y-76844180D01*
X138619463Y-76954494D01*
X138698815Y-77051185D01*
X138795506Y-77130537D01*
X138905820Y-77189502D01*
X139025518Y-77225812D01*
X139150000Y-77238072D01*
X140850000Y-77238072D01*
X140974482Y-77225812D01*
X141094180Y-77189502D01*
X141157507Y-77155653D01*
X140579160Y-77734000D01*
X129420841Y-77734000D01*
X128596000Y-76909160D01*
X128596000Y-76834107D01*
X128733475Y-76696632D01*
X128895990Y-76453411D01*
X129007932Y-76183158D01*
X129065000Y-75896260D01*
X129065000Y-75603740D01*
X129007932Y-75316842D01*
X128895990Y-75046589D01*
X128798043Y-74900000D01*
X132261928Y-74900000D01*
X132261928Y-76600000D01*
X132274188Y-76724482D01*
X132310498Y-76844180D01*
X132369463Y-76954494D01*
X132448815Y-77051185D01*
X132545506Y-77130537D01*
X132655820Y-77189502D01*
X132775518Y-77225812D01*
X132900000Y-77238072D01*
X134600000Y-77238072D01*
X134724482Y-77225812D01*
X134844180Y-77189502D01*
X134954494Y-77130537D01*
X135051185Y-77051185D01*
X135130537Y-76954494D01*
X135189502Y-76844180D01*
X135211513Y-76771620D01*
X135343368Y-76903475D01*
X135586589Y-77065990D01*
X135856842Y-77177932D01*
X136143740Y-77235000D01*
X136436260Y-77235000D01*
X136723158Y-77177932D01*
X136993411Y-77065990D01*
X137236632Y-76903475D01*
X137443475Y-76696632D01*
X137605990Y-76453411D01*
X137717932Y-76183158D01*
X137775000Y-75896260D01*
X137775000Y-75603740D01*
X137717932Y-75316842D01*
X137605990Y-75046589D01*
X137443475Y-74803368D01*
X137236632Y-74596525D01*
X136993411Y-74434010D01*
X136723158Y-74322068D01*
X136436260Y-74265000D01*
X136143740Y-74265000D01*
X135856842Y-74322068D01*
X135586589Y-74434010D01*
X135343368Y-74596525D01*
X135211513Y-74728380D01*
X135189502Y-74655820D01*
X135130537Y-74545506D01*
X135051185Y-74448815D01*
X134954494Y-74369463D01*
X134844180Y-74310498D01*
X134724482Y-74274188D01*
X134600000Y-74261928D01*
X132900000Y-74261928D01*
X132775518Y-74274188D01*
X132655820Y-74310498D01*
X132545506Y-74369463D01*
X132448815Y-74448815D01*
X132369463Y-74545506D01*
X132310498Y-74655820D01*
X132274188Y-74775518D01*
X132261928Y-74900000D01*
X128798043Y-74900000D01*
X128733475Y-74803368D01*
X128526632Y-74596525D01*
X128283411Y-74434010D01*
X128013158Y-74322068D01*
X127726260Y-74265000D01*
X127433740Y-74265000D01*
X127146842Y-74322068D01*
X126876589Y-74434010D01*
X126633368Y-74596525D01*
X126426525Y-74803368D01*
X126310000Y-74977760D01*
X126193475Y-74803368D01*
X125986632Y-74596525D01*
X125743411Y-74434010D01*
X125473158Y-74322068D01*
X125186260Y-74265000D01*
X124893740Y-74265000D01*
X124606842Y-74322068D01*
X124336589Y-74434010D01*
X124093368Y-74596525D01*
X123961513Y-74728380D01*
X123939502Y-74655820D01*
X123880537Y-74545506D01*
X123801185Y-74448815D01*
X123704494Y-74369463D01*
X123594180Y-74310498D01*
X123474482Y-74274188D01*
X123350000Y-74261928D01*
X121650000Y-74261928D01*
X121525518Y-74274188D01*
X121405820Y-74310498D01*
X121295506Y-74369463D01*
X121198815Y-74448815D01*
X121119463Y-74545506D01*
X121060498Y-74655820D01*
X121024188Y-74775518D01*
X121011928Y-74900000D01*
X121011928Y-76600000D01*
X121024188Y-76724482D01*
X121060498Y-76844180D01*
X121103000Y-76923695D01*
X121103001Y-78055366D01*
X121096241Y-78124000D01*
X121123214Y-78397859D01*
X121181569Y-78590226D01*
X121203097Y-78661195D01*
X121332818Y-78903887D01*
X121507393Y-79116608D01*
X121560704Y-79160359D01*
X126651641Y-84251297D01*
X126695392Y-84304608D01*
X126908113Y-84479183D01*
X127150805Y-84608904D01*
X127369159Y-84675141D01*
X127414140Y-84688786D01*
X127688000Y-84715759D01*
X127756625Y-84709000D01*
X129483345Y-84709000D01*
X130302001Y-85527656D01*
X130302000Y-86482373D01*
X130295241Y-86551000D01*
X130302000Y-86619627D01*
X130302000Y-87017624D01*
X130302001Y-87017634D01*
X130302000Y-90130375D01*
X130295241Y-90199000D01*
X130317429Y-90424273D01*
X130322214Y-90472859D01*
X130402096Y-90736194D01*
X130531817Y-90978886D01*
X130706392Y-91191607D01*
X130759704Y-91235359D01*
X132353001Y-92828657D01*
X132353000Y-95921343D01*
X127935704Y-100338641D01*
X127882393Y-100382392D01*
X127707818Y-100595113D01*
X127619496Y-100760353D01*
X127578097Y-100837805D01*
X127498214Y-101101141D01*
X127471241Y-101375000D01*
X127478001Y-101443635D01*
X127478000Y-111046344D01*
X125421345Y-113103000D01*
X122568625Y-113103000D01*
X122500000Y-113096241D01*
X122499999Y-113096241D01*
X122431374Y-113103000D01*
X119068625Y-113103000D01*
X119060293Y-113102179D01*
X119480507Y-112681966D01*
X119511518Y-112656516D01*
X119613089Y-112532751D01*
X119688563Y-112391549D01*
X119735040Y-112238336D01*
X119746801Y-112118922D01*
X119746801Y-112118920D01*
X119750733Y-112079000D01*
X119746801Y-112039079D01*
X119746801Y-99705011D01*
X119851206Y-99548757D01*
X119929227Y-99360399D01*
X119969001Y-99160440D01*
X119969001Y-98956562D01*
X119929227Y-98756603D01*
X119851206Y-98568245D01*
X119737938Y-98398727D01*
X119593775Y-98254564D01*
X119424257Y-98141296D01*
X119235899Y-98063275D01*
X119035940Y-98023501D01*
X118832062Y-98023501D01*
X118632103Y-98063275D01*
X118443745Y-98141296D01*
X118274227Y-98254564D01*
X118130064Y-98398727D01*
X118016796Y-98568245D01*
X117938775Y-98756603D01*
X117899001Y-98956562D01*
X117899001Y-99160440D01*
X117938775Y-99360399D01*
X118016796Y-99548757D01*
X118072671Y-99632380D01*
X117967398Y-99588774D01*
X117767439Y-99549000D01*
X117563561Y-99549000D01*
X117363602Y-99588774D01*
X117175244Y-99666795D01*
X117005726Y-99780063D01*
X116861563Y-99924226D01*
X116748295Y-100093744D01*
X116670274Y-100282102D01*
X116630500Y-100482061D01*
X116630500Y-100685939D01*
X116670274Y-100885898D01*
X116748295Y-101074256D01*
X116852700Y-101230510D01*
X116852701Y-110069068D01*
X116852700Y-110069078D01*
X116852701Y-111402568D01*
X116852700Y-111402578D01*
X116852700Y-111740828D01*
X111388416Y-117205112D01*
X111204102Y-117241774D01*
X111015744Y-117319795D01*
X110846226Y-117433063D01*
X110702063Y-117577226D01*
X110588795Y-117746744D01*
X110510774Y-117935102D01*
X110471000Y-118135061D01*
X110471000Y-118338939D01*
X110510774Y-118538898D01*
X110588795Y-118727256D01*
X110702063Y-118896774D01*
X110834408Y-119029119D01*
X110562916Y-119300612D01*
X110378602Y-119337274D01*
X110190244Y-119415295D01*
X110020726Y-119528563D01*
X109876563Y-119672726D01*
X109763295Y-119842244D01*
X109685274Y-120030602D01*
X109645500Y-120230561D01*
X109645500Y-120434439D01*
X109685274Y-120634398D01*
X109763295Y-120822756D01*
X109876563Y-120992274D01*
X110020726Y-121136437D01*
X110190244Y-121249705D01*
X110378602Y-121327726D01*
X110578561Y-121367500D01*
X110782439Y-121367500D01*
X110982398Y-121327726D01*
X111170756Y-121249705D01*
X111340274Y-121136437D01*
X111484437Y-120992274D01*
X111597705Y-120822756D01*
X111675726Y-120634398D01*
X111712388Y-120450084D01*
X117602179Y-114560293D01*
X117603000Y-114568624D01*
X117603001Y-117421344D01*
X117560707Y-117463638D01*
X117560696Y-117463647D01*
X108685705Y-126338640D01*
X108632392Y-126382393D01*
X108588646Y-126435698D01*
X106560698Y-128463646D01*
X106507393Y-128507393D01*
X106404809Y-128632393D01*
X106332818Y-128720114D01*
X106203097Y-128962805D01*
X106123214Y-129226141D01*
X106096241Y-129500000D01*
X106123214Y-129773859D01*
X106203097Y-130037195D01*
X106332818Y-130279886D01*
X106507393Y-130492607D01*
X106560698Y-130536353D01*
X106963636Y-130939291D01*
X107007392Y-130992608D01*
X107220113Y-131167183D01*
X107462805Y-131296904D01*
X107726140Y-131376786D01*
X108000000Y-131403759D01*
X108068625Y-131397000D01*
X109181375Y-131397000D01*
X109250000Y-131403759D01*
X109318625Y-131397000D01*
X110681374Y-131397000D01*
X110749999Y-131403759D01*
X110818624Y-131397000D01*
X114568625Y-131397000D01*
X114773860Y-131376786D01*
X115037195Y-131296904D01*
X115279887Y-131167183D01*
X115492608Y-130992608D01*
X115667183Y-130779887D01*
X115796904Y-130537195D01*
X115876786Y-130273860D01*
X115903759Y-130000000D01*
X115876786Y-129726140D01*
X115796904Y-129462805D01*
X115667183Y-129220113D01*
X115492608Y-129007392D01*
X115279887Y-128832817D01*
X115037195Y-128703096D01*
X114773860Y-128623214D01*
X114568625Y-128603000D01*
X111328656Y-128603000D01*
X111022000Y-128296344D01*
X111022000Y-127953655D01*
X114840656Y-124135000D01*
X122236974Y-124135000D01*
X123353000Y-125251026D01*
X123353000Y-128431375D01*
X123346241Y-128500000D01*
X123370394Y-128745226D01*
X123373214Y-128773859D01*
X123422763Y-128937200D01*
X120336673Y-128937200D01*
X119031888Y-127632416D01*
X118995226Y-127448102D01*
X118917205Y-127259744D01*
X118803937Y-127090226D01*
X118659774Y-126946063D01*
X118490256Y-126832795D01*
X118301898Y-126754774D01*
X118101939Y-126715000D01*
X117898061Y-126715000D01*
X117698102Y-126754774D01*
X117509744Y-126832795D01*
X117340226Y-126946063D01*
X117196063Y-127090226D01*
X117082795Y-127259744D01*
X117004774Y-127448102D01*
X116965000Y-127648061D01*
X116965000Y-127751413D01*
X116948102Y-127754774D01*
X116759744Y-127832795D01*
X116590226Y-127946063D01*
X116446063Y-128090226D01*
X116332795Y-128259744D01*
X116254774Y-128448102D01*
X116215000Y-128648061D01*
X116215000Y-128851939D01*
X116254774Y-129051898D01*
X116332795Y-129240256D01*
X116446063Y-129409774D01*
X116590226Y-129553937D01*
X116759744Y-129667205D01*
X116948102Y-129745226D01*
X117132416Y-129781888D01*
X118647033Y-131296506D01*
X118672483Y-131327517D01*
X118796248Y-131429088D01*
X118937450Y-131504562D01*
X119090663Y-131551039D01*
X119210077Y-131562800D01*
X119210079Y-131562800D01*
X119249999Y-131566732D01*
X119289920Y-131562800D01*
X129353490Y-131562800D01*
X129509744Y-131667205D01*
X129698102Y-131745226D01*
X129898061Y-131785000D01*
X130101939Y-131785000D01*
X130301898Y-131745226D01*
X130490256Y-131667205D01*
X130659774Y-131553937D01*
X130803937Y-131409774D01*
X130917205Y-131240256D01*
X130995226Y-131051898D01*
X131035000Y-130851939D01*
X131035000Y-130648061D01*
X130995226Y-130448102D01*
X130917205Y-130259744D01*
X130803937Y-130090226D01*
X130713711Y-130000000D01*
X130803937Y-129909774D01*
X130917205Y-129740256D01*
X130995226Y-129551898D01*
X131035000Y-129351939D01*
X131035000Y-129148061D01*
X130995226Y-128948102D01*
X130917205Y-128759744D01*
X130803937Y-128590226D01*
X130659774Y-128446063D01*
X130490256Y-128332795D01*
X130301898Y-128254774D01*
X130101939Y-128215000D01*
X129898061Y-128215000D01*
X129698102Y-128254774D01*
X129509744Y-128332795D01*
X129340226Y-128446063D01*
X129196063Y-128590226D01*
X129082795Y-128759744D01*
X129009290Y-128937200D01*
X126288455Y-128937200D01*
X129509113Y-125716543D01*
X129542444Y-125701369D01*
X129685974Y-125611166D01*
X129788497Y-125525690D01*
X129849960Y-125467048D01*
X131586670Y-123572455D01*
X131636019Y-123511445D01*
X131707514Y-123410937D01*
X131781876Y-123273065D01*
X131826591Y-123158112D01*
X131864939Y-123006229D01*
X131880152Y-122883828D01*
X131885000Y-122805508D01*
X131885000Y-107503540D01*
X136322875Y-102832093D01*
X136374422Y-102770451D01*
X136449144Y-102668640D01*
X136526953Y-102528389D01*
X136573782Y-102411103D01*
X136613967Y-102255834D01*
X136629916Y-102130556D01*
X136635000Y-102050362D01*
X136635000Y-86840656D01*
X137328656Y-86147000D01*
X139681375Y-86147000D01*
X139750000Y-86153759D01*
X139818625Y-86147000D01*
X140421344Y-86147000D01*
X141103001Y-86828657D01*
X141103000Y-89068624D01*
X141103001Y-89068634D01*
X141103000Y-109181375D01*
X141096241Y-109250000D01*
X141103000Y-109318624D01*
X141103001Y-109318634D01*
X141103000Y-113921344D01*
X140921345Y-114103000D01*
X140591872Y-114103000D01*
X140667205Y-113990256D01*
X140745226Y-113801898D01*
X140785000Y-113601939D01*
X140785000Y-113398061D01*
X140745226Y-113198102D01*
X140667205Y-113009744D01*
X140553937Y-112840226D01*
X140409774Y-112696063D01*
X140240256Y-112582795D01*
X140051898Y-112504774D01*
X140027897Y-112500000D01*
X140051898Y-112495226D01*
X140240256Y-112417205D01*
X140409774Y-112303937D01*
X140553937Y-112159774D01*
X140667205Y-111990256D01*
X140745226Y-111801898D01*
X140785000Y-111601939D01*
X140785000Y-111398061D01*
X140745226Y-111198102D01*
X140667205Y-111009744D01*
X140553937Y-110840226D01*
X140409774Y-110696063D01*
X140240256Y-110582795D01*
X140051898Y-110504774D01*
X140027897Y-110500000D01*
X140051898Y-110495226D01*
X140240256Y-110417205D01*
X140409774Y-110303937D01*
X140553937Y-110159774D01*
X140667205Y-109990256D01*
X140745226Y-109801898D01*
X140785000Y-109601939D01*
X140785000Y-109398061D01*
X140745226Y-109198102D01*
X140667205Y-109009744D01*
X140553937Y-108840226D01*
X140409774Y-108696063D01*
X140240256Y-108582795D01*
X140051898Y-108504774D01*
X140027897Y-108500000D01*
X140051898Y-108495226D01*
X140240256Y-108417205D01*
X140409774Y-108303937D01*
X140553937Y-108159774D01*
X140667205Y-107990256D01*
X140745226Y-107801898D01*
X140785000Y-107601939D01*
X140785000Y-107398061D01*
X140745226Y-107198102D01*
X140667205Y-107009744D01*
X140553937Y-106840226D01*
X140409774Y-106696063D01*
X140240256Y-106582795D01*
X140051898Y-106504774D01*
X140027897Y-106500000D01*
X140051898Y-106495226D01*
X140240256Y-106417205D01*
X140409774Y-106303937D01*
X140553937Y-106159774D01*
X140667205Y-105990256D01*
X140745226Y-105801898D01*
X140785000Y-105601939D01*
X140785000Y-105398061D01*
X140745226Y-105198102D01*
X140667205Y-105009744D01*
X140553937Y-104840226D01*
X140409774Y-104696063D01*
X140240256Y-104582795D01*
X140051898Y-104504774D01*
X140027897Y-104500000D01*
X140051898Y-104495226D01*
X140240256Y-104417205D01*
X140409774Y-104303937D01*
X140553937Y-104159774D01*
X140667205Y-103990256D01*
X140745226Y-103801898D01*
X140785000Y-103601939D01*
X140785000Y-103398061D01*
X140745226Y-103198102D01*
X140667205Y-103009744D01*
X140553937Y-102840226D01*
X140409774Y-102696063D01*
X140240256Y-102582795D01*
X140051898Y-102504774D01*
X139851939Y-102465000D01*
X139648061Y-102465000D01*
X139448102Y-102504774D01*
X139259744Y-102582795D01*
X139103490Y-102687200D01*
X139039920Y-102687200D01*
X138999999Y-102683268D01*
X138960079Y-102687200D01*
X138960077Y-102687200D01*
X138840663Y-102698961D01*
X138687450Y-102745438D01*
X138595432Y-102794623D01*
X138546247Y-102820912D01*
X138508037Y-102852271D01*
X138422483Y-102922483D01*
X138397028Y-102953500D01*
X133703500Y-107647028D01*
X133672483Y-107672483D01*
X133570912Y-107796249D01*
X133495438Y-107937451D01*
X133448961Y-108090664D01*
X133437200Y-108210077D01*
X133433268Y-108250000D01*
X133437200Y-108289920D01*
X133437201Y-141210070D01*
X133433268Y-141250000D01*
X133441423Y-141332795D01*
X133448962Y-141409337D01*
X133457520Y-141437549D01*
X133495438Y-141562549D01*
X133570912Y-141703751D01*
X133616864Y-141759744D01*
X133672484Y-141827517D01*
X133703494Y-141852966D01*
X137690527Y-145840000D01*
X98333509Y-145840000D01*
X98728839Y-145444670D01*
X99148533Y-144816554D01*
X99437623Y-144118628D01*
X99585000Y-143377715D01*
X99585000Y-142622285D01*
X99437623Y-141881372D01*
X99148533Y-141183446D01*
X98728839Y-140555330D01*
X98194670Y-140021161D01*
X97566554Y-139601467D01*
X96868628Y-139312377D01*
X96127715Y-139165000D01*
X95372285Y-139165000D01*
X94631372Y-139312377D01*
X93933446Y-139601467D01*
X93305330Y-140021161D01*
X92910000Y-140416491D01*
X92910000Y-138363589D01*
X103115000Y-138363589D01*
X103115000Y-138636411D01*
X103168225Y-138903989D01*
X103272629Y-139156043D01*
X103424201Y-139382886D01*
X103617114Y-139575799D01*
X103843957Y-139727371D01*
X104096011Y-139831775D01*
X104363589Y-139885000D01*
X104636411Y-139885000D01*
X104903989Y-139831775D01*
X105156043Y-139727371D01*
X105382886Y-139575799D01*
X105575799Y-139382886D01*
X105727371Y-139156043D01*
X105831775Y-138903989D01*
X105885000Y-138636411D01*
X105885000Y-138363589D01*
X107995000Y-138363589D01*
X107995000Y-138636411D01*
X108048225Y-138903989D01*
X108152629Y-139156043D01*
X108304201Y-139382886D01*
X108497114Y-139575799D01*
X108723957Y-139727371D01*
X108976011Y-139831775D01*
X109243589Y-139885000D01*
X109516411Y-139885000D01*
X109783989Y-139831775D01*
X110036043Y-139727371D01*
X110262886Y-139575799D01*
X110455799Y-139382886D01*
X110607371Y-139156043D01*
X110711775Y-138903989D01*
X110765000Y-138636411D01*
X110765000Y-138363589D01*
X110711775Y-138096011D01*
X110607371Y-137843957D01*
X110455799Y-137617114D01*
X110262886Y-137424201D01*
X110036043Y-137272629D01*
X109783989Y-137168225D01*
X109516411Y-137115000D01*
X109243589Y-137115000D01*
X108976011Y-137168225D01*
X108723957Y-137272629D01*
X108497114Y-137424201D01*
X108304201Y-137617114D01*
X108152629Y-137843957D01*
X108048225Y-138096011D01*
X107995000Y-138363589D01*
X105885000Y-138363589D01*
X105831775Y-138096011D01*
X105727371Y-137843957D01*
X105575799Y-137617114D01*
X105382886Y-137424201D01*
X105156043Y-137272629D01*
X104903989Y-137168225D01*
X104636411Y-137115000D01*
X104363589Y-137115000D01*
X104096011Y-137168225D01*
X103843957Y-137272629D01*
X103617114Y-137424201D01*
X103424201Y-137617114D01*
X103272629Y-137843957D01*
X103168225Y-138096011D01*
X103115000Y-138363589D01*
X92910000Y-138363589D01*
X92910000Y-135853740D01*
X117395000Y-135853740D01*
X117395000Y-136146260D01*
X117452068Y-136433158D01*
X117564010Y-136703411D01*
X117726525Y-136946632D01*
X117933368Y-137153475D01*
X118176589Y-137315990D01*
X118446842Y-137427932D01*
X118733740Y-137485000D01*
X119026260Y-137485000D01*
X119313158Y-137427932D01*
X119583411Y-137315990D01*
X119826632Y-137153475D01*
X120033475Y-136946632D01*
X120150000Y-136772240D01*
X120266525Y-136946632D01*
X120473368Y-137153475D01*
X120716589Y-137315990D01*
X120986842Y-137427932D01*
X121273740Y-137485000D01*
X121566260Y-137485000D01*
X121853158Y-137427932D01*
X122123411Y-137315990D01*
X122366632Y-137153475D01*
X122573475Y-136946632D01*
X122690000Y-136772240D01*
X122806525Y-136946632D01*
X123013368Y-137153475D01*
X123256589Y-137315990D01*
X123526842Y-137427932D01*
X123813740Y-137485000D01*
X124106260Y-137485000D01*
X124393158Y-137427932D01*
X124663411Y-137315990D01*
X124906632Y-137153475D01*
X125038487Y-137021620D01*
X125060498Y-137094180D01*
X125119463Y-137204494D01*
X125198815Y-137301185D01*
X125295506Y-137380537D01*
X125405820Y-137439502D01*
X125525518Y-137475812D01*
X125650000Y-137488072D01*
X127350000Y-137488072D01*
X127474482Y-137475812D01*
X127594180Y-137439502D01*
X127704494Y-137380537D01*
X127801185Y-137301185D01*
X127880537Y-137204494D01*
X127939502Y-137094180D01*
X127975812Y-136974482D01*
X127988072Y-136850000D01*
X127988072Y-135150000D01*
X127975812Y-135025518D01*
X127939502Y-134905820D01*
X127880537Y-134795506D01*
X127801185Y-134698815D01*
X127704494Y-134619463D01*
X127594180Y-134560498D01*
X127474482Y-134524188D01*
X127350000Y-134511928D01*
X125650000Y-134511928D01*
X125525518Y-134524188D01*
X125405820Y-134560498D01*
X125295506Y-134619463D01*
X125198815Y-134698815D01*
X125119463Y-134795506D01*
X125060498Y-134905820D01*
X125038487Y-134978380D01*
X124906632Y-134846525D01*
X124663411Y-134684010D01*
X124393158Y-134572068D01*
X124106260Y-134515000D01*
X123813740Y-134515000D01*
X123526842Y-134572068D01*
X123256589Y-134684010D01*
X123013368Y-134846525D01*
X122806525Y-135053368D01*
X122690000Y-135227760D01*
X122573475Y-135053368D01*
X122366632Y-134846525D01*
X122123411Y-134684010D01*
X121853158Y-134572068D01*
X121566260Y-134515000D01*
X121273740Y-134515000D01*
X120986842Y-134572068D01*
X120716589Y-134684010D01*
X120473368Y-134846525D01*
X120266525Y-135053368D01*
X120150000Y-135227760D01*
X120033475Y-135053368D01*
X119826632Y-134846525D01*
X119583411Y-134684010D01*
X119313158Y-134572068D01*
X119026260Y-134515000D01*
X118733740Y-134515000D01*
X118446842Y-134572068D01*
X118176589Y-134684010D01*
X117933368Y-134846525D01*
X117726525Y-135053368D01*
X117564010Y-135296589D01*
X117452068Y-135566842D01*
X117395000Y-135853740D01*
X92910000Y-135853740D01*
X92910000Y-125733740D01*
X101265000Y-125733740D01*
X101265000Y-126026260D01*
X101322068Y-126313158D01*
X101434010Y-126583411D01*
X101596525Y-126826632D01*
X101803368Y-127033475D01*
X101977760Y-127150000D01*
X101803368Y-127266525D01*
X101596525Y-127473368D01*
X101434010Y-127716589D01*
X101322068Y-127986842D01*
X101265000Y-128273740D01*
X101265000Y-128566260D01*
X101322068Y-128853158D01*
X101434010Y-129123411D01*
X101596525Y-129366632D01*
X101803368Y-129573475D01*
X101977760Y-129690000D01*
X101803368Y-129806525D01*
X101596525Y-130013368D01*
X101434010Y-130256589D01*
X101322068Y-130526842D01*
X101265000Y-130813740D01*
X101265000Y-131106260D01*
X101322068Y-131393158D01*
X101434010Y-131663411D01*
X101596525Y-131906632D01*
X101803368Y-132113475D01*
X102046589Y-132275990D01*
X102316842Y-132387932D01*
X102603740Y-132445000D01*
X102896260Y-132445000D01*
X103183158Y-132387932D01*
X103453411Y-132275990D01*
X103696632Y-132113475D01*
X103903475Y-131906632D01*
X104065990Y-131663411D01*
X104177932Y-131393158D01*
X104235000Y-131106260D01*
X104235000Y-130813740D01*
X104177932Y-130526842D01*
X104065990Y-130256589D01*
X103903475Y-130013368D01*
X103696632Y-129806525D01*
X103522240Y-129690000D01*
X103696632Y-129573475D01*
X103903475Y-129366632D01*
X104065990Y-129123411D01*
X104177932Y-128853158D01*
X104235000Y-128566260D01*
X104235000Y-128273740D01*
X104177932Y-127986842D01*
X104065990Y-127716589D01*
X103903475Y-127473368D01*
X103696632Y-127266525D01*
X103522240Y-127150000D01*
X103696632Y-127033475D01*
X103903475Y-126826632D01*
X104065990Y-126583411D01*
X104177932Y-126313158D01*
X104235000Y-126026260D01*
X104235000Y-125733740D01*
X104177932Y-125446842D01*
X104065990Y-125176589D01*
X103903475Y-124933368D01*
X103696632Y-124726525D01*
X103453411Y-124564010D01*
X103183158Y-124452068D01*
X102896260Y-124395000D01*
X102603740Y-124395000D01*
X102316842Y-124452068D01*
X102046589Y-124564010D01*
X101803368Y-124726525D01*
X101596525Y-124933368D01*
X101434010Y-125176589D01*
X101322068Y-125446842D01*
X101265000Y-125733740D01*
X92910000Y-125733740D01*
X92910000Y-121584042D01*
X95805000Y-121584042D01*
X95805000Y-121915958D01*
X95869754Y-122241496D01*
X95996772Y-122548147D01*
X96181175Y-122824125D01*
X96415875Y-123058825D01*
X96691853Y-123243228D01*
X96998504Y-123370246D01*
X97324042Y-123435000D01*
X97655958Y-123435000D01*
X97981496Y-123370246D01*
X98288147Y-123243228D01*
X98564125Y-123058825D01*
X98798825Y-122824125D01*
X98983228Y-122548147D01*
X99110246Y-122241496D01*
X99175000Y-121915958D01*
X99175000Y-121584042D01*
X99110246Y-121258504D01*
X98983228Y-120951853D01*
X98798825Y-120675875D01*
X98564125Y-120441175D01*
X98288147Y-120256772D01*
X97981496Y-120129754D01*
X97655958Y-120065000D01*
X97324042Y-120065000D01*
X96998504Y-120129754D01*
X96691853Y-120256772D01*
X96415875Y-120441175D01*
X96181175Y-120675875D01*
X95996772Y-120951853D01*
X95869754Y-121258504D01*
X95805000Y-121584042D01*
X92910000Y-121584042D01*
X92910000Y-115851278D01*
X93490000Y-115851278D01*
X93490000Y-116148722D01*
X93548029Y-116440451D01*
X93661856Y-116715253D01*
X93827107Y-116962569D01*
X94037431Y-117172893D01*
X94284747Y-117338144D01*
X94559549Y-117451971D01*
X94851278Y-117510000D01*
X95148722Y-117510000D01*
X95440451Y-117451971D01*
X95715253Y-117338144D01*
X95962569Y-117172893D01*
X96172893Y-116962569D01*
X96338144Y-116715253D01*
X96451971Y-116440451D01*
X96510000Y-116148722D01*
X96510000Y-116111717D01*
X96691853Y-116233228D01*
X96998504Y-116360246D01*
X97324042Y-116425000D01*
X97655958Y-116425000D01*
X97981496Y-116360246D01*
X98288147Y-116233228D01*
X98564125Y-116048825D01*
X98798825Y-115814125D01*
X98983228Y-115538147D01*
X99110246Y-115231496D01*
X99175000Y-114905958D01*
X99175000Y-114574042D01*
X99110246Y-114248504D01*
X98983228Y-113941853D01*
X98798825Y-113665875D01*
X98564125Y-113431175D01*
X98288147Y-113246772D01*
X97981496Y-113119754D01*
X97655958Y-113055000D01*
X97324042Y-113055000D01*
X96998504Y-113119754D01*
X96691853Y-113246772D01*
X96415875Y-113431175D01*
X96181175Y-113665875D01*
X95996772Y-113941853D01*
X95869754Y-114248504D01*
X95805000Y-114574042D01*
X95805000Y-114721823D01*
X95715253Y-114661856D01*
X95440451Y-114548029D01*
X95148722Y-114490000D01*
X94851278Y-114490000D01*
X94559549Y-114548029D01*
X94284747Y-114661856D01*
X94037431Y-114827107D01*
X93827107Y-115037431D01*
X93661856Y-115284747D01*
X93548029Y-115559549D01*
X93490000Y-115851278D01*
X92910000Y-115851278D01*
X92910000Y-113032279D01*
X92967192Y-112448990D01*
X93127216Y-111918964D01*
X93387140Y-111430121D01*
X93737065Y-111001069D01*
X94163664Y-110648156D01*
X94650681Y-110384827D01*
X95179578Y-110221106D01*
X95760960Y-110160000D01*
X100032419Y-110160000D01*
X100062408Y-110157046D01*
X100084252Y-110157199D01*
X100093423Y-110156299D01*
X100772762Y-110084897D01*
X100831325Y-110072876D01*
X100890118Y-110061661D01*
X100898940Y-110058997D01*
X101551472Y-109857005D01*
X101606615Y-109833825D01*
X101662080Y-109811416D01*
X101670217Y-109807089D01*
X102271087Y-109482200D01*
X102320671Y-109448755D01*
X102370734Y-109415995D01*
X102377875Y-109410171D01*
X102904198Y-108974759D01*
X102946358Y-108932303D01*
X102989088Y-108890459D01*
X102994962Y-108883359D01*
X103426688Y-108354009D01*
X103459780Y-108304200D01*
X103493587Y-108254828D01*
X103497969Y-108246721D01*
X103818656Y-107643598D01*
X103841440Y-107588318D01*
X103865017Y-107533310D01*
X103867742Y-107524507D01*
X104065174Y-106870581D01*
X104076797Y-106811880D01*
X104089230Y-106753390D01*
X104090193Y-106744225D01*
X104156850Y-106064405D01*
X104156850Y-106064402D01*
X104160000Y-106032419D01*
X104160000Y-84217581D01*
X104157046Y-84187592D01*
X104157199Y-84165748D01*
X104156299Y-84156577D01*
X104084897Y-83477238D01*
X104072876Y-83418675D01*
X104061661Y-83359882D01*
X104058997Y-83351060D01*
X103857005Y-82698528D01*
X103833820Y-82643373D01*
X103811416Y-82587920D01*
X103807089Y-82579784D01*
X103807089Y-82579783D01*
X103807086Y-82579779D01*
X103482200Y-81978913D01*
X103448755Y-81929329D01*
X103415995Y-81879266D01*
X103410171Y-81872125D01*
X102974759Y-81345802D01*
X102932303Y-81303642D01*
X102890459Y-81260912D01*
X102883358Y-81255038D01*
X102354009Y-80823312D01*
X102304182Y-80790208D01*
X102254827Y-80756413D01*
X102246724Y-80752032D01*
X102246716Y-80752028D01*
X101643597Y-80431344D01*
X101588291Y-80408548D01*
X101533310Y-80384983D01*
X101524507Y-80382258D01*
X100870581Y-80184826D01*
X100811878Y-80173203D01*
X100753389Y-80160770D01*
X100744225Y-80159807D01*
X100064405Y-80093150D01*
X100064402Y-80093150D01*
X100032419Y-80090000D01*
X95782279Y-80090000D01*
X95198990Y-80032808D01*
X94668964Y-79872783D01*
X94180120Y-79612860D01*
X93751069Y-79262935D01*
X93398155Y-78836335D01*
X93134827Y-78349320D01*
X92971106Y-77820422D01*
X92910000Y-77239040D01*
X92910000Y-76898061D01*
X99715000Y-76898061D01*
X99715000Y-77101939D01*
X99754774Y-77301898D01*
X99832795Y-77490256D01*
X99946063Y-77659774D01*
X100090226Y-77803937D01*
X100259744Y-77917205D01*
X100448102Y-77995226D01*
X100497895Y-78005130D01*
X104861001Y-82368237D01*
X104861000Y-90206340D01*
X104856700Y-90250000D01*
X104861000Y-90293660D01*
X104861000Y-90293666D01*
X104873864Y-90424273D01*
X104924697Y-90591850D01*
X105007247Y-90746290D01*
X105118341Y-90881659D01*
X105152264Y-90909499D01*
X106494870Y-92252106D01*
X106504774Y-92301898D01*
X106582795Y-92490256D01*
X106696063Y-92659774D01*
X106840226Y-92803937D01*
X107009744Y-92917205D01*
X107198102Y-92995226D01*
X107398061Y-93035000D01*
X107601939Y-93035000D01*
X107801898Y-92995226D01*
X107865000Y-92969088D01*
X107865000Y-106542893D01*
X107870432Y-106625776D01*
X107887469Y-106755186D01*
X107930373Y-106915307D01*
X107980323Y-107035897D01*
X108063208Y-107179457D01*
X108142668Y-107283011D01*
X108197434Y-107345460D01*
X110865000Y-110013026D01*
X110865000Y-112250000D01*
X110870432Y-112332883D01*
X110887469Y-112462293D01*
X110930373Y-112622414D01*
X110980323Y-112743004D01*
X111063210Y-112886567D01*
X111142670Y-112990120D01*
X111259880Y-113107330D01*
X111363433Y-113186790D01*
X111506996Y-113269677D01*
X111627586Y-113319627D01*
X111787707Y-113362531D01*
X111917117Y-113379568D01*
X112000000Y-113385000D01*
X113000000Y-113385000D01*
X113082883Y-113379568D01*
X113212293Y-113362531D01*
X113372414Y-113319627D01*
X113493004Y-113269677D01*
X113636567Y-113186790D01*
X113740120Y-113107330D01*
X113857330Y-112990120D01*
X113936790Y-112886567D01*
X114019677Y-112743004D01*
X114069627Y-112622414D01*
X114112531Y-112462293D01*
X114129568Y-112332883D01*
X114135000Y-112250000D01*
X114135000Y-109457107D01*
X114129568Y-109374224D01*
X114112531Y-109244814D01*
X114069627Y-109084693D01*
X114019677Y-108964103D01*
X113936792Y-108820543D01*
X113857332Y-108716989D01*
X113802566Y-108654540D01*
X110635000Y-105486974D01*
X110635000Y-90898061D01*
X112215000Y-90898061D01*
X112215000Y-91101939D01*
X112254774Y-91301898D01*
X112332795Y-91490256D01*
X112446063Y-91659774D01*
X112590226Y-91803937D01*
X112759744Y-91917205D01*
X112948102Y-91995226D01*
X113148061Y-92035000D01*
X113351939Y-92035000D01*
X113551898Y-91995226D01*
X113740256Y-91917205D01*
X113909774Y-91803937D01*
X113953711Y-91760000D01*
X115332689Y-91760000D01*
X115254774Y-91948102D01*
X115215000Y-92148061D01*
X115215000Y-92351939D01*
X115254774Y-92551898D01*
X115332795Y-92740256D01*
X115446063Y-92909774D01*
X115590226Y-93053937D01*
X115759744Y-93167205D01*
X115948102Y-93245226D01*
X116148061Y-93285000D01*
X116210199Y-93285000D01*
X119186205Y-96261008D01*
X119209999Y-96290001D01*
X119238992Y-96313795D01*
X119238996Y-96313799D01*
X119309685Y-96371811D01*
X119325724Y-96384974D01*
X119457753Y-96455546D01*
X119601014Y-96499003D01*
X119712667Y-96510000D01*
X119712676Y-96510000D01*
X119749999Y-96513676D01*
X119787322Y-96510000D01*
X129546289Y-96510000D01*
X129590226Y-96553937D01*
X129759744Y-96667205D01*
X129948102Y-96745226D01*
X130148061Y-96785000D01*
X130351939Y-96785000D01*
X130551898Y-96745226D01*
X130740256Y-96667205D01*
X130909774Y-96553937D01*
X131053937Y-96409774D01*
X131167205Y-96240256D01*
X131245226Y-96051898D01*
X131285000Y-95851939D01*
X131285000Y-95648061D01*
X131245226Y-95448102D01*
X131167205Y-95259744D01*
X131053937Y-95090226D01*
X130927972Y-94964261D01*
X130995226Y-94801898D01*
X131035000Y-94601939D01*
X131035000Y-94398061D01*
X130995226Y-94198102D01*
X130917205Y-94009744D01*
X130803937Y-93840226D01*
X130659774Y-93696063D01*
X130490256Y-93582795D01*
X130301898Y-93504774D01*
X130101939Y-93465000D01*
X129898061Y-93465000D01*
X129698102Y-93504774D01*
X129521084Y-93578098D01*
X129495226Y-93448102D01*
X129417205Y-93259744D01*
X129303937Y-93090226D01*
X129159774Y-92946063D01*
X128990256Y-92832795D01*
X128801898Y-92754774D01*
X128601939Y-92715000D01*
X128398061Y-92715000D01*
X128198102Y-92754774D01*
X128009744Y-92832795D01*
X127840226Y-92946063D01*
X127796289Y-92990000D01*
X121064802Y-92990000D01*
X117563804Y-89489003D01*
X117540001Y-89459999D01*
X117424276Y-89365026D01*
X117292247Y-89294454D01*
X117148986Y-89250997D01*
X117037333Y-89240000D01*
X117037322Y-89240000D01*
X117000000Y-89236324D01*
X116962678Y-89240000D01*
X114953711Y-89240000D01*
X114909774Y-89196063D01*
X114740256Y-89082795D01*
X114551898Y-89004774D01*
X114351939Y-88965000D01*
X114148061Y-88965000D01*
X113948102Y-89004774D01*
X113759744Y-89082795D01*
X113590226Y-89196063D01*
X113446063Y-89340226D01*
X113332795Y-89509744D01*
X113254774Y-89698102D01*
X113215000Y-89898061D01*
X113215000Y-89965000D01*
X113148061Y-89965000D01*
X112948102Y-90004774D01*
X112759744Y-90082795D01*
X112590226Y-90196063D01*
X112446063Y-90340226D01*
X112332795Y-90509744D01*
X112254774Y-90698102D01*
X112215000Y-90898061D01*
X110635000Y-90898061D01*
X110635000Y-80957107D01*
X110629568Y-80874224D01*
X110612531Y-80744814D01*
X110569627Y-80584693D01*
X110519677Y-80464103D01*
X110436792Y-80320543D01*
X110357332Y-80216989D01*
X110302566Y-80154540D01*
X107135000Y-76986974D01*
X107135000Y-75603740D01*
X109805000Y-75603740D01*
X109805000Y-75896260D01*
X109862068Y-76183158D01*
X109974010Y-76453411D01*
X110136525Y-76696632D01*
X110343368Y-76903475D01*
X110586589Y-77065990D01*
X110856842Y-77177932D01*
X111143740Y-77235000D01*
X111436260Y-77235000D01*
X111723158Y-77177932D01*
X111993411Y-77065990D01*
X112236632Y-76903475D01*
X112443475Y-76696632D01*
X112560000Y-76522240D01*
X112676525Y-76696632D01*
X112883368Y-76903475D01*
X113126589Y-77065990D01*
X113396842Y-77177932D01*
X113683740Y-77235000D01*
X113976260Y-77235000D01*
X114263158Y-77177932D01*
X114533411Y-77065990D01*
X114776632Y-76903475D01*
X114983475Y-76696632D01*
X115100000Y-76522240D01*
X115216525Y-76696632D01*
X115423368Y-76903475D01*
X115666589Y-77065990D01*
X115936842Y-77177932D01*
X116223740Y-77235000D01*
X116516260Y-77235000D01*
X116803158Y-77177932D01*
X117073411Y-77065990D01*
X117316632Y-76903475D01*
X117523475Y-76696632D01*
X117640000Y-76522240D01*
X117756525Y-76696632D01*
X117963368Y-76903475D01*
X118206589Y-77065990D01*
X118476842Y-77177932D01*
X118763740Y-77235000D01*
X119056260Y-77235000D01*
X119343158Y-77177932D01*
X119613411Y-77065990D01*
X119856632Y-76903475D01*
X120063475Y-76696632D01*
X120225990Y-76453411D01*
X120337932Y-76183158D01*
X120395000Y-75896260D01*
X120395000Y-75603740D01*
X120337932Y-75316842D01*
X120225990Y-75046589D01*
X120063475Y-74803368D01*
X119856632Y-74596525D01*
X119613411Y-74434010D01*
X119343158Y-74322068D01*
X119056260Y-74265000D01*
X118763740Y-74265000D01*
X118476842Y-74322068D01*
X118206589Y-74434010D01*
X117963368Y-74596525D01*
X117756525Y-74803368D01*
X117640000Y-74977760D01*
X117523475Y-74803368D01*
X117316632Y-74596525D01*
X117073411Y-74434010D01*
X116803158Y-74322068D01*
X116516260Y-74265000D01*
X116223740Y-74265000D01*
X115936842Y-74322068D01*
X115666589Y-74434010D01*
X115423368Y-74596525D01*
X115216525Y-74803368D01*
X115100000Y-74977760D01*
X114983475Y-74803368D01*
X114776632Y-74596525D01*
X114533411Y-74434010D01*
X114263158Y-74322068D01*
X113976260Y-74265000D01*
X113683740Y-74265000D01*
X113396842Y-74322068D01*
X113126589Y-74434010D01*
X112883368Y-74596525D01*
X112676525Y-74803368D01*
X112560000Y-74977760D01*
X112443475Y-74803368D01*
X112236632Y-74596525D01*
X111993411Y-74434010D01*
X111723158Y-74322068D01*
X111436260Y-74265000D01*
X111143740Y-74265000D01*
X110856842Y-74322068D01*
X110586589Y-74434010D01*
X110343368Y-74596525D01*
X110136525Y-74803368D01*
X109974010Y-75046589D01*
X109862068Y-75316842D01*
X109805000Y-75603740D01*
X107135000Y-75603740D01*
X107135000Y-74013026D01*
X109013026Y-72135000D01*
X146236974Y-72135000D01*
X147365000Y-73263026D01*
X147365000Y-79250000D01*
X147370432Y-79332883D01*
X147387469Y-79462293D01*
X147430373Y-79622414D01*
X147480323Y-79743004D01*
X147563210Y-79886567D01*
X147642670Y-79990120D01*
X147759880Y-80107330D01*
X147863433Y-80186790D01*
X148006996Y-80269677D01*
X148127586Y-80319627D01*
X148287707Y-80362531D01*
X148417117Y-80379568D01*
X148500000Y-80385000D01*
X152500000Y-80385000D01*
X152582883Y-80379568D01*
X152712293Y-80362531D01*
X152872414Y-80319627D01*
X152993004Y-80269677D01*
X153136567Y-80186790D01*
X153240120Y-80107330D01*
X153357330Y-79990120D01*
X153436790Y-79886567D01*
X153519677Y-79743004D01*
X153569627Y-79622414D01*
X153612531Y-79462293D01*
X153629568Y-79332883D01*
X153635000Y-79250000D01*
X153635000Y-73957107D01*
X153629568Y-73874224D01*
X153612531Y-73744814D01*
X153569627Y-73584693D01*
X153519677Y-73464103D01*
X153436792Y-73320543D01*
X153357332Y-73216989D01*
X153302566Y-73154540D01*
X149345460Y-69197434D01*
X149283011Y-69142668D01*
X149179457Y-69063208D01*
X149035897Y-68980323D01*
X148915307Y-68930373D01*
X148755186Y-68887469D01*
X148625776Y-68870432D01*
X148542893Y-68865000D01*
X108457107Y-68865000D01*
X108374224Y-68870432D01*
X108244814Y-68887469D01*
X108084693Y-68930373D01*
X107964103Y-68980323D01*
X107820543Y-69063208D01*
X107716989Y-69142668D01*
X107654540Y-69197434D01*
X104447434Y-72404540D01*
X104392668Y-72466989D01*
X104313208Y-72570543D01*
X104230323Y-72714103D01*
X104180373Y-72834693D01*
X104137469Y-72994814D01*
X104120432Y-73124224D01*
X104115000Y-73207107D01*
X104115000Y-77792893D01*
X104120432Y-77875776D01*
X104137469Y-78005186D01*
X104180373Y-78165307D01*
X104230323Y-78285897D01*
X104313208Y-78429457D01*
X104392668Y-78533011D01*
X104447434Y-78595460D01*
X107865000Y-82013026D01*
X107865000Y-91030912D01*
X107801898Y-91004774D01*
X107752106Y-90994870D01*
X106639000Y-89881765D01*
X106639000Y-82043660D01*
X106643300Y-82000000D01*
X106639000Y-81956340D01*
X106639000Y-81956333D01*
X106626136Y-81825726D01*
X106605408Y-81757392D01*
X106591056Y-81710080D01*
X106575303Y-81658149D01*
X106492753Y-81503709D01*
X106381659Y-81368341D01*
X106347742Y-81340506D01*
X101755130Y-76747895D01*
X101745226Y-76698102D01*
X101667205Y-76509744D01*
X101553937Y-76340226D01*
X101409774Y-76196063D01*
X101240256Y-76082795D01*
X101051898Y-76004774D01*
X100851939Y-75965000D01*
X100648061Y-75965000D01*
X100448102Y-76004774D01*
X100259744Y-76082795D01*
X100090226Y-76196063D01*
X99946063Y-76340226D01*
X99832795Y-76509744D01*
X99754774Y-76698102D01*
X99715000Y-76898061D01*
X92910000Y-76898061D01*
X92910000Y-71333509D01*
X93252386Y-71675895D01*
X93880502Y-72095589D01*
X94578428Y-72384679D01*
X95319341Y-72532056D01*
X96074771Y-72532056D01*
X96815684Y-72384679D01*
X97513610Y-72095589D01*
X98141726Y-71675895D01*
X98675895Y-71141726D01*
X99095589Y-70513610D01*
X99384679Y-69815684D01*
X99532056Y-69074771D01*
X99532056Y-68319341D01*
X99384679Y-67578428D01*
X99095589Y-66880502D01*
X98675895Y-66252386D01*
X98333509Y-65910000D01*
X175416491Y-65910000D01*
X175021161Y-66305330D01*
G37*
%TD.AperFunction*%
D25*
X140468112Y-143117585D02*
X140504774Y-143301898D01*
X140560818Y-143437200D01*
X139586672Y-143437200D01*
X138962272Y-142812800D01*
X140163328Y-142812800D01*
X140468112Y-143117585D01*
%TA.AperFunction,Conductor*%
D26*
G36*
X140468112Y-143117585D02*
G01*
X140504774Y-143301898D01*
X140560818Y-143437200D01*
X139586672Y-143437200D01*
X138962272Y-142812800D01*
X140163328Y-142812800D01*
X140468112Y-143117585D01*
G37*
%TD.AperFunction*%
%TD*%
D25*
%TO.N,+3V3*%
X148639150Y-69640769D02*
X148728845Y-69677922D01*
X148812528Y-69742134D01*
X152757866Y-73687472D01*
X152822078Y-73771155D01*
X152859231Y-73860850D01*
X152873000Y-73965435D01*
X152873000Y-79241672D01*
X152859231Y-79346257D01*
X152822077Y-79435955D01*
X152762976Y-79512976D01*
X152685955Y-79572077D01*
X152596257Y-79609231D01*
X152491672Y-79623000D01*
X148508328Y-79623000D01*
X148403743Y-79609231D01*
X148314045Y-79572077D01*
X148237024Y-79512976D01*
X148177923Y-79435955D01*
X148140769Y-79346257D01*
X148127000Y-79241672D01*
X148127000Y-73207107D01*
X148125914Y-73190530D01*
X148108877Y-73061120D01*
X148100296Y-73029096D01*
X148050346Y-72908506D01*
X148033769Y-72879794D01*
X147954309Y-72776240D01*
X147943356Y-72763750D01*
X146736250Y-71556644D01*
X146723760Y-71545691D01*
X146620206Y-71466231D01*
X146591494Y-71449654D01*
X146470904Y-71399704D01*
X146438880Y-71391123D01*
X146309470Y-71374086D01*
X146292893Y-71373000D01*
X108957107Y-71373000D01*
X108940530Y-71374086D01*
X108811120Y-71391123D01*
X108779096Y-71399704D01*
X108658506Y-71449654D01*
X108629794Y-71466231D01*
X108526240Y-71545691D01*
X108513750Y-71556644D01*
X106556644Y-73513750D01*
X106545691Y-73526240D01*
X106466231Y-73629794D01*
X106449654Y-73658506D01*
X106399704Y-73779096D01*
X106391123Y-73811120D01*
X106374086Y-73940530D01*
X106373000Y-73957107D01*
X106373000Y-77042893D01*
X106374086Y-77059470D01*
X106391123Y-77188880D01*
X106399704Y-77220904D01*
X106449654Y-77341494D01*
X106466231Y-77370206D01*
X106545691Y-77473760D01*
X106556644Y-77486250D01*
X109757866Y-80687472D01*
X109822078Y-80771155D01*
X109859231Y-80860850D01*
X109873000Y-80965435D01*
X109873000Y-105542893D01*
X109874086Y-105559470D01*
X109891123Y-105688880D01*
X109899704Y-105720904D01*
X109949654Y-105841494D01*
X109966231Y-105870206D01*
X110045691Y-105973760D01*
X110056644Y-105986250D01*
X113257866Y-109187472D01*
X113322078Y-109271155D01*
X113359231Y-109360850D01*
X113373000Y-109465435D01*
X113373000Y-112241672D01*
X113359231Y-112346257D01*
X113322077Y-112435955D01*
X113262976Y-112512976D01*
X113185955Y-112572077D01*
X113096257Y-112609231D01*
X112991672Y-112623000D01*
X112008328Y-112623000D01*
X111903743Y-112609231D01*
X111814045Y-112572077D01*
X111737024Y-112512976D01*
X111677923Y-112435955D01*
X111640769Y-112346257D01*
X111627000Y-112241672D01*
X111627000Y-109957107D01*
X111625914Y-109940530D01*
X111608877Y-109811120D01*
X111600296Y-109779096D01*
X111550346Y-109658506D01*
X111533769Y-109629794D01*
X111454309Y-109526240D01*
X111443356Y-109513750D01*
X108742134Y-106812528D01*
X108677922Y-106728845D01*
X108640769Y-106639150D01*
X108627000Y-106534565D01*
X108627000Y-81957107D01*
X108625914Y-81940530D01*
X108608877Y-81811120D01*
X108600296Y-81779096D01*
X108550346Y-81658506D01*
X108533769Y-81629794D01*
X108454309Y-81526240D01*
X108443356Y-81513750D01*
X104992134Y-78062528D01*
X104927922Y-77978845D01*
X104890769Y-77889150D01*
X104877000Y-77784565D01*
X104877000Y-73215435D01*
X104890769Y-73110850D01*
X104927922Y-73021155D01*
X104992134Y-72937472D01*
X108187472Y-69742134D01*
X108271155Y-69677922D01*
X108360850Y-69640769D01*
X108465435Y-69627000D01*
X148534565Y-69627000D01*
X148639150Y-69640769D01*
%TA.AperFunction,Conductor*%
D26*
G36*
X148639150Y-69640769D02*
G01*
X148728845Y-69677922D01*
X148812528Y-69742134D01*
X152757866Y-73687472D01*
X152822078Y-73771155D01*
X152859231Y-73860850D01*
X152873000Y-73965435D01*
X152873000Y-79241672D01*
X152859231Y-79346257D01*
X152822077Y-79435955D01*
X152762976Y-79512976D01*
X152685955Y-79572077D01*
X152596257Y-79609231D01*
X152491672Y-79623000D01*
X148508328Y-79623000D01*
X148403743Y-79609231D01*
X148314045Y-79572077D01*
X148237024Y-79512976D01*
X148177923Y-79435955D01*
X148140769Y-79346257D01*
X148127000Y-79241672D01*
X148127000Y-73207107D01*
X148125914Y-73190530D01*
X148108877Y-73061120D01*
X148100296Y-73029096D01*
X148050346Y-72908506D01*
X148033769Y-72879794D01*
X147954309Y-72776240D01*
X147943356Y-72763750D01*
X146736250Y-71556644D01*
X146723760Y-71545691D01*
X146620206Y-71466231D01*
X146591494Y-71449654D01*
X146470904Y-71399704D01*
X146438880Y-71391123D01*
X146309470Y-71374086D01*
X146292893Y-71373000D01*
X108957107Y-71373000D01*
X108940530Y-71374086D01*
X108811120Y-71391123D01*
X108779096Y-71399704D01*
X108658506Y-71449654D01*
X108629794Y-71466231D01*
X108526240Y-71545691D01*
X108513750Y-71556644D01*
X106556644Y-73513750D01*
X106545691Y-73526240D01*
X106466231Y-73629794D01*
X106449654Y-73658506D01*
X106399704Y-73779096D01*
X106391123Y-73811120D01*
X106374086Y-73940530D01*
X106373000Y-73957107D01*
X106373000Y-77042893D01*
X106374086Y-77059470D01*
X106391123Y-77188880D01*
X106399704Y-77220904D01*
X106449654Y-77341494D01*
X106466231Y-77370206D01*
X106545691Y-77473760D01*
X106556644Y-77486250D01*
X109757866Y-80687472D01*
X109822078Y-80771155D01*
X109859231Y-80860850D01*
X109873000Y-80965435D01*
X109873000Y-105542893D01*
X109874086Y-105559470D01*
X109891123Y-105688880D01*
X109899704Y-105720904D01*
X109949654Y-105841494D01*
X109966231Y-105870206D01*
X110045691Y-105973760D01*
X110056644Y-105986250D01*
X113257866Y-109187472D01*
X113322078Y-109271155D01*
X113359231Y-109360850D01*
X113373000Y-109465435D01*
X113373000Y-112241672D01*
X113359231Y-112346257D01*
X113322077Y-112435955D01*
X113262976Y-112512976D01*
X113185955Y-112572077D01*
X113096257Y-112609231D01*
X112991672Y-112623000D01*
X112008328Y-112623000D01*
X111903743Y-112609231D01*
X111814045Y-112572077D01*
X111737024Y-112512976D01*
X111677923Y-112435955D01*
X111640769Y-112346257D01*
X111627000Y-112241672D01*
X111627000Y-109957107D01*
X111625914Y-109940530D01*
X111608877Y-109811120D01*
X111600296Y-109779096D01*
X111550346Y-109658506D01*
X111533769Y-109629794D01*
X111454309Y-109526240D01*
X111443356Y-109513750D01*
X108742134Y-106812528D01*
X108677922Y-106728845D01*
X108640769Y-106639150D01*
X108627000Y-106534565D01*
X108627000Y-81957107D01*
X108625914Y-81940530D01*
X108608877Y-81811120D01*
X108600296Y-81779096D01*
X108550346Y-81658506D01*
X108533769Y-81629794D01*
X108454309Y-81526240D01*
X108443356Y-81513750D01*
X104992134Y-78062528D01*
X104927922Y-77978845D01*
X104890769Y-77889150D01*
X104877000Y-77784565D01*
X104877000Y-73215435D01*
X104890769Y-73110850D01*
X104927922Y-73021155D01*
X104992134Y-72937472D01*
X108187472Y-69742134D01*
X108271155Y-69677922D01*
X108360850Y-69640769D01*
X108465435Y-69627000D01*
X148534565Y-69627000D01*
X148639150Y-69640769D01*
G37*
%TD.AperFunction*%
%TD*%
D25*
%TO.N,+5V*%
X145346257Y-85640769D02*
X145435955Y-85677923D01*
X145512976Y-85737024D01*
X145572077Y-85814045D01*
X145609231Y-85903743D01*
X145623000Y-86008328D01*
X145623000Y-88741672D01*
X145609231Y-88846257D01*
X145572077Y-88935955D01*
X145512976Y-89012976D01*
X145435955Y-89072077D01*
X145346257Y-89109231D01*
X145104013Y-89141123D01*
X145071989Y-89149704D01*
X144951399Y-89199654D01*
X144922687Y-89216232D01*
X144819134Y-89295692D01*
X144795692Y-89319134D01*
X144716232Y-89422687D01*
X144699654Y-89451399D01*
X144649704Y-89571989D01*
X144641123Y-89604013D01*
X144624086Y-89733423D01*
X144623000Y-89750000D01*
X144623000Y-94065038D01*
X144623885Y-94080003D01*
X144637769Y-94197012D01*
X144644773Y-94226109D01*
X144685654Y-94336620D01*
X144699272Y-94363271D01*
X144764879Y-94461147D01*
X144773946Y-94473085D01*
X146028317Y-95936517D01*
X146081354Y-96015641D01*
X146111776Y-96097881D01*
X146123000Y-96192469D01*
X146123000Y-98630723D01*
X146105588Y-98748034D01*
X146058909Y-98846661D01*
X145985597Y-98927478D01*
X145891969Y-98983519D01*
X145786102Y-99009949D01*
X145667659Y-99004016D01*
X145353251Y-98941135D01*
X145334675Y-98938827D01*
X145187868Y-98931499D01*
X145163001Y-98932701D01*
X145150711Y-98935139D01*
X145008118Y-98970817D01*
X144984675Y-98979198D01*
X144973624Y-98985105D01*
X144847567Y-99060706D01*
X144827574Y-99075542D01*
X144818719Y-99084406D01*
X144720093Y-99193395D01*
X144708591Y-99208162D01*
X144486331Y-99541551D01*
X144476449Y-99559304D01*
X144410285Y-99704393D01*
X144402225Y-99727948D01*
X144399571Y-99743452D01*
X144382451Y-99901993D01*
X144381893Y-99922303D01*
X144613092Y-104315072D01*
X144614849Y-104330473D01*
X144636027Y-104450451D01*
X144645079Y-104480043D01*
X144694645Y-104591337D01*
X144710586Y-104617862D01*
X144785597Y-104713864D01*
X144795868Y-104725474D01*
X146007866Y-105937472D01*
X146072078Y-106021155D01*
X146109231Y-106110850D01*
X146123000Y-106215435D01*
X146123000Y-108741672D01*
X146109231Y-108846257D01*
X146072077Y-108935955D01*
X146012976Y-109012976D01*
X145935955Y-109072077D01*
X145846257Y-109109231D01*
X145741672Y-109123000D01*
X145500000Y-109123000D01*
X145483423Y-109124086D01*
X145354013Y-109141123D01*
X145321989Y-109149704D01*
X145201399Y-109199654D01*
X145172687Y-109216232D01*
X145069134Y-109295692D01*
X145045692Y-109319134D01*
X144966232Y-109422687D01*
X144949654Y-109451399D01*
X144899704Y-109571989D01*
X144891123Y-109604013D01*
X144874086Y-109733423D01*
X144873000Y-109750000D01*
X144873000Y-114938649D01*
X144857444Y-115049676D01*
X144815601Y-115143978D01*
X144749452Y-115223148D01*
X144664093Y-115281091D01*
X144566096Y-115313342D01*
X144454075Y-115317774D01*
X142968352Y-115169201D01*
X142854164Y-115140538D01*
X142761161Y-115084980D01*
X142688135Y-115004965D01*
X142641285Y-114907287D01*
X142623148Y-114790960D01*
X142381303Y-86011496D01*
X142394333Y-85906268D01*
X142431114Y-85815862D01*
X142490152Y-85738137D01*
X142567369Y-85678455D01*
X142657464Y-85640915D01*
X142762589Y-85627000D01*
X145241672Y-85627000D01*
X145346257Y-85640769D01*
%TA.AperFunction,Conductor*%
D26*
G36*
X145346257Y-85640769D02*
G01*
X145435955Y-85677923D01*
X145512976Y-85737024D01*
X145572077Y-85814045D01*
X145609231Y-85903743D01*
X145623000Y-86008328D01*
X145623000Y-88741672D01*
X145609231Y-88846257D01*
X145572077Y-88935955D01*
X145512976Y-89012976D01*
X145435955Y-89072077D01*
X145346257Y-89109231D01*
X145104013Y-89141123D01*
X145071989Y-89149704D01*
X144951399Y-89199654D01*
X144922687Y-89216232D01*
X144819134Y-89295692D01*
X144795692Y-89319134D01*
X144716232Y-89422687D01*
X144699654Y-89451399D01*
X144649704Y-89571989D01*
X144641123Y-89604013D01*
X144624086Y-89733423D01*
X144623000Y-89750000D01*
X144623000Y-94065038D01*
X144623885Y-94080003D01*
X144637769Y-94197012D01*
X144644773Y-94226109D01*
X144685654Y-94336620D01*
X144699272Y-94363271D01*
X144764879Y-94461147D01*
X144773946Y-94473085D01*
X146028317Y-95936517D01*
X146081354Y-96015641D01*
X146111776Y-96097881D01*
X146123000Y-96192469D01*
X146123000Y-98630723D01*
X146105588Y-98748034D01*
X146058909Y-98846661D01*
X145985597Y-98927478D01*
X145891969Y-98983519D01*
X145786102Y-99009949D01*
X145667659Y-99004016D01*
X145353251Y-98941135D01*
X145334675Y-98938827D01*
X145187868Y-98931499D01*
X145163001Y-98932701D01*
X145150711Y-98935139D01*
X145008118Y-98970817D01*
X144984675Y-98979198D01*
X144973624Y-98985105D01*
X144847567Y-99060706D01*
X144827574Y-99075542D01*
X144818719Y-99084406D01*
X144720093Y-99193395D01*
X144708591Y-99208162D01*
X144486331Y-99541551D01*
X144476449Y-99559304D01*
X144410285Y-99704393D01*
X144402225Y-99727948D01*
X144399571Y-99743452D01*
X144382451Y-99901993D01*
X144381893Y-99922303D01*
X144613092Y-104315072D01*
X144614849Y-104330473D01*
X144636027Y-104450451D01*
X144645079Y-104480043D01*
X144694645Y-104591337D01*
X144710586Y-104617862D01*
X144785597Y-104713864D01*
X144795868Y-104725474D01*
X146007866Y-105937472D01*
X146072078Y-106021155D01*
X146109231Y-106110850D01*
X146123000Y-106215435D01*
X146123000Y-108741672D01*
X146109231Y-108846257D01*
X146072077Y-108935955D01*
X146012976Y-109012976D01*
X145935955Y-109072077D01*
X145846257Y-109109231D01*
X145741672Y-109123000D01*
X145500000Y-109123000D01*
X145483423Y-109124086D01*
X145354013Y-109141123D01*
X145321989Y-109149704D01*
X145201399Y-109199654D01*
X145172687Y-109216232D01*
X145069134Y-109295692D01*
X145045692Y-109319134D01*
X144966232Y-109422687D01*
X144949654Y-109451399D01*
X144899704Y-109571989D01*
X144891123Y-109604013D01*
X144874086Y-109733423D01*
X144873000Y-109750000D01*
X144873000Y-114938649D01*
X144857444Y-115049676D01*
X144815601Y-115143978D01*
X144749452Y-115223148D01*
X144664093Y-115281091D01*
X144566096Y-115313342D01*
X144454075Y-115317774D01*
X142968352Y-115169201D01*
X142854164Y-115140538D01*
X142761161Y-115084980D01*
X142688135Y-115004965D01*
X142641285Y-114907287D01*
X142623148Y-114790960D01*
X142381303Y-86011496D01*
X142394333Y-85906268D01*
X142431114Y-85815862D01*
X142490152Y-85738137D01*
X142567369Y-85678455D01*
X142657464Y-85640915D01*
X142762589Y-85627000D01*
X145241672Y-85627000D01*
X145346257Y-85640769D01*
G37*
%TD.AperFunction*%
%TD*%
D25*
%TO.N,+5V*%
X145769128Y-116090385D02*
X145886298Y-116117347D01*
X145982012Y-116172784D01*
X146057171Y-116253947D01*
X146105104Y-116353633D01*
X146123000Y-116472520D01*
X146123000Y-118784565D01*
X146109231Y-118889150D01*
X146072078Y-118978845D01*
X146007866Y-119062528D01*
X145056644Y-120013750D01*
X145045691Y-120026240D01*
X144966231Y-120129794D01*
X144949654Y-120158506D01*
X144899704Y-120279096D01*
X144891123Y-120311120D01*
X144874086Y-120440530D01*
X144873000Y-120457107D01*
X144873000Y-124694216D01*
X144864526Y-124779790D01*
X144750466Y-125350093D01*
X144748084Y-125370393D01*
X144742964Y-125511442D01*
X144744503Y-125536291D01*
X144748036Y-125551870D01*
X144787846Y-125687281D01*
X144797176Y-125710363D01*
X144805461Y-125724023D01*
X144886104Y-125839858D01*
X144902263Y-125858798D01*
X144914448Y-125869130D01*
X145027623Y-125953465D01*
X145048948Y-125966313D01*
X145063776Y-125972255D01*
X145197833Y-126016411D01*
X145222129Y-126021844D01*
X145238078Y-126022785D01*
X145379218Y-126022215D01*
X145399584Y-126020488D01*
X145679605Y-125973817D01*
X145796031Y-125971432D01*
X145899339Y-125999894D01*
X145990231Y-126056646D01*
X146061154Y-126136972D01*
X146106212Y-126234196D01*
X146123000Y-126349430D01*
X146123000Y-128768439D01*
X146107344Y-128879811D01*
X146065234Y-128974364D01*
X145992920Y-129060511D01*
X145080559Y-129881636D01*
X145068246Y-129894381D01*
X144978743Y-130001005D01*
X144960000Y-130030990D01*
X144903364Y-130158159D01*
X144893616Y-130192148D01*
X144874237Y-130330002D01*
X144873000Y-130347681D01*
X144873000Y-134318975D01*
X144874911Y-134340922D01*
X144904775Y-134511135D01*
X144911460Y-134535117D01*
X144919718Y-134552408D01*
X145005743Y-134702287D01*
X145018325Y-134720370D01*
X146029469Y-135933742D01*
X146098898Y-136054706D01*
X146123000Y-136192080D01*
X146123000Y-138961687D01*
X146109440Y-139059037D01*
X146073380Y-139140844D01*
X146016338Y-139209682D01*
X145943158Y-139259966D01*
X145861964Y-139286498D01*
X145777169Y-139288214D01*
X145695556Y-139265151D01*
X145616200Y-139214172D01*
X142011174Y-136059774D01*
X141936653Y-135973069D01*
X141893180Y-135877264D01*
X141877000Y-135764083D01*
X141877000Y-118000000D01*
X141875914Y-117983423D01*
X141858877Y-117854013D01*
X141850296Y-117821989D01*
X141800346Y-117701399D01*
X141783768Y-117672687D01*
X141704308Y-117569134D01*
X141680866Y-117545692D01*
X141577313Y-117466232D01*
X141548601Y-117449654D01*
X141428011Y-117399704D01*
X141395987Y-117391123D01*
X141266577Y-117374086D01*
X141250000Y-117373000D01*
X140258328Y-117373000D01*
X140153743Y-117359231D01*
X140064045Y-117322077D01*
X139987024Y-117262976D01*
X139927923Y-117185955D01*
X139890769Y-117096257D01*
X139877000Y-116991672D01*
X139877000Y-116048672D01*
X139892136Y-115939123D01*
X139932878Y-115845867D01*
X139997386Y-115767145D01*
X140080821Y-115708866D01*
X140176930Y-115675395D01*
X140287310Y-115668706D01*
X145769128Y-116090385D01*
%TA.AperFunction,Conductor*%
D26*
G36*
X145769128Y-116090385D02*
G01*
X145886298Y-116117347D01*
X145982012Y-116172784D01*
X146057171Y-116253947D01*
X146105104Y-116353633D01*
X146123000Y-116472520D01*
X146123000Y-118784565D01*
X146109231Y-118889150D01*
X146072078Y-118978845D01*
X146007866Y-119062528D01*
X145056644Y-120013750D01*
X145045691Y-120026240D01*
X144966231Y-120129794D01*
X144949654Y-120158506D01*
X144899704Y-120279096D01*
X144891123Y-120311120D01*
X144874086Y-120440530D01*
X144873000Y-120457107D01*
X144873000Y-124694216D01*
X144864526Y-124779790D01*
X144750466Y-125350093D01*
X144748084Y-125370393D01*
X144742964Y-125511442D01*
X144744503Y-125536291D01*
X144748036Y-125551870D01*
X144787846Y-125687281D01*
X144797176Y-125710363D01*
X144805461Y-125724023D01*
X144886104Y-125839858D01*
X144902263Y-125858798D01*
X144914448Y-125869130D01*
X145027623Y-125953465D01*
X145048948Y-125966313D01*
X145063776Y-125972255D01*
X145197833Y-126016411D01*
X145222129Y-126021844D01*
X145238078Y-126022785D01*
X145379218Y-126022215D01*
X145399584Y-126020488D01*
X145679605Y-125973817D01*
X145796031Y-125971432D01*
X145899339Y-125999894D01*
X145990231Y-126056646D01*
X146061154Y-126136972D01*
X146106212Y-126234196D01*
X146123000Y-126349430D01*
X146123000Y-128768439D01*
X146107344Y-128879811D01*
X146065234Y-128974364D01*
X145992920Y-129060511D01*
X145080559Y-129881636D01*
X145068246Y-129894381D01*
X144978743Y-130001005D01*
X144960000Y-130030990D01*
X144903364Y-130158159D01*
X144893616Y-130192148D01*
X144874237Y-130330002D01*
X144873000Y-130347681D01*
X144873000Y-134318975D01*
X144874911Y-134340922D01*
X144904775Y-134511135D01*
X144911460Y-134535117D01*
X144919718Y-134552408D01*
X145005743Y-134702287D01*
X145018325Y-134720370D01*
X146029469Y-135933742D01*
X146098898Y-136054706D01*
X146123000Y-136192080D01*
X146123000Y-138961687D01*
X146109440Y-139059037D01*
X146073380Y-139140844D01*
X146016338Y-139209682D01*
X145943158Y-139259966D01*
X145861964Y-139286498D01*
X145777169Y-139288214D01*
X145695556Y-139265151D01*
X145616200Y-139214172D01*
X142011174Y-136059774D01*
X141936653Y-135973069D01*
X141893180Y-135877264D01*
X141877000Y-135764083D01*
X141877000Y-118000000D01*
X141875914Y-117983423D01*
X141858877Y-117854013D01*
X141850296Y-117821989D01*
X141800346Y-117701399D01*
X141783768Y-117672687D01*
X141704308Y-117569134D01*
X141680866Y-117545692D01*
X141577313Y-117466232D01*
X141548601Y-117449654D01*
X141428011Y-117399704D01*
X141395987Y-117391123D01*
X141266577Y-117374086D01*
X141250000Y-117373000D01*
X140258328Y-117373000D01*
X140153743Y-117359231D01*
X140064045Y-117322077D01*
X139987024Y-117262976D01*
X139927923Y-117185955D01*
X139890769Y-117096257D01*
X139877000Y-116991672D01*
X139877000Y-116048672D01*
X139892136Y-115939123D01*
X139932878Y-115845867D01*
X139997386Y-115767145D01*
X140080821Y-115708866D01*
X140176930Y-115675395D01*
X140287310Y-115668706D01*
X145769128Y-116090385D01*
G37*
%TD.AperFunction*%
%TD*%
D25*
%TO.N,+5V*%
X133096257Y-82140769D02*
X133185955Y-82177923D01*
X133262976Y-82237024D01*
X133322077Y-82314045D01*
X133359231Y-82403743D01*
X133373000Y-82508328D01*
X133373000Y-83220189D01*
X133358498Y-83327465D01*
X133319416Y-83419107D01*
X133257405Y-83497082D01*
X133176910Y-83555797D01*
X133083720Y-83591031D01*
X132975938Y-83601053D01*
X127735547Y-83382704D01*
X127625371Y-83362574D01*
X127532963Y-83316923D01*
X127450025Y-83241651D01*
X126978333Y-82675620D01*
X126924767Y-82588864D01*
X126900006Y-82499378D01*
X126901235Y-82406530D01*
X126928358Y-82317728D01*
X126979218Y-82240036D01*
X127049755Y-82179655D01*
X127134356Y-82141388D01*
X127235288Y-82127000D01*
X132991672Y-82127000D01*
X133096257Y-82140769D01*
%TA.AperFunction,Conductor*%
D26*
G36*
X133096257Y-82140769D02*
G01*
X133185955Y-82177923D01*
X133262976Y-82237024D01*
X133322077Y-82314045D01*
X133359231Y-82403743D01*
X133373000Y-82508328D01*
X133373000Y-83220189D01*
X133358498Y-83327465D01*
X133319416Y-83419107D01*
X133257405Y-83497082D01*
X133176910Y-83555797D01*
X133083720Y-83591031D01*
X132975938Y-83601053D01*
X127735547Y-83382704D01*
X127625371Y-83362574D01*
X127532963Y-83316923D01*
X127450025Y-83241651D01*
X126978333Y-82675620D01*
X126924767Y-82588864D01*
X126900006Y-82499378D01*
X126901235Y-82406530D01*
X126928358Y-82317728D01*
X126979218Y-82240036D01*
X127049755Y-82179655D01*
X127134356Y-82141388D01*
X127235288Y-82127000D01*
X132991672Y-82127000D01*
X133096257Y-82140769D01*
G37*
%TD.AperFunction*%
%TD*%
D25*
%TO.N,+5V*%
X144414635Y-124393784D02*
X144511843Y-124438830D01*
X144592167Y-124509737D01*
X144648923Y-124600611D01*
X144679871Y-124712870D01*
X144774438Y-125469414D01*
X144772153Y-125585369D01*
X144739816Y-125687073D01*
X144679915Y-125775394D01*
X144597383Y-125843053D01*
X144499031Y-125884471D01*
X144392961Y-125896233D01*
X144278813Y-125875734D01*
X143141468Y-125496619D01*
X143029968Y-125438871D01*
X142948675Y-125356803D01*
X142896525Y-125253730D01*
X142877000Y-125129687D01*
X142877000Y-124758328D01*
X142890769Y-124653743D01*
X142927923Y-124564045D01*
X142987024Y-124487024D01*
X143064045Y-124427923D01*
X143153743Y-124390769D01*
X143258328Y-124377000D01*
X144299407Y-124377000D01*
X144414635Y-124393784D01*
%TA.AperFunction,Conductor*%
D26*
G36*
X144414635Y-124393784D02*
G01*
X144511843Y-124438830D01*
X144592167Y-124509737D01*
X144648923Y-124600611D01*
X144679871Y-124712870D01*
X144774438Y-125469414D01*
X144772153Y-125585369D01*
X144739816Y-125687073D01*
X144679915Y-125775394D01*
X144597383Y-125843053D01*
X144499031Y-125884471D01*
X144392961Y-125896233D01*
X144278813Y-125875734D01*
X143141468Y-125496619D01*
X143029968Y-125438871D01*
X142948675Y-125356803D01*
X142896525Y-125253730D01*
X142877000Y-125129687D01*
X142877000Y-124758328D01*
X142890769Y-124653743D01*
X142927923Y-124564045D01*
X142987024Y-124487024D01*
X143064045Y-124427923D01*
X143153743Y-124390769D01*
X143258328Y-124377000D01*
X144299407Y-124377000D01*
X144414635Y-124393784D01*
G37*
%TD.AperFunction*%
%TD*%
D25*
%TO.N,+5V*%
X124596257Y-116140769D02*
X124685955Y-116177923D01*
X124762976Y-116237024D01*
X124822077Y-116314045D01*
X124859231Y-116403743D01*
X124873000Y-116508328D01*
X124873000Y-124783527D01*
X124855610Y-124900763D01*
X124808982Y-124999349D01*
X124735746Y-125080153D01*
X124642211Y-125136216D01*
X124536424Y-125162715D01*
X124427502Y-125157363D01*
X124324824Y-125120624D01*
X124229630Y-125050024D01*
X122736250Y-123556644D01*
X122723760Y-123545691D01*
X122620206Y-123466231D01*
X122591494Y-123449654D01*
X122470904Y-123399704D01*
X122438880Y-123391123D01*
X122309470Y-123374086D01*
X122292893Y-123373000D01*
X114631840Y-123373000D01*
X114517129Y-123356370D01*
X114420273Y-123311723D01*
X114340078Y-123241405D01*
X114283159Y-123151212D01*
X114254195Y-123048561D01*
X114255575Y-122941919D01*
X114287184Y-122840059D01*
X114351560Y-122743668D01*
X120189489Y-116257080D01*
X120275636Y-116184766D01*
X120370189Y-116142656D01*
X120481561Y-116127000D01*
X124491672Y-116127000D01*
X124596257Y-116140769D01*
%TA.AperFunction,Conductor*%
D26*
G36*
X124596257Y-116140769D02*
G01*
X124685955Y-116177923D01*
X124762976Y-116237024D01*
X124822077Y-116314045D01*
X124859231Y-116403743D01*
X124873000Y-116508328D01*
X124873000Y-124783527D01*
X124855610Y-124900763D01*
X124808982Y-124999349D01*
X124735746Y-125080153D01*
X124642211Y-125136216D01*
X124536424Y-125162715D01*
X124427502Y-125157363D01*
X124324824Y-125120624D01*
X124229630Y-125050024D01*
X122736250Y-123556644D01*
X122723760Y-123545691D01*
X122620206Y-123466231D01*
X122591494Y-123449654D01*
X122470904Y-123399704D01*
X122438880Y-123391123D01*
X122309470Y-123374086D01*
X122292893Y-123373000D01*
X114631840Y-123373000D01*
X114517129Y-123356370D01*
X114420273Y-123311723D01*
X114340078Y-123241405D01*
X114283159Y-123151212D01*
X114254195Y-123048561D01*
X114255575Y-122941919D01*
X114287184Y-122840059D01*
X114351560Y-122743668D01*
X120189489Y-116257080D01*
X120275636Y-116184766D01*
X120370189Y-116142656D01*
X120481561Y-116127000D01*
X124491672Y-116127000D01*
X124596257Y-116140769D01*
G37*
%TD.AperFunction*%
%TD*%
D25*
%TO.N,+5V*%
X128308660Y-112442427D02*
X128408646Y-112473323D01*
X128496057Y-112530863D01*
X128563967Y-112610488D01*
X128606991Y-112705882D01*
X128623000Y-112818479D01*
X128623000Y-124284565D01*
X128609231Y-124389150D01*
X128572078Y-124478845D01*
X128507866Y-124562528D01*
X125498052Y-127572342D01*
X125403693Y-127642496D01*
X125301953Y-127679306D01*
X125193926Y-127685251D01*
X125088758Y-127659829D01*
X124995377Y-127605197D01*
X124921685Y-127525979D01*
X124873932Y-127428893D01*
X124854624Y-127312903D01*
X124631718Y-115498870D01*
X124647529Y-115379105D01*
X124694010Y-115278154D01*
X124774726Y-115188278D01*
X128005947Y-112527272D01*
X128103037Y-112468054D01*
X128204026Y-112440622D01*
X128308660Y-112442427D01*
%TA.AperFunction,Conductor*%
D26*
G36*
X128308660Y-112442427D02*
G01*
X128408646Y-112473323D01*
X128496057Y-112530863D01*
X128563967Y-112610488D01*
X128606991Y-112705882D01*
X128623000Y-112818479D01*
X128623000Y-124284565D01*
X128609231Y-124389150D01*
X128572078Y-124478845D01*
X128507866Y-124562528D01*
X125498052Y-127572342D01*
X125403693Y-127642496D01*
X125301953Y-127679306D01*
X125193926Y-127685251D01*
X125088758Y-127659829D01*
X124995377Y-127605197D01*
X124921685Y-127525979D01*
X124873932Y-127428893D01*
X124854624Y-127312903D01*
X124631718Y-115498870D01*
X124647529Y-115379105D01*
X124694010Y-115278154D01*
X124774726Y-115188278D01*
X128005947Y-112527272D01*
X128103037Y-112468054D01*
X128204026Y-112440622D01*
X128308660Y-112442427D01*
G37*
%TD.AperFunction*%
%TD*%
D25*
%TO.N,+5V*%
X135560768Y-84195540D02*
X135660195Y-84226827D01*
X135747021Y-84284483D01*
X135814430Y-84363981D01*
X135857120Y-84459071D01*
X135873000Y-84571221D01*
X135873000Y-102042311D01*
X135860110Y-102143562D01*
X135825271Y-102230819D01*
X135764880Y-102313103D01*
X131295425Y-107017792D01*
X131285116Y-107030120D01*
X131210394Y-107131931D01*
X131194832Y-107159981D01*
X131148003Y-107277267D01*
X131139966Y-107308321D01*
X131124017Y-107433599D01*
X131123000Y-107449638D01*
X131123000Y-122797648D01*
X131110704Y-122896577D01*
X131077432Y-122982112D01*
X131019649Y-123063345D01*
X129293999Y-124945872D01*
X129211157Y-125014940D01*
X129120808Y-125056071D01*
X129022797Y-125071832D01*
X128924107Y-125061100D01*
X128831772Y-125024640D01*
X128752379Y-124965054D01*
X128691576Y-124886580D01*
X128653703Y-124794820D01*
X128640396Y-124687777D01*
X128874901Y-101706295D01*
X128888513Y-101606332D01*
X128923438Y-101520296D01*
X128983345Y-101439137D01*
X133692141Y-96494903D01*
X133703213Y-96481561D01*
X133782837Y-96371056D01*
X133799050Y-96340494D01*
X133845898Y-96212601D01*
X133853262Y-96178799D01*
X133863858Y-96043008D01*
X133864024Y-96025670D01*
X133639077Y-92201579D01*
X133636988Y-92184933D01*
X133611970Y-92055512D01*
X133601337Y-92023763D01*
X133543365Y-91905378D01*
X133524805Y-91877511D01*
X133437910Y-91778390D01*
X133426041Y-91766533D01*
X131771480Y-90318792D01*
X131693865Y-90227153D01*
X131650403Y-90125564D01*
X131637722Y-90006142D01*
X131858006Y-84939613D01*
X131878836Y-84827984D01*
X131925837Y-84734653D01*
X131996957Y-84658092D01*
X132086576Y-84604349D01*
X132196367Y-84575362D01*
X135447530Y-84192873D01*
X135560768Y-84195540D01*
%TA.AperFunction,Conductor*%
D26*
G36*
X135560768Y-84195540D02*
G01*
X135660195Y-84226827D01*
X135747021Y-84284483D01*
X135814430Y-84363981D01*
X135857120Y-84459071D01*
X135873000Y-84571221D01*
X135873000Y-102042311D01*
X135860110Y-102143562D01*
X135825271Y-102230819D01*
X135764880Y-102313103D01*
X131295425Y-107017792D01*
X131285116Y-107030120D01*
X131210394Y-107131931D01*
X131194832Y-107159981D01*
X131148003Y-107277267D01*
X131139966Y-107308321D01*
X131124017Y-107433599D01*
X131123000Y-107449638D01*
X131123000Y-122797648D01*
X131110704Y-122896577D01*
X131077432Y-122982112D01*
X131019649Y-123063345D01*
X129293999Y-124945872D01*
X129211157Y-125014940D01*
X129120808Y-125056071D01*
X129022797Y-125071832D01*
X128924107Y-125061100D01*
X128831772Y-125024640D01*
X128752379Y-124965054D01*
X128691576Y-124886580D01*
X128653703Y-124794820D01*
X128640396Y-124687777D01*
X128874901Y-101706295D01*
X128888513Y-101606332D01*
X128923438Y-101520296D01*
X128983345Y-101439137D01*
X133692141Y-96494903D01*
X133703213Y-96481561D01*
X133782837Y-96371056D01*
X133799050Y-96340494D01*
X133845898Y-96212601D01*
X133853262Y-96178799D01*
X133863858Y-96043008D01*
X133864024Y-96025670D01*
X133639077Y-92201579D01*
X133636988Y-92184933D01*
X133611970Y-92055512D01*
X133601337Y-92023763D01*
X133543365Y-91905378D01*
X133524805Y-91877511D01*
X133437910Y-91778390D01*
X133426041Y-91766533D01*
X131771480Y-90318792D01*
X131693865Y-90227153D01*
X131650403Y-90125564D01*
X131637722Y-90006142D01*
X131858006Y-84939613D01*
X131878836Y-84827984D01*
X131925837Y-84734653D01*
X131996957Y-84658092D01*
X132086576Y-84604349D01*
X132196367Y-84575362D01*
X135447530Y-84192873D01*
X135560768Y-84195540D01*
G37*
%TD.AperFunction*%
%TD*%
M02*
